<?xml version="1.0" encoding="UTF-8"?>
<svg xmlns="http://www.w3.org/2000/svg" xmlns:xlink="http://www.w3.org/1999/xlink" width="600pt" height="600pt" viewBox="0 0 600 600" version="1.1">
<g id="surface868">
<rect x="0" y="0" width="600" height="600" style="fill:rgb(100%,100%,100%);fill-opacity:1;stroke:none;"/>
<path style="fill-rule:nonzero;fill:rgb(26.700401%,0.4874%,32.941499%);fill-opacity:1;stroke-width:1;stroke-linecap:butt;stroke-linejoin:miter;stroke:rgb(26.700401%,0.4874%,32.941499%);stroke-opacity:1;stroke-miterlimit:10;" d="M 448.867188 179.84375 L 449.273438 177.71875 L 383.421875 162.675781 L 382.089844 169.691406 Z M 448.867188 179.84375 "/>
<path style="fill-rule:nonzero;fill:rgb(26.700401%,0.4874%,32.941499%);fill-opacity:1;stroke-width:1;stroke-linecap:butt;stroke-linejoin:miter;stroke:rgb(26.700401%,0.4874%,32.941499%);stroke-opacity:1;stroke-miterlimit:10;" d="M 449.070312 179.863281 L 448.964844 179.855469 L 448.855469 179.839844 L 448.753906 179.8125 L 448.652344 179.777344 L 448.554688 179.730469 L 448.460938 179.675781 L 448.375 179.609375 L 448.296875 179.535156 L 448.226562 179.453125 L 448.164062 179.367188 L 448.109375 179.273438 L 448.0625 179.175781 L 448.03125 179.074219 L 448.003906 178.96875 L 447.992188 178.863281 L 447.988281 178.753906 L 447.996094 178.644531 L 448.015625 178.539062 L 448.046875 178.4375 L 448.085938 178.335938 L 448.132812 178.238281 L 448.191406 178.148438 L 448.261719 178.066406 L 448.335938 177.988281 L 448.417969 177.917969 L 448.507812 177.859375 L 448.601562 177.804688 L 448.699219 177.765625 L 448.804688 177.730469 L 448.910156 177.710938 L 449.015625 177.699219 L 449.125 177.699219 L 449.230469 177.710938 L 449.335938 177.730469 L 449.441406 177.765625 L 449.539062 177.804688 L 449.636719 177.859375 L 449.722656 177.917969 L 449.804688 177.988281 L 449.882812 178.066406 L 449.949219 178.148438 L 450.007812 178.238281 L 450.058594 178.335938 L 450.097656 178.4375 L 450.125 178.539062 L 450.144531 178.644531 L 450.152344 178.753906 L 450.148438 178.863281 L 450.136719 178.96875 L 450.113281 179.074219 L 450.078125 179.175781 L 450.035156 179.273438 L 449.980469 179.367188 L 449.917969 179.453125 L 449.84375 179.535156 L 449.765625 179.609375 L 449.679688 179.675781 L 449.589844 179.730469 L 449.492188 179.777344 L 449.390625 179.8125 L 449.285156 179.839844 L 449.179688 179.855469 Z M 449.070312 179.863281 "/>
<path style="fill-rule:nonzero;fill:rgb(26.700401%,0.4874%,32.941499%);fill-opacity:1;stroke-width:1;stroke-linecap:butt;stroke-linejoin:miter;stroke:rgb(26.700401%,0.4874%,32.941499%);stroke-opacity:1;stroke-miterlimit:10;" d="M 449.554688 156.40625 L 449.207031 154.273438 L 382.183594 162.660156 L 383.332031 169.710938 Z M 449.554688 156.40625 "/>
<path style="fill-rule:nonzero;fill:rgb(26.700401%,0.4874%,32.941499%);fill-opacity:1;stroke-width:1;stroke-linecap:butt;stroke-linejoin:miter;stroke:rgb(26.700401%,0.4874%,32.941499%);stroke-opacity:1;stroke-miterlimit:10;" d="M 449.378906 156.421875 L 449.273438 156.417969 L 449.164062 156.398438 L 449.0625 156.375 L 448.960938 156.335938 L 448.863281 156.289062 L 448.769531 156.234375 L 448.683594 156.167969 L 448.605469 156.09375 L 448.535156 156.015625 L 448.472656 155.925781 L 448.417969 155.832031 L 448.375 155.734375 L 448.339844 155.632812 L 448.316406 155.527344 L 448.300781 155.421875 L 448.296875 155.3125 L 448.308594 155.207031 L 448.324219 155.097656 L 448.355469 154.996094 L 448.394531 154.894531 L 448.441406 154.800781 L 448.5 154.707031 L 448.570312 154.625 L 448.644531 154.546875 L 448.726562 154.476562 L 448.816406 154.417969 L 448.910156 154.367188 L 449.011719 154.324219 L 449.113281 154.292969 L 449.21875 154.269531 L 449.324219 154.257812 L 449.433594 154.257812 L 449.542969 154.269531 L 449.648438 154.292969 L 449.75 154.324219 L 449.847656 154.367188 L 449.945312 154.417969 L 450.03125 154.476562 L 450.117188 154.546875 L 450.191406 154.625 L 450.257812 154.707031 L 450.316406 154.800781 L 450.367188 154.894531 L 450.40625 154.996094 L 450.433594 155.097656 L 450.453125 155.207031 L 450.460938 155.3125 L 450.457031 155.421875 L 450.445312 155.527344 L 450.421875 155.632812 L 450.386719 155.734375 L 450.34375 155.832031 L 450.289062 155.925781 L 450.226562 156.015625 L 450.15625 156.09375 L 450.074219 156.167969 L 449.988281 156.234375 L 449.898438 156.289062 L 449.800781 156.335938 L 449.699219 156.375 L 449.59375 156.398438 L 449.488281 156.417969 Z M 449.378906 156.421875 "/>
<path style="fill-rule:nonzero;fill:rgb(26.700401%,0.4874%,32.941499%);fill-opacity:1;stroke-width:1;stroke-linecap:butt;stroke-linejoin:miter;stroke:rgb(26.700401%,0.4874%,32.941499%);stroke-opacity:1;stroke-miterlimit:10;" d="M 442.183594 134.152344 L 441.125 132.265625 L 381.011719 163.066406 L 384.5 169.300781 Z M 442.183594 134.152344 "/>
<path style="fill-rule:nonzero;fill:rgb(26.700401%,0.4874%,32.941499%);fill-opacity:1;stroke-width:1;stroke-linecap:butt;stroke-linejoin:miter;stroke:rgb(26.700401%,0.4874%,32.941499%);stroke-opacity:1;stroke-miterlimit:10;" d="M 441.652344 134.289062 L 441.546875 134.285156 L 441.4375 134.269531 L 441.335938 134.242188 L 441.234375 134.203125 L 441.136719 134.15625 L 441.042969 134.101562 L 440.957031 134.035156 L 440.878906 133.960938 L 440.808594 133.882812 L 440.746094 133.792969 L 440.691406 133.699219 L 440.644531 133.601562 L 440.613281 133.5 L 440.589844 133.394531 L 440.574219 133.289062 L 440.570312 133.179688 L 440.578125 133.074219 L 440.597656 132.96875 L 440.628906 132.863281 L 440.667969 132.761719 L 440.714844 132.667969 L 440.773438 132.578125 L 440.84375 132.492188 L 440.917969 132.414062 L 441 132.34375 L 441.089844 132.285156 L 441.183594 132.234375 L 441.285156 132.191406 L 441.386719 132.160156 L 441.492188 132.136719 L 441.597656 132.128906 L 441.707031 132.128906 L 441.8125 132.136719 L 441.921875 132.160156 L 442.023438 132.191406 L 442.121094 132.234375 L 442.21875 132.285156 L 442.304688 132.34375 L 442.390625 132.414062 L 442.464844 132.492188 L 442.53125 132.578125 L 442.589844 132.667969 L 442.640625 132.761719 L 442.679688 132.863281 L 442.707031 132.96875 L 442.726562 133.074219 L 442.734375 133.179688 L 442.730469 133.289062 L 442.71875 133.394531 L 442.695312 133.5 L 442.660156 133.601562 L 442.617188 133.699219 L 442.5625 133.792969 L 442.5 133.882812 L 442.425781 133.960938 L 442.347656 134.035156 L 442.261719 134.101562 L 442.171875 134.15625 L 442.074219 134.203125 L 441.972656 134.242188 L 441.867188 134.269531 L 441.761719 134.285156 Z M 441.652344 134.289062 "/>
<path style="fill-rule:nonzero;fill:rgb(26.700401%,0.4874%,32.941499%);fill-opacity:1;stroke-width:1;stroke-linecap:butt;stroke-linejoin:miter;stroke:rgb(26.700401%,0.4874%,32.941499%);stroke-opacity:1;stroke-miterlimit:10;" d="M 427.640625 115.757812 L 426.003906 114.347656 L 380.050781 163.851562 L 385.460938 168.515625 Z M 427.640625 115.757812 "/>
<path style="fill-rule:nonzero;fill:rgb(26.700401%,0.4874%,32.941499%);fill-opacity:1;stroke-width:1;stroke-linecap:butt;stroke-linejoin:miter;stroke:rgb(26.700401%,0.4874%,32.941499%);stroke-opacity:1;stroke-miterlimit:10;" d="M 426.824219 116.132812 L 426.714844 116.128906 L 426.609375 116.113281 L 426.503906 116.085938 L 426.402344 116.050781 L 426.304688 116.003906 L 426.214844 115.945312 L 426.128906 115.882812 L 426.046875 115.808594 L 425.976562 115.726562 L 425.914062 115.640625 L 425.859375 115.546875 L 425.816406 115.449219 L 425.78125 115.34375 L 425.757812 115.242188 L 425.742188 115.132812 L 425.742188 115.027344 L 425.75 114.917969 L 425.769531 114.8125 L 425.796875 114.707031 L 425.835938 114.609375 L 425.886719 114.511719 L 425.945312 114.421875 L 426.011719 114.335938 L 426.085938 114.257812 L 426.167969 114.191406 L 426.257812 114.128906 L 426.351562 114.078125 L 426.453125 114.035156 L 426.554688 114.003906 L 426.660156 113.984375 L 426.769531 113.972656 L 426.875 113.972656 L 426.984375 113.984375 L 427.089844 114.003906 L 427.191406 114.035156 L 427.292969 114.078125 L 427.386719 114.128906 L 427.476562 114.191406 L 427.558594 114.257812 L 427.632812 114.335938 L 427.699219 114.421875 L 427.757812 114.511719 L 427.808594 114.609375 L 427.847656 114.707031 L 427.878906 114.8125 L 427.894531 114.917969 L 427.902344 115.027344 L 427.902344 115.132812 L 427.886719 115.242188 L 427.863281 115.34375 L 427.828125 115.449219 L 427.785156 115.546875 L 427.730469 115.640625 L 427.667969 115.726562 L 427.597656 115.808594 L 427.519531 115.882812 L 427.433594 115.945312 L 427.339844 116.003906 L 427.242188 116.050781 L 427.140625 116.085938 L 427.039062 116.113281 L 426.929688 116.128906 Z M 426.824219 116.132812 "/>
<path style="fill-rule:nonzero;fill:rgb(26.700401%,0.4874%,32.941499%);fill-opacity:1;stroke-width:1;stroke-linecap:butt;stroke-linejoin:miter;stroke:rgb(26.700401%,0.4874%,32.941499%);stroke-opacity:1;stroke-miterlimit:10;" d="M 407.6875 103.449219 L 405.664062 102.679688 L 379.417969 164.917969 L 386.097656 167.449219 Z M 407.6875 103.449219 "/>
<path style="fill-rule:nonzero;fill:rgb(26.700401%,0.4874%,32.941499%);fill-opacity:1;stroke-width:1;stroke-linecap:butt;stroke-linejoin:miter;stroke:rgb(26.700401%,0.4874%,32.941499%);stroke-opacity:1;stroke-miterlimit:10;" d="M 406.675781 104.144531 L 406.570312 104.140625 L 406.464844 104.125 L 406.359375 104.097656 L 406.257812 104.0625 L 406.160156 104.015625 L 406.066406 103.957031 L 405.980469 103.894531 L 405.902344 103.820312 L 405.832031 103.738281 L 405.769531 103.652344 L 405.714844 103.558594 L 405.671875 103.460938 L 405.636719 103.359375 L 405.613281 103.253906 L 405.597656 103.144531 L 405.597656 103.039062 L 405.605469 102.929688 L 405.621094 102.824219 L 405.652344 102.71875 L 405.691406 102.621094 L 405.742188 102.523438 L 405.800781 102.433594 L 405.867188 102.347656 L 405.941406 102.273438 L 406.023438 102.203125 L 406.113281 102.140625 L 406.207031 102.089844 L 406.308594 102.046875 L 406.410156 102.015625 L 406.515625 101.996094 L 406.625 101.984375 L 406.730469 101.984375 L 406.839844 101.996094 L 406.945312 102.015625 L 407.046875 102.046875 L 407.148438 102.089844 L 407.242188 102.140625 L 407.332031 102.203125 L 407.414062 102.273438 L 407.488281 102.347656 L 407.554688 102.433594 L 407.613281 102.523438 L 407.664062 102.621094 L 407.703125 102.71875 L 407.730469 102.824219 L 407.75 102.929688 L 407.757812 103.039062 L 407.757812 103.144531 L 407.742188 103.253906 L 407.71875 103.359375 L 407.683594 103.460938 L 407.640625 103.558594 L 407.585938 103.652344 L 407.523438 103.738281 L 407.453125 103.820312 L 407.371094 103.894531 L 407.285156 103.957031 L 407.195312 104.015625 L 407.097656 104.0625 L 406.996094 104.097656 L 406.890625 104.125 L 406.785156 104.140625 Z M 406.675781 104.144531 "/>
<path style="fill-rule:nonzero;fill:rgb(26.700401%,0.4874%,32.941499%);fill-opacity:1;stroke-width:1;stroke-linecap:butt;stroke-linejoin:miter;stroke:rgb(26.700401%,0.4874%,32.941499%);stroke-opacity:1;stroke-miterlimit:10;" d="M 384.726562 98.703125 L 382.566406 98.675781 L 379.183594 166.136719 L 386.328125 166.230469 Z M 384.726562 98.703125 "/>
<path style="fill-rule:nonzero;fill:rgb(26.700401%,0.4874%,32.941499%);fill-opacity:1;stroke-width:1;stroke-linecap:butt;stroke-linejoin:miter;stroke:rgb(26.700401%,0.4874%,32.941499%);stroke-opacity:1;stroke-miterlimit:10;" d="M 383.648438 99.773438 L 383.539062 99.765625 L 383.433594 99.75 L 383.328125 99.722656 L 383.226562 99.6875 L 383.128906 99.640625 L 383.039062 99.582031 L 382.953125 99.519531 L 382.871094 99.445312 L 382.800781 99.363281 L 382.738281 99.277344 L 382.683594 99.183594 L 382.640625 99.085938 L 382.605469 98.984375 L 382.582031 98.878906 L 382.566406 98.769531 L 382.566406 98.664062 L 382.574219 98.554688 L 382.59375 98.449219 L 382.621094 98.34375 L 382.660156 98.246094 L 382.710938 98.148438 L 382.769531 98.058594 L 382.835938 97.972656 L 382.910156 97.898438 L 382.992188 97.828125 L 383.082031 97.765625 L 383.175781 97.714844 L 383.277344 97.671875 L 383.378906 97.640625 L 383.484375 97.621094 L 383.59375 97.609375 L 383.699219 97.609375 L 383.808594 97.621094 L 383.914062 97.640625 L 384.015625 97.671875 L 384.117188 97.714844 L 384.210938 97.765625 L 384.300781 97.828125 L 384.382812 97.898438 L 384.457031 97.972656 L 384.523438 98.058594 L 384.582031 98.148438 L 384.632812 98.246094 L 384.671875 98.34375 L 384.699219 98.449219 L 384.71875 98.554688 L 384.726562 98.664062 L 384.726562 98.769531 L 384.710938 98.878906 L 384.6875 98.984375 L 384.652344 99.085938 L 384.609375 99.183594 L 384.554688 99.277344 L 384.492188 99.363281 L 384.421875 99.445312 L 384.34375 99.519531 L 384.257812 99.582031 L 384.164062 99.640625 L 384.066406 99.6875 L 383.964844 99.722656 L 383.859375 99.75 L 383.753906 99.765625 Z M 383.648438 99.773438 "/>
<path style="fill-rule:nonzero;fill:rgb(25.393501%,26.525399%,52.998298%);fill-opacity:1;stroke-width:1;stroke-linecap:butt;stroke-linejoin:miter;stroke:rgb(25.393501%,26.525399%,52.998298%);stroke-opacity:1;stroke-miterlimit:10;" d="M 385.015625 168.949219 L 380.496094 163.417969 L 309.46875 218.730469 L 316.644531 227.511719 Z M 385.015625 168.949219 "/>
<path style="fill-rule:nonzero;fill:rgb(25.393501%,26.525399%,52.998298%);fill-opacity:1;stroke-width:1;stroke-linecap:butt;stroke-linejoin:miter;stroke:rgb(25.393501%,26.525399%,52.998298%);stroke-opacity:1;stroke-miterlimit:10;" d="M 382.757812 169.753906 L 382.402344 169.738281 L 382.050781 169.683594 L 381.703125 169.597656 L 381.371094 169.476562 L 381.046875 169.320312 L 380.746094 169.136719 L 380.460938 168.921875 L 380.199219 168.679688 L 379.964844 168.410156 L 379.757812 168.121094 L 379.578125 167.8125 L 379.433594 167.488281 L 379.320312 167.152344 L 379.238281 166.804688 L 379.195312 166.449219 L 379.1875 166.09375 L 379.210938 165.738281 L 379.273438 165.390625 L 379.371094 165.046875 L 379.5 164.714844 L 379.664062 164.398438 L 379.855469 164.097656 L 380.078125 163.820312 L 380.328125 163.566406 L 380.601562 163.335938 L 380.894531 163.136719 L 381.207031 162.964844 L 381.535156 162.828125 L 381.875 162.722656 L 382.222656 162.652344 L 382.578125 162.617188 L 382.933594 162.617188 L 383.289062 162.652344 L 383.636719 162.722656 L 383.976562 162.828125 L 384.304688 162.964844 L 384.617188 163.136719 L 384.914062 163.335938 L 385.1875 163.566406 L 385.433594 163.820312 L 385.65625 164.097656 L 385.851562 164.398438 L 386.011719 164.714844 L 386.140625 165.046875 L 386.238281 165.390625 L 386.300781 165.738281 L 386.328125 166.09375 L 386.320312 166.449219 L 386.273438 166.804688 L 386.195312 167.152344 L 386.082031 167.488281 L 385.933594 167.8125 L 385.757812 168.121094 L 385.550781 168.410156 L 385.3125 168.679688 L 385.050781 168.921875 L 384.769531 169.136719 L 384.464844 169.320312 L 384.144531 169.476562 L 383.808594 169.597656 L 383.464844 169.683594 L 383.113281 169.738281 Z M 382.757812 169.753906 "/>
<path style="fill-rule:nonzero;fill:rgb(26.700401%,0.4874%,32.941499%);fill-opacity:1;stroke-width:1;stroke-linecap:butt;stroke-linejoin:miter;stroke:rgb(26.700401%,0.4874%,32.941499%);stroke-opacity:1;stroke-miterlimit:10;" d="M 365.886719 90.730469 L 364.503906 89.070312 L 311.058594 130.378906 L 315.632812 135.863281 Z M 365.886719 90.730469 "/>
<path style="fill-rule:nonzero;fill:rgb(26.700401%,0.4874%,32.941499%);fill-opacity:1;stroke-width:1;stroke-linecap:butt;stroke-linejoin:miter;stroke:rgb(26.700401%,0.4874%,32.941499%);stroke-opacity:1;stroke-miterlimit:10;" d="M 365.195312 90.984375 L 365.085938 90.976562 L 364.980469 90.960938 L 364.875 90.933594 L 364.773438 90.898438 L 364.679688 90.851562 L 364.585938 90.792969 L 364.5 90.730469 L 364.421875 90.65625 L 364.351562 90.574219 L 364.285156 90.488281 L 364.234375 90.394531 L 364.1875 90.296875 L 364.152344 90.195312 L 364.128906 90.089844 L 364.117188 89.980469 L 364.113281 89.875 L 364.121094 89.765625 L 364.140625 89.660156 L 364.171875 89.554688 L 364.210938 89.457031 L 364.257812 89.359375 L 364.316406 89.269531 L 364.382812 89.183594 L 364.460938 89.109375 L 364.542969 89.039062 L 364.632812 88.976562 L 364.726562 88.925781 L 364.824219 88.882812 L 364.929688 88.851562 L 365.035156 88.832031 L 365.140625 88.820312 L 365.25 88.820312 L 365.355469 88.832031 L 365.460938 88.851562 L 365.566406 88.882812 L 365.664062 88.925781 L 365.757812 88.976562 L 365.847656 89.039062 L 365.929688 89.109375 L 366.007812 89.183594 L 366.074219 89.269531 L 366.132812 89.359375 L 366.179688 89.457031 L 366.21875 89.554688 L 366.25 89.660156 L 366.269531 89.765625 L 366.277344 89.875 L 366.273438 89.980469 L 366.261719 90.089844 L 366.238281 90.195312 L 366.203125 90.296875 L 366.15625 90.394531 L 366.105469 90.488281 L 366.039062 90.574219 L 365.96875 90.65625 L 365.890625 90.730469 L 365.804688 90.792969 L 365.710938 90.851562 L 365.617188 90.898438 L 365.515625 90.933594 L 365.410156 90.960938 L 365.304688 90.976562 Z M 365.195312 90.984375 "/>
<path style="fill-rule:nonzero;fill:rgb(26.700401%,0.4874%,32.941499%);fill-opacity:1;stroke-width:1;stroke-linecap:butt;stroke-linejoin:miter;stroke:rgb(26.700401%,0.4874%,32.941499%);stroke-opacity:1;stroke-miterlimit:10;" d="M 348.222656 75.316406 L 346.351562 74.230469 L 310.261719 131.324219 L 316.433594 134.917969 Z M 348.222656 75.316406 "/>
<path style="fill-rule:nonzero;fill:rgb(26.700401%,0.4874%,32.941499%);fill-opacity:1;stroke-width:1;stroke-linecap:butt;stroke-linejoin:miter;stroke:rgb(26.700401%,0.4874%,32.941499%);stroke-opacity:1;stroke-miterlimit:10;" d="M 347.285156 75.855469 L 347.179688 75.851562 L 347.070312 75.835938 L 346.96875 75.808594 L 346.867188 75.769531 L 346.769531 75.722656 L 346.675781 75.667969 L 346.589844 75.601562 L 346.511719 75.53125 L 346.441406 75.449219 L 346.378906 75.359375 L 346.324219 75.269531 L 346.277344 75.167969 L 346.246094 75.066406 L 346.222656 74.960938 L 346.207031 74.855469 L 346.203125 74.746094 L 346.210938 74.640625 L 346.230469 74.535156 L 346.261719 74.429688 L 346.300781 74.328125 L 346.347656 74.234375 L 346.40625 74.144531 L 346.476562 74.058594 L 346.550781 73.980469 L 346.632812 73.910156 L 346.722656 73.851562 L 346.816406 73.800781 L 346.917969 73.757812 L 347.019531 73.726562 L 347.125 73.703125 L 347.230469 73.695312 L 347.339844 73.695312 L 347.449219 73.703125 L 347.554688 73.726562 L 347.65625 73.757812 L 347.753906 73.800781 L 347.851562 73.851562 L 347.9375 73.910156 L 348.023438 73.980469 L 348.097656 74.058594 L 348.164062 74.144531 L 348.222656 74.234375 L 348.273438 74.328125 L 348.3125 74.429688 L 348.339844 74.535156 L 348.359375 74.640625 L 348.367188 74.746094 L 348.363281 74.855469 L 348.351562 74.960938 L 348.328125 75.066406 L 348.292969 75.167969 L 348.25 75.269531 L 348.195312 75.359375 L 348.132812 75.449219 L 348.058594 75.53125 L 347.980469 75.601562 L 347.894531 75.667969 L 347.804688 75.722656 L 347.707031 75.769531 L 347.605469 75.808594 L 347.5 75.835938 L 347.394531 75.851562 Z M 347.285156 75.855469 "/>
<path style="fill-rule:nonzero;fill:rgb(26.700401%,0.4874%,32.941499%);fill-opacity:1;stroke-width:1;stroke-linecap:butt;stroke-linejoin:miter;stroke:rgb(26.700401%,0.4874%,32.941499%);stroke-opacity:1;stroke-miterlimit:10;" d="M 326.347656 66.875 L 324.21875 66.492188 L 309.832031 132.488281 L 316.863281 133.753906 Z M 326.347656 66.875 "/>
<path style="fill-rule:nonzero;fill:rgb(26.700401%,0.4874%,32.941499%);fill-opacity:1;stroke-width:1;stroke-linecap:butt;stroke-linejoin:miter;stroke:rgb(26.700401%,0.4874%,32.941499%);stroke-opacity:1;stroke-miterlimit:10;" d="M 325.285156 67.765625 L 325.175781 67.761719 L 325.070312 67.746094 L 324.964844 67.71875 L 324.863281 67.683594 L 324.765625 67.636719 L 324.675781 67.578125 L 324.589844 67.515625 L 324.507812 67.441406 L 324.4375 67.359375 L 324.375 67.273438 L 324.320312 67.179688 L 324.277344 67.082031 L 324.242188 66.976562 L 324.21875 66.871094 L 324.203125 66.765625 L 324.203125 66.65625 L 324.210938 66.550781 L 324.230469 66.445312 L 324.257812 66.339844 L 324.296875 66.238281 L 324.347656 66.144531 L 324.40625 66.054688 L 324.472656 65.96875 L 324.546875 65.890625 L 324.628906 65.824219 L 324.71875 65.761719 L 324.8125 65.710938 L 324.914062 65.667969 L 325.015625 65.636719 L 325.121094 65.617188 L 325.230469 65.605469 L 325.335938 65.605469 L 325.445312 65.617188 L 325.550781 65.636719 L 325.652344 65.667969 L 325.753906 65.710938 L 325.847656 65.761719 L 325.9375 65.824219 L 326.019531 65.890625 L 326.09375 65.96875 L 326.160156 66.054688 L 326.21875 66.144531 L 326.269531 66.238281 L 326.308594 66.339844 L 326.339844 66.445312 L 326.355469 66.550781 L 326.363281 66.65625 L 326.363281 66.765625 L 326.347656 66.871094 L 326.324219 66.976562 L 326.289062 67.082031 L 326.246094 67.179688 L 326.191406 67.273438 L 326.128906 67.359375 L 326.058594 67.441406 L 325.980469 67.515625 L 325.894531 67.578125 L 325.800781 67.636719 L 325.703125 67.683594 L 325.601562 67.71875 L 325.496094 67.746094 L 325.390625 67.761719 Z M 325.285156 67.765625 "/>
<path style="fill-rule:nonzero;fill:rgb(26.700401%,0.4874%,32.941499%);fill-opacity:1;stroke-width:1;stroke-linecap:butt;stroke-linejoin:miter;stroke:rgb(26.700401%,0.4874%,32.941499%);stroke-opacity:1;stroke-miterlimit:10;" d="M 302.90625 66.425781 L 300.773438 66.792969 L 309.828125 133.730469 L 316.867188 132.511719 Z M 302.90625 66.425781 "/>
<path style="fill-rule:nonzero;fill:rgb(26.700401%,0.4874%,32.941499%);fill-opacity:1;stroke-width:1;stroke-linecap:butt;stroke-linejoin:miter;stroke:rgb(26.700401%,0.4874%,32.941499%);stroke-opacity:1;stroke-miterlimit:10;" d="M 301.839844 67.691406 L 301.734375 67.6875 L 301.625 67.667969 L 301.523438 67.644531 L 301.421875 67.605469 L 301.324219 67.558594 L 301.230469 67.503906 L 301.144531 67.4375 L 301.066406 67.363281 L 300.996094 67.285156 L 300.933594 67.195312 L 300.878906 67.101562 L 300.835938 67.003906 L 300.800781 66.902344 L 300.777344 66.796875 L 300.761719 66.691406 L 300.757812 66.582031 L 300.769531 66.476562 L 300.785156 66.367188 L 300.816406 66.265625 L 300.855469 66.164062 L 300.90625 66.070312 L 300.960938 65.976562 L 301.03125 65.894531 L 301.105469 65.816406 L 301.1875 65.746094 L 301.277344 65.6875 L 301.371094 65.636719 L 301.472656 65.59375 L 301.574219 65.5625 L 301.679688 65.539062 L 301.789062 65.527344 L 301.894531 65.527344 L 302.003906 65.539062 L 302.109375 65.5625 L 302.210938 65.59375 L 302.308594 65.636719 L 302.40625 65.6875 L 302.496094 65.746094 L 302.578125 65.816406 L 302.652344 65.894531 L 302.71875 65.976562 L 302.777344 66.070312 L 302.828125 66.164062 L 302.867188 66.265625 L 302.894531 66.367188 L 302.914062 66.476562 L 302.921875 66.582031 L 302.917969 66.691406 L 302.90625 66.796875 L 302.882812 66.902344 L 302.847656 67.003906 L 302.804688 67.101562 L 302.75 67.195312 L 302.6875 67.285156 L 302.617188 67.363281 L 302.535156 67.4375 L 302.449219 67.503906 L 302.359375 67.558594 L 302.261719 67.605469 L 302.160156 67.644531 L 302.054688 67.667969 L 301.949219 67.6875 Z M 301.839844 67.691406 "/>
<path style="fill-rule:nonzero;fill:rgb(26.700401%,0.4874%,32.941499%);fill-opacity:1;stroke-width:1;stroke-linecap:butt;stroke-linejoin:miter;stroke:rgb(26.700401%,0.4874%,32.941499%);stroke-opacity:1;stroke-miterlimit:10;" d="M 280.726562 74.019531 L 278.847656 75.09375 L 310.25 134.898438 L 316.445312 131.34375 Z M 280.726562 74.019531 "/>
<path style="fill-rule:nonzero;fill:rgb(26.700401%,0.4874%,32.941499%);fill-opacity:1;stroke-width:1;stroke-linecap:butt;stroke-linejoin:miter;stroke:rgb(26.700401%,0.4874%,32.941499%);stroke-opacity:1;stroke-miterlimit:10;" d="M 279.785156 75.636719 L 279.679688 75.632812 L 279.570312 75.617188 L 279.46875 75.589844 L 279.367188 75.550781 L 279.269531 75.503906 L 279.175781 75.449219 L 279.089844 75.382812 L 279.011719 75.3125 L 278.941406 75.230469 L 278.878906 75.144531 L 278.824219 75.050781 L 278.78125 74.949219 L 278.746094 74.847656 L 278.722656 74.742188 L 278.707031 74.636719 L 278.707031 74.527344 L 278.714844 74.421875 L 278.730469 74.316406 L 278.761719 74.210938 L 278.800781 74.109375 L 278.851562 74.015625 L 278.910156 73.925781 L 278.976562 73.839844 L 279.050781 73.761719 L 279.132812 73.695312 L 279.222656 73.632812 L 279.316406 73.582031 L 279.417969 73.539062 L 279.519531 73.507812 L 279.625 73.484375 L 279.734375 73.476562 L 279.839844 73.476562 L 279.949219 73.484375 L 280.054688 73.507812 L 280.15625 73.539062 L 280.257812 73.582031 L 280.351562 73.632812 L 280.441406 73.695312 L 280.523438 73.761719 L 280.597656 73.839844 L 280.664062 73.925781 L 280.722656 74.015625 L 280.773438 74.109375 L 280.8125 74.210938 L 280.839844 74.316406 L 280.859375 74.421875 L 280.867188 74.527344 L 280.863281 74.636719 L 280.851562 74.742188 L 280.828125 74.847656 L 280.792969 74.949219 L 280.75 75.050781 L 280.695312 75.144531 L 280.632812 75.230469 L 280.5625 75.3125 L 280.480469 75.382812 L 280.394531 75.449219 L 280.304688 75.503906 L 280.207031 75.550781 L 280.105469 75.589844 L 280 75.617188 L 279.894531 75.632812 Z M 279.785156 75.636719 "/>
<path style="fill-rule:nonzero;fill:rgb(26.700401%,0.4874%,32.941499%);fill-opacity:1;stroke-width:1;stroke-linecap:butt;stroke-linejoin:miter;stroke:rgb(26.700401%,0.4874%,32.941499%);stroke-opacity:1;stroke-miterlimit:10;" d="M 262.476562 88.738281 L 261.082031 90.390625 L 311.042969 135.851562 L 315.652344 130.394531 Z M 262.476562 88.738281 "/>
<path style="fill-rule:nonzero;fill:rgb(26.700401%,0.4874%,32.941499%);fill-opacity:1;stroke-width:1;stroke-linecap:butt;stroke-linejoin:miter;stroke:rgb(26.700401%,0.4874%,32.941499%);stroke-opacity:1;stroke-miterlimit:10;" d="M 261.78125 90.648438 L 261.671875 90.640625 L 261.566406 90.625 L 261.460938 90.601562 L 261.359375 90.5625 L 261.261719 90.515625 L 261.171875 90.460938 L 261.085938 90.394531 L 261.003906 90.320312 L 260.933594 90.242188 L 260.871094 90.152344 L 260.816406 90.058594 L 260.773438 89.960938 L 260.738281 89.859375 L 260.714844 89.753906 L 260.703125 89.648438 L 260.699219 89.539062 L 260.707031 89.433594 L 260.726562 89.324219 L 260.753906 89.222656 L 260.792969 89.121094 L 260.84375 89.023438 L 260.902344 88.933594 L 260.96875 88.851562 L 261.042969 88.773438 L 261.125 88.703125 L 261.214844 88.644531 L 261.308594 88.589844 L 261.410156 88.550781 L 261.511719 88.519531 L 261.617188 88.496094 L 261.726562 88.484375 L 261.832031 88.484375 L 261.941406 88.496094 L 262.046875 88.519531 L 262.148438 88.550781 L 262.25 88.589844 L 262.34375 88.644531 L 262.433594 88.703125 L 262.515625 88.773438 L 262.589844 88.851562 L 262.65625 88.933594 L 262.714844 89.023438 L 262.765625 89.121094 L 262.804688 89.222656 L 262.835938 89.324219 L 262.851562 89.433594 L 262.859375 89.539062 L 262.859375 89.648438 L 262.84375 89.753906 L 262.820312 89.859375 L 262.785156 89.960938 L 262.742188 90.058594 L 262.6875 90.152344 L 262.625 90.242188 L 262.554688 90.320312 L 262.476562 90.394531 L 262.390625 90.460938 L 262.296875 90.515625 L 262.199219 90.5625 L 262.097656 90.601562 L 261.996094 90.625 L 261.886719 90.640625 Z M 261.78125 90.648438 "/>
<path style="fill-rule:nonzero;fill:rgb(25.393501%,26.525399%,52.998298%);fill-opacity:1;stroke-width:1;stroke-linecap:butt;stroke-linejoin:miter;stroke:rgb(25.393501%,26.525399%,52.998298%);stroke-opacity:1;stroke-miterlimit:10;" d="M 316.917969 133.132812 L 309.777344 133.109375 L 307.386719 223.101562 L 318.726562 223.140625 Z M 316.917969 133.132812 "/>
<path style="fill-rule:nonzero;fill:rgb(25.393501%,26.525399%,52.998298%);fill-opacity:1;stroke-width:1;stroke-linecap:butt;stroke-linejoin:miter;stroke:rgb(25.393501%,26.525399%,52.998298%);stroke-opacity:1;stroke-miterlimit:10;" d="M 313.347656 136.691406 L 312.992188 136.675781 L 312.640625 136.621094 L 312.292969 136.535156 L 311.960938 136.414062 L 311.640625 136.257812 L 311.335938 136.074219 L 311.050781 135.859375 L 310.789062 135.617188 L 310.554688 135.347656 L 310.347656 135.058594 L 310.167969 134.75 L 310.023438 134.425781 L 309.910156 134.089844 L 309.828125 133.742188 L 309.785156 133.386719 L 309.777344 133.03125 L 309.804688 132.675781 L 309.863281 132.328125 L 309.960938 131.984375 L 310.089844 131.652344 L 310.253906 131.335938 L 310.445312 131.035156 L 310.667969 130.757812 L 310.917969 130.503906 L 311.191406 130.273438 L 311.484375 130.074219 L 311.796875 129.902344 L 312.125 129.765625 L 312.464844 129.660156 L 312.816406 129.589844 L 313.167969 129.554688 L 313.523438 129.554688 L 313.878906 129.589844 L 314.226562 129.660156 L 314.570312 129.765625 L 314.898438 129.902344 L 315.210938 130.074219 L 315.503906 130.273438 L 315.777344 130.503906 L 316.023438 130.757812 L 316.246094 131.035156 L 316.441406 131.335938 L 316.601562 131.652344 L 316.734375 131.984375 L 316.828125 132.328125 L 316.890625 132.675781 L 316.917969 133.03125 L 316.910156 133.386719 L 316.863281 133.742188 L 316.785156 134.089844 L 316.671875 134.425781 L 316.527344 134.75 L 316.347656 135.058594 L 316.140625 135.347656 L 315.902344 135.617188 L 315.644531 135.859375 L 315.359375 136.074219 L 315.054688 136.257812 L 314.734375 136.414062 L 314.398438 136.535156 L 314.054688 136.621094 L 313.703125 136.675781 Z M 313.347656 136.691406 "/>
<path style="fill-rule:nonzero;fill:rgb(16.3625%,47.113299%,55.814803%);fill-opacity:1;stroke-width:1;stroke-linecap:butt;stroke-linejoin:miter;stroke:rgb(16.3625%,47.113299%,55.814803%);stroke-opacity:1;stroke-miterlimit:10;" d="M 318.175781 225.558594 L 307.9375 220.683594 L 246.875 341.128906 L 263.125 348.871094 Z M 318.175781 225.558594 "/>
<path style="fill-rule:nonzero;fill:rgb(16.3625%,47.113299%,55.814803%);fill-opacity:1;stroke-width:1;stroke-linecap:butt;stroke-linejoin:miter;stroke:rgb(16.3625%,47.113299%,55.814803%);stroke-opacity:1;stroke-miterlimit:10;" d="M 313.054688 228.789062 L 312.492188 228.761719 L 311.933594 228.679688 L 311.386719 228.539062 L 310.855469 228.34375 L 310.34375 228.101562 L 309.863281 227.804688 L 309.410156 227.464844 L 308.996094 227.078125 L 308.625 226.65625 L 308.292969 226.195312 L 308.011719 225.707031 L 307.777344 225.191406 L 307.597656 224.65625 L 307.472656 224.105469 L 307.402344 223.542969 L 307.386719 222.980469 L 307.429688 222.414062 L 307.527344 221.859375 L 307.679688 221.316406 L 307.886719 220.789062 L 308.144531 220.285156 L 308.453125 219.8125 L 308.804688 219.371094 L 309.199219 218.964844 L 309.632812 218.601562 L 310.101562 218.28125 L 310.597656 218.011719 L 311.117188 217.792969 L 311.65625 217.625 L 312.210938 217.515625 L 312.773438 217.457031 L 313.339844 217.457031 L 313.902344 217.515625 L 314.453125 217.625 L 314.996094 217.792969 L 315.515625 218.011719 L 316.011719 218.28125 L 316.480469 218.601562 L 316.914062 218.964844 L 317.308594 219.371094 L 317.660156 219.8125 L 317.964844 220.285156 L 318.222656 220.789062 L 318.429688 221.316406 L 318.582031 221.859375 L 318.679688 222.414062 L 318.722656 222.980469 L 318.710938 223.542969 L 318.640625 224.105469 L 318.515625 224.65625 L 318.332031 225.191406 L 318.101562 225.707031 L 317.820312 226.195312 L 317.488281 226.65625 L 317.113281 227.078125 L 316.699219 227.464844 L 316.25 227.804688 L 315.765625 228.101562 L 315.257812 228.34375 L 314.726562 228.539062 L 314.179688 228.679688 L 313.621094 228.761719 Z M 313.054688 228.789062 "/>
<path style="fill-rule:nonzero;fill:rgb(26.700401%,0.4874%,32.941499%);fill-opacity:1;stroke-width:1;stroke-linecap:butt;stroke-linejoin:miter;stroke:rgb(26.700401%,0.4874%,32.941499%);stroke-opacity:1;stroke-miterlimit:10;" d="M 248.917969 90.390625 L 247.523438 88.738281 L 194.347656 130.394531 L 198.957031 135.851562 Z M 248.917969 90.390625 "/>
<path style="fill-rule:nonzero;fill:rgb(26.700401%,0.4874%,32.941499%);fill-opacity:1;stroke-width:1;stroke-linecap:butt;stroke-linejoin:miter;stroke:rgb(26.700401%,0.4874%,32.941499%);stroke-opacity:1;stroke-miterlimit:10;" d="M 248.21875 90.648438 L 248.113281 90.640625 L 248.003906 90.625 L 247.902344 90.601562 L 247.800781 90.5625 L 247.703125 90.515625 L 247.609375 90.460938 L 247.523438 90.394531 L 247.445312 90.320312 L 247.375 90.242188 L 247.3125 90.152344 L 247.257812 90.058594 L 247.214844 89.960938 L 247.179688 89.859375 L 247.15625 89.753906 L 247.140625 89.648438 L 247.140625 89.539062 L 247.148438 89.433594 L 247.164062 89.324219 L 247.195312 89.222656 L 247.234375 89.121094 L 247.285156 89.023438 L 247.34375 88.933594 L 247.410156 88.851562 L 247.484375 88.773438 L 247.566406 88.703125 L 247.65625 88.644531 L 247.75 88.589844 L 247.851562 88.550781 L 247.953125 88.519531 L 248.058594 88.496094 L 248.167969 88.484375 L 248.273438 88.484375 L 248.382812 88.496094 L 248.488281 88.519531 L 248.589844 88.550781 L 248.6875 88.589844 L 248.785156 88.644531 L 248.875 88.703125 L 248.957031 88.773438 L 249.03125 88.851562 L 249.097656 88.933594 L 249.15625 89.023438 L 249.207031 89.121094 L 249.246094 89.222656 L 249.273438 89.324219 L 249.292969 89.433594 L 249.300781 89.539062 L 249.296875 89.648438 L 249.285156 89.753906 L 249.261719 89.859375 L 249.226562 89.960938 L 249.183594 90.058594 L 249.128906 90.152344 L 249.066406 90.242188 L 248.996094 90.320312 L 248.914062 90.394531 L 248.828125 90.460938 L 248.738281 90.515625 L 248.640625 90.5625 L 248.539062 90.601562 L 248.433594 90.625 L 248.328125 90.640625 Z M 248.21875 90.648438 "/>
<path style="fill-rule:nonzero;fill:rgb(26.700401%,0.4874%,32.941499%);fill-opacity:1;stroke-width:1;stroke-linecap:butt;stroke-linejoin:miter;stroke:rgb(26.700401%,0.4874%,32.941499%);stroke-opacity:1;stroke-miterlimit:10;" d="M 231.152344 75.09375 L 229.273438 74.019531 L 193.554688 131.34375 L 199.75 134.898438 Z M 231.152344 75.09375 "/>
<path style="fill-rule:nonzero;fill:rgb(26.700401%,0.4874%,32.941499%);fill-opacity:1;stroke-width:1;stroke-linecap:butt;stroke-linejoin:miter;stroke:rgb(26.700401%,0.4874%,32.941499%);stroke-opacity:1;stroke-miterlimit:10;" d="M 230.214844 75.636719 L 230.105469 75.632812 L 230 75.617188 L 229.894531 75.589844 L 229.792969 75.550781 L 229.695312 75.503906 L 229.605469 75.449219 L 229.519531 75.382812 L 229.4375 75.3125 L 229.367188 75.230469 L 229.304688 75.144531 L 229.25 75.050781 L 229.207031 74.949219 L 229.171875 74.847656 L 229.148438 74.742188 L 229.136719 74.636719 L 229.132812 74.527344 L 229.140625 74.421875 L 229.160156 74.316406 L 229.1875 74.210938 L 229.226562 74.109375 L 229.277344 74.015625 L 229.335938 73.925781 L 229.402344 73.839844 L 229.476562 73.761719 L 229.558594 73.695312 L 229.648438 73.632812 L 229.742188 73.582031 L 229.84375 73.539062 L 229.945312 73.507812 L 230.050781 73.484375 L 230.160156 73.476562 L 230.265625 73.476562 L 230.375 73.484375 L 230.480469 73.507812 L 230.582031 73.539062 L 230.683594 73.582031 L 230.777344 73.632812 L 230.867188 73.695312 L 230.949219 73.761719 L 231.023438 73.839844 L 231.089844 73.925781 L 231.148438 74.015625 L 231.199219 74.109375 L 231.238281 74.210938 L 231.269531 74.316406 L 231.285156 74.421875 L 231.292969 74.527344 L 231.292969 74.636719 L 231.277344 74.742188 L 231.253906 74.847656 L 231.21875 74.949219 L 231.175781 75.050781 L 231.121094 75.144531 L 231.058594 75.230469 L 230.988281 75.3125 L 230.910156 75.382812 L 230.824219 75.449219 L 230.730469 75.503906 L 230.632812 75.550781 L 230.53125 75.589844 L 230.429688 75.617188 L 230.320312 75.632812 Z M 230.214844 75.636719 "/>
<path style="fill-rule:nonzero;fill:rgb(26.700401%,0.4874%,32.941499%);fill-opacity:1;stroke-width:1;stroke-linecap:butt;stroke-linejoin:miter;stroke:rgb(26.700401%,0.4874%,32.941499%);stroke-opacity:1;stroke-miterlimit:10;" d="M 209.226562 66.792969 L 207.09375 66.425781 L 193.132812 132.511719 L 200.171875 133.730469 Z M 209.226562 66.792969 "/>
<path style="fill-rule:nonzero;fill:rgb(26.700401%,0.4874%,32.941499%);fill-opacity:1;stroke-width:1;stroke-linecap:butt;stroke-linejoin:miter;stroke:rgb(26.700401%,0.4874%,32.941499%);stroke-opacity:1;stroke-miterlimit:10;" d="M 208.160156 67.691406 L 208.050781 67.6875 L 207.945312 67.667969 L 207.839844 67.644531 L 207.738281 67.605469 L 207.640625 67.558594 L 207.550781 67.503906 L 207.464844 67.4375 L 207.382812 67.363281 L 207.3125 67.285156 L 207.25 67.195312 L 207.195312 67.101562 L 207.152344 67.003906 L 207.117188 66.902344 L 207.09375 66.796875 L 207.082031 66.691406 L 207.078125 66.582031 L 207.085938 66.476562 L 207.105469 66.367188 L 207.132812 66.265625 L 207.171875 66.164062 L 207.222656 66.070312 L 207.28125 65.976562 L 207.347656 65.894531 L 207.421875 65.816406 L 207.503906 65.746094 L 207.59375 65.6875 L 207.691406 65.636719 L 207.789062 65.59375 L 207.890625 65.5625 L 207.996094 65.539062 L 208.105469 65.527344 L 208.210938 65.527344 L 208.320312 65.539062 L 208.425781 65.5625 L 208.527344 65.59375 L 208.628906 65.636719 L 208.722656 65.6875 L 208.8125 65.746094 L 208.894531 65.816406 L 208.96875 65.894531 L 209.039062 65.976562 L 209.09375 66.070312 L 209.144531 66.164062 L 209.183594 66.265625 L 209.214844 66.367188 L 209.230469 66.476562 L 209.242188 66.582031 L 209.238281 66.691406 L 209.222656 66.796875 L 209.199219 66.902344 L 209.164062 67.003906 L 209.121094 67.101562 L 209.066406 67.195312 L 209.003906 67.285156 L 208.933594 67.363281 L 208.855469 67.4375 L 208.769531 67.503906 L 208.675781 67.558594 L 208.578125 67.605469 L 208.476562 67.644531 L 208.375 67.667969 L 208.265625 67.6875 Z M 208.160156 67.691406 "/>
<path style="fill-rule:nonzero;fill:rgb(26.700401%,0.4874%,32.941499%);fill-opacity:1;stroke-width:1;stroke-linecap:butt;stroke-linejoin:miter;stroke:rgb(26.700401%,0.4874%,32.941499%);stroke-opacity:1;stroke-miterlimit:10;" d="M 185.78125 66.492188 L 183.652344 66.875 L 193.136719 133.753906 L 200.167969 132.488281 Z M 185.78125 66.492188 "/>
<path style="fill-rule:nonzero;fill:rgb(26.700401%,0.4874%,32.941499%);fill-opacity:1;stroke-width:1;stroke-linecap:butt;stroke-linejoin:miter;stroke:rgb(26.700401%,0.4874%,32.941499%);stroke-opacity:1;stroke-miterlimit:10;" d="M 184.714844 67.765625 L 184.609375 67.761719 L 184.503906 67.746094 L 184.398438 67.71875 L 184.296875 67.683594 L 184.199219 67.636719 L 184.105469 67.578125 L 184.019531 67.515625 L 183.941406 67.441406 L 183.871094 67.359375 L 183.808594 67.273438 L 183.753906 67.179688 L 183.710938 67.082031 L 183.675781 66.976562 L 183.652344 66.871094 L 183.636719 66.765625 L 183.636719 66.65625 L 183.644531 66.550781 L 183.660156 66.445312 L 183.691406 66.339844 L 183.730469 66.238281 L 183.78125 66.144531 L 183.839844 66.054688 L 183.90625 65.96875 L 183.980469 65.890625 L 184.0625 65.824219 L 184.152344 65.761719 L 184.246094 65.710938 L 184.347656 65.667969 L 184.449219 65.636719 L 184.554688 65.617188 L 184.664062 65.605469 L 184.769531 65.605469 L 184.878906 65.617188 L 184.984375 65.636719 L 185.085938 65.667969 L 185.1875 65.710938 L 185.28125 65.761719 L 185.371094 65.824219 L 185.453125 65.890625 L 185.527344 65.96875 L 185.59375 66.054688 L 185.652344 66.144531 L 185.703125 66.238281 L 185.742188 66.339844 L 185.769531 66.445312 L 185.789062 66.550781 L 185.796875 66.65625 L 185.796875 66.765625 L 185.78125 66.871094 L 185.757812 66.976562 L 185.722656 67.082031 L 185.679688 67.179688 L 185.625 67.273438 L 185.5625 67.359375 L 185.492188 67.441406 L 185.410156 67.515625 L 185.324219 67.578125 L 185.234375 67.636719 L 185.136719 67.683594 L 185.035156 67.71875 L 184.929688 67.746094 L 184.824219 67.761719 Z M 184.714844 67.765625 "/>
<path style="fill-rule:nonzero;fill:rgb(26.700401%,0.4874%,32.941499%);fill-opacity:1;stroke-width:1;stroke-linecap:butt;stroke-linejoin:miter;stroke:rgb(26.700401%,0.4874%,32.941499%);stroke-opacity:1;stroke-miterlimit:10;" d="M 163.648438 74.230469 L 161.777344 75.316406 L 193.566406 134.917969 L 199.738281 131.324219 Z M 163.648438 74.230469 "/>
<path style="fill-rule:nonzero;fill:rgb(26.700401%,0.4874%,32.941499%);fill-opacity:1;stroke-width:1;stroke-linecap:butt;stroke-linejoin:miter;stroke:rgb(26.700401%,0.4874%,32.941499%);stroke-opacity:1;stroke-miterlimit:10;" d="M 162.714844 75.855469 L 162.605469 75.851562 L 162.5 75.835938 L 162.394531 75.808594 L 162.292969 75.769531 L 162.195312 75.722656 L 162.105469 75.667969 L 162.019531 75.601562 L 161.941406 75.53125 L 161.867188 75.449219 L 161.804688 75.359375 L 161.75 75.269531 L 161.707031 75.167969 L 161.671875 75.066406 L 161.648438 74.960938 L 161.636719 74.855469 L 161.632812 74.746094 L 161.640625 74.640625 L 161.660156 74.535156 L 161.6875 74.429688 L 161.726562 74.328125 L 161.777344 74.234375 L 161.835938 74.144531 L 161.902344 74.058594 L 161.976562 73.980469 L 162.0625 73.910156 L 162.148438 73.851562 L 162.246094 73.800781 L 162.34375 73.757812 L 162.445312 73.726562 L 162.550781 73.703125 L 162.660156 73.695312 L 162.769531 73.695312 L 162.875 73.703125 L 162.980469 73.726562 L 163.082031 73.757812 L 163.183594 73.800781 L 163.277344 73.851562 L 163.367188 73.910156 L 163.449219 73.980469 L 163.523438 74.058594 L 163.59375 74.144531 L 163.652344 74.234375 L 163.699219 74.328125 L 163.738281 74.429688 L 163.769531 74.535156 L 163.789062 74.640625 L 163.796875 74.746094 L 163.792969 74.855469 L 163.777344 74.960938 L 163.753906 75.066406 L 163.722656 75.167969 L 163.675781 75.269531 L 163.621094 75.359375 L 163.558594 75.449219 L 163.488281 75.53125 L 163.410156 75.601562 L 163.324219 75.667969 L 163.230469 75.722656 L 163.132812 75.769531 L 163.03125 75.808594 L 162.929688 75.835938 L 162.820312 75.851562 Z M 162.714844 75.855469 "/>
<path style="fill-rule:nonzero;fill:rgb(26.700401%,0.4874%,32.941499%);fill-opacity:1;stroke-width:1;stroke-linecap:butt;stroke-linejoin:miter;stroke:rgb(26.700401%,0.4874%,32.941499%);stroke-opacity:1;stroke-miterlimit:10;" d="M 145.496094 89.070312 L 144.113281 90.730469 L 194.367188 135.863281 L 198.941406 130.378906 Z M 145.496094 89.070312 "/>
<path style="fill-rule:nonzero;fill:rgb(26.700401%,0.4874%,32.941499%);fill-opacity:1;stroke-width:1;stroke-linecap:butt;stroke-linejoin:miter;stroke:rgb(26.700401%,0.4874%,32.941499%);stroke-opacity:1;stroke-miterlimit:10;" d="M 144.804688 90.984375 L 144.695312 90.976562 L 144.589844 90.960938 L 144.484375 90.933594 L 144.382812 90.898438 L 144.289062 90.851562 L 144.195312 90.792969 L 144.109375 90.730469 L 144.03125 90.65625 L 143.957031 90.574219 L 143.894531 90.488281 L 143.84375 90.394531 L 143.796875 90.296875 L 143.761719 90.195312 L 143.738281 90.089844 L 143.726562 89.980469 L 143.722656 89.875 L 143.730469 89.765625 L 143.75 89.660156 L 143.78125 89.554688 L 143.820312 89.457031 L 143.867188 89.359375 L 143.925781 89.269531 L 143.992188 89.183594 L 144.070312 89.109375 L 144.152344 89.039062 L 144.242188 88.976562 L 144.335938 88.925781 L 144.433594 88.882812 L 144.539062 88.851562 L 144.644531 88.832031 L 144.75 88.820312 L 144.859375 88.820312 L 144.964844 88.832031 L 145.070312 88.851562 L 145.175781 88.882812 L 145.273438 88.925781 L 145.367188 88.976562 L 145.457031 89.039062 L 145.539062 89.109375 L 145.617188 89.183594 L 145.683594 89.269531 L 145.742188 89.359375 L 145.789062 89.457031 L 145.828125 89.554688 L 145.859375 89.660156 L 145.878906 89.765625 L 145.886719 89.875 L 145.882812 89.980469 L 145.871094 90.089844 L 145.847656 90.195312 L 145.8125 90.296875 L 145.765625 90.394531 L 145.714844 90.488281 L 145.648438 90.574219 L 145.578125 90.65625 L 145.5 90.730469 L 145.414062 90.792969 L 145.320312 90.851562 L 145.226562 90.898438 L 145.125 90.933594 L 145.019531 90.960938 L 144.914062 90.976562 Z M 144.804688 90.984375 "/>
<path style="fill-rule:nonzero;fill:rgb(25.393501%,26.525399%,52.998298%);fill-opacity:1;stroke-width:1;stroke-linecap:butt;stroke-linejoin:miter;stroke:rgb(25.393501%,26.525399%,52.998298%);stroke-opacity:1;stroke-miterlimit:10;" d="M 200.222656 133.109375 L 193.082031 133.132812 L 191.273438 223.140625 L 202.613281 223.101562 Z M 200.222656 133.109375 "/>
<path style="fill-rule:nonzero;fill:rgb(25.393501%,26.525399%,52.998298%);fill-opacity:1;stroke-width:1;stroke-linecap:butt;stroke-linejoin:miter;stroke:rgb(25.393501%,26.525399%,52.998298%);stroke-opacity:1;stroke-miterlimit:10;" d="M 196.652344 136.691406 L 196.296875 136.675781 L 195.945312 136.621094 L 195.601562 136.535156 L 195.265625 136.414062 L 194.945312 136.257812 L 194.640625 136.074219 L 194.355469 135.859375 L 194.097656 135.617188 L 193.859375 135.347656 L 193.652344 135.058594 L 193.472656 134.75 L 193.328125 134.425781 L 193.214844 134.089844 L 193.136719 133.742188 L 193.089844 133.386719 L 193.082031 133.03125 L 193.109375 132.675781 L 193.171875 132.328125 L 193.265625 131.984375 L 193.398438 131.652344 L 193.558594 131.335938 L 193.753906 131.035156 L 193.976562 130.757812 L 194.222656 130.503906 L 194.496094 130.273438 L 194.789062 130.074219 L 195.101562 129.902344 L 195.429688 129.765625 L 195.769531 129.660156 L 196.121094 129.589844 L 196.476562 129.554688 L 196.832031 129.554688 L 197.183594 129.589844 L 197.535156 129.660156 L 197.875 129.765625 L 198.203125 129.902344 L 198.515625 130.074219 L 198.808594 130.273438 L 199.082031 130.503906 L 199.332031 130.757812 L 199.554688 131.035156 L 199.746094 131.335938 L 199.910156 131.652344 L 200.039062 131.984375 L 200.136719 132.328125 L 200.195312 132.675781 L 200.222656 133.03125 L 200.214844 133.386719 L 200.171875 133.742188 L 200.089844 134.089844 L 199.976562 134.425781 L 199.832031 134.75 L 199.652344 135.058594 L 199.445312 135.347656 L 199.210938 135.617188 L 198.949219 135.859375 L 198.664062 136.074219 L 198.359375 136.257812 L 198.039062 136.414062 L 197.707031 136.535156 L 197.359375 136.621094 L 197.007812 136.675781 Z M 196.652344 136.691406 "/>
<path style="fill-rule:nonzero;fill:rgb(26.700401%,0.4874%,32.941499%);fill-opacity:1;stroke-width:1;stroke-linecap:butt;stroke-linejoin:miter;stroke:rgb(26.700401%,0.4874%,32.941499%);stroke-opacity:1;stroke-miterlimit:10;" d="M 127.433594 98.675781 L 125.273438 98.703125 L 123.671875 166.230469 L 130.816406 166.136719 Z M 127.433594 98.675781 "/>
<path style="fill-rule:nonzero;fill:rgb(26.700401%,0.4874%,32.941499%);fill-opacity:1;stroke-width:1;stroke-linecap:butt;stroke-linejoin:miter;stroke:rgb(26.700401%,0.4874%,32.941499%);stroke-opacity:1;stroke-miterlimit:10;" d="M 126.351562 99.773438 L 126.246094 99.765625 L 126.140625 99.75 L 126.035156 99.722656 L 125.933594 99.6875 L 125.835938 99.640625 L 125.742188 99.582031 L 125.65625 99.519531 L 125.578125 99.445312 L 125.507812 99.363281 L 125.445312 99.277344 L 125.390625 99.183594 L 125.347656 99.085938 L 125.3125 98.984375 L 125.289062 98.878906 L 125.273438 98.769531 L 125.273438 98.664062 L 125.28125 98.554688 L 125.300781 98.449219 L 125.328125 98.34375 L 125.367188 98.246094 L 125.417969 98.148438 L 125.476562 98.058594 L 125.542969 97.972656 L 125.617188 97.898438 L 125.699219 97.828125 L 125.789062 97.765625 L 125.882812 97.714844 L 125.984375 97.671875 L 126.085938 97.640625 L 126.191406 97.621094 L 126.300781 97.609375 L 126.40625 97.609375 L 126.515625 97.621094 L 126.621094 97.640625 L 126.722656 97.671875 L 126.824219 97.714844 L 126.917969 97.765625 L 127.007812 97.828125 L 127.089844 97.898438 L 127.164062 97.972656 L 127.230469 98.058594 L 127.289062 98.148438 L 127.339844 98.246094 L 127.378906 98.34375 L 127.40625 98.449219 L 127.425781 98.554688 L 127.433594 98.664062 L 127.433594 98.769531 L 127.417969 98.878906 L 127.394531 98.984375 L 127.359375 99.085938 L 127.316406 99.183594 L 127.261719 99.277344 L 127.199219 99.363281 L 127.128906 99.445312 L 127.046875 99.519531 L 126.960938 99.582031 L 126.871094 99.640625 L 126.773438 99.6875 L 126.671875 99.722656 L 126.566406 99.75 L 126.460938 99.765625 Z M 126.351562 99.773438 "/>
<path style="fill-rule:nonzero;fill:rgb(26.700401%,0.4874%,32.941499%);fill-opacity:1;stroke-width:1;stroke-linecap:butt;stroke-linejoin:miter;stroke:rgb(26.700401%,0.4874%,32.941499%);stroke-opacity:1;stroke-miterlimit:10;" d="M 104.335938 102.679688 L 102.3125 103.449219 L 123.902344 167.449219 L 130.582031 164.917969 Z M 104.335938 102.679688 "/>
<path style="fill-rule:nonzero;fill:rgb(26.700401%,0.4874%,32.941499%);fill-opacity:1;stroke-width:1;stroke-linecap:butt;stroke-linejoin:miter;stroke:rgb(26.700401%,0.4874%,32.941499%);stroke-opacity:1;stroke-miterlimit:10;" d="M 103.324219 104.144531 L 103.214844 104.140625 L 103.109375 104.125 L 103.003906 104.097656 L 102.902344 104.0625 L 102.804688 104.015625 L 102.714844 103.957031 L 102.628906 103.894531 L 102.546875 103.820312 L 102.476562 103.738281 L 102.414062 103.652344 L 102.359375 103.558594 L 102.316406 103.460938 L 102.28125 103.359375 L 102.257812 103.253906 L 102.242188 103.144531 L 102.242188 103.039062 L 102.25 102.929688 L 102.269531 102.824219 L 102.296875 102.71875 L 102.335938 102.621094 L 102.386719 102.523438 L 102.445312 102.433594 L 102.511719 102.347656 L 102.585938 102.273438 L 102.667969 102.203125 L 102.757812 102.140625 L 102.851562 102.089844 L 102.953125 102.046875 L 103.054688 102.015625 L 103.160156 101.996094 L 103.269531 101.984375 L 103.375 101.984375 L 103.484375 101.996094 L 103.589844 102.015625 L 103.691406 102.046875 L 103.792969 102.089844 L 103.886719 102.140625 L 103.976562 102.203125 L 104.058594 102.273438 L 104.132812 102.347656 L 104.199219 102.433594 L 104.257812 102.523438 L 104.308594 102.621094 L 104.347656 102.71875 L 104.378906 102.824219 L 104.394531 102.929688 L 104.402344 103.039062 L 104.402344 103.144531 L 104.386719 103.253906 L 104.363281 103.359375 L 104.328125 103.460938 L 104.285156 103.558594 L 104.230469 103.652344 L 104.167969 103.738281 L 104.097656 103.820312 L 104.019531 103.894531 L 103.933594 103.957031 L 103.839844 104.015625 L 103.742188 104.0625 L 103.640625 104.097656 L 103.535156 104.125 L 103.429688 104.140625 Z M 103.324219 104.144531 "/>
<path style="fill-rule:nonzero;fill:rgb(26.700401%,0.4874%,32.941499%);fill-opacity:1;stroke-width:1;stroke-linecap:butt;stroke-linejoin:miter;stroke:rgb(26.700401%,0.4874%,32.941499%);stroke-opacity:1;stroke-miterlimit:10;" d="M 83.996094 114.347656 L 82.359375 115.757812 L 124.539062 168.515625 L 129.949219 163.851562 Z M 83.996094 114.347656 "/>
<path style="fill-rule:nonzero;fill:rgb(26.700401%,0.4874%,32.941499%);fill-opacity:1;stroke-width:1;stroke-linecap:butt;stroke-linejoin:miter;stroke:rgb(26.700401%,0.4874%,32.941499%);stroke-opacity:1;stroke-miterlimit:10;" d="M 83.175781 116.132812 L 83.070312 116.128906 L 82.960938 116.113281 L 82.859375 116.085938 L 82.757812 116.050781 L 82.660156 116.003906 L 82.566406 115.945312 L 82.480469 115.882812 L 82.402344 115.808594 L 82.332031 115.726562 L 82.269531 115.640625 L 82.214844 115.546875 L 82.171875 115.449219 L 82.136719 115.34375 L 82.113281 115.242188 L 82.097656 115.132812 L 82.097656 115.027344 L 82.105469 114.917969 L 82.121094 114.8125 L 82.152344 114.707031 L 82.191406 114.609375 L 82.242188 114.511719 L 82.300781 114.421875 L 82.367188 114.335938 L 82.441406 114.257812 L 82.523438 114.191406 L 82.613281 114.128906 L 82.707031 114.078125 L 82.808594 114.035156 L 82.910156 114.003906 L 83.015625 113.984375 L 83.125 113.972656 L 83.230469 113.972656 L 83.339844 113.984375 L 83.445312 114.003906 L 83.546875 114.035156 L 83.648438 114.078125 L 83.742188 114.128906 L 83.832031 114.191406 L 83.914062 114.257812 L 83.988281 114.335938 L 84.054688 114.421875 L 84.113281 114.511719 L 84.164062 114.609375 L 84.203125 114.707031 L 84.230469 114.8125 L 84.25 114.917969 L 84.257812 115.027344 L 84.257812 115.132812 L 84.242188 115.242188 L 84.21875 115.34375 L 84.183594 115.449219 L 84.140625 115.546875 L 84.085938 115.640625 L 84.023438 115.726562 L 83.953125 115.808594 L 83.871094 115.882812 L 83.785156 115.945312 L 83.695312 116.003906 L 83.597656 116.050781 L 83.496094 116.085938 L 83.390625 116.113281 L 83.285156 116.128906 Z M 83.175781 116.132812 "/>
<path style="fill-rule:nonzero;fill:rgb(26.700401%,0.4874%,32.941499%);fill-opacity:1;stroke-width:1;stroke-linecap:butt;stroke-linejoin:miter;stroke:rgb(26.700401%,0.4874%,32.941499%);stroke-opacity:1;stroke-miterlimit:10;" d="M 68.875 132.265625 L 67.816406 134.152344 L 125.5 169.300781 L 128.988281 163.066406 Z M 68.875 132.265625 "/>
<path style="fill-rule:nonzero;fill:rgb(26.700401%,0.4874%,32.941499%);fill-opacity:1;stroke-width:1;stroke-linecap:butt;stroke-linejoin:miter;stroke:rgb(26.700401%,0.4874%,32.941499%);stroke-opacity:1;stroke-miterlimit:10;" d="M 68.347656 134.289062 L 68.238281 134.285156 L 68.132812 134.269531 L 68.027344 134.242188 L 67.925781 134.203125 L 67.828125 134.15625 L 67.738281 134.101562 L 67.652344 134.035156 L 67.574219 133.960938 L 67.5 133.882812 L 67.4375 133.792969 L 67.382812 133.699219 L 67.339844 133.601562 L 67.304688 133.5 L 67.28125 133.394531 L 67.269531 133.289062 L 67.265625 133.179688 L 67.273438 133.074219 L 67.292969 132.96875 L 67.320312 132.863281 L 67.359375 132.761719 L 67.410156 132.667969 L 67.46875 132.578125 L 67.535156 132.492188 L 67.609375 132.414062 L 67.695312 132.34375 L 67.78125 132.285156 L 67.878906 132.234375 L 67.976562 132.191406 L 68.078125 132.160156 L 68.183594 132.136719 L 68.292969 132.128906 L 68.402344 132.128906 L 68.507812 132.136719 L 68.613281 132.160156 L 68.714844 132.191406 L 68.816406 132.234375 L 68.910156 132.285156 L 69 132.34375 L 69.082031 132.414062 L 69.15625 132.492188 L 69.226562 132.578125 L 69.285156 132.667969 L 69.332031 132.761719 L 69.371094 132.863281 L 69.402344 132.96875 L 69.421875 133.074219 L 69.429688 133.179688 L 69.425781 133.289062 L 69.410156 133.394531 L 69.386719 133.5 L 69.355469 133.601562 L 69.308594 133.699219 L 69.253906 133.792969 L 69.191406 133.882812 L 69.121094 133.960938 L 69.042969 134.035156 L 68.957031 134.101562 L 68.863281 134.15625 L 68.765625 134.203125 L 68.664062 134.242188 L 68.5625 134.269531 L 68.453125 134.285156 Z M 68.347656 134.289062 "/>
<path style="fill-rule:nonzero;fill:rgb(26.700401%,0.4874%,32.941499%);fill-opacity:1;stroke-width:1;stroke-linecap:butt;stroke-linejoin:miter;stroke:rgb(26.700401%,0.4874%,32.941499%);stroke-opacity:1;stroke-miterlimit:10;" d="M 60.792969 154.273438 L 60.445312 156.40625 L 126.667969 169.710938 L 127.816406 162.660156 Z M 60.792969 154.273438 "/>
<path style="fill-rule:nonzero;fill:rgb(26.700401%,0.4874%,32.941499%);fill-opacity:1;stroke-width:1;stroke-linecap:butt;stroke-linejoin:miter;stroke:rgb(26.700401%,0.4874%,32.941499%);stroke-opacity:1;stroke-miterlimit:10;" d="M 60.621094 156.421875 L 60.511719 156.417969 L 60.40625 156.398438 L 60.300781 156.375 L 60.199219 156.335938 L 60.101562 156.289062 L 60.011719 156.234375 L 59.925781 156.167969 L 59.84375 156.09375 L 59.773438 156.015625 L 59.710938 155.925781 L 59.65625 155.832031 L 59.613281 155.734375 L 59.578125 155.632812 L 59.554688 155.527344 L 59.542969 155.421875 L 59.539062 155.3125 L 59.546875 155.207031 L 59.566406 155.097656 L 59.59375 154.996094 L 59.632812 154.894531 L 59.683594 154.800781 L 59.742188 154.707031 L 59.808594 154.625 L 59.882812 154.546875 L 59.96875 154.476562 L 60.054688 154.417969 L 60.152344 154.367188 L 60.25 154.324219 L 60.351562 154.292969 L 60.457031 154.269531 L 60.566406 154.257812 L 60.675781 154.257812 L 60.78125 154.269531 L 60.886719 154.292969 L 60.988281 154.324219 L 61.089844 154.367188 L 61.183594 154.417969 L 61.273438 154.476562 L 61.355469 154.546875 L 61.429688 154.625 L 61.5 154.707031 L 61.558594 154.800781 L 61.605469 154.894531 L 61.644531 154.996094 L 61.675781 155.097656 L 61.691406 155.207031 L 61.703125 155.3125 L 61.699219 155.421875 L 61.683594 155.527344 L 61.660156 155.632812 L 61.628906 155.734375 L 61.582031 155.832031 L 61.527344 155.925781 L 61.464844 156.015625 L 61.394531 156.09375 L 61.316406 156.167969 L 61.230469 156.234375 L 61.136719 156.289062 L 61.039062 156.335938 L 60.9375 156.375 L 60.835938 156.398438 L 60.726562 156.417969 Z M 60.621094 156.421875 "/>
<path style="fill-rule:nonzero;fill:rgb(26.700401%,0.4874%,32.941499%);fill-opacity:1;stroke-width:1;stroke-linecap:butt;stroke-linejoin:miter;stroke:rgb(26.700401%,0.4874%,32.941499%);stroke-opacity:1;stroke-miterlimit:10;" d="M 60.726562 177.71875 L 61.132812 179.84375 L 127.910156 169.691406 L 126.578125 162.675781 Z M 60.726562 177.71875 "/>
<path style="fill-rule:nonzero;fill:rgb(26.700401%,0.4874%,32.941499%);fill-opacity:1;stroke-width:1;stroke-linecap:butt;stroke-linejoin:miter;stroke:rgb(26.700401%,0.4874%,32.941499%);stroke-opacity:1;stroke-miterlimit:10;" d="M 60.929688 179.863281 L 60.820312 179.855469 L 60.714844 179.839844 L 60.609375 179.8125 L 60.507812 179.777344 L 60.410156 179.730469 L 60.320312 179.675781 L 60.234375 179.609375 L 60.15625 179.535156 L 60.082031 179.453125 L 60.019531 179.367188 L 59.964844 179.273438 L 59.921875 179.175781 L 59.886719 179.074219 L 59.863281 178.96875 L 59.851562 178.863281 L 59.847656 178.753906 L 59.855469 178.644531 L 59.875 178.539062 L 59.902344 178.4375 L 59.941406 178.335938 L 59.992188 178.238281 L 60.050781 178.148438 L 60.117188 178.066406 L 60.191406 177.988281 L 60.277344 177.917969 L 60.363281 177.859375 L 60.460938 177.804688 L 60.558594 177.765625 L 60.664062 177.730469 L 60.769531 177.710938 L 60.875 177.699219 L 60.984375 177.699219 L 61.089844 177.710938 L 61.195312 177.730469 L 61.300781 177.765625 L 61.398438 177.804688 L 61.492188 177.859375 L 61.582031 177.917969 L 61.664062 177.988281 L 61.738281 178.066406 L 61.808594 178.148438 L 61.867188 178.238281 L 61.914062 178.335938 L 61.953125 178.4375 L 61.984375 178.539062 L 62.003906 178.644531 L 62.011719 178.753906 L 62.007812 178.863281 L 61.996094 178.96875 L 61.96875 179.074219 L 61.9375 179.175781 L 61.890625 179.273438 L 61.835938 179.367188 L 61.773438 179.453125 L 61.703125 179.535156 L 61.625 179.609375 L 61.539062 179.675781 L 61.445312 179.730469 L 61.347656 179.777344 L 61.246094 179.8125 L 61.144531 179.839844 L 61.035156 179.855469 Z M 60.929688 179.863281 "/>
<path style="fill-rule:nonzero;fill:rgb(25.393501%,26.525399%,52.998298%);fill-opacity:1;stroke-width:1;stroke-linecap:butt;stroke-linejoin:miter;stroke:rgb(25.393501%,26.525399%,52.998298%);stroke-opacity:1;stroke-miterlimit:10;" d="M 129.503906 163.417969 L 124.984375 168.949219 L 193.355469 227.511719 L 200.53125 218.730469 Z M 129.503906 163.417969 "/>
<path style="fill-rule:nonzero;fill:rgb(25.393501%,26.525399%,52.998298%);fill-opacity:1;stroke-width:1;stroke-linecap:butt;stroke-linejoin:miter;stroke:rgb(25.393501%,26.525399%,52.998298%);stroke-opacity:1;stroke-miterlimit:10;" d="M 127.242188 169.753906 L 126.886719 169.738281 L 126.535156 169.683594 L 126.191406 169.597656 L 125.855469 169.476562 L 125.535156 169.320312 L 125.230469 169.136719 L 124.949219 168.921875 L 124.6875 168.679688 L 124.449219 168.410156 L 124.242188 168.121094 L 124.066406 167.8125 L 123.917969 167.488281 L 123.804688 167.152344 L 123.726562 166.804688 L 123.683594 166.449219 L 123.671875 166.09375 L 123.699219 165.738281 L 123.761719 165.390625 L 123.859375 165.046875 L 123.988281 164.714844 L 124.148438 164.398438 L 124.34375 164.097656 L 124.566406 163.820312 L 124.8125 163.566406 L 125.085938 163.335938 L 125.382812 163.136719 L 125.695312 162.964844 L 126.023438 162.828125 L 126.363281 162.722656 L 126.710938 162.652344 L 127.066406 162.617188 L 127.421875 162.617188 L 127.777344 162.652344 L 128.125 162.722656 L 128.464844 162.828125 L 128.792969 162.964844 L 129.105469 163.136719 L 129.398438 163.335938 L 129.671875 163.566406 L 129.921875 163.820312 L 130.144531 164.097656 L 130.335938 164.398438 L 130.5 164.714844 L 130.628906 165.046875 L 130.726562 165.390625 L 130.789062 165.738281 L 130.8125 166.09375 L 130.804688 166.449219 L 130.761719 166.804688 L 130.679688 167.152344 L 130.566406 167.488281 L 130.421875 167.8125 L 130.242188 168.121094 L 130.035156 168.410156 L 129.800781 168.679688 L 129.539062 168.921875 L 129.253906 169.136719 L 128.953125 169.320312 L 128.628906 169.476562 L 128.296875 169.597656 L 127.949219 169.683594 L 127.597656 169.738281 Z M 127.242188 169.753906 "/>
<path style="fill-rule:nonzero;fill:rgb(16.3625%,47.113299%,55.814803%);fill-opacity:1;stroke-width:1;stroke-linecap:butt;stroke-linejoin:miter;stroke:rgb(16.3625%,47.113299%,55.814803%);stroke-opacity:1;stroke-miterlimit:10;" d="M 202.0625 220.683594 L 191.824219 225.558594 L 246.875 348.871094 L 263.125 341.128906 Z M 202.0625 220.683594 "/>
<path style="fill-rule:nonzero;fill:rgb(16.3625%,47.113299%,55.814803%);fill-opacity:1;stroke-width:1;stroke-linecap:butt;stroke-linejoin:miter;stroke:rgb(16.3625%,47.113299%,55.814803%);stroke-opacity:1;stroke-miterlimit:10;" d="M 196.945312 228.789062 L 196.378906 228.761719 L 195.820312 228.679688 L 195.273438 228.539062 L 194.742188 228.34375 L 194.234375 228.101562 L 193.75 227.804688 L 193.300781 227.464844 L 192.886719 227.078125 L 192.511719 226.65625 L 192.179688 226.195312 L 191.898438 225.707031 L 191.667969 225.191406 L 191.484375 224.65625 L 191.359375 224.105469 L 191.289062 223.542969 L 191.277344 222.980469 L 191.320312 222.414062 L 191.417969 221.859375 L 191.570312 221.316406 L 191.777344 220.789062 L 192.035156 220.285156 L 192.339844 219.8125 L 192.691406 219.371094 L 193.085938 218.964844 L 193.519531 218.601562 L 193.988281 218.28125 L 194.484375 218.011719 L 195.003906 217.792969 L 195.546875 217.625 L 196.097656 217.515625 L 196.660156 217.457031 L 197.226562 217.457031 L 197.789062 217.515625 L 198.34375 217.625 L 198.882812 217.792969 L 199.402344 218.011719 L 199.898438 218.28125 L 200.367188 218.601562 L 200.800781 218.964844 L 201.195312 219.371094 L 201.546875 219.8125 L 201.855469 220.285156 L 202.113281 220.789062 L 202.320312 221.316406 L 202.472656 221.859375 L 202.570312 222.414062 L 202.613281 222.980469 L 202.597656 223.542969 L 202.527344 224.105469 L 202.402344 224.65625 L 202.222656 225.191406 L 201.988281 225.707031 L 201.707031 226.195312 L 201.375 226.65625 L 201.003906 227.078125 L 200.589844 227.464844 L 200.136719 227.804688 L 199.65625 228.101562 L 199.144531 228.34375 L 198.613281 228.539062 L 198.066406 228.679688 L 197.507812 228.761719 Z M 196.945312 228.789062 "/>
<path style="fill-rule:nonzero;fill:rgb(13.4692%,65.863597%,51.764899%);fill-opacity:1;stroke-width:1;stroke-linecap:butt;stroke-linejoin:miter;stroke:rgb(13.4692%,65.863597%,51.764899%);stroke-opacity:1;stroke-miterlimit:10;" d="M 264 345 L 246 345 L 246 525 L 264 525 Z M 264 345 "/>
<path style="fill-rule:nonzero;fill:rgb(13.4692%,65.863597%,51.764899%);fill-opacity:1;stroke-width:1;stroke-linecap:butt;stroke-linejoin:miter;stroke:rgb(13.4692%,65.863597%,51.764899%);stroke-opacity:1;stroke-miterlimit:10;" d="M 255 354 L 254.105469 353.957031 L 253.214844 353.820312 L 252.347656 353.601562 L 251.503906 353.292969 L 250.695312 352.902344 L 249.929688 352.4375 L 249.214844 351.894531 L 248.558594 351.285156 L 247.964844 350.613281 L 247.441406 349.882812 L 246.992188 349.105469 L 246.621094 348.289062 L 246.335938 347.4375 L 246.136719 346.5625 L 246.023438 345.671875 L 246.003906 344.777344 L 246.070312 343.882812 L 246.226562 342.996094 L 246.46875 342.132812 L 246.796875 341.296875 L 247.207031 340.5 L 247.691406 339.746094 L 248.253906 339.042969 L 248.878906 338.402344 L 249.566406 337.824219 L 250.308594 337.320312 L 251.09375 336.890625 L 251.921875 336.542969 L 252.777344 336.277344 L 253.660156 336.101562 L 254.550781 336.011719 L 255.449219 336.011719 L 256.339844 336.101562 L 257.222656 336.277344 L 258.078125 336.542969 L 258.90625 336.890625 L 259.691406 337.320312 L 260.433594 337.824219 L 261.121094 338.402344 L 261.746094 339.042969 L 262.308594 339.746094 L 262.792969 340.5 L 263.203125 341.296875 L 263.53125 342.132812 L 263.773438 342.996094 L 263.929688 343.882812 L 263.996094 344.777344 L 263.976562 345.671875 L 263.863281 346.5625 L 263.664062 347.4375 L 263.378906 348.289062 L 263.007812 349.105469 L 262.558594 349.882812 L 262.035156 350.613281 L 261.441406 351.285156 L 260.785156 351.894531 L 260.070312 352.4375 L 259.304688 352.902344 L 258.496094 353.292969 L 257.652344 353.601562 L 256.785156 353.820312 L 255.894531 353.957031 Z M 255 354 "/>
<path style="fill-rule:nonzero;fill:rgb(47.750399%,82.144397%,31.819499%);fill-opacity:1;stroke-width:1;stroke-linecap:butt;stroke-linejoin:miter;stroke:rgb(47.750399%,82.144397%,31.819499%);stroke-opacity:1;stroke-miterlimit:10;" d="M 223.824219 543 L 255 489 L 286.175781 543 Z M 223.824219 543 "/>
</g>
</svg>
