<svg xmlns="http://www.w3.org/2000/svg"
    height="55mm"
    width="150mm"
    viewBox="0 0 150 55">
    <path
    style="
        opacity:1;
        fill:#555753;
        stroke:none;
        paint-order:markers fill stroke" 
    d="
        M 14 20
        a 4.0,4.0 0 0 0 4.0,4.0 
        h 6.3 
        v -3 
        h -6.3 
        a 1.0,1.0 0 0 1 -1.0,-1.0 
        Z"
/>
<path
    style="
        opacity:1;
        fill:none;
        stroke:#000000;
        stroke-width:0.3;
        paint-order:markers fill stroke" 
    d="
        M 14 20
        a 4.0,4.0 0 0 0 4.0,4.0 
        h 6.3 
        m 0 -3 
        h -6.3 
        a 1.0,1.0 0 0 1 -1.0,-1.0 
        "
/>


<path
    style="
        opacity:1;
        fill:#555753;
        stroke:none;
        paint-order:markers fill stroke" 
    d="
        M 31 20
        h 3
        a 1.0,1.0 0 0 0 1.0,1.0
        h 6.3
        v 3
        h -17.6
        v -3
        h 6.3
        a 1.0,1.0 0 0 0 1.0,-1.0
        Z"
/>
<path
    style="
        opacity:1;
        fill:none;
        stroke:#000000;
        stroke-width:0.3;
        paint-order:markers fill stroke" 
    d="
        M 31 20
        h 3
        a 1.0,1.0 0 0 0 1.0,1.0
        h 6.3
        m 0 3
        h -17.6
        m 0 -3
        h 6.3
        a 1.0,1.0 0 0 0 1.0,-1.0
        "
/>


<path
    style="
        opacity:1;
        fill:#555753;
        stroke:none;
        paint-order:markers fill stroke" 
    d="
        M 48 20
        h 3
        a 1.0,1.0 0 0 0 1.0,1.0
        h 6.3
        v 3
        h -6.3
        a 1.0,1.0 0 0 0 -1.0,1.0
        h -3 
        a 1.0,1.0 0 0 0 -1.0,-1.0
        h -6.3
        v -3
        h 6.3
        a 1.0,1.0 0 0 0 1.0,-1.0
        Z"
/>
<path
    style="
        opacity:1;
        fill:none;
        stroke:#000000;
        stroke-width:0.3;
        paint-order:markers fill stroke" 
    d="
        M 48 20
        h 3
        a 1.0,1.0 0 0 0 1.0,1.0
        h 6.3
        m 0 3
        h -6.3
        a 1.0,1.0 0 0 0 -1.0,1.0
        h -3 
        a 1.0,1.0 0 0 0 -1.0,-1.0
        h -6.3
        m 0 -3
        h 6.3
        a 1.0,1.0 0 0 0 1.0,-1.0
        "
/>


<path
    style="
        opacity:1;
        fill:#555753;
        stroke:none;
        paint-order:markers fill stroke" 
    d="
        M 68 20
        a 4.0,4.0 0 0 1 -4.0,4.0 
        h -6.3 
        v -3 
        h 6.3 
        a 1.0,1.0 0 0 0 1.0,-1.0 
        Z"
/>
<path
    style="
        opacity:1;
        fill:none;
        stroke:#000000;
        stroke-width:0.3;
        paint-order:markers fill stroke" 
    d="
        M 68 20
        a 4.0,4.0 0 0 1 -4.0,4.0 
        h -6.3 
        m 0 -3 
        h 6.3 
        a 1.0,1.0 0 0 0 1.0,-1.0 
        "
/>


<path
    style="
        opacity:1;
        fill:#555753;
        stroke:none;
        paint-order:markers fill stroke" 
    d="
        M 82 20
        a 4.0,4.0 0 0 0 4.0,4.0 
        h 6.3 
        v -3 
        h -6.3 
        a 1.0,1.0 0 0 1 -1.0,-1.0 
        Z"
/>
<path
    style="
        opacity:1;
        fill:none;
        stroke:#000000;
        stroke-width:0.3;
        paint-order:markers fill stroke" 
    d="
        M 82 20
        a 4.0,4.0 0 0 0 4.0,4.0 
        h 6.3 
        m 0 -3 
        h -6.3 
        a 1.0,1.0 0 0 1 -1.0,-1.0 
        "
/>


<path
    style="
        opacity:1;
        fill:#555753;
        stroke:none;
        paint-order:markers fill stroke" 
    d="
        M 99 20
        h 3
        a 1.0,1.0 0 0 0 1.0,1.0
        h 6.3
        v 3
        h -17.6
        v -3
        h 6.3
        a 1.0,1.0 0 0 0 1.0,-1.0
        Z"
/>
<path
    style="
        opacity:1;
        fill:none;
        stroke:#000000;
        stroke-width:0.3;
        paint-order:markers fill stroke" 
    d="
        M 99 20
        h 3
        a 1.0,1.0 0 0 0 1.0,1.0
        h 6.3
        m 0 3
        h -17.6
        m 0 -3
        h 6.3
        a 1.0,1.0 0 0 0 1.0,-1.0
        "
/>


<path
    style="
        opacity:1;
        fill:#555753;
        stroke:none;
        paint-order:markers fill stroke" 
    d="
        M 116 20
        h 3
        a 1.0,1.0 0 0 0 1.0,1.0
        h 6.3
        v 3
        h -6.3
        a 1.0,1.0 0 0 0 -1.0,1.0
        h -3 
        a 1.0,1.0 0 0 0 -1.0,-1.0
        h -6.3
        v -3
        h 6.3
        a 1.0,1.0 0 0 0 1.0,-1.0
        Z"
/>
<path
    style="
        opacity:1;
        fill:none;
        stroke:#000000;
        stroke-width:0.3;
        paint-order:markers fill stroke" 
    d="
        M 116 20
        h 3
        a 1.0,1.0 0 0 0 1.0,1.0
        h 6.3
        m 0 3
        h -6.3
        a 1.0,1.0 0 0 0 -1.0,1.0
        h -3 
        a 1.0,1.0 0 0 0 -1.0,-1.0
        h -6.3
        m 0 -3
        h 6.3
        a 1.0,1.0 0 0 0 1.0,-1.0
        "
/>


<path
    style="
        opacity:1;
        fill:#555753;
        stroke:none;
        paint-order:markers fill stroke" 
    d="
        M 136 20
        a 4.0,4.0 0 0 1 -4.0,4.0 
        h -6.3 
        v -3 
        h 6.3 
        a 1.0,1.0 0 0 0 1.0,-1.0 
        Z"
/>
<path
    style="
        opacity:1;
        fill:none;
        stroke:#000000;
        stroke-width:0.3;
        paint-order:markers fill stroke" 
    d="
        M 136 20
        a 4.0,4.0 0 0 1 -4.0,4.0 
        h -6.3 
        m 0 -3 
        h 6.3 
        a 1.0,1.0 0 0 0 1.0,-1.0 
        "
/>


<path
    style="
        opacity:1;
        fill:#555753;
        stroke:none;
        paint-order:markers fill stroke" 
    d="
        M 48 35
        a 4.0,4.0 0 0 0 4.0,4.0 
        h 6.3 
        v -3 
        h -6.3 
        a 1.0,1.0 0 0 1 -1.0,-1.0 
        Z"
/>
<path
    style="
        opacity:1;
        fill:none;
        stroke:#000000;
        stroke-width:0.3;
        paint-order:markers fill stroke" 
    d="
        M 48 35
        a 4.0,4.0 0 0 0 4.0,4.0 
        h 6.3 
        m 0 -3 
        h -6.3 
        a 1.0,1.0 0 0 1 -1.0,-1.0 
        "
/>


<path
    style="
        opacity:1;
        fill:#555753;
        stroke:none;
        paint-order:markers fill stroke" 
    d="
        M 58 36.0
        h 17.3
        v 3
        h -17.3
        Z"
/>
<path
    style="
        opacity:1;
        fill:none;
        stroke:#000000;
        stroke-width:0.3;
        paint-order:markers fill stroke" 
    d="
        M 58 36.0
        h 17.3
        m 0 3
        h -17.3
        "
/>


<path
    style="
        opacity:1;
        fill:#555753;
        stroke:none;
        paint-order:markers fill stroke" 
    d="
        M 82 40
        h 3
        a 1.0,1.0 0 0 1 1.0,-1.0
        h 6.3
        v -3
        h -17.6
        v 3
        h 6.3
        a 1.0,1.0 0 0 1 1.0,1.0
        Z"
/>
<path
    style="
        opacity:1;
        fill:none;
        stroke:#000000;
        stroke-width:0.3;
        paint-order:markers fill stroke" 
    d="
        M 82 40
        h 3
        a 1.0,1.0 0 0 1 1.0,-1.0
        h 6.3
        m 0 -3
        h -17.6
        m 0 3
        h 6.3
        a 1.0,1.0 0 0 1 1.0,1.0
        "
/>


<path
    style="
        opacity:1;
        fill:#555753;
        stroke:none;
        paint-order:markers fill stroke" 
    d="
        M 92 36.0
        h 17.3
        v 3
        h -17.3
        Z"
/>
<path
    style="
        opacity:1;
        fill:none;
        stroke:#000000;
        stroke-width:0.3;
        paint-order:markers fill stroke" 
    d="
        M 92 36.0
        h 17.3
        m 0 3
        h -17.3
        "
/>


<path
    style="
        opacity:1;
        fill:#555753;
        stroke:none;
        paint-order:markers fill stroke" 
    d="
        M 119 35
        a 4.0,4.0 0 0 1 -4.0,4.0 
        h -6.3 
        v -3 
        h 6.3 
        a 1.0,1.0 0 0 0 1.0,-1.0 
        Z"
/>
<path
    style="
        opacity:1;
        fill:none;
        stroke:#000000;
        stroke-width:0.3;
        paint-order:markers fill stroke" 
    d="
        M 119 35
        a 4.0,4.0 0 0 1 -4.0,4.0 
        h -6.3 
        m 0 -3 
        h 6.3 
        a 1.0,1.0 0 0 0 1.0,-1.0 
        "
/>


<path
    style="
        opacity: 1;
        fill:#babdb6; 
        stroke:#000000;
        stroke-width:0.3;
        paint-order:markers fill stroke" 
    d=" 
        M 17 10
        a 1.5 1.5, 0, 0, 0, -3 0
        v 10
        h 3
        v -10
        Z
    "

        height="10" 
        width="3" 
    x = "14"
    y = "10"
/>


<path
    style="
        opacity: 1;
        fill:#babdb6; 
        stroke:#000000;
        stroke-width:0.3;
        paint-order:markers fill stroke" 
    d=" 
        M 34 10
        a 1.5 1.5, 0, 0, 0, -3 0
        v 10
        h 3
        v -10
        Z
    "

        height="10" 
        width="3" 
    x = "31"
    y = "10"
/>


<path
    style="
        opacity: 1;
        fill:#babdb6; 
        stroke:#000000;
        stroke-width:0.3;
        paint-order:markers fill stroke" 
    d=" 
        M 51 10
        a 1.5 1.5, 0, 0, 0, -3 0
        v 10
        h 3
        v -10
        Z
    "

        height="10" 
        width="3" 
    x = "48"
    y = "10"
/>


<path
    style="
        opacity: 1;
        fill:#babdb6; 
        stroke:#000000;
        stroke-width:0.3;
        paint-order:markers fill stroke" 
    d=" 
        M 68 10
        a 1.5 1.5, 0, 0, 0, -3 0
        v 10
        h 3
        v -10
        Z
    "

        height="10" 
        width="3" 
    x = "65"
    y = "10"
/>


<path
    style="
        opacity: 1;
        fill:#babdb6; 
        stroke:#000000;
        stroke-width:0.3;
        paint-order:markers fill stroke" 
    d=" 
        M 85 10
        a 1.5 1.5, 0, 0, 0, -3 0
        v 10
        h 3
        v -10
        Z
    "

        height="10" 
        width="3" 
    x = "82"
    y = "10"
/>


<path
    style="
        opacity: 1;
        fill:#babdb6; 
        stroke:#000000;
        stroke-width:0.3;
        paint-order:markers fill stroke" 
    d=" 
        M 102 10
        a 1.5 1.5, 0, 0, 0, -3 0
        v 10
        h 3
        v -10
        Z
    "

        height="10" 
        width="3" 
    x = "99"
    y = "10"
/>


<path
    style="
        opacity: 1;
        fill:#babdb6; 
        stroke:#000000;
        stroke-width:0.3;
        paint-order:markers fill stroke" 
    d=" 
        M 119 10
        a 1.5 1.5, 0, 0, 0, -3 0
        v 10
        h 3
        v -10
        Z
    "

        height="10" 
        width="3" 
    x = "116"
    y = "10"
/>


<path
    style="
        opacity: 1;
        fill:#babdb6; 
        stroke:#000000;
        stroke-width:0.3;
        paint-order:markers fill stroke" 
    d=" 
        M 136 10
        a 1.5 1.5, 0, 0, 0, -3 0
        v 10
        h 3
        v -10
        Z
    "

        height="10" 
        width="3" 
    x = "133"
    y = "10"
/>


<rect
    height="10" 
    width="3" 
    style="
        opacity: 1;
        fill:#babdb6; 
        stroke:#000000;
        stroke-width:0.3;
        paint-order:markers fill stroke" 

    x = "48"
    y = "25"
/>


<rect
    height="10" 
    width="3" 
    style="
        opacity: 1;
        fill:#babdb6; 
        stroke:#000000;
        stroke-width:0.3;
        paint-order:markers fill stroke" 

    x = "116"
    y = "25"
/>


<path
    style="
        opacity:1;
        fill:#babdb6;
        stroke:#000000;
        stroke-width:0.3;
        paint-order:markers fill stroke"

    d="
        M 82 40
        v 1.0 
        c 0.0,1.0 -3.0,7.45325 -3.0,8.0 0.0,2.0 9.0,2.0 9.0,0.0 0.0,-0.54675 -3.0,-6.90657 -3.0,-8.0
        v -1.0
        z"
/>


<text 
    style="
        font-style:normal;font-variant:normal;font-weight:normal;font-stretch:normal;font-size:6px;
        font-family:'Bitstream Charter'; font-variant-ligatures:normal; font-variant-caps:normal;font-variant-numeric:normal;font-feature-settings:normal;
        letter-spacing:0px;word-spacing:0px;writing-mode:lr-tb;fill:#000000;fill-opacity:1;stroke:none;
        line-height:1.25;
        " 
    x="6.3" 
    y="15.0"
    dy="1.5"
>        
    <tspan>A</tspan>
</text>


<text 
    style="
        font-style:normal;font-variant:normal;font-weight:normal;font-stretch:normal;font-size:6px;
        font-family:'Bitstream Charter'; font-variant-ligatures:normal; font-variant-caps:normal;font-variant-numeric:normal;font-feature-settings:normal;
        letter-spacing:0px;word-spacing:0px;writing-mode:lr-tb;fill:#000000;fill-opacity:1;stroke:none;
        line-height:1.25;
        " 
    x="23.3" 
    y="15.0"
    dy="1.5"
>        
    <tspan>B</tspan>
</text>


<text 
    style="
        font-style:normal;font-variant:normal;font-weight:normal;font-stretch:normal;font-size:6px;
        font-family:'Bitstream Charter'; font-variant-ligatures:normal; font-variant-caps:normal;font-variant-numeric:normal;font-feature-settings:normal;
        letter-spacing:0px;word-spacing:0px;writing-mode:lr-tb;fill:#000000;fill-opacity:1;stroke:none;
        line-height:1.25;
        " 
    x="40.3" 
    y="15.0"
    dy="1.5"
>        
    <tspan>C</tspan>
</text>


<text 
    style="
        font-style:normal;font-variant:normal;font-weight:normal;font-stretch:normal;font-size:6px;
        font-family:'Bitstream Charter'; font-variant-ligatures:normal; font-variant-caps:normal;font-variant-numeric:normal;font-feature-settings:normal;
        letter-spacing:0px;word-spacing:0px;writing-mode:lr-tb;fill:#000000;fill-opacity:1;stroke:none;
        line-height:1.25;
        " 
    x="57.3" 
    y="15.0"
    dy="1.5"
>        
    <tspan>D</tspan>
</text>


<text 
    style="
        font-style:normal;font-variant:normal;font-weight:normal;font-stretch:normal;font-size:6px;
        font-family:'Bitstream Charter'; font-variant-ligatures:normal; font-variant-caps:normal;font-variant-numeric:normal;font-feature-settings:normal;
        letter-spacing:0px;word-spacing:0px;writing-mode:lr-tb;fill:#000000;fill-opacity:1;stroke:none;
        line-height:1.25;
        " 
    x="74.3" 
    y="15.0"
    dy="1.5"
>        
    <tspan>E</tspan>
</text>


<text 
    style="
        font-style:normal;font-variant:normal;font-weight:normal;font-stretch:normal;font-size:6px;
        font-family:'Bitstream Charter'; font-variant-ligatures:normal; font-variant-caps:normal;font-variant-numeric:normal;font-feature-settings:normal;
        letter-spacing:0px;word-spacing:0px;writing-mode:lr-tb;fill:#000000;fill-opacity:1;stroke:none;
        line-height:1.25;
        " 
    x="91.3" 
    y="15.0"
    dy="1.5"
>        
    <tspan>F</tspan>
</text>


<text 
    style="
        font-style:normal;font-variant:normal;font-weight:normal;font-stretch:normal;font-size:6px;
        font-family:'Bitstream Charter'; font-variant-ligatures:normal; font-variant-caps:normal;font-variant-numeric:normal;font-feature-settings:normal;
        letter-spacing:0px;word-spacing:0px;writing-mode:lr-tb;fill:#000000;fill-opacity:1;stroke:none;
        line-height:1.25;
        " 
    x="108.3" 
    y="15.0"
    dy="1.5"
>        
    <tspan>G</tspan>
</text>


<text 
    style="
        font-style:normal;font-variant:normal;font-weight:normal;font-stretch:normal;font-size:6px;
        font-family:'Bitstream Charter'; font-variant-ligatures:normal; font-variant-caps:normal;font-variant-numeric:normal;font-feature-settings:normal;
        letter-spacing:0px;word-spacing:0px;writing-mode:lr-tb;fill:#000000;fill-opacity:1;stroke:none;
        line-height:1.25;
        " 
    x="125.3" 
    y="15.0"
    dy="1.5"
>        
    <tspan>H</tspan>
</text>


<text 
    style="
        font-style:normal;font-variant:normal;font-weight:normal;font-stretch:normal;font-size:6px;
        font-family:'Bitstream Charter'; font-variant-ligatures:normal; font-variant-caps:normal;font-variant-numeric:normal;font-feature-settings:normal;
        letter-spacing:0px;word-spacing:0px;writing-mode:lr-tb;fill:#555753;fill-opacity:1;stroke:none;
        line-height:1.25;
        " 
    x="68.7" 
    y="22.5"
    dy="1.5"
>        
    <tspan>1</tspan>
</text>


<text 
    style="
        font-style:normal;font-variant:normal;font-weight:normal;font-stretch:normal;font-size:6px;
        font-family:'Bitstream Charter'; font-variant-ligatures:normal; font-variant-caps:normal;font-variant-numeric:normal;font-feature-settings:normal;
        letter-spacing:0px;word-spacing:0px;writing-mode:lr-tb;fill:#000000;fill-opacity:1;stroke:none;
        line-height:1.25;
        " 
    x="40.3" 
    y="30.0"
    dy="1.5"
>        
    <tspan>I</tspan>
</text>


<text 
    style="
        font-style:normal;font-variant:normal;font-weight:normal;font-stretch:normal;font-size:6px;
        font-family:'Bitstream Charter'; font-variant-ligatures:normal; font-variant-caps:normal;font-variant-numeric:normal;font-feature-settings:normal;
        letter-spacing:0px;word-spacing:0px;writing-mode:lr-tb;fill:#555753;fill-opacity:1;stroke:none;
        line-height:1.25;
        " 
    x="136.7" 
    y="22.5"
    dy="1.5"
>        
    <tspan>1</tspan>
</text>


<text 
    style="
        font-style:normal;font-variant:normal;font-weight:normal;font-stretch:normal;font-size:6px;
        font-family:'Bitstream Charter'; font-variant-ligatures:normal; font-variant-caps:normal;font-variant-numeric:normal;font-feature-settings:normal;
        letter-spacing:0px;word-spacing:0px;writing-mode:lr-tb;fill:#000000;fill-opacity:1;stroke:none;
        line-height:1.25;
        " 
    x="108.3" 
    y="30.0"
    dy="1.5"
>        
    <tspan>J</tspan>
</text>


<text 
    style="
        font-style:normal;font-variant:normal;font-weight:normal;font-stretch:normal;font-size:6px;
        font-family:'Bitstream Charter'; font-variant-ligatures:normal; font-variant-caps:normal;font-variant-numeric:normal;font-feature-settings:normal;
        letter-spacing:0px;word-spacing:0px;writing-mode:lr-tb;fill:#555753;fill-opacity:1;stroke:none;
        line-height:1.25;
        " 
    x="119.7" 
    y="37.5"
    dy="1.5"
>        
    <tspan>2</tspan>
</text>


<text 
    style="
        font-style:normal;font-variant:normal;font-weight:normal;font-stretch:normal;font-size:6px;
        font-family:'Bitstream Charter'; font-variant-ligatures:normal; font-variant-caps:normal;font-variant-numeric:normal;font-feature-settings:normal;
        letter-spacing:0px;word-spacing:0px;writing-mode:lr-tb;fill:#000000;fill-opacity:1;stroke:none;
        line-height:1.25;
        " 
    x="74.3" 
    y="45.0"
    dy="1.5"
>        
    <tspan>K</tspan>
</text>


</svg>
