<?xml version="1.0" encoding="utf-8"?>
<svg xmlns="http://www.w3.org/2000/svg" xmlns:xlink="http://www.w3.org/1999/xlink" width="600" height="400" viewBox="0 0 2400 1600">
<defs>
  <clipPath id="clip130">
    <rect x="0" y="0" width="2400" height="1600"/>
  </clipPath>
</defs>
<path clip-path="url(#clip130)" d="
M0 1600 L2400 1600 L2400 0 L0 0  Z
  " fill="#ffffff" fill-rule="evenodd" fill-opacity="1"/>
<defs>
  <clipPath id="clip131">
    <rect x="480" y="0" width="1681" height="1600"/>
  </clipPath>
</defs>
<path clip-path="url(#clip130)" d="
M139.191 1486.45 L2112.76 1486.45 L2112.76 47.2441 L139.191 47.2441  Z
  " fill="#ffffff" fill-rule="evenodd" fill-opacity="1"/>
<defs>
  <clipPath id="clip132">
    <rect x="139" y="47" width="1975" height="1440"/>
  </clipPath>
</defs>
<polyline clip-path="url(#clip132)" style="stroke:#000000; stroke-width:2; stroke-opacity:0.1; fill:none" points="
  139.191,1486.45 139.191,47.2441 
  "/>
<polyline clip-path="url(#clip132)" style="stroke:#000000; stroke-width:2; stroke-opacity:0.1; fill:none" points="
  533.904,1486.45 533.904,47.2441 
  "/>
<polyline clip-path="url(#clip132)" style="stroke:#000000; stroke-width:2; stroke-opacity:0.1; fill:none" points="
  928.617,1486.45 928.617,47.2441 
  "/>
<polyline clip-path="url(#clip132)" style="stroke:#000000; stroke-width:2; stroke-opacity:0.1; fill:none" points="
  1323.33,1486.45 1323.33,47.2441 
  "/>
<polyline clip-path="url(#clip132)" style="stroke:#000000; stroke-width:2; stroke-opacity:0.1; fill:none" points="
  1718.04,1486.45 1718.04,47.2441 
  "/>
<polyline clip-path="url(#clip132)" style="stroke:#000000; stroke-width:2; stroke-opacity:0.1; fill:none" points="
  2112.76,1486.45 2112.76,47.2441 
  "/>
<polyline clip-path="url(#clip132)" style="stroke:#000000; stroke-width:2; stroke-opacity:0.1; fill:none" points="
  139.191,1486.45 2112.76,1486.45 
  "/>
<polyline clip-path="url(#clip132)" style="stroke:#000000; stroke-width:2; stroke-opacity:0.1; fill:none" points="
  139.191,1198.61 2112.76,1198.61 
  "/>
<polyline clip-path="url(#clip132)" style="stroke:#000000; stroke-width:2; stroke-opacity:0.1; fill:none" points="
  139.191,910.766 2112.76,910.766 
  "/>
<polyline clip-path="url(#clip132)" style="stroke:#000000; stroke-width:2; stroke-opacity:0.1; fill:none" points="
  139.191,622.926 2112.76,622.926 
  "/>
<polyline clip-path="url(#clip132)" style="stroke:#000000; stroke-width:2; stroke-opacity:0.1; fill:none" points="
  139.191,335.085 2112.76,335.085 
  "/>
<polyline clip-path="url(#clip132)" style="stroke:#000000; stroke-width:2; stroke-opacity:0.1; fill:none" points="
  139.191,47.2441 2112.76,47.2441 
  "/>
<polyline clip-path="url(#clip130)" style="stroke:#000000; stroke-width:4; stroke-opacity:1; fill:none" points="
  139.191,1486.45 2112.76,1486.45 
  "/>
<polyline clip-path="url(#clip130)" style="stroke:#000000; stroke-width:4; stroke-opacity:1; fill:none" points="
  139.191,1486.45 139.191,47.2441 
  "/>
<polyline clip-path="url(#clip130)" style="stroke:#000000; stroke-width:4; stroke-opacity:1; fill:none" points="
  139.191,1486.45 139.191,1469.18 
  "/>
<polyline clip-path="url(#clip130)" style="stroke:#000000; stroke-width:4; stroke-opacity:1; fill:none" points="
  533.904,1486.45 533.904,1469.18 
  "/>
<polyline clip-path="url(#clip130)" style="stroke:#000000; stroke-width:4; stroke-opacity:1; fill:none" points="
  928.617,1486.45 928.617,1469.18 
  "/>
<polyline clip-path="url(#clip130)" style="stroke:#000000; stroke-width:4; stroke-opacity:1; fill:none" points="
  1323.33,1486.45 1323.33,1469.18 
  "/>
<polyline clip-path="url(#clip130)" style="stroke:#000000; stroke-width:4; stroke-opacity:1; fill:none" points="
  1718.04,1486.45 1718.04,1469.18 
  "/>
<polyline clip-path="url(#clip130)" style="stroke:#000000; stroke-width:4; stroke-opacity:1; fill:none" points="
  2112.76,1486.45 2112.76,1469.18 
  "/>
<polyline clip-path="url(#clip130)" style="stroke:#000000; stroke-width:4; stroke-opacity:1; fill:none" points="
  139.191,1486.45 162.874,1486.45 
  "/>
<polyline clip-path="url(#clip130)" style="stroke:#000000; stroke-width:4; stroke-opacity:1; fill:none" points="
  139.191,1198.61 162.874,1198.61 
  "/>
<polyline clip-path="url(#clip130)" style="stroke:#000000; stroke-width:4; stroke-opacity:1; fill:none" points="
  139.191,910.766 162.874,910.766 
  "/>
<polyline clip-path="url(#clip130)" style="stroke:#000000; stroke-width:4; stroke-opacity:1; fill:none" points="
  139.191,622.926 162.874,622.926 
  "/>
<polyline clip-path="url(#clip130)" style="stroke:#000000; stroke-width:4; stroke-opacity:1; fill:none" points="
  139.191,335.085 162.874,335.085 
  "/>
<polyline clip-path="url(#clip130)" style="stroke:#000000; stroke-width:4; stroke-opacity:1; fill:none" points="
  139.191,47.2441 162.874,47.2441 
  "/>
<path clip-path="url(#clip130)" d="M 0 0 M139.191 1508.44 Q135.58 1508.44 133.751 1512 Q131.946 1515.55 131.946 1522.67 Q131.946 1529.78 133.751 1533.35 Q135.58 1536.89 139.191 1536.89 Q142.825 1536.89 144.631 1533.35 Q146.459 1529.78 146.459 1522.67 Q146.459 1515.55 144.631 1512 Q142.825 1508.44 139.191 1508.44 M139.191 1504.73 Q145.001 1504.73 148.057 1509.34 Q151.135 1513.92 151.135 1522.67 Q151.135 1531.4 148.057 1536.01 Q145.001 1540.59 139.191 1540.59 Q133.381 1540.59 130.302 1536.01 Q127.247 1531.4 127.247 1522.67 Q127.247 1513.92 130.302 1509.34 Q133.381 1504.73 139.191 1504.73 Z" fill="#000000" fill-rule="evenodd" fill-opacity="1" /><path clip-path="url(#clip130)" d="M 0 0 M510.779 1535.98 L518.418 1535.98 L518.418 1509.62 L510.108 1511.29 L510.108 1507.03 L518.372 1505.36 L523.047 1505.36 L523.047 1535.98 L530.686 1535.98 L530.686 1539.92 L510.779 1539.92 L510.779 1535.98 Z" fill="#000000" fill-rule="evenodd" fill-opacity="1" /><path clip-path="url(#clip130)" d="M 0 0 M545.756 1508.44 Q542.145 1508.44 540.316 1512 Q538.51 1515.55 538.51 1522.67 Q538.51 1529.78 540.316 1533.35 Q542.145 1536.89 545.756 1536.89 Q549.39 1536.89 551.195 1533.35 Q553.024 1529.78 553.024 1522.67 Q553.024 1515.55 551.195 1512 Q549.39 1508.44 545.756 1508.44 M545.756 1504.73 Q551.566 1504.73 554.621 1509.34 Q557.7 1513.92 557.7 1522.67 Q557.7 1531.4 554.621 1536.01 Q551.566 1540.59 545.756 1540.59 Q539.946 1540.59 536.867 1536.01 Q533.811 1531.4 533.811 1522.67 Q533.811 1513.92 536.867 1509.34 Q539.946 1504.73 545.756 1504.73 Z" fill="#000000" fill-rule="evenodd" fill-opacity="1" /><path clip-path="url(#clip130)" d="M 0 0 M909.763 1535.98 L926.082 1535.98 L926.082 1539.92 L904.138 1539.92 L904.138 1535.98 Q906.8 1533.23 911.383 1528.6 Q915.99 1523.95 917.17 1522.61 Q919.416 1520.08 920.295 1518.35 Q921.198 1516.59 921.198 1514.9 Q921.198 1512.14 919.254 1510.41 Q917.332 1508.67 914.23 1508.67 Q912.031 1508.67 909.578 1509.43 Q907.147 1510.2 904.369 1511.75 L904.369 1507.03 Q907.193 1505.89 909.647 1505.31 Q912.101 1504.73 914.138 1504.73 Q919.508 1504.73 922.703 1507.42 Q925.897 1510.11 925.897 1514.6 Q925.897 1516.73 925.087 1518.65 Q924.3 1520.54 922.193 1523.14 Q921.615 1523.81 918.513 1527.03 Q915.411 1530.22 909.763 1535.98 Z" fill="#000000" fill-rule="evenodd" fill-opacity="1" /><path clip-path="url(#clip130)" d="M 0 0 M941.152 1508.44 Q937.54 1508.44 935.712 1512 Q933.906 1515.55 933.906 1522.67 Q933.906 1529.78 935.712 1533.35 Q937.54 1536.89 941.152 1536.89 Q944.786 1536.89 946.591 1533.35 Q948.42 1529.78 948.42 1522.67 Q948.42 1515.55 946.591 1512 Q944.786 1508.44 941.152 1508.44 M941.152 1504.73 Q946.962 1504.73 950.017 1509.34 Q953.096 1513.92 953.096 1522.67 Q953.096 1531.4 950.017 1536.01 Q946.962 1540.59 941.152 1540.59 Q935.341 1540.59 932.263 1536.01 Q929.207 1531.4 929.207 1522.67 Q929.207 1513.92 932.263 1509.34 Q935.341 1504.73 941.152 1504.73 Z" fill="#000000" fill-rule="evenodd" fill-opacity="1" /><path clip-path="url(#clip130)" d="M 0 0 M1314.07 1521.29 Q1317.43 1522 1319.3 1524.27 Q1321.2 1526.54 1321.2 1529.87 Q1321.2 1534.99 1317.68 1537.79 Q1314.16 1540.59 1307.68 1540.59 Q1305.51 1540.59 1303.19 1540.15 Q1300.9 1539.73 1298.45 1538.88 L1298.45 1534.36 Q1300.39 1535.5 1302.71 1536.08 Q1305.02 1536.66 1307.54 1536.66 Q1311.94 1536.66 1314.23 1534.92 Q1316.55 1533.18 1316.55 1529.87 Q1316.55 1526.82 1314.39 1525.11 Q1312.27 1523.37 1308.45 1523.37 L1304.42 1523.37 L1304.42 1519.53 L1308.63 1519.53 Q1312.08 1519.53 1313.91 1518.16 Q1315.74 1516.77 1315.74 1514.18 Q1315.74 1511.52 1313.84 1510.11 Q1311.96 1508.67 1308.45 1508.67 Q1306.52 1508.67 1304.33 1509.09 Q1302.13 1509.5 1299.49 1510.38 L1299.49 1506.22 Q1302.15 1505.48 1304.46 1505.11 Q1306.8 1504.73 1308.86 1504.73 Q1314.19 1504.73 1317.29 1507.17 Q1320.39 1509.57 1320.39 1513.69 Q1320.39 1516.56 1318.75 1518.55 Q1317.1 1520.52 1314.07 1521.29 Z" fill="#000000" fill-rule="evenodd" fill-opacity="1" /><path clip-path="url(#clip130)" d="M 0 0 M1336.27 1508.44 Q1332.66 1508.44 1330.83 1512 Q1329.02 1515.55 1329.02 1522.67 Q1329.02 1529.78 1330.83 1533.35 Q1332.66 1536.89 1336.27 1536.89 Q1339.9 1536.89 1341.71 1533.35 Q1343.54 1529.78 1343.54 1522.67 Q1343.54 1515.55 1341.71 1512 Q1339.9 1508.44 1336.27 1508.44 M1336.27 1504.73 Q1342.08 1504.73 1345.14 1509.34 Q1348.21 1513.92 1348.21 1522.67 Q1348.21 1531.4 1345.14 1536.01 Q1342.08 1540.59 1336.27 1540.59 Q1330.46 1540.59 1327.38 1536.01 Q1324.33 1531.4 1324.33 1522.67 Q1324.33 1513.92 1327.38 1509.34 Q1330.46 1504.73 1336.27 1504.73 Z" fill="#000000" fill-rule="evenodd" fill-opacity="1" /><path clip-path="url(#clip130)" d="M 0 0 M1707.55 1509.43 L1695.74 1527.88 L1707.55 1527.88 L1707.55 1509.43 M1706.32 1505.36 L1712.2 1505.36 L1712.2 1527.88 L1717.13 1527.88 L1717.13 1531.77 L1712.2 1531.77 L1712.2 1539.92 L1707.55 1539.92 L1707.55 1531.77 L1691.94 1531.77 L1691.94 1527.26 L1706.32 1505.36 Z" fill="#000000" fill-rule="evenodd" fill-opacity="1" /><path clip-path="url(#clip130)" d="M 0 0 M1732.2 1508.44 Q1728.59 1508.44 1726.76 1512 Q1724.95 1515.55 1724.95 1522.67 Q1724.95 1529.78 1726.76 1533.35 Q1728.59 1536.89 1732.2 1536.89 Q1735.83 1536.89 1737.64 1533.35 Q1739.47 1529.78 1739.47 1522.67 Q1739.47 1515.55 1737.64 1512 Q1735.83 1508.44 1732.2 1508.44 M1732.2 1504.73 Q1738.01 1504.73 1741.06 1509.34 Q1744.14 1513.92 1744.14 1522.67 Q1744.14 1531.4 1741.06 1536.01 Q1738.01 1540.59 1732.2 1540.59 Q1726.39 1540.59 1723.31 1536.01 Q1720.25 1531.4 1720.25 1522.67 Q1720.25 1513.92 1723.31 1509.34 Q1726.39 1504.73 1732.2 1504.73 Z" fill="#000000" fill-rule="evenodd" fill-opacity="1" /><path clip-path="url(#clip130)" d="M 0 0 M2089.53 1505.36 L2107.88 1505.36 L2107.88 1509.3 L2093.81 1509.3 L2093.81 1517.77 Q2094.83 1517.42 2095.85 1517.26 Q2096.86 1517.07 2097.88 1517.07 Q2103.67 1517.07 2107.05 1520.24 Q2110.43 1523.42 2110.43 1528.83 Q2110.43 1534.41 2106.96 1537.51 Q2103.49 1540.59 2097.17 1540.59 Q2094.99 1540.59 2092.72 1540.22 Q2090.48 1539.85 2088.07 1539.11 L2088.07 1534.41 Q2090.15 1535.54 2092.37 1536.1 Q2094.6 1536.66 2097.07 1536.66 Q2101.08 1536.66 2103.42 1534.55 Q2105.75 1532.44 2105.75 1528.83 Q2105.75 1525.22 2103.42 1523.11 Q2101.08 1521.01 2097.07 1521.01 Q2095.2 1521.01 2093.32 1521.42 Q2091.47 1521.84 2089.53 1522.72 L2089.53 1505.36 Z" fill="#000000" fill-rule="evenodd" fill-opacity="1" /><path clip-path="url(#clip130)" d="M 0 0 M2125.5 1508.44 Q2121.89 1508.44 2120.06 1512 Q2118.25 1515.55 2118.25 1522.67 Q2118.25 1529.78 2120.06 1533.35 Q2121.89 1536.89 2125.5 1536.89 Q2129.13 1536.89 2130.94 1533.35 Q2132.77 1529.78 2132.77 1522.67 Q2132.77 1515.55 2130.94 1512 Q2129.13 1508.44 2125.5 1508.44 M2125.5 1504.73 Q2131.31 1504.73 2134.36 1509.34 Q2137.44 1513.92 2137.44 1522.67 Q2137.44 1531.4 2134.36 1536.01 Q2131.31 1540.59 2125.5 1540.59 Q2119.69 1540.59 2116.61 1536.01 Q2113.55 1531.4 2113.55 1522.67 Q2113.55 1513.92 2116.61 1509.34 Q2119.69 1504.73 2125.5 1504.73 Z" fill="#000000" fill-rule="evenodd" fill-opacity="1" /><path clip-path="url(#clip130)" d="M 0 0 M103.247 1472.25 Q99.6354 1472.25 97.8068 1475.81 Q96.0012 1479.35 96.0012 1486.48 Q96.0012 1493.59 97.8068 1497.15 Q99.6354 1500.7 103.247 1500.7 Q106.881 1500.7 108.686 1497.15 Q110.515 1493.59 110.515 1486.48 Q110.515 1479.35 108.686 1475.81 Q106.881 1472.25 103.247 1472.25 M103.247 1468.54 Q109.057 1468.54 112.112 1473.15 Q115.191 1477.73 115.191 1486.48 Q115.191 1495.21 112.112 1499.82 Q109.057 1504.4 103.247 1504.4 Q97.4364 1504.4 94.3577 1499.82 Q91.3022 1495.21 91.3022 1486.48 Q91.3022 1477.73 94.3577 1473.15 Q97.4364 1468.54 103.247 1468.54 Z" fill="#000000" fill-rule="evenodd" fill-opacity="1" /><path clip-path="url(#clip130)" d="M 0 0 M68.2699 1211.95 L75.9087 1211.95 L75.9087 1185.59 L67.5986 1187.25 L67.5986 1182.99 L75.8624 1181.33 L80.5383 1181.33 L80.5383 1211.95 L88.1772 1211.95 L88.1772 1215.89 L68.2699 1215.89 L68.2699 1211.95 Z" fill="#000000" fill-rule="evenodd" fill-opacity="1" /><path clip-path="url(#clip130)" d="M 0 0 M103.247 1184.41 Q99.6354 1184.41 97.8068 1187.97 Q96.0012 1191.51 96.0012 1198.64 Q96.0012 1205.75 97.8068 1209.31 Q99.6354 1212.85 103.247 1212.85 Q106.881 1212.85 108.686 1209.31 Q110.515 1205.75 110.515 1198.64 Q110.515 1191.51 108.686 1187.97 Q106.881 1184.41 103.247 1184.41 M103.247 1180.7 Q109.057 1180.7 112.112 1185.31 Q115.191 1189.89 115.191 1198.64 Q115.191 1207.37 112.112 1211.98 Q109.057 1216.56 103.247 1216.56 Q97.4364 1216.56 94.3577 1211.98 Q91.3022 1207.37 91.3022 1198.64 Q91.3022 1189.89 94.3577 1185.31 Q97.4364 1180.7 103.247 1180.7 Z" fill="#000000" fill-rule="evenodd" fill-opacity="1" /><path clip-path="url(#clip130)" d="M 0 0 M71.8578 924.111 L88.1772 924.111 L88.1772 928.046 L66.2328 928.046 L66.2328 924.111 Q68.8949 921.357 73.4782 916.727 Q78.0846 912.074 79.2652 910.732 Q81.5105 908.209 82.3902 906.472 Q83.2929 904.713 83.2929 903.023 Q83.2929 900.269 81.3485 898.533 Q79.4272 896.797 76.3254 896.797 Q74.1263 896.797 71.6726 897.56 Q69.2421 898.324 66.4643 899.875 L66.4643 895.153 Q69.2884 894.019 71.7421 893.44 Q74.1958 892.861 76.2328 892.861 Q81.6031 892.861 84.7976 895.547 Q87.992 898.232 87.992 902.722 Q87.992 904.852 87.1818 906.773 Q86.3948 908.671 84.2883 911.264 Q83.7096 911.935 80.6078 915.153 Q77.5059 918.347 71.8578 924.111 Z" fill="#000000" fill-rule="evenodd" fill-opacity="1" /><path clip-path="url(#clip130)" d="M 0 0 M103.247 896.565 Q99.6354 896.565 97.8068 900.13 Q96.0012 903.671 96.0012 910.801 Q96.0012 917.908 97.8068 921.472 Q99.6354 925.014 103.247 925.014 Q106.881 925.014 108.686 921.472 Q110.515 917.908 110.515 910.801 Q110.515 903.671 108.686 900.13 Q106.881 896.565 103.247 896.565 M103.247 892.861 Q109.057 892.861 112.112 897.468 Q115.191 902.051 115.191 910.801 Q115.191 919.528 112.112 924.134 Q109.057 928.718 103.247 928.718 Q97.4364 928.718 94.3577 924.134 Q91.3022 919.528 91.3022 910.801 Q91.3022 902.051 94.3577 897.468 Q97.4364 892.861 103.247 892.861 Z" fill="#000000" fill-rule="evenodd" fill-opacity="1" /><path clip-path="url(#clip130)" d="M 0 0 M81.0476 621.571 Q84.404 622.289 86.279 624.558 Q88.1772 626.826 88.1772 630.159 Q88.1772 635.275 84.6587 638.076 Q81.1402 640.877 74.6587 640.877 Q72.4828 640.877 70.168 640.437 Q67.8764 640.02 65.4227 639.164 L65.4227 634.65 Q67.3671 635.784 69.6819 636.363 Q71.9967 636.942 74.5198 636.942 Q78.918 636.942 81.2096 635.206 Q83.5244 633.47 83.5244 630.159 Q83.5244 627.104 81.3717 625.391 Q79.242 623.655 75.4226 623.655 L71.3949 623.655 L71.3949 619.812 L75.6078 619.812 Q79.0569 619.812 80.8855 618.446 Q82.7142 617.058 82.7142 614.465 Q82.7142 611.803 80.8161 610.391 Q78.9411 608.956 75.4226 608.956 Q73.5013 608.956 71.3023 609.372 Q69.1032 609.789 66.4643 610.669 L66.4643 606.502 Q69.1264 605.761 71.4412 605.391 Q73.7791 605.021 75.8393 605.021 Q81.1633 605.021 84.2652 607.451 Q87.367 609.859 87.367 613.979 Q87.367 616.849 85.7235 618.84 Q84.08 620.808 81.0476 621.571 Z" fill="#000000" fill-rule="evenodd" fill-opacity="1" /><path clip-path="url(#clip130)" d="M 0 0 M103.247 608.724 Q99.6354 608.724 97.8068 612.289 Q96.0012 615.831 96.0012 622.96 Q96.0012 630.067 97.8068 633.632 Q99.6354 637.173 103.247 637.173 Q106.881 637.173 108.686 633.632 Q110.515 630.067 110.515 622.96 Q110.515 615.831 108.686 612.289 Q106.881 608.724 103.247 608.724 M103.247 605.021 Q109.057 605.021 112.112 609.627 Q115.191 614.21 115.191 622.96 Q115.191 631.687 112.112 636.294 Q109.057 640.877 103.247 640.877 Q97.4364 640.877 94.3577 636.294 Q91.3022 631.687 91.3022 622.96 Q91.3022 614.21 94.3577 609.627 Q97.4364 605.021 103.247 605.021 Z" fill="#000000" fill-rule="evenodd" fill-opacity="1" /><path clip-path="url(#clip130)" d="M 0 0 M78.5939 321.879 L66.7884 340.328 L78.5939 340.328 L78.5939 321.879 M77.367 317.805 L83.2466 317.805 L83.2466 340.328 L88.1772 340.328 L88.1772 344.217 L83.2466 344.217 L83.2466 352.365 L78.5939 352.365 L78.5939 344.217 L62.9921 344.217 L62.9921 339.703 L77.367 317.805 Z" fill="#000000" fill-rule="evenodd" fill-opacity="1" /><path clip-path="url(#clip130)" d="M 0 0 M103.247 320.884 Q99.6354 320.884 97.8068 324.448 Q96.0012 327.99 96.0012 335.12 Q96.0012 342.226 97.8068 345.791 Q99.6354 349.332 103.247 349.332 Q106.881 349.332 108.686 345.791 Q110.515 342.226 110.515 335.12 Q110.515 327.99 108.686 324.448 Q106.881 320.884 103.247 320.884 M103.247 317.18 Q109.057 317.18 112.112 321.786 Q115.191 326.37 115.191 335.12 Q115.191 343.846 112.112 348.453 Q109.057 353.036 103.247 353.036 Q97.4364 353.036 94.3577 348.453 Q91.3022 343.846 91.3022 335.12 Q91.3022 326.37 94.3577 321.786 Q97.4364 317.18 103.247 317.18 Z" fill="#000000" fill-rule="evenodd" fill-opacity="1" /><path clip-path="url(#clip130)" d="M 0 0 M67.2745 29.9641 L85.6309 29.9641 L85.6309 33.8993 L71.5569 33.8993 L71.5569 42.3714 Q72.5754 42.0242 73.5939 41.8622 Q74.6124 41.677 75.6309 41.677 Q81.418 41.677 84.7976 44.8483 Q88.1772 48.0196 88.1772 53.4362 Q88.1772 59.0149 84.705 62.1167 Q81.2328 65.1954 74.9134 65.1954 Q72.7374 65.1954 70.4689 64.825 Q68.2236 64.4547 65.8162 63.7139 L65.8162 59.0149 Q67.8995 60.1491 70.1217 60.7047 Q72.3439 61.2602 74.8208 61.2602 Q78.8254 61.2602 81.1633 59.1538 Q83.5013 57.0473 83.5013 53.4362 Q83.5013 49.8251 81.1633 47.7186 Q78.8254 45.6122 74.8208 45.6122 Q72.9458 45.6122 71.0708 46.0288 Q69.2189 46.4455 67.2745 47.3251 L67.2745 29.9641 Z" fill="#000000" fill-rule="evenodd" fill-opacity="1" /><path clip-path="url(#clip130)" d="M 0 0 M103.247 33.0428 Q99.6354 33.0428 97.8068 36.6076 Q96.0012 40.1492 96.0012 47.2788 Q96.0012 54.3853 97.8068 57.9501 Q99.6354 61.4917 103.247 61.4917 Q106.881 61.4917 108.686 57.9501 Q110.515 54.3853 110.515 47.2788 Q110.515 40.1492 108.686 36.6076 Q106.881 33.0428 103.247 33.0428 M103.247 29.3391 Q109.057 29.3391 112.112 33.9456 Q115.191 38.5289 115.191 47.2788 Q115.191 56.0056 112.112 60.6121 Q109.057 65.1954 103.247 65.1954 Q97.4364 65.1954 94.3577 60.6121 Q91.3022 56.0056 91.3022 47.2788 Q91.3022 38.5289 94.3577 33.9456 Q97.4364 29.3391 103.247 29.3391 Z" fill="#000000" fill-rule="evenodd" fill-opacity="1" /><path clip-path="url(#clip132)" d="
M139.191 1486.45 L139.191 1486.45 L336.547 1486.45 L533.904 1486.45 L731.26 1486.45 L928.617 1486.45 L1125.97 1486.45 L1323.33 1486.45 L1520.69 1486.45 L1718.04 1486.45 
  L1915.4 1486.45 L2112.76 1486.45 L2112.76 1486.45 L2112.76 1486.45 L2112.76 1486.45 L2112.76 1342.53 L2112.76 1198.61 L2112.76 1054.69 L2112.76 910.766 L2112.76 766.846 
  L2112.76 622.926 L2112.76 479.005 L2112.76 335.085 L2112.76 191.164 L2112.76 47.2441 L2112.76 47.2441 L2112.76 47.2441 L2112.76 47.2441 L1915.4 47.2441 L1718.04 47.2441 
  L1520.69 47.2441 L1323.33 47.2441 L1125.97 47.2441 L928.617 47.2441 L731.26 47.2441 L533.904 47.2441 L336.547 47.2441 L139.191 47.2441 L139.191 47.2441 L139.191 47.2441 
  L139.191 47.2441 L139.191 191.164 L139.191 335.085 L139.191 479.005 L139.191 622.926 L139.191 766.846 L139.191 910.766 L139.191 1054.69 L139.191 1198.61 L139.191 1342.53 
  L139.191 1486.45 L139.191 1486.45 L139.191 1486.45  Z
  " fill="#000003" fill-rule="evenodd" fill-opacity="1"/>
<path clip-path="url(#clip132)" d="
M1125.97 949.808 L1323.33 1011.51 L1520.69 1008.04 L1718.04 1027 L1915.4 1027.4 L2112.76 1029.57 L2112.76 1054.69 L2112.76 910.766 L2112.76 766.846 L2112.76 622.926 
  L2112.76 479.005 L2112.76 335.085 L2112.76 191.164 L2112.76 47.2441 L2112.76 47.2441 L2112.76 47.2441 L2112.76 47.2441 L1915.4 47.2441 L1718.04 47.2441 L1520.69 47.2441 
  L1323.33 47.2441 L1125.97 47.2441 L928.617 47.2441 L731.26 47.2441 L769.886 47.2441 L775.308 191.164 L777.07 335.085 L781.003 479.005 L794.113 622.926 L870.387 766.846 
  L928.617 830.542 L1033.98 910.766 L1125.97 949.808  Z
  " fill="#06041b" fill-rule="evenodd" fill-opacity="1"/>
<path clip-path="url(#clip132)" d="
M1323.33 925.067 L1520.69 929.748 L1718.04 959.938 L1915.4 959.732 L2112.76 954.799 L2112.76 1054.69 L2112.76 910.766 L2112.76 766.846 L2112.76 622.926 L2112.76 479.005 
  L2112.76 335.085 L2112.76 191.164 L2112.76 47.2441 L2112.76 47.2441 L2112.76 47.2441 L2112.76 47.2441 L1915.4 47.2441 L1718.04 47.2441 L1520.69 47.2441 L1323.33 47.2441 
  L1125.97 47.2441 L928.617 47.2441 L731.26 47.2441 L868.003 47.2441 L858.667 191.164 L872.448 335.085 L884.57 479.005 L928.617 601.311 L932.851 622.926 L1002.56 766.846 
  L1125.97 858.236 L1284.78 910.766 L1323.33 925.067  Z
  " fill="#160b39" fill-rule="evenodd" fill-opacity="1"/>
<path clip-path="url(#clip132)" d="
M1125.97 781.153 L1323.33 872.009 L1520.69 883.469 L1718.04 900.46 L1915.4 900.088 L2112.76 897.344 L2112.76 910.766 L2112.76 766.846 L2112.76 622.926 L2112.76 479.005 
  L2112.76 335.085 L2112.76 191.164 L2112.76 47.2441 L2112.76 47.2441 L2112.76 47.2441 L2112.76 47.2441 L1915.4 47.2441 L1718.04 47.2441 L1520.69 47.2441 L1323.33 47.2441 
  L1125.97 47.2441 L928.617 47.2441 L946.27 47.2441 L937.075 191.164 L947.063 335.085 L959.96 479.005 L989.187 622.926 L1106.65 766.846 L1125.97 781.153  Z
  " fill="#2b0a56" fill-rule="evenodd" fill-opacity="1"/>
<path clip-path="url(#clip132)" d="
M1323.33 825.568 L1520.69 847.435 L1718.04 861.819 L1915.4 861.447 L2112.76 864.693 L2112.76 910.766 L2112.76 766.846 L2112.76 622.926 L2112.76 479.005 L2112.76 335.085 
  L2112.76 191.164 L2112.76 47.2441 L2112.76 47.2441 L2112.76 47.2441 L2112.76 47.2441 L1915.4 47.2441 L1718.04 47.2441 L1520.69 47.2441 L1323.33 47.2441 L1125.97 47.2441 
  L928.617 47.2441 L992.455 47.2441 L989.655 191.164 L991.935 335.085 L1014.5 479.005 L1045.52 622.926 L1125.97 714.578 L1203.29 766.846 L1323.33 825.568  Z
  " fill="#410967" fill-rule="evenodd" fill-opacity="1"/>
<path clip-path="url(#clip132)" d="
M1323.33 779.127 L1520.69 811.401 L1718.04 823.178 L1915.4 822.806 L2112.76 832.043 L2112.76 910.766 L2112.76 766.846 L2112.76 622.926 L2112.76 479.005 L2112.76 335.085 
  L2112.76 191.164 L2112.76 47.2441 L2112.76 47.2441 L2112.76 47.2441 L2112.76 47.2441 L1915.4 47.2441 L1718.04 47.2441 L1520.69 47.2441 L1323.33 47.2441 L1125.97 47.2441 
  L928.617 47.2441 L1038.64 47.2441 L1042.24 191.164 L1036.81 335.085 L1069.04 479.005 L1101.86 622.926 L1125.97 650.398 L1298.23 766.846 L1323.33 779.127  Z
  " fill="#550f6d" fill-rule="evenodd" fill-opacity="1"/>
<path clip-path="url(#clip132)" d="
M1520.69 775.367 L1718.04 784.537 L1915.4 784.165 L2112.76 799.392 L2112.76 910.766 L2112.76 766.846 L2112.76 622.926 L2112.76 479.005 L2112.76 335.085 L2112.76 191.164 
  L2112.76 47.2441 L2112.76 47.2441 L2112.76 47.2441 L2112.76 47.2441 L1915.4 47.2441 L1718.04 47.2441 L1520.69 47.2441 L1323.33 47.2441 L1125.97 47.2441 L928.617 47.2441 
  L1084.83 47.2441 L1094.82 191.164 L1081.68 335.085 L1123.57 479.005 L1125.97 489.285 L1162.28 622.926 L1323.33 734.494 L1472.67 766.846 L1520.69 775.367  Z
  " fill="#6a176e" fill-rule="evenodd" fill-opacity="1"/>
<path clip-path="url(#clip132)" d="
M1323.33 690.512 L1520.69 741.971 L1718.04 751.549 L1915.4 752.164 L2112.76 766.749 L2112.76 766.846 L2112.76 622.926 L2112.76 479.005 L2112.76 335.085 L2112.76 191.164 
  L2112.76 47.2441 L2112.76 47.2441 L2112.76 47.2441 L2112.76 47.2441 L1915.4 47.2441 L1718.04 47.2441 L1520.69 47.2441 L1323.33 47.2441 L1125.97 47.2441 L1130.28 47.2441 
  L1141.3 191.164 L1126.56 335.085 L1167.95 479.005 L1225.77 622.926 L1323.33 690.512  Z
  " fill="#7e1e6c" fill-rule="evenodd" fill-opacity="1"/>
<path clip-path="url(#clip132)" d="
M1323.33 646.529 L1520.69 709.391 L1718.04 723.334 L1915.4 725.555 L2112.76 736.416 L2112.76 766.846 L2112.76 622.926 L2112.76 479.005 L2112.76 335.085 L2112.76 191.164 
  L2112.76 47.2441 L2112.76 47.2441 L2112.76 47.2441 L2112.76 47.2441 L1915.4 47.2441 L1718.04 47.2441 L1520.69 47.2441 L1323.33 47.2441 L1125.97 47.2441 L1169.79 47.2441 
  L1178.93 191.164 L1172.23 335.085 L1211.86 479.005 L1289.26 622.926 L1323.33 646.529  Z
  " fill="#932567" fill-rule="evenodd" fill-opacity="1"/>
<path clip-path="url(#clip132)" d="
M1520.69 676.812 L1718.04 695.119 L1915.4 698.947 L2112.76 706.083 L2112.76 766.846 L2112.76 622.926 L2112.76 479.005 L2112.76 335.085 L2112.76 191.164 L2112.76 47.2441 
  L2112.76 47.2441 L2112.76 47.2441 L2112.76 47.2441 L1915.4 47.2441 L1718.04 47.2441 L1520.69 47.2441 L1323.33 47.2441 L1125.97 47.2441 L1209.31 47.2441 L1216.56 191.164 
  L1217.9 335.085 L1255.77 479.005 L1323.33 589.614 L1366.52 622.926 L1520.69 676.812  Z
  " fill="#a62c5f" fill-rule="evenodd" fill-opacity="1"/>
<path clip-path="url(#clip132)" d="
M1520.69 644.232 L1718.04 666.903 L1915.4 672.338 L2112.76 675.751 L2112.76 766.846 L2112.76 622.926 L2112.76 479.005 L2112.76 335.085 L2112.76 191.164 L2112.76 47.2441 
  L2112.76 47.2441 L2112.76 47.2441 L2112.76 47.2441 L1915.4 47.2441 L1718.04 47.2441 L1520.69 47.2441 L1323.33 47.2441 L1125.97 47.2441 L1248.82 47.2441 L1254.18 191.164 
  L1263.57 335.085 L1299.68 479.005 L1323.33 517.72 L1459.73 622.926 L1520.69 644.232  Z
  " fill="#ba3655" fill-rule="evenodd" fill-opacity="1"/>
<path clip-path="url(#clip132)" d="
M1718.04 638.688 L1915.4 645.729 L2112.76 645.418 L2112.76 766.846 L2112.76 622.926 L2112.76 479.005 L2112.76 335.085 L2112.76 191.164 L2112.76 47.2441 L2112.76 47.2441 
  L2112.76 47.2441 L2112.76 47.2441 L1915.4 47.2441 L1718.04 47.2441 L1520.69 47.2441 L1323.33 47.2441 L1125.97 47.2441 L1288.33 47.2441 L1291.81 191.164 L1309.24 335.085 
  L1323.33 392.739 L1352.09 479.005 L1520.69 606.603 L1596.17 622.926 L1718.04 638.688  Z
  " fill="#cc4148" fill-rule="evenodd" fill-opacity="1"/>
<path clip-path="url(#clip132)" d="
M1520.69 559.429 L1718.04 604.794 L1915.4 617.415 L2112.76 613.957 L2112.76 622.926 L2112.76 479.005 L2112.76 335.085 L2112.76 191.164 L2112.76 47.2441 L2112.76 47.2441 
  L2112.76 47.2441 L2112.76 47.2441 L1915.4 47.2441 L1718.04 47.2441 L1520.69 47.2441 L1323.33 47.2441 L1329.41 47.2441 L1332.27 191.164 L1358.61 335.085 L1414.42 479.005 
  L1520.69 559.429  Z
  " fill="#dc5039" fill-rule="evenodd" fill-opacity="1"/>
<path clip-path="url(#clip132)" d="
M1520.69 512.256 L1718.04 563.712 L1915.4 578.873 L2112.76 579.261 L2112.76 622.926 L2112.76 479.005 L2112.76 335.085 L2112.76 191.164 L2112.76 47.2441 L2112.76 47.2441 
  L2112.76 47.2441 L2112.76 47.2441 L1915.4 47.2441 L1718.04 47.2441 L1520.69 47.2441 L1323.33 47.2441 L1382.67 47.2441 L1387.4 191.164 L1409.62 335.085 L1476.75 479.005 
  L1520.69 512.256  Z
  " fill="#e8612b" fill-rule="evenodd" fill-opacity="1"/>
<path clip-path="url(#clip132)" d="
M1718.04 522.629 L1915.4 540.332 L2112.76 544.565 L2112.76 622.926 L2112.76 479.005 L2112.76 335.085 L2112.76 191.164 L2112.76 47.2441 L2112.76 47.2441 L2112.76 47.2441 
  L2112.76 47.2441 L1915.4 47.2441 L1718.04 47.2441 L1520.69 47.2441 L1323.33 47.2441 L1435.93 47.2441 L1442.52 191.164 L1460.63 335.085 L1520.69 450.158 L1563.61 479.005 
  L1718.04 522.629  Z
  " fill="#f2751a" fill-rule="evenodd" fill-opacity="1"/>
<path clip-path="url(#clip132)" d="
M1718.04 481.547 L1915.4 501.791 L2112.76 509.869 L2112.76 622.926 L2112.76 479.005 L2112.76 335.085 L2112.76 191.164 L2112.76 47.2441 L2112.76 47.2441 L2112.76 47.2441 
  L2112.76 47.2441 L1915.4 47.2441 L1718.04 47.2441 L1520.69 47.2441 L1323.33 47.2441 L1489.2 47.2441 L1497.65 191.164 L1511.64 335.085 L1520.69 352.42 L1709.04 479.005 
  L1718.04 481.547  Z
  " fill="#f98c09" fill-rule="evenodd" fill-opacity="1"/>
<path clip-path="url(#clip132)" d="
M1718.04 414.947 L1915.4 456.53 L2112.76 472.653 L2112.76 479.005 L2112.76 335.085 L2112.76 191.164 L2112.76 47.2441 L2112.76 47.2441 L2112.76 47.2441 L2112.76 47.2441 
  L1915.4 47.2441 L1718.04 47.2441 L1520.69 47.2441 L1548.44 47.2441 L1561.42 191.164 L1602.18 335.085 L1718.04 414.947  Z
  " fill="#fba40a" fill-rule="evenodd" fill-opacity="1"/>
<path clip-path="url(#clip132)" d="
M1718.04 346.664 L1915.4 401.552 L2112.76 415.137 L2112.76 479.005 L2112.76 335.085 L2112.76 191.164 L2112.76 47.2441 L2112.76 47.2441 L2112.76 47.2441 L2112.76 47.2441 
  L1915.4 47.2441 L1718.04 47.2441 L1520.69 47.2441 L1616.35 47.2441 L1631.41 191.164 L1701.24 335.085 L1718.04 346.664  Z
  " fill="#fabb21" fill-rule="evenodd" fill-opacity="1"/>
<path clip-path="url(#clip132)" d="
M1915.4 346.574 L2112.76 357.622 L2112.76 479.005 L2112.76 335.085 L2112.76 191.164 L2112.76 47.2441 L2112.76 47.2441 L2112.76 47.2441 L2112.76 47.2441 L1915.4 47.2441 
  L1718.04 47.2441 L1520.69 47.2441 L1684.25 47.2441 L1701.4 191.164 L1718.04 223.209 L1875.72 335.085 L1915.4 346.574  Z
  " fill="#f6d542" fill-rule="evenodd" fill-opacity="1"/>
<path clip-path="url(#clip132)" d="
M1915.4 247.463 L2112.76 280.952 L2112.76 335.085 L2112.76 191.164 L2112.76 47.2441 L2112.76 47.2441 L2112.76 47.2441 L2112.76 47.2441 L1915.4 47.2441 L1718.04 47.2441 
  L1780.47 47.2441 L1836.44 191.164 L1915.4 247.463  Z
  " fill="#f1ed70" fill-rule="evenodd" fill-opacity="1"/>
<path clip-path="url(#clip132)" d="
M2112.76 191.94 L2112.76 335.085 L2112.76 191.164 L2112.76 47.2441 L2112.76 47.2441 L2112.76 47.2441 L2112.76 47.2441 L1915.4 47.2441 L1718.04 47.2441 L1904.75 47.2441 
  L1915.4 68.6037 L2109.32 191.164 L2112.76 191.94  Z
  " fill="#fcfea4" fill-rule="evenodd" fill-opacity="1"/>
<polyline clip-path="url(#clip132)" style="stroke:#000000; stroke-width:4; stroke-opacity:1; fill:none" points="
  139.191,1486.45 139.191,1486.45 336.547,1486.45 533.904,1486.45 731.26,1486.45 928.617,1486.45 1125.97,1486.45 1323.33,1486.45 1520.69,1486.45 1718.04,1486.45 
  1915.4,1486.45 2112.76,1486.45 2112.76,1342.53 2112.76,1198.61 2112.76,1054.69 2112.76,910.766 2112.76,766.846 
  2112.76,622.926 2112.76,479.005 2112.76,335.085 2112.76,191.164 2112.76,47.2441 1915.4,47.2441 1718.04,47.2441 
  1520.69,47.2441 1323.33,47.2441 1125.97,47.2441 928.617,47.2441 731.26,47.2441 533.904,47.2441 336.547,47.2441 139.191,47.2441 
  139.191,191.164 139.191,335.085 139.191,479.005 139.191,622.926 139.191,766.846 139.191,910.766 139.191,1054.69 139.191,1198.61 139.191,1342.53 
  139.191,1486.45 
  "/>
<polyline clip-path="url(#clip132)" style="stroke:#000000; stroke-width:4; stroke-opacity:1; fill:none" points="
  1125.97,949.808 1323.33,1011.51 1520.69,1008.04 1718.04,1027 1915.4,1027.4 2112.76,1029.57 2112.76,1054.69 2112.76,910.766 2112.76,766.846 2112.76,622.926 
  2112.76,479.005 2112.76,335.085 2112.76,191.164 2112.76,47.2441 1915.4,47.2441 1718.04,47.2441 1520.69,47.2441 
  1323.33,47.2441 1125.97,47.2441 928.617,47.2441 731.26,47.2441 769.886,47.2441 775.308,191.164 777.07,335.085 781.003,479.005 794.113,622.926 870.387,766.846 
  928.617,830.542 1033.98,910.766 1125.97,949.808 
  "/>
<polyline clip-path="url(#clip132)" style="stroke:#000000; stroke-width:4; stroke-opacity:1; fill:none" points="
  1323.33,925.067 1520.69,929.748 1718.04,959.938 1915.4,959.732 2112.76,954.799 2112.76,1054.69 2112.76,910.766 2112.76,766.846 2112.76,622.926 2112.76,479.005 
  2112.76,335.085 2112.76,191.164 2112.76,47.2441 1915.4,47.2441 1718.04,47.2441 1520.69,47.2441 1323.33,47.2441 
  1125.97,47.2441 928.617,47.2441 731.26,47.2441 868.003,47.2441 858.667,191.164 872.448,335.085 884.57,479.005 928.617,601.311 932.851,622.926 1002.56,766.846 
  1125.97,858.236 1284.78,910.766 1323.33,925.067 
  "/>
<polyline clip-path="url(#clip132)" style="stroke:#000000; stroke-width:4; stroke-opacity:1; fill:none" points="
  1125.97,781.153 1323.33,872.009 1520.69,883.469 1718.04,900.46 1915.4,900.088 2112.76,897.344 2112.76,910.766 2112.76,766.846 2112.76,622.926 2112.76,479.005 
  2112.76,335.085 2112.76,191.164 2112.76,47.2441 1915.4,47.2441 1718.04,47.2441 1520.69,47.2441 1323.33,47.2441 
  1125.97,47.2441 928.617,47.2441 946.27,47.2441 937.075,191.164 947.063,335.085 959.96,479.005 989.187,622.926 1106.65,766.846 1125.97,781.153 
  "/>
<polyline clip-path="url(#clip132)" style="stroke:#000000; stroke-width:4; stroke-opacity:1; fill:none" points="
  1323.33,825.568 1520.69,847.435 1718.04,861.819 1915.4,861.447 2112.76,864.693 2112.76,910.766 2112.76,766.846 2112.76,622.926 2112.76,479.005 2112.76,335.085 
  2112.76,191.164 2112.76,47.2441 1915.4,47.2441 1718.04,47.2441 1520.69,47.2441 1323.33,47.2441 1125.97,47.2441 
  928.617,47.2441 992.455,47.2441 989.655,191.164 991.935,335.085 1014.5,479.005 1045.52,622.926 1125.97,714.578 1203.29,766.846 1323.33,825.568 
  "/>
<polyline clip-path="url(#clip132)" style="stroke:#000000; stroke-width:4; stroke-opacity:1; fill:none" points="
  1323.33,779.127 1520.69,811.401 1718.04,823.178 1915.4,822.806 2112.76,832.043 2112.76,910.766 2112.76,766.846 2112.76,622.926 2112.76,479.005 2112.76,335.085 
  2112.76,191.164 2112.76,47.2441 1915.4,47.2441 1718.04,47.2441 1520.69,47.2441 1323.33,47.2441 1125.97,47.2441 
  928.617,47.2441 1038.64,47.2441 1042.24,191.164 1036.81,335.085 1069.04,479.005 1101.86,622.926 1125.97,650.398 1298.23,766.846 1323.33,779.127 
  "/>
<polyline clip-path="url(#clip132)" style="stroke:#000000; stroke-width:4; stroke-opacity:1; fill:none" points="
  1520.69,775.367 1718.04,784.537 1915.4,784.165 2112.76,799.392 2112.76,910.766 2112.76,766.846 2112.76,622.926 2112.76,479.005 2112.76,335.085 2112.76,191.164 
  2112.76,47.2441 1915.4,47.2441 1718.04,47.2441 1520.69,47.2441 1323.33,47.2441 1125.97,47.2441 928.617,47.2441 
  1084.83,47.2441 1094.82,191.164 1081.68,335.085 1123.57,479.005 1125.97,489.285 1162.28,622.926 1323.33,734.494 1472.67,766.846 1520.69,775.367 
  "/>
<polyline clip-path="url(#clip132)" style="stroke:#000000; stroke-width:4; stroke-opacity:1; fill:none" points="
  1323.33,690.512 1520.69,741.971 1718.04,751.549 1915.4,752.164 2112.76,766.749 2112.76,766.846 2112.76,622.926 2112.76,479.005 2112.76,335.085 2112.76,191.164 
  2112.76,47.2441 1915.4,47.2441 1718.04,47.2441 1520.69,47.2441 1323.33,47.2441 1125.97,47.2441 1130.28,47.2441 
  1141.3,191.164 1126.56,335.085 1167.95,479.005 1225.77,622.926 1323.33,690.512 
  "/>
<polyline clip-path="url(#clip132)" style="stroke:#000000; stroke-width:4; stroke-opacity:1; fill:none" points="
  1323.33,646.529 1520.69,709.391 1718.04,723.334 1915.4,725.555 2112.76,736.416 2112.76,766.846 2112.76,622.926 2112.76,479.005 2112.76,335.085 2112.76,191.164 
  2112.76,47.2441 1915.4,47.2441 1718.04,47.2441 1520.69,47.2441 1323.33,47.2441 1125.97,47.2441 1169.79,47.2441 
  1178.93,191.164 1172.23,335.085 1211.86,479.005 1289.26,622.926 1323.33,646.529 
  "/>
<polyline clip-path="url(#clip132)" style="stroke:#000000; stroke-width:4; stroke-opacity:1; fill:none" points="
  1520.69,676.812 1718.04,695.119 1915.4,698.947 2112.76,706.083 2112.76,766.846 2112.76,622.926 2112.76,479.005 2112.76,335.085 2112.76,191.164 2112.76,47.2441 
  1915.4,47.2441 1718.04,47.2441 1520.69,47.2441 1323.33,47.2441 1125.97,47.2441 1209.31,47.2441 1216.56,191.164 
  1217.9,335.085 1255.77,479.005 1323.33,589.614 1366.52,622.926 1520.69,676.812 
  "/>
<polyline clip-path="url(#clip132)" style="stroke:#000000; stroke-width:4; stroke-opacity:1; fill:none" points="
  1520.69,644.232 1718.04,666.903 1915.4,672.338 2112.76,675.751 2112.76,766.846 2112.76,622.926 2112.76,479.005 2112.76,335.085 2112.76,191.164 2112.76,47.2441 
  1915.4,47.2441 1718.04,47.2441 1520.69,47.2441 1323.33,47.2441 1125.97,47.2441 1248.82,47.2441 1254.18,191.164 
  1263.57,335.085 1299.68,479.005 1323.33,517.72 1459.73,622.926 1520.69,644.232 
  "/>
<polyline clip-path="url(#clip132)" style="stroke:#000000; stroke-width:4; stroke-opacity:1; fill:none" points="
  1718.04,638.688 1915.4,645.729 2112.76,645.418 2112.76,766.846 2112.76,622.926 2112.76,479.005 2112.76,335.085 2112.76,191.164 2112.76,47.2441 
  1915.4,47.2441 1718.04,47.2441 1520.69,47.2441 1323.33,47.2441 1125.97,47.2441 1288.33,47.2441 1291.81,191.164 1309.24,335.085 
  1323.33,392.739 1352.09,479.005 1520.69,606.603 1596.17,622.926 1718.04,638.688 
  "/>
<polyline clip-path="url(#clip132)" style="stroke:#000000; stroke-width:4; stroke-opacity:1; fill:none" points="
  1520.69,559.429 1718.04,604.794 1915.4,617.415 2112.76,613.957 2112.76,622.926 2112.76,479.005 2112.76,335.085 2112.76,191.164 2112.76,47.2441 
  1915.4,47.2441 1718.04,47.2441 1520.69,47.2441 1323.33,47.2441 1329.41,47.2441 1332.27,191.164 1358.61,335.085 1414.42,479.005 
  1520.69,559.429 
  "/>
<polyline clip-path="url(#clip132)" style="stroke:#000000; stroke-width:4; stroke-opacity:1; fill:none" points="
  1520.69,512.256 1718.04,563.712 1915.4,578.873 2112.76,579.261 2112.76,622.926 2112.76,479.005 2112.76,335.085 2112.76,191.164 2112.76,47.2441 
  1915.4,47.2441 1718.04,47.2441 1520.69,47.2441 1323.33,47.2441 1382.67,47.2441 1387.4,191.164 1409.62,335.085 1476.75,479.005 
  1520.69,512.256 
  "/>
<polyline clip-path="url(#clip132)" style="stroke:#000000; stroke-width:4; stroke-opacity:1; fill:none" points="
  1718.04,522.629 1915.4,540.332 2112.76,544.565 2112.76,622.926 2112.76,479.005 2112.76,335.085 2112.76,191.164 2112.76,47.2441 
  1915.4,47.2441 1718.04,47.2441 1520.69,47.2441 1323.33,47.2441 1435.93,47.2441 1442.52,191.164 1460.63,335.085 1520.69,450.158 1563.61,479.005 
  1718.04,522.629 
  "/>
<polyline clip-path="url(#clip132)" style="stroke:#000000; stroke-width:4; stroke-opacity:1; fill:none" points="
  1718.04,481.547 1915.4,501.791 2112.76,509.869 2112.76,622.926 2112.76,479.005 2112.76,335.085 2112.76,191.164 2112.76,47.2441 
  1915.4,47.2441 1718.04,47.2441 1520.69,47.2441 1323.33,47.2441 1489.2,47.2441 1497.65,191.164 1511.64,335.085 1520.69,352.42 1709.04,479.005 
  1718.04,481.547 
  "/>
<polyline clip-path="url(#clip132)" style="stroke:#000000; stroke-width:4; stroke-opacity:1; fill:none" points="
  1718.04,414.947 1915.4,456.53 2112.76,472.653 2112.76,479.005 2112.76,335.085 2112.76,191.164 2112.76,47.2441 
  1915.4,47.2441 1718.04,47.2441 1520.69,47.2441 1548.44,47.2441 1561.42,191.164 1602.18,335.085 1718.04,414.947 
  "/>
<polyline clip-path="url(#clip132)" style="stroke:#000000; stroke-width:4; stroke-opacity:1; fill:none" points="
  1718.04,346.664 1915.4,401.552 2112.76,415.137 2112.76,479.005 2112.76,335.085 2112.76,191.164 2112.76,47.2441 
  1915.4,47.2441 1718.04,47.2441 1520.69,47.2441 1616.35,47.2441 1631.41,191.164 1701.24,335.085 1718.04,346.664 
  "/>
<polyline clip-path="url(#clip132)" style="stroke:#000000; stroke-width:4; stroke-opacity:1; fill:none" points="
  1915.4,346.574 2112.76,357.622 2112.76,479.005 2112.76,335.085 2112.76,191.164 2112.76,47.2441 1915.4,47.2441 
  1718.04,47.2441 1520.69,47.2441 1684.25,47.2441 1701.4,191.164 1718.04,223.209 1875.72,335.085 1915.4,346.574 
  "/>
<polyline clip-path="url(#clip132)" style="stroke:#000000; stroke-width:4; stroke-opacity:1; fill:none" points="
  1915.4,247.463 2112.76,280.952 2112.76,335.085 2112.76,191.164 2112.76,47.2441 1915.4,47.2441 1718.04,47.2441 
  1780.47,47.2441 1836.44,191.164 1915.4,247.463 
  "/>
<polyline clip-path="url(#clip132)" style="stroke:#000000; stroke-width:4; stroke-opacity:1; fill:none" points="
  2112.76,191.94 2112.76,335.085 2112.76,191.164 2112.76,47.2441 1915.4,47.2441 1718.04,47.2441 1904.75,47.2441 
  1915.4,68.6037 2109.32,191.164 2112.76,191.94 
  "/>
<defs>
  <clipPath id="clip133">
    <rect x="2160" y="47" width="73" height="1440"/>
  </clipPath>
</defs>
<path clip-path="url(#clip133)" d="
M2160.76 1486.45 L2232.76 1486.45 L2232.76 1417.91 L2160.76 1417.91  Z
  " fill="#000003" fill-rule="evenodd" fill-opacity="1"/>
<path clip-path="url(#clip133)" d="
M2160.76 1417.91 L2232.76 1417.91 L2232.76 1349.38 L2160.76 1349.38  Z
  " fill="#07051d" fill-rule="evenodd" fill-opacity="1"/>
<path clip-path="url(#clip133)" d="
M2160.76 1349.38 L2232.76 1349.38 L2232.76 1280.85 L2160.76 1280.85  Z
  " fill="#170b3b" fill-rule="evenodd" fill-opacity="1"/>
<path clip-path="url(#clip133)" d="
M2160.76 1280.85 L2232.76 1280.85 L2232.76 1212.31 L2160.76 1212.31  Z
  " fill="#2b0a56" fill-rule="evenodd" fill-opacity="1"/>
<path clip-path="url(#clip133)" d="
M2160.76 1212.31 L2232.76 1212.31 L2232.76 1143.78 L2160.76 1143.78  Z
  " fill="#410967" fill-rule="evenodd" fill-opacity="1"/>
<path clip-path="url(#clip133)" d="
M2160.76 1143.78 L2232.76 1143.78 L2232.76 1075.25 L2160.76 1075.25  Z
  " fill="#570f6d" fill-rule="evenodd" fill-opacity="1"/>
<path clip-path="url(#clip133)" d="
M2160.76 1075.25 L2232.76 1075.25 L2232.76 1006.71 L2160.76 1006.71  Z
  " fill="#6a176e" fill-rule="evenodd" fill-opacity="1"/>
<path clip-path="url(#clip133)" d="
M2160.76 1006.71 L2232.76 1006.71 L2232.76 938.18 L2160.76 938.18  Z
  " fill="#7e1e6c" fill-rule="evenodd" fill-opacity="1"/>
<path clip-path="url(#clip133)" d="
M2160.76 938.18 L2232.76 938.18 L2232.76 869.646 L2160.76 869.646  Z
  " fill="#932567" fill-rule="evenodd" fill-opacity="1"/>
<path clip-path="url(#clip133)" d="
M2160.76 869.646 L2232.76 869.646 L2232.76 801.113 L2160.76 801.113  Z
  " fill="#a72d5f" fill-rule="evenodd" fill-opacity="1"/>
<path clip-path="url(#clip133)" d="
M2160.76 801.113 L2232.76 801.113 L2232.76 732.579 L2160.76 732.579  Z
  " fill="#bb3754" fill-rule="evenodd" fill-opacity="1"/>
<path clip-path="url(#clip133)" d="
M2160.76 732.579 L2232.76 732.579 L2232.76 664.046 L2160.76 664.046  Z
  " fill="#cc4148" fill-rule="evenodd" fill-opacity="1"/>
<path clip-path="url(#clip133)" d="
M2160.76 664.046 L2232.76 664.046 L2232.76 595.512 L2160.76 595.512  Z
  " fill="#dc5039" fill-rule="evenodd" fill-opacity="1"/>
<path clip-path="url(#clip133)" d="
M2160.76 595.512 L2232.76 595.512 L2232.76 526.979 L2160.76 526.979  Z
  " fill="#e9622a" fill-rule="evenodd" fill-opacity="1"/>
<path clip-path="url(#clip133)" d="
M2160.76 526.979 L2232.76 526.979 L2232.76 458.445 L2160.76 458.445  Z
  " fill="#f2751a" fill-rule="evenodd" fill-opacity="1"/>
<path clip-path="url(#clip133)" d="
M2160.76 458.445 L2232.76 458.445 L2232.76 389.912 L2160.76 389.912  Z
  " fill="#f98c09" fill-rule="evenodd" fill-opacity="1"/>
<path clip-path="url(#clip133)" d="
M2160.76 389.912 L2232.76 389.912 L2232.76 321.378 L2160.76 321.378  Z
  " fill="#fba40a" fill-rule="evenodd" fill-opacity="1"/>
<path clip-path="url(#clip133)" d="
M2160.76 321.378 L2232.76 321.378 L2232.76 252.845 L2160.76 252.845  Z
  " fill="#fabd23" fill-rule="evenodd" fill-opacity="1"/>
<path clip-path="url(#clip133)" d="
M2160.76 252.845 L2232.76 252.845 L2232.76 184.311 L2160.76 184.311  Z
  " fill="#f5d745" fill-rule="evenodd" fill-opacity="1"/>
<path clip-path="url(#clip133)" d="
M2160.76 184.311 L2232.76 184.311 L2232.76 115.778 L2160.76 115.778  Z
  " fill="#f1ed70" fill-rule="evenodd" fill-opacity="1"/>
<path clip-path="url(#clip133)" d="
M2160.76 115.778 L2232.76 115.778 L2232.76 47.2441 L2160.76 47.2441  Z
  " fill="#fcfea4" fill-rule="evenodd" fill-opacity="1"/>
<path clip-path="url(#clip130)" d="M 0 0 M2280.7 1468.62 Q2277.09 1468.62 2275.26 1472.18 Q2273.45 1475.72 2273.45 1482.85 Q2273.45 1489.96 2275.26 1493.53 Q2277.09 1497.07 2280.7 1497.07 Q2284.33 1497.07 2286.14 1493.53 Q2287.97 1489.96 2287.97 1482.85 Q2287.97 1475.72 2286.14 1472.18 Q2284.33 1468.62 2280.7 1468.62 M2280.7 1464.91 Q2286.51 1464.91 2289.57 1469.52 Q2292.64 1474.1 2292.64 1482.85 Q2292.64 1491.58 2289.57 1496.19 Q2286.51 1500.77 2280.7 1500.77 Q2274.89 1500.77 2271.81 1496.19 Q2268.76 1491.58 2268.76 1482.85 Q2268.76 1474.1 2271.81 1469.52 Q2274.89 1464.91 2280.7 1464.91 Z" fill="#000000" fill-rule="evenodd" fill-opacity="1" /><path clip-path="url(#clip130)" d="M 0 0 M2269.43 1331.27 L2277.07 1331.27 L2277.07 1304.9 L2268.76 1306.57 L2268.76 1302.31 L2277.02 1300.64 L2281.7 1300.64 L2281.7 1331.27 L2289.33 1331.27 L2289.33 1335.2 L2269.43 1335.2 L2269.43 1331.27 Z" fill="#000000" fill-rule="evenodd" fill-opacity="1" /><path clip-path="url(#clip130)" d="M 0 0 M2274.38 1166.37 L2290.7 1166.37 L2290.7 1170.31 L2268.76 1170.31 L2268.76 1166.37 Q2271.42 1163.62 2276 1158.99 Q2280.61 1154.34 2281.79 1152.99 Q2284.03 1150.47 2284.91 1148.74 Q2285.82 1146.98 2285.82 1145.29 Q2285.82 1142.53 2283.87 1140.8 Q2281.95 1139.06 2278.85 1139.06 Q2276.65 1139.06 2274.2 1139.82 Q2271.77 1140.59 2268.99 1142.14 L2268.99 1137.42 Q2271.81 1136.28 2274.27 1135.7 Q2276.72 1135.12 2278.76 1135.12 Q2284.13 1135.12 2287.32 1137.81 Q2290.52 1140.49 2290.52 1144.99 Q2290.52 1147.11 2289.7 1149.04 Q2288.92 1150.93 2286.81 1153.53 Q2286.23 1154.2 2283.13 1157.42 Q2280.03 1160.61 2274.38 1166.37 Z" fill="#000000" fill-rule="evenodd" fill-opacity="1" /><path clip-path="url(#clip130)" d="M 0 0 M2284.38 986.78 Q2287.74 987.497 2289.61 989.766 Q2291.51 992.034 2291.51 995.368 Q2291.51 1000.48 2287.99 1003.28 Q2284.47 1006.09 2277.99 1006.09 Q2275.82 1006.09 2273.5 1005.65 Q2271.21 1005.23 2268.76 1004.37 L2268.76 999.858 Q2270.7 1000.99 2273.02 1001.57 Q2275.33 1002.15 2277.85 1002.15 Q2282.25 1002.15 2284.54 1000.41 Q2286.86 998.678 2286.86 995.368 Q2286.86 992.312 2284.7 990.599 Q2282.58 988.863 2278.76 988.863 L2274.73 988.863 L2274.73 985.021 L2278.94 985.021 Q2282.39 985.021 2284.22 983.655 Q2286.05 982.266 2286.05 979.673 Q2286.05 977.011 2284.15 975.599 Q2282.27 974.164 2278.76 974.164 Q2276.83 974.164 2274.64 974.581 Q2272.44 974.997 2269.8 975.877 L2269.8 971.71 Q2272.46 970.97 2274.77 970.599 Q2277.11 970.229 2279.17 970.229 Q2284.5 970.229 2287.6 972.66 Q2290.7 975.067 2290.7 979.187 Q2290.7 982.058 2289.06 984.048 Q2287.41 986.016 2284.38 986.78 Z" fill="#000000" fill-rule="evenodd" fill-opacity="1" /><path clip-path="url(#clip130)" d="M 0 0 M2284.36 810.033 L2272.55 828.482 L2284.36 828.482 L2284.36 810.033 M2283.13 805.959 L2289.01 805.959 L2289.01 828.482 L2293.94 828.482 L2293.94 832.371 L2289.01 832.371 L2289.01 840.519 L2284.36 840.519 L2284.36 832.371 L2268.76 832.371 L2268.76 827.857 L2283.13 805.959 Z" fill="#000000" fill-rule="evenodd" fill-opacity="1" /><path clip-path="url(#clip130)" d="M 0 0 M2270.21 641.064 L2288.57 641.064 L2288.57 644.999 L2274.5 644.999 L2274.5 653.471 Q2275.52 653.124 2276.53 652.962 Q2277.55 652.777 2278.57 652.777 Q2284.36 652.777 2287.74 655.948 Q2291.12 659.119 2291.12 664.536 Q2291.12 670.115 2287.64 673.217 Q2284.17 676.295 2277.85 676.295 Q2275.68 676.295 2273.41 675.925 Q2271.16 675.555 2268.76 674.814 L2268.76 670.115 Q2270.84 671.249 2273.06 671.805 Q2275.28 672.36 2277.76 672.36 Q2281.77 672.36 2284.1 670.254 Q2286.44 668.147 2286.44 664.536 Q2286.44 660.925 2284.1 658.818 Q2281.77 656.712 2277.76 656.712 Q2275.89 656.712 2274.01 657.129 Q2272.16 657.545 2270.21 658.425 L2270.21 641.064 Z" fill="#000000" fill-rule="evenodd" fill-opacity="1" /><path clip-path="url(#clip130)" d="M 0 0 M2281.09 491.586 Q2277.95 491.586 2276.09 493.738 Q2274.27 495.891 2274.27 499.641 Q2274.27 503.368 2276.09 505.544 Q2277.95 507.697 2281.09 507.697 Q2284.24 507.697 2286.07 505.544 Q2287.92 503.368 2287.92 499.641 Q2287.92 495.891 2286.07 493.738 Q2284.24 491.586 2281.09 491.586 M2290.38 476.933 L2290.38 481.192 Q2288.62 480.359 2286.81 479.919 Q2285.03 479.479 2283.27 479.479 Q2278.64 479.479 2276.19 482.604 Q2273.76 485.729 2273.41 492.048 Q2274.77 490.035 2276.83 488.97 Q2278.89 487.882 2281.37 487.882 Q2286.58 487.882 2289.59 491.053 Q2292.62 494.201 2292.62 499.641 Q2292.62 504.965 2289.47 508.183 Q2286.33 511.4 2281.09 511.4 Q2275.1 511.4 2271.93 506.817 Q2268.76 502.21 2268.76 493.484 Q2268.76 485.289 2272.64 480.428 Q2276.53 475.544 2283.08 475.544 Q2284.84 475.544 2286.63 475.891 Q2288.43 476.238 2290.38 476.933 Z" fill="#000000" fill-rule="evenodd" fill-opacity="1" /><path clip-path="url(#clip130)" d="M 0 0 M2268.76 311.274 L2290.98 311.274 L2290.98 313.265 L2278.43 345.834 L2273.55 345.834 L2285.35 315.209 L2268.76 315.209 L2268.76 311.274 Z" fill="#000000" fill-rule="evenodd" fill-opacity="1" /><path clip-path="url(#clip130)" d="M 0 0 M2280.61 164.527 Q2277.27 164.527 2275.35 166.309 Q2273.45 168.092 2273.45 171.217 Q2273.45 174.342 2275.35 176.124 Q2277.27 177.906 2280.61 177.906 Q2283.94 177.906 2285.86 176.124 Q2287.78 174.319 2287.78 171.217 Q2287.78 168.092 2285.86 166.309 Q2283.96 164.527 2280.61 164.527 M2275.93 162.536 Q2272.92 161.795 2271.23 159.735 Q2269.57 157.675 2269.57 154.712 Q2269.57 150.569 2272.51 148.161 Q2275.47 145.754 2280.61 145.754 Q2285.77 145.754 2288.71 148.161 Q2291.65 150.569 2291.65 154.712 Q2291.65 157.675 2289.96 159.735 Q2288.29 161.795 2285.31 162.536 Q2288.69 163.323 2290.56 165.615 Q2292.46 167.907 2292.46 171.217 Q2292.46 176.24 2289.38 178.925 Q2286.33 181.61 2280.61 181.61 Q2274.89 181.61 2271.81 178.925 Q2268.76 176.24 2268.76 171.217 Q2268.76 167.907 2270.65 165.615 Q2272.55 163.323 2275.93 162.536 M2274.22 155.152 Q2274.22 157.837 2275.89 159.342 Q2277.58 160.846 2280.61 160.846 Q2283.62 160.846 2285.31 159.342 Q2287.02 157.837 2287.02 155.152 Q2287.02 152.467 2285.31 150.962 Q2283.62 149.458 2280.61 149.458 Q2277.58 149.458 2275.89 150.962 Q2274.22 152.467 2274.22 155.152 Z" fill="#000000" fill-rule="evenodd" fill-opacity="1" /><polyline clip-path="url(#clip130)" style="stroke:#000000; stroke-width:4; stroke-opacity:1; fill:none" points="
  2232.76,1486.45 2232.76,1486.45 2256.76,1486.45 2232.76,1486.45 2232.76,1321.55 2256.76,1321.55 2232.76,1321.55 2232.76,1156.66 2256.76,1156.66 2232.76,1156.66 
  2232.76,991.763 2256.76,991.763 2232.76,991.763 2232.76,826.868 2256.76,826.868 2232.76,826.868 2232.76,661.973 2256.76,661.973 2232.76,661.973 2232.76,497.078 
  2256.76,497.078 2232.76,497.078 2232.76,332.183 2256.76,332.183 2232.76,332.183 2232.76,167.288 2256.76,167.288 2232.76,167.288 2232.76,47.2441 
  "/>
</svg>
