<?xml version="1.0" encoding="utf-8"?>
<svg xmlns="http://www.w3.org/2000/svg" xmlns:xlink="http://www.w3.org/1999/xlink" width="600" height="400" viewBox="0 0 2400 1600">
<defs>
  <clipPath id="clip980">
    <rect x="0" y="0" width="2400" height="1600"/>
  </clipPath>
</defs>
<path clip-path="url(#clip980)" d="
M0 1600 L2400 1600 L2400 0 L0 0  Z
  " fill="#ffffff" fill-rule="evenodd" fill-opacity="1"/>
<defs>
  <clipPath id="clip981">
    <rect x="480" y="0" width="1681" height="1600"/>
  </clipPath>
</defs>
<path clip-path="url(#clip980)" d="
M139.191 1486.45 L2112.76 1486.45 L2112.76 47.2441 L139.191 47.2441  Z
  " fill="#ffffff" fill-rule="evenodd" fill-opacity="1"/>
<defs>
  <clipPath id="clip982">
    <rect x="139" y="47" width="1975" height="1440"/>
  </clipPath>
</defs>
<polyline clip-path="url(#clip982)" style="stroke:#000000; stroke-width:2; stroke-opacity:0.1; fill:none" points="
  139.191,1486.45 139.191,47.2441 
  "/>
<polyline clip-path="url(#clip982)" style="stroke:#000000; stroke-width:2; stroke-opacity:0.1; fill:none" points="
  533.904,1486.45 533.904,47.2441 
  "/>
<polyline clip-path="url(#clip982)" style="stroke:#000000; stroke-width:2; stroke-opacity:0.1; fill:none" points="
  928.617,1486.45 928.617,47.2441 
  "/>
<polyline clip-path="url(#clip982)" style="stroke:#000000; stroke-width:2; stroke-opacity:0.1; fill:none" points="
  1323.33,1486.45 1323.33,47.2441 
  "/>
<polyline clip-path="url(#clip982)" style="stroke:#000000; stroke-width:2; stroke-opacity:0.1; fill:none" points="
  1718.04,1486.45 1718.04,47.2441 
  "/>
<polyline clip-path="url(#clip982)" style="stroke:#000000; stroke-width:2; stroke-opacity:0.1; fill:none" points="
  2112.76,1486.45 2112.76,47.2441 
  "/>
<polyline clip-path="url(#clip982)" style="stroke:#000000; stroke-width:2; stroke-opacity:0.1; fill:none" points="
  139.191,1486.45 2112.76,1486.45 
  "/>
<polyline clip-path="url(#clip982)" style="stroke:#000000; stroke-width:2; stroke-opacity:0.1; fill:none" points="
  139.191,1198.61 2112.76,1198.61 
  "/>
<polyline clip-path="url(#clip982)" style="stroke:#000000; stroke-width:2; stroke-opacity:0.1; fill:none" points="
  139.191,910.766 2112.76,910.766 
  "/>
<polyline clip-path="url(#clip982)" style="stroke:#000000; stroke-width:2; stroke-opacity:0.1; fill:none" points="
  139.191,622.926 2112.76,622.926 
  "/>
<polyline clip-path="url(#clip982)" style="stroke:#000000; stroke-width:2; stroke-opacity:0.1; fill:none" points="
  139.191,335.085 2112.76,335.085 
  "/>
<polyline clip-path="url(#clip982)" style="stroke:#000000; stroke-width:2; stroke-opacity:0.1; fill:none" points="
  139.191,47.2441 2112.76,47.2441 
  "/>
<polyline clip-path="url(#clip980)" style="stroke:#000000; stroke-width:4; stroke-opacity:1; fill:none" points="
  139.191,1486.45 2112.76,1486.45 
  "/>
<polyline clip-path="url(#clip980)" style="stroke:#000000; stroke-width:4; stroke-opacity:1; fill:none" points="
  139.191,1486.45 139.191,47.2441 
  "/>
<polyline clip-path="url(#clip980)" style="stroke:#000000; stroke-width:4; stroke-opacity:1; fill:none" points="
  139.191,1486.45 139.191,1469.18 
  "/>
<polyline clip-path="url(#clip980)" style="stroke:#000000; stroke-width:4; stroke-opacity:1; fill:none" points="
  533.904,1486.45 533.904,1469.18 
  "/>
<polyline clip-path="url(#clip980)" style="stroke:#000000; stroke-width:4; stroke-opacity:1; fill:none" points="
  928.617,1486.45 928.617,1469.18 
  "/>
<polyline clip-path="url(#clip980)" style="stroke:#000000; stroke-width:4; stroke-opacity:1; fill:none" points="
  1323.33,1486.45 1323.33,1469.18 
  "/>
<polyline clip-path="url(#clip980)" style="stroke:#000000; stroke-width:4; stroke-opacity:1; fill:none" points="
  1718.04,1486.45 1718.04,1469.18 
  "/>
<polyline clip-path="url(#clip980)" style="stroke:#000000; stroke-width:4; stroke-opacity:1; fill:none" points="
  2112.76,1486.45 2112.76,1469.18 
  "/>
<polyline clip-path="url(#clip980)" style="stroke:#000000; stroke-width:4; stroke-opacity:1; fill:none" points="
  139.191,1486.45 162.874,1486.45 
  "/>
<polyline clip-path="url(#clip980)" style="stroke:#000000; stroke-width:4; stroke-opacity:1; fill:none" points="
  139.191,1198.61 162.874,1198.61 
  "/>
<polyline clip-path="url(#clip980)" style="stroke:#000000; stroke-width:4; stroke-opacity:1; fill:none" points="
  139.191,910.766 162.874,910.766 
  "/>
<polyline clip-path="url(#clip980)" style="stroke:#000000; stroke-width:4; stroke-opacity:1; fill:none" points="
  139.191,622.926 162.874,622.926 
  "/>
<polyline clip-path="url(#clip980)" style="stroke:#000000; stroke-width:4; stroke-opacity:1; fill:none" points="
  139.191,335.085 162.874,335.085 
  "/>
<polyline clip-path="url(#clip980)" style="stroke:#000000; stroke-width:4; stroke-opacity:1; fill:none" points="
  139.191,47.2441 162.874,47.2441 
  "/>
<path clip-path="url(#clip980)" d="M 0 0 M139.191 1508.44 Q135.58 1508.44 133.751 1512 Q131.946 1515.55 131.946 1522.67 Q131.946 1529.78 133.751 1533.35 Q135.58 1536.89 139.191 1536.89 Q142.825 1536.89 144.631 1533.35 Q146.459 1529.78 146.459 1522.67 Q146.459 1515.55 144.631 1512 Q142.825 1508.44 139.191 1508.44 M139.191 1504.73 Q145.001 1504.73 148.057 1509.34 Q151.135 1513.92 151.135 1522.67 Q151.135 1531.4 148.057 1536.01 Q145.001 1540.59 139.191 1540.59 Q133.381 1540.59 130.302 1536.01 Q127.247 1531.4 127.247 1522.67 Q127.247 1513.92 130.302 1509.34 Q133.381 1504.73 139.191 1504.73 Z" fill="#000000" fill-rule="evenodd" fill-opacity="1" /><path clip-path="url(#clip980)" d="M 0 0 M510.779 1535.98 L518.418 1535.98 L518.418 1509.62 L510.108 1511.29 L510.108 1507.03 L518.372 1505.36 L523.047 1505.36 L523.047 1535.98 L530.686 1535.98 L530.686 1539.92 L510.779 1539.92 L510.779 1535.98 Z" fill="#000000" fill-rule="evenodd" fill-opacity="1" /><path clip-path="url(#clip980)" d="M 0 0 M545.756 1508.44 Q542.145 1508.44 540.316 1512 Q538.51 1515.55 538.51 1522.67 Q538.51 1529.78 540.316 1533.35 Q542.145 1536.89 545.756 1536.89 Q549.39 1536.89 551.195 1533.35 Q553.024 1529.78 553.024 1522.67 Q553.024 1515.55 551.195 1512 Q549.39 1508.44 545.756 1508.44 M545.756 1504.73 Q551.566 1504.73 554.621 1509.34 Q557.7 1513.92 557.7 1522.67 Q557.7 1531.4 554.621 1536.01 Q551.566 1540.59 545.756 1540.59 Q539.946 1540.59 536.867 1536.01 Q533.811 1531.4 533.811 1522.67 Q533.811 1513.92 536.867 1509.34 Q539.946 1504.73 545.756 1504.73 Z" fill="#000000" fill-rule="evenodd" fill-opacity="1" /><path clip-path="url(#clip980)" d="M 0 0 M909.763 1535.98 L926.082 1535.98 L926.082 1539.92 L904.138 1539.92 L904.138 1535.98 Q906.8 1533.23 911.383 1528.6 Q915.99 1523.95 917.17 1522.61 Q919.416 1520.08 920.295 1518.35 Q921.198 1516.59 921.198 1514.9 Q921.198 1512.14 919.254 1510.41 Q917.332 1508.67 914.23 1508.67 Q912.031 1508.67 909.578 1509.43 Q907.147 1510.2 904.369 1511.75 L904.369 1507.03 Q907.193 1505.89 909.647 1505.31 Q912.101 1504.73 914.138 1504.73 Q919.508 1504.73 922.703 1507.42 Q925.897 1510.11 925.897 1514.6 Q925.897 1516.73 925.087 1518.65 Q924.3 1520.54 922.193 1523.14 Q921.615 1523.81 918.513 1527.03 Q915.411 1530.22 909.763 1535.98 Z" fill="#000000" fill-rule="evenodd" fill-opacity="1" /><path clip-path="url(#clip980)" d="M 0 0 M941.152 1508.44 Q937.54 1508.44 935.712 1512 Q933.906 1515.55 933.906 1522.67 Q933.906 1529.78 935.712 1533.35 Q937.54 1536.89 941.152 1536.89 Q944.786 1536.89 946.591 1533.35 Q948.42 1529.78 948.42 1522.67 Q948.42 1515.55 946.591 1512 Q944.786 1508.44 941.152 1508.44 M941.152 1504.73 Q946.962 1504.73 950.017 1509.34 Q953.096 1513.92 953.096 1522.67 Q953.096 1531.4 950.017 1536.01 Q946.962 1540.59 941.152 1540.59 Q935.341 1540.59 932.263 1536.01 Q929.207 1531.4 929.207 1522.67 Q929.207 1513.92 932.263 1509.34 Q935.341 1504.73 941.152 1504.73 Z" fill="#000000" fill-rule="evenodd" fill-opacity="1" /><path clip-path="url(#clip980)" d="M 0 0 M1314.07 1521.29 Q1317.43 1522 1319.3 1524.27 Q1321.2 1526.54 1321.2 1529.87 Q1321.2 1534.99 1317.68 1537.79 Q1314.16 1540.59 1307.68 1540.59 Q1305.51 1540.59 1303.19 1540.15 Q1300.9 1539.73 1298.45 1538.88 L1298.45 1534.36 Q1300.39 1535.5 1302.71 1536.08 Q1305.02 1536.66 1307.54 1536.66 Q1311.94 1536.66 1314.23 1534.92 Q1316.55 1533.18 1316.55 1529.87 Q1316.55 1526.82 1314.39 1525.11 Q1312.27 1523.37 1308.45 1523.37 L1304.42 1523.37 L1304.42 1519.53 L1308.63 1519.53 Q1312.08 1519.53 1313.91 1518.16 Q1315.74 1516.77 1315.74 1514.18 Q1315.74 1511.52 1313.84 1510.11 Q1311.96 1508.67 1308.45 1508.67 Q1306.52 1508.67 1304.33 1509.09 Q1302.13 1509.5 1299.49 1510.38 L1299.49 1506.22 Q1302.15 1505.48 1304.46 1505.11 Q1306.8 1504.73 1308.86 1504.73 Q1314.19 1504.73 1317.29 1507.17 Q1320.39 1509.57 1320.39 1513.69 Q1320.39 1516.56 1318.75 1518.55 Q1317.1 1520.52 1314.07 1521.29 Z" fill="#000000" fill-rule="evenodd" fill-opacity="1" /><path clip-path="url(#clip980)" d="M 0 0 M1336.27 1508.44 Q1332.66 1508.44 1330.83 1512 Q1329.02 1515.55 1329.02 1522.67 Q1329.02 1529.78 1330.83 1533.35 Q1332.66 1536.89 1336.27 1536.89 Q1339.9 1536.89 1341.71 1533.35 Q1343.54 1529.78 1343.54 1522.67 Q1343.54 1515.55 1341.71 1512 Q1339.9 1508.44 1336.27 1508.44 M1336.27 1504.73 Q1342.08 1504.73 1345.14 1509.34 Q1348.21 1513.92 1348.21 1522.67 Q1348.21 1531.4 1345.14 1536.01 Q1342.08 1540.59 1336.27 1540.59 Q1330.46 1540.59 1327.38 1536.01 Q1324.33 1531.4 1324.33 1522.67 Q1324.33 1513.92 1327.38 1509.34 Q1330.46 1504.73 1336.27 1504.73 Z" fill="#000000" fill-rule="evenodd" fill-opacity="1" /><path clip-path="url(#clip980)" d="M 0 0 M1707.55 1509.43 L1695.74 1527.88 L1707.55 1527.88 L1707.55 1509.43 M1706.32 1505.36 L1712.2 1505.36 L1712.2 1527.88 L1717.13 1527.88 L1717.13 1531.77 L1712.2 1531.77 L1712.2 1539.92 L1707.55 1539.92 L1707.55 1531.77 L1691.94 1531.77 L1691.94 1527.26 L1706.32 1505.36 Z" fill="#000000" fill-rule="evenodd" fill-opacity="1" /><path clip-path="url(#clip980)" d="M 0 0 M1732.2 1508.44 Q1728.59 1508.44 1726.76 1512 Q1724.95 1515.55 1724.95 1522.67 Q1724.95 1529.78 1726.76 1533.35 Q1728.59 1536.89 1732.2 1536.89 Q1735.83 1536.89 1737.64 1533.35 Q1739.47 1529.78 1739.47 1522.67 Q1739.47 1515.55 1737.64 1512 Q1735.83 1508.44 1732.2 1508.44 M1732.2 1504.73 Q1738.01 1504.73 1741.06 1509.34 Q1744.14 1513.92 1744.14 1522.67 Q1744.14 1531.4 1741.06 1536.01 Q1738.01 1540.59 1732.2 1540.59 Q1726.39 1540.59 1723.31 1536.01 Q1720.25 1531.4 1720.25 1522.67 Q1720.25 1513.92 1723.31 1509.34 Q1726.39 1504.73 1732.2 1504.73 Z" fill="#000000" fill-rule="evenodd" fill-opacity="1" /><path clip-path="url(#clip980)" d="M 0 0 M2089.53 1505.36 L2107.88 1505.36 L2107.88 1509.3 L2093.81 1509.3 L2093.81 1517.77 Q2094.83 1517.42 2095.85 1517.26 Q2096.86 1517.07 2097.88 1517.07 Q2103.67 1517.07 2107.05 1520.24 Q2110.43 1523.42 2110.43 1528.83 Q2110.43 1534.41 2106.96 1537.51 Q2103.49 1540.59 2097.17 1540.59 Q2094.99 1540.59 2092.72 1540.22 Q2090.48 1539.85 2088.07 1539.11 L2088.07 1534.41 Q2090.15 1535.54 2092.37 1536.1 Q2094.6 1536.66 2097.07 1536.66 Q2101.08 1536.66 2103.42 1534.55 Q2105.75 1532.44 2105.75 1528.83 Q2105.75 1525.22 2103.42 1523.11 Q2101.08 1521.01 2097.07 1521.01 Q2095.2 1521.01 2093.32 1521.42 Q2091.47 1521.84 2089.53 1522.72 L2089.53 1505.36 Z" fill="#000000" fill-rule="evenodd" fill-opacity="1" /><path clip-path="url(#clip980)" d="M 0 0 M2125.5 1508.44 Q2121.89 1508.44 2120.06 1512 Q2118.25 1515.55 2118.25 1522.67 Q2118.25 1529.78 2120.06 1533.35 Q2121.89 1536.89 2125.5 1536.89 Q2129.13 1536.89 2130.94 1533.35 Q2132.77 1529.78 2132.77 1522.67 Q2132.77 1515.55 2130.94 1512 Q2129.13 1508.44 2125.5 1508.44 M2125.5 1504.73 Q2131.31 1504.73 2134.36 1509.34 Q2137.44 1513.92 2137.44 1522.67 Q2137.44 1531.4 2134.36 1536.01 Q2131.31 1540.59 2125.5 1540.59 Q2119.69 1540.59 2116.61 1536.01 Q2113.55 1531.4 2113.55 1522.67 Q2113.55 1513.92 2116.61 1509.34 Q2119.69 1504.73 2125.5 1504.73 Z" fill="#000000" fill-rule="evenodd" fill-opacity="1" /><path clip-path="url(#clip980)" d="M 0 0 M103.247 1472.25 Q99.6354 1472.25 97.8068 1475.81 Q96.0012 1479.35 96.0012 1486.48 Q96.0012 1493.59 97.8068 1497.15 Q99.6354 1500.7 103.247 1500.7 Q106.881 1500.7 108.686 1497.15 Q110.515 1493.59 110.515 1486.48 Q110.515 1479.35 108.686 1475.81 Q106.881 1472.25 103.247 1472.25 M103.247 1468.54 Q109.057 1468.54 112.112 1473.15 Q115.191 1477.73 115.191 1486.48 Q115.191 1495.21 112.112 1499.82 Q109.057 1504.4 103.247 1504.4 Q97.4364 1504.4 94.3577 1499.82 Q91.3022 1495.21 91.3022 1486.48 Q91.3022 1477.73 94.3577 1473.15 Q97.4364 1468.54 103.247 1468.54 Z" fill="#000000" fill-rule="evenodd" fill-opacity="1" /><path clip-path="url(#clip980)" d="M 0 0 M68.2699 1211.95 L75.9087 1211.95 L75.9087 1185.59 L67.5986 1187.25 L67.5986 1182.99 L75.8624 1181.33 L80.5383 1181.33 L80.5383 1211.95 L88.1772 1211.95 L88.1772 1215.89 L68.2699 1215.89 L68.2699 1211.95 Z" fill="#000000" fill-rule="evenodd" fill-opacity="1" /><path clip-path="url(#clip980)" d="M 0 0 M103.247 1184.41 Q99.6354 1184.41 97.8068 1187.97 Q96.0012 1191.51 96.0012 1198.64 Q96.0012 1205.75 97.8068 1209.31 Q99.6354 1212.85 103.247 1212.85 Q106.881 1212.85 108.686 1209.31 Q110.515 1205.75 110.515 1198.64 Q110.515 1191.51 108.686 1187.97 Q106.881 1184.41 103.247 1184.41 M103.247 1180.7 Q109.057 1180.7 112.112 1185.31 Q115.191 1189.89 115.191 1198.64 Q115.191 1207.37 112.112 1211.98 Q109.057 1216.56 103.247 1216.56 Q97.4364 1216.56 94.3577 1211.98 Q91.3022 1207.37 91.3022 1198.64 Q91.3022 1189.89 94.3577 1185.31 Q97.4364 1180.7 103.247 1180.7 Z" fill="#000000" fill-rule="evenodd" fill-opacity="1" /><path clip-path="url(#clip980)" d="M 0 0 M71.8578 924.111 L88.1772 924.111 L88.1772 928.046 L66.2328 928.046 L66.2328 924.111 Q68.8949 921.357 73.4782 916.727 Q78.0846 912.074 79.2652 910.732 Q81.5105 908.209 82.3902 906.472 Q83.2929 904.713 83.2929 903.023 Q83.2929 900.269 81.3485 898.533 Q79.4272 896.797 76.3254 896.797 Q74.1263 896.797 71.6726 897.56 Q69.2421 898.324 66.4643 899.875 L66.4643 895.153 Q69.2884 894.019 71.7421 893.44 Q74.1958 892.861 76.2328 892.861 Q81.6031 892.861 84.7976 895.547 Q87.992 898.232 87.992 902.722 Q87.992 904.852 87.1818 906.773 Q86.3948 908.671 84.2883 911.264 Q83.7096 911.935 80.6078 915.153 Q77.5059 918.347 71.8578 924.111 Z" fill="#000000" fill-rule="evenodd" fill-opacity="1" /><path clip-path="url(#clip980)" d="M 0 0 M103.247 896.565 Q99.6354 896.565 97.8068 900.13 Q96.0012 903.671 96.0012 910.801 Q96.0012 917.908 97.8068 921.472 Q99.6354 925.014 103.247 925.014 Q106.881 925.014 108.686 921.472 Q110.515 917.908 110.515 910.801 Q110.515 903.671 108.686 900.13 Q106.881 896.565 103.247 896.565 M103.247 892.861 Q109.057 892.861 112.112 897.468 Q115.191 902.051 115.191 910.801 Q115.191 919.528 112.112 924.134 Q109.057 928.718 103.247 928.718 Q97.4364 928.718 94.3577 924.134 Q91.3022 919.528 91.3022 910.801 Q91.3022 902.051 94.3577 897.468 Q97.4364 892.861 103.247 892.861 Z" fill="#000000" fill-rule="evenodd" fill-opacity="1" /><path clip-path="url(#clip980)" d="M 0 0 M81.0476 621.571 Q84.404 622.289 86.279 624.558 Q88.1772 626.826 88.1772 630.159 Q88.1772 635.275 84.6587 638.076 Q81.1402 640.877 74.6587 640.877 Q72.4828 640.877 70.168 640.437 Q67.8764 640.02 65.4227 639.164 L65.4227 634.65 Q67.3671 635.784 69.6819 636.363 Q71.9967 636.942 74.5198 636.942 Q78.918 636.942 81.2096 635.206 Q83.5244 633.47 83.5244 630.159 Q83.5244 627.104 81.3717 625.391 Q79.242 623.655 75.4226 623.655 L71.3949 623.655 L71.3949 619.812 L75.6078 619.812 Q79.0569 619.812 80.8855 618.446 Q82.7142 617.058 82.7142 614.465 Q82.7142 611.803 80.8161 610.391 Q78.9411 608.956 75.4226 608.956 Q73.5013 608.956 71.3023 609.372 Q69.1032 609.789 66.4643 610.669 L66.4643 606.502 Q69.1264 605.761 71.4412 605.391 Q73.7791 605.021 75.8393 605.021 Q81.1633 605.021 84.2652 607.451 Q87.367 609.859 87.367 613.979 Q87.367 616.849 85.7235 618.84 Q84.08 620.808 81.0476 621.571 Z" fill="#000000" fill-rule="evenodd" fill-opacity="1" /><path clip-path="url(#clip980)" d="M 0 0 M103.247 608.724 Q99.6354 608.724 97.8068 612.289 Q96.0012 615.831 96.0012 622.96 Q96.0012 630.067 97.8068 633.632 Q99.6354 637.173 103.247 637.173 Q106.881 637.173 108.686 633.632 Q110.515 630.067 110.515 622.96 Q110.515 615.831 108.686 612.289 Q106.881 608.724 103.247 608.724 M103.247 605.021 Q109.057 605.021 112.112 609.627 Q115.191 614.21 115.191 622.96 Q115.191 631.687 112.112 636.294 Q109.057 640.877 103.247 640.877 Q97.4364 640.877 94.3577 636.294 Q91.3022 631.687 91.3022 622.96 Q91.3022 614.21 94.3577 609.627 Q97.4364 605.021 103.247 605.021 Z" fill="#000000" fill-rule="evenodd" fill-opacity="1" /><path clip-path="url(#clip980)" d="M 0 0 M78.5939 321.879 L66.7884 340.328 L78.5939 340.328 L78.5939 321.879 M77.367 317.805 L83.2466 317.805 L83.2466 340.328 L88.1772 340.328 L88.1772 344.217 L83.2466 344.217 L83.2466 352.365 L78.5939 352.365 L78.5939 344.217 L62.9921 344.217 L62.9921 339.703 L77.367 317.805 Z" fill="#000000" fill-rule="evenodd" fill-opacity="1" /><path clip-path="url(#clip980)" d="M 0 0 M103.247 320.884 Q99.6354 320.884 97.8068 324.448 Q96.0012 327.99 96.0012 335.12 Q96.0012 342.226 97.8068 345.791 Q99.6354 349.332 103.247 349.332 Q106.881 349.332 108.686 345.791 Q110.515 342.226 110.515 335.12 Q110.515 327.99 108.686 324.448 Q106.881 320.884 103.247 320.884 M103.247 317.18 Q109.057 317.18 112.112 321.786 Q115.191 326.37 115.191 335.12 Q115.191 343.846 112.112 348.453 Q109.057 353.036 103.247 353.036 Q97.4364 353.036 94.3577 348.453 Q91.3022 343.846 91.3022 335.12 Q91.3022 326.37 94.3577 321.786 Q97.4364 317.18 103.247 317.18 Z" fill="#000000" fill-rule="evenodd" fill-opacity="1" /><path clip-path="url(#clip980)" d="M 0 0 M67.2745 29.9641 L85.6309 29.9641 L85.6309 33.8993 L71.5569 33.8993 L71.5569 42.3714 Q72.5754 42.0242 73.5939 41.8622 Q74.6124 41.677 75.6309 41.677 Q81.418 41.677 84.7976 44.8483 Q88.1772 48.0196 88.1772 53.4362 Q88.1772 59.0149 84.705 62.1167 Q81.2328 65.1954 74.9134 65.1954 Q72.7374 65.1954 70.4689 64.825 Q68.2236 64.4547 65.8162 63.7139 L65.8162 59.0149 Q67.8995 60.1491 70.1217 60.7047 Q72.3439 61.2602 74.8208 61.2602 Q78.8254 61.2602 81.1633 59.1538 Q83.5013 57.0473 83.5013 53.4362 Q83.5013 49.8251 81.1633 47.7186 Q78.8254 45.6122 74.8208 45.6122 Q72.9458 45.6122 71.0708 46.0288 Q69.2189 46.4455 67.2745 47.3251 L67.2745 29.9641 Z" fill="#000000" fill-rule="evenodd" fill-opacity="1" /><path clip-path="url(#clip980)" d="M 0 0 M103.247 33.0428 Q99.6354 33.0428 97.8068 36.6076 Q96.0012 40.1492 96.0012 47.2788 Q96.0012 54.3853 97.8068 57.9501 Q99.6354 61.4917 103.247 61.4917 Q106.881 61.4917 108.686 57.9501 Q110.515 54.3853 110.515 47.2788 Q110.515 40.1492 108.686 36.6076 Q106.881 33.0428 103.247 33.0428 M103.247 29.3391 Q109.057 29.3391 112.112 33.9456 Q115.191 38.5289 115.191 47.2788 Q115.191 56.0056 112.112 60.6121 Q109.057 65.1954 103.247 65.1954 Q97.4364 65.1954 94.3577 60.6121 Q91.3022 56.0056 91.3022 47.2788 Q91.3022 38.5289 94.3577 33.9456 Q97.4364 29.3391 103.247 29.3391 Z" fill="#000000" fill-rule="evenodd" fill-opacity="1" /><path clip-path="url(#clip982)" d="
M139.191 1486.45 L139.191 1486.45 L336.547 1486.45 L533.904 1486.45 L731.26 1486.45 L928.617 1486.45 L1125.97 1486.45 L1323.33 1486.45 L1520.69 1486.45 L1718.04 1486.45 
  L1915.4 1486.45 L2112.76 1486.45 L2112.76 1486.45 L2112.76 1486.45 L2112.76 1486.45 L2112.76 1342.53 L2112.76 1198.61 L2112.76 1054.69 L2112.76 910.766 L2112.76 766.846 
  L2112.76 622.926 L2112.76 479.005 L2112.76 335.085 L2112.76 191.164 L2112.76 47.2441 L2112.76 47.2441 L2112.76 47.2441 L2112.76 47.2441 L1915.4 47.2441 L1718.04 47.2441 
  L1520.69 47.2441 L1323.33 47.2441 L1125.97 47.2441 L928.617 47.2441 L731.26 47.2441 L533.904 47.2441 L336.547 47.2441 L139.191 47.2441 L139.191 47.2441 L139.191 47.2441 
  L139.191 47.2441 L139.191 191.164 L139.191 335.085 L139.191 479.005 L139.191 622.926 L139.191 766.846 L139.191 910.766 L139.191 1054.69 L139.191 1198.61 L139.191 1342.53 
  L139.191 1486.45 L139.191 1486.45 L139.191 1486.45  Z
  " fill="#000003" fill-rule="evenodd" fill-opacity="1"/>
<path clip-path="url(#clip982)" d="
M928.617 1486.45 L1125.97 1486.45 L1323.33 1486.45 L1520.69 1486.45 L1718.04 1486.45 L1915.4 1486.45 L2112.76 1486.45 L2112.76 1486.45 L2112.76 1486.45 L2112.76 1486.45 
  L2112.76 1342.53 L2112.76 1198.61 L2112.76 1054.69 L2112.76 910.766 L2112.76 766.846 L2112.76 622.926 L2112.76 479.005 L2112.76 335.085 L2112.76 191.164 L2112.76 47.2441 
  L2112.76 47.2441 L2112.76 47.2441 L2112.76 47.2441 L1915.4 47.2441 L1718.04 47.2441 L1520.69 47.2441 L1323.33 47.2441 L1125.97 47.2441 L928.617 47.2441 L731.26 47.2441 
  L533.904 47.2441 L336.547 47.2441 L139.191 47.2441 L139.191 47.2441 L139.191 47.2441 L139.191 47.2441 L139.191 191.164 L139.191 335.085 L139.191 479.005 L139.191 622.926 
  L139.191 766.846 L139.191 910.766 L139.191 1054.69 L139.191 1020.19 L336.547 1022.73 L533.904 1028.11 L731.26 1054.52 L731.511 1054.69 L798.55 1198.61 L782.187 1342.53 
  L801.809 1486.45 L731.26 1486.45 L928.617 1486.45  Z
  " fill="#06041b" fill-rule="evenodd" fill-opacity="1"/>
<path clip-path="url(#clip982)" d="
M1125.97 1486.45 L1323.33 1486.45 L1520.69 1486.45 L1718.04 1486.45 L1915.4 1486.45 L2112.76 1486.45 L2112.76 1486.45 L2112.76 1486.45 L2112.76 1486.45 L2112.76 1342.53 
  L2112.76 1198.61 L2112.76 1054.69 L2112.76 910.766 L2112.76 766.846 L2112.76 622.926 L2112.76 479.005 L2112.76 335.085 L2112.76 191.164 L2112.76 47.2441 L2112.76 47.2441 
  L2112.76 47.2441 L2112.76 47.2441 L1915.4 47.2441 L1718.04 47.2441 L1520.69 47.2441 L1323.33 47.2441 L1125.97 47.2441 L928.617 47.2441 L731.26 47.2441 L533.904 47.2441 
  L336.547 47.2441 L139.191 47.2441 L139.191 47.2441 L139.191 47.2441 L139.191 47.2441 L139.191 191.164 L139.191 335.085 L139.191 479.005 L139.191 622.926 L139.191 766.846 
  L139.191 910.766 L139.191 1054.69 L139.191 943.164 L336.547 951.381 L533.904 958.95 L731.26 970.839 L855.438 1054.69 L891.495 1198.61 L907.789 1342.53 L928.617 1483.02 
  L928.828 1486.45 L928.617 1486.45 L1125.97 1486.45  Z
  " fill="#160b39" fill-rule="evenodd" fill-opacity="1"/>
<path clip-path="url(#clip982)" d="
M1125.97 1486.45 L1323.33 1486.45 L1520.69 1486.45 L1718.04 1486.45 L1915.4 1486.45 L2112.76 1486.45 L2112.76 1486.45 L2112.76 1486.45 L2112.76 1486.45 L2112.76 1342.53 
  L2112.76 1198.61 L2112.76 1054.69 L2112.76 910.766 L2112.76 766.846 L2112.76 622.926 L2112.76 479.005 L2112.76 335.085 L2112.76 191.164 L2112.76 47.2441 L2112.76 47.2441 
  L2112.76 47.2441 L2112.76 47.2441 L1915.4 47.2441 L1718.04 47.2441 L1520.69 47.2441 L1323.33 47.2441 L1125.97 47.2441 L928.617 47.2441 L731.26 47.2441 L533.904 47.2441 
  L336.547 47.2441 L139.191 47.2441 L139.191 47.2441 L139.191 47.2441 L139.191 47.2441 L139.191 191.164 L139.191 335.085 L139.191 479.005 L139.191 622.926 L139.191 766.846 
  L139.191 910.766 L139.191 890.098 L336.547 892.855 L533.904 898.882 L731.26 899.452 L763.631 910.766 L928.617 1022.78 L947.459 1054.69 L961.073 1198.61 L969.64 1342.53 
  L981.045 1486.45 L928.617 1486.45 L1125.97 1486.45  Z
  " fill="#2b0a56" fill-rule="evenodd" fill-opacity="1"/>
<path clip-path="url(#clip982)" d="
M1125.97 1486.45 L1323.33 1486.45 L1520.69 1486.45 L1718.04 1486.45 L1915.4 1486.45 L2112.76 1486.45 L2112.76 1486.45 L2112.76 1486.45 L2112.76 1486.45 L2112.76 1342.53 
  L2112.76 1198.61 L2112.76 1054.69 L2112.76 910.766 L2112.76 766.846 L2112.76 622.926 L2112.76 479.005 L2112.76 335.085 L2112.76 191.164 L2112.76 47.2441 L2112.76 47.2441 
  L2112.76 47.2441 L2112.76 47.2441 L1915.4 47.2441 L1718.04 47.2441 L1520.69 47.2441 L1323.33 47.2441 L1125.97 47.2441 L928.617 47.2441 L731.26 47.2441 L533.904 47.2441 
  L336.547 47.2441 L139.191 47.2441 L139.191 47.2441 L139.191 47.2441 L139.191 47.2441 L139.191 191.164 L139.191 335.085 L139.191 479.005 L139.191 622.926 L139.191 766.846 
  L139.191 910.766 L139.191 854.425 L336.547 851.273 L533.904 859.703 L731.26 859.346 L878.379 910.766 L928.617 944.876 L993.472 1054.69 L1015.11 1198.61 L1018.82 1342.53 
  L1033.26 1486.45 L928.617 1486.45 L1125.97 1486.45  Z
  " fill="#410967" fill-rule="evenodd" fill-opacity="1"/>
<path clip-path="url(#clip982)" d="
M1125.97 1486.45 L1323.33 1486.45 L1520.69 1486.45 L1718.04 1486.45 L1915.4 1486.45 L2112.76 1486.45 L2112.76 1486.45 L2112.76 1486.45 L2112.76 1486.45 L2112.76 1342.53 
  L2112.76 1198.61 L2112.76 1054.69 L2112.76 910.766 L2112.76 766.846 L2112.76 622.926 L2112.76 479.005 L2112.76 335.085 L2112.76 191.164 L2112.76 47.2441 L2112.76 47.2441 
  L2112.76 47.2441 L2112.76 47.2441 L1915.4 47.2441 L1718.04 47.2441 L1520.69 47.2441 L1323.33 47.2441 L1125.97 47.2441 L928.617 47.2441 L731.26 47.2441 L533.904 47.2441 
  L336.547 47.2441 L139.191 47.2441 L139.191 47.2441 L139.191 47.2441 L139.191 47.2441 L139.191 191.164 L139.191 335.085 L139.191 479.005 L139.191 622.926 L139.191 766.846 
  L139.191 910.766 L139.191 818.751 L336.547 809.69 L533.904 820.524 L731.26 819.24 L928.617 893.831 L958.138 910.766 L1039.48 1054.69 L1069.15 1198.61 L1067.99 1342.53 
  L1085.48 1486.45 L928.617 1486.45 L1125.97 1486.45  Z
  " fill="#550f6d" fill-rule="evenodd" fill-opacity="1"/>
<path clip-path="url(#clip982)" d="
M1323.33 1486.45 L1520.69 1486.45 L1718.04 1486.45 L1915.4 1486.45 L2112.76 1486.45 L2112.76 1486.45 L2112.76 1486.45 L2112.76 1486.45 L2112.76 1342.53 L2112.76 1198.61 
  L2112.76 1054.69 L2112.76 910.766 L2112.76 766.846 L2112.76 622.926 L2112.76 479.005 L2112.76 335.085 L2112.76 191.164 L2112.76 47.2441 L2112.76 47.2441 L2112.76 47.2441 
  L2112.76 47.2441 L1915.4 47.2441 L1718.04 47.2441 L1520.69 47.2441 L1323.33 47.2441 L1125.97 47.2441 L928.617 47.2441 L731.26 47.2441 L533.904 47.2441 L336.547 47.2441 
  L139.191 47.2441 L139.191 47.2441 L139.191 47.2441 L139.191 47.2441 L139.191 191.164 L139.191 335.085 L139.191 479.005 L139.191 622.926 L139.191 766.846 L139.191 910.766 
  L139.191 783.078 L336.547 768.107 L533.904 781.345 L731.26 779.133 L928.617 863.707 L1010.65 910.766 L1085.5 1054.69 L1123.19 1198.61 L1117.17 1342.53 L1125.97 1406.37 
  L1134.85 1486.45 L1125.97 1486.45 L1323.33 1486.45  Z
  " fill="#6a176e" fill-rule="evenodd" fill-opacity="1"/>
<path clip-path="url(#clip982)" d="
M1323.33 1486.45 L1520.69 1486.45 L1718.04 1486.45 L1915.4 1486.45 L2112.76 1486.45 L2112.76 1486.45 L2112.76 1486.45 L2112.76 1486.45 L2112.76 1342.53 L2112.76 1198.61 
  L2112.76 1054.69 L2112.76 910.766 L2112.76 766.846 L2112.76 622.926 L2112.76 479.005 L2112.76 335.085 L2112.76 191.164 L2112.76 47.2441 L2112.76 47.2441 L2112.76 47.2441 
  L2112.76 47.2441 L1915.4 47.2441 L1718.04 47.2441 L1520.69 47.2441 L1323.33 47.2441 L1125.97 47.2441 L928.617 47.2441 L731.26 47.2441 L533.904 47.2441 L336.547 47.2441 
  L139.191 47.2441 L139.191 47.2441 L139.191 47.2441 L139.191 47.2441 L139.191 191.164 L139.191 335.085 L139.191 479.005 L139.191 622.926 L139.191 766.846 L139.191 747.404 
  L336.547 735.248 L533.904 742.023 L731.26 746.043 L778.319 766.846 L928.617 833.582 L1063.16 910.766 L1125.97 1041.53 L1131.8 1054.69 L1170.95 1198.61 L1165.93 1342.53 
  L1174.4 1486.45 L1125.97 1486.45 L1323.33 1486.45  Z
  " fill="#7e1e6c" fill-rule="evenodd" fill-opacity="1"/>
<path clip-path="url(#clip982)" d="
M1323.33 1486.45 L1520.69 1486.45 L1718.04 1486.45 L1915.4 1486.45 L2112.76 1486.45 L2112.76 1486.45 L2112.76 1486.45 L2112.76 1486.45 L2112.76 1342.53 L2112.76 1198.61 
  L2112.76 1054.69 L2112.76 910.766 L2112.76 766.846 L2112.76 622.926 L2112.76 479.005 L2112.76 335.085 L2112.76 191.164 L2112.76 47.2441 L2112.76 47.2441 L2112.76 47.2441 
  L2112.76 47.2441 L1915.4 47.2441 L1718.04 47.2441 L1520.69 47.2441 L1323.33 47.2441 L1125.97 47.2441 L928.617 47.2441 L731.26 47.2441 L533.904 47.2441 L336.547 47.2441 
  L139.191 47.2441 L139.191 47.2441 L139.191 47.2441 L139.191 47.2441 L139.191 191.164 L139.191 335.085 L139.191 479.005 L139.191 622.926 L139.191 766.846 L139.191 711.731 
  L336.547 702.662 L533.904 702.616 L731.26 716.052 L846.162 766.846 L928.617 803.458 L1115.67 910.766 L1125.97 932.211 L1180.21 1054.69 L1218.37 1198.61 L1214.59 1342.53 
  L1213.95 1486.45 L1125.97 1486.45 L1323.33 1486.45  Z
  " fill="#932567" fill-rule="evenodd" fill-opacity="1"/>
<path clip-path="url(#clip982)" d="
M1323.33 1486.45 L1520.69 1486.45 L1718.04 1486.45 L1915.4 1486.45 L2112.76 1486.45 L2112.76 1486.45 L2112.76 1486.45 L2112.76 1486.45 L2112.76 1342.53 L2112.76 1198.61 
  L2112.76 1054.69 L2112.76 910.766 L2112.76 766.846 L2112.76 622.926 L2112.76 479.005 L2112.76 335.085 L2112.76 191.164 L2112.76 47.2441 L2112.76 47.2441 L2112.76 47.2441 
  L2112.76 47.2441 L1915.4 47.2441 L1718.04 47.2441 L1520.69 47.2441 L1323.33 47.2441 L1125.97 47.2441 L928.617 47.2441 L731.26 47.2441 L533.904 47.2441 L336.547 47.2441 
  L139.191 47.2441 L139.191 47.2441 L139.191 47.2441 L139.191 47.2441 L139.191 191.164 L139.191 335.085 L139.191 479.005 L139.191 622.926 L139.191 766.846 L139.191 676.057 
  L336.547 670.075 L533.904 663.209 L731.26 686.061 L914.006 766.846 L928.617 773.334 L1125.97 869.175 L1169.67 910.766 L1228.62 1054.69 L1265.79 1198.61 L1263.25 1342.53 
  L1253.51 1486.45 L1125.97 1486.45 L1323.33 1486.45  Z
  " fill="#a62c5f" fill-rule="evenodd" fill-opacity="1"/>
<path clip-path="url(#clip982)" d="
M1323.33 1486.45 L1520.69 1486.45 L1718.04 1486.45 L1915.4 1486.45 L2112.76 1486.45 L2112.76 1486.45 L2112.76 1486.45 L2112.76 1486.45 L2112.76 1342.53 L2112.76 1198.61 
  L2112.76 1054.69 L2112.76 910.766 L2112.76 766.846 L2112.76 622.926 L2112.76 479.005 L2112.76 335.085 L2112.76 191.164 L2112.76 47.2441 L2112.76 47.2441 L2112.76 47.2441 
  L2112.76 47.2441 L1915.4 47.2441 L1718.04 47.2441 L1520.69 47.2441 L1323.33 47.2441 L1125.97 47.2441 L928.617 47.2441 L731.26 47.2441 L533.904 47.2441 L336.547 47.2441 
  L139.191 47.2441 L139.191 47.2441 L139.191 47.2441 L139.191 47.2441 L139.191 191.164 L139.191 335.085 L139.191 479.005 L139.191 622.926 L139.191 766.846 L139.191 640.384 
  L336.547 637.489 L533.904 623.802 L731.26 656.07 L928.617 732.312 L1016.48 766.846 L1125.97 817.435 L1224.02 910.766 L1277.03 1054.69 L1313.21 1198.61 L1311.91 1342.53 
  L1293.06 1486.45 L1125.97 1486.45 L1323.33 1486.45  Z
  " fill="#ba3655" fill-rule="evenodd" fill-opacity="1"/>
<path clip-path="url(#clip982)" d="
M1520.69 1486.45 L1718.04 1486.45 L1915.4 1486.45 L2112.76 1486.45 L2112.76 1486.45 L2112.76 1486.45 L2112.76 1486.45 L2112.76 1342.53 L2112.76 1198.61 L2112.76 1054.69 
  L2112.76 910.766 L2112.76 766.846 L2112.76 622.926 L2112.76 479.005 L2112.76 335.085 L2112.76 191.164 L2112.76 47.2441 L2112.76 47.2441 L2112.76 47.2441 L2112.76 47.2441 
  L1915.4 47.2441 L1718.04 47.2441 L1520.69 47.2441 L1323.33 47.2441 L1125.97 47.2441 L928.617 47.2441 L731.26 47.2441 L533.904 47.2441 L336.547 47.2441 L139.191 47.2441 
  L139.191 47.2441 L139.191 47.2441 L139.191 47.2441 L139.191 191.164 L139.191 335.085 L139.191 479.005 L139.191 622.926 L139.191 602.567 L336.547 601.003 L533.904 590.118 
  L712.096 622.926 L731.26 626.079 L928.617 688.299 L1125.97 766.031 L1126.99 766.846 L1278.37 910.766 L1323.33 1047.5 L1325.97 1054.69 L1359.89 1198.61 L1362.85 1342.53 
  L1335.44 1486.45 L1323.33 1486.45 L1520.69 1486.45  Z
  " fill="#cc4148" fill-rule="evenodd" fill-opacity="1"/>
<path clip-path="url(#clip982)" d="
M1520.69 1486.45 L1718.04 1486.45 L1915.4 1486.45 L2112.76 1486.45 L2112.76 1486.45 L2112.76 1486.45 L2112.76 1486.45 L2112.76 1342.53 L2112.76 1198.61 L2112.76 1054.69 
  L2112.76 910.766 L2112.76 766.846 L2112.76 622.926 L2112.76 479.005 L2112.76 335.085 L2112.76 191.164 L2112.76 47.2441 L2112.76 47.2441 L2112.76 47.2441 L2112.76 47.2441 
  L1915.4 47.2441 L1718.04 47.2441 L1520.69 47.2441 L1323.33 47.2441 L1125.97 47.2441 L928.617 47.2441 L731.26 47.2441 L533.904 47.2441 L336.547 47.2441 L139.191 47.2441 
  L139.191 47.2441 L139.191 47.2441 L139.191 47.2441 L139.191 191.164 L139.191 335.085 L139.191 479.005 L139.191 622.926 L139.191 562.697 L336.547 561.366 L533.904 556.563 
  L731.26 587.867 L859.217 622.926 L928.617 644.287 L1125.97 729.393 L1172.78 766.846 L1323.33 903.577 L1331.88 910.766 L1386.72 1054.69 L1406.36 1198.61 L1414.49 1342.53 
  L1387.08 1486.45 L1323.33 1486.45 L1520.69 1486.45  Z
  " fill="#dc5039" fill-rule="evenodd" fill-opacity="1"/>
<path clip-path="url(#clip982)" d="
M1520.69 1486.45 L1718.04 1486.45 L1915.4 1486.45 L2112.76 1486.45 L2112.76 1486.45 L2112.76 1486.45 L2112.76 1486.45 L2112.76 1342.53 L2112.76 1198.61 L2112.76 1054.69 
  L2112.76 910.766 L2112.76 766.846 L2112.76 622.926 L2112.76 479.005 L2112.76 335.085 L2112.76 191.164 L2112.76 47.2441 L2112.76 47.2441 L2112.76 47.2441 L2112.76 47.2441 
  L1915.4 47.2441 L1718.04 47.2441 L1520.69 47.2441 L1323.33 47.2441 L1125.97 47.2441 L928.617 47.2441 L731.26 47.2441 L533.904 47.2441 L336.547 47.2441 L139.191 47.2441 
  L139.191 47.2441 L139.191 47.2441 L139.191 47.2441 L139.191 191.164 L139.191 335.085 L139.191 479.005 L139.191 622.926 L139.191 522.826 L336.547 521.728 L533.904 523.009 
  L731.26 548.688 L928.617 598.185 L970.578 622.926 L1125.97 692.756 L1218.56 766.846 L1323.33 861.994 L1381.32 910.766 L1447.47 1054.69 L1452.83 1198.61 L1466.13 1342.53 
  L1438.72 1486.45 L1323.33 1486.45 L1520.69 1486.45  Z
  " fill="#e8612b" fill-rule="evenodd" fill-opacity="1"/>
<path clip-path="url(#clip982)" d="
M1520.69 1486.45 L1718.04 1486.45 L1915.4 1486.45 L2112.76 1486.45 L2112.76 1486.45 L2112.76 1486.45 L2112.76 1486.45 L2112.76 1342.53 L2112.76 1198.61 L2112.76 1054.69 
  L2112.76 910.766 L2112.76 766.846 L2112.76 622.926 L2112.76 479.005 L2112.76 335.085 L2112.76 191.164 L2112.76 47.2441 L2112.76 47.2441 L2112.76 47.2441 L2112.76 47.2441 
  L1915.4 47.2441 L1718.04 47.2441 L1520.69 47.2441 L1323.33 47.2441 L1125.97 47.2441 L928.617 47.2441 L731.26 47.2441 L533.904 47.2441 L336.547 47.2441 L139.191 47.2441 
  L139.191 47.2441 L139.191 47.2441 L139.191 47.2441 L139.191 191.164 L139.191 335.085 L139.191 479.005 L139.191 622.926 L139.191 482.956 L336.547 482.091 L533.904 489.455 
  L731.26 509.509 L928.617 550.115 L1052.11 622.926 L1125.97 656.118 L1264.35 766.846 L1323.33 820.411 L1430.76 910.766 L1508.22 1054.69 L1499.31 1198.61 L1517.76 1342.53 
  L1490.35 1486.45 L1323.33 1486.45 L1520.69 1486.45  Z
  " fill="#f2751a" fill-rule="evenodd" fill-opacity="1"/>
<path clip-path="url(#clip982)" d="
M1718.04 1486.45 L1915.4 1486.45 L2112.76 1486.45 L2112.76 1486.45 L2112.76 1486.45 L2112.76 1486.45 L2112.76 1342.53 L2112.76 1198.61 L2112.76 1054.69 L2112.76 910.766 
  L2112.76 766.846 L2112.76 622.926 L2112.76 479.005 L2112.76 335.085 L2112.76 191.164 L2112.76 47.2441 L2112.76 47.2441 L2112.76 47.2441 L2112.76 47.2441 L1915.4 47.2441 
  L1718.04 47.2441 L1520.69 47.2441 L1323.33 47.2441 L1125.97 47.2441 L928.617 47.2441 L731.26 47.2441 L533.904 47.2441 L336.547 47.2441 L139.191 47.2441 L139.191 47.2441 
  L139.191 47.2441 L139.191 47.2441 L139.191 191.164 L139.191 335.085 L139.191 479.005 L139.191 425.441 L336.547 421.663 L533.904 432.334 L731.26 463.532 L793.628 479.005 
  L928.617 502.044 L1125.97 618.06 L1132.09 622.926 L1310.14 766.846 L1323.33 778.829 L1480.2 910.766 L1520.69 983.809 L1585.48 1054.69 L1568.03 1198.61 L1602.63 1342.53 
  L1573.94 1486.45 L1520.69 1486.45 L1718.04 1486.45  Z
  " fill="#f98c09" fill-rule="evenodd" fill-opacity="1"/>
<path clip-path="url(#clip982)" d="
M1718.04 1486.45 L1915.4 1486.45 L2112.76 1486.45 L2112.76 1486.45 L2112.76 1486.45 L2112.76 1486.45 L2112.76 1342.53 L2112.76 1198.61 L2112.76 1054.69 L2112.76 910.766 
  L2112.76 766.846 L2112.76 622.926 L2112.76 479.005 L2112.76 335.085 L2112.76 191.164 L2112.76 47.2441 L2112.76 47.2441 L2112.76 47.2441 L2112.76 47.2441 L1915.4 47.2441 
  L1718.04 47.2441 L1520.69 47.2441 L1323.33 47.2441 L1125.97 47.2441 L928.617 47.2441 L731.26 47.2441 L533.904 47.2441 L336.547 47.2441 L139.191 47.2441 L139.191 47.2441 
  L139.191 47.2441 L139.191 47.2441 L139.191 191.164 L139.191 335.085 L139.191 479.005 L139.191 365.985 L336.547 359.48 L533.904 364.554 L731.26 393.656 L928.617 449.593 
  L975.155 479.005 L1125.97 566.32 L1197.08 622.926 L1323.33 728.248 L1384.03 766.846 L1520.69 896.162 L1539.38 910.766 L1667.01 1054.69 L1655.72 1198.61 L1689.5 1342.53 
  L1703.03 1486.45 L1520.69 1486.45 L1718.04 1486.45  Z
  " fill="#fba40a" fill-rule="evenodd" fill-opacity="1"/>
<path clip-path="url(#clip982)" d="
M1915.4 1486.45 L2112.76 1486.45 L2112.76 1486.45 L2112.76 1486.45 L2112.76 1486.45 L2112.76 1342.53 L2112.76 1198.61 L2112.76 1054.69 L2112.76 910.766 L2112.76 766.846 
  L2112.76 622.926 L2112.76 479.005 L2112.76 335.085 L2112.76 191.164 L2112.76 47.2441 L2112.76 47.2441 L2112.76 47.2441 L2112.76 47.2441 L1915.4 47.2441 L1718.04 47.2441 
  L1520.69 47.2441 L1323.33 47.2441 L1125.97 47.2441 L928.617 47.2441 L731.26 47.2441 L533.904 47.2441 L336.547 47.2441 L139.191 47.2441 L139.191 47.2441 L139.191 47.2441 
  L139.191 47.2441 L139.191 191.164 L139.191 335.085 L139.191 287.906 L336.547 275.391 L533.904 284.005 L731.26 320.844 L758.112 335.085 L928.617 393.11 L1064.53 479.005 
  L1125.97 514.58 L1262.08 622.926 L1323.33 674.024 L1469.3 766.846 L1520.69 815.472 L1642.65 910.766 L1718.04 1005.92 L1762.62 1054.69 L1760.71 1198.61 L1788.16 1342.53 
  L1822.01 1486.45 L1718.04 1486.45 L1915.4 1486.45  Z
  " fill="#fabb21" fill-rule="evenodd" fill-opacity="1"/>
<path clip-path="url(#clip982)" d="
M2112.76 1486.45 L2112.76 1486.45 L2112.76 1486.45 L2112.76 1486.45 L2112.76 1342.53 L2112.76 1198.61 L2112.76 1054.69 L2112.76 910.766 L2112.76 766.846 L2112.76 622.926 
  L2112.76 479.005 L2112.76 335.085 L2112.76 191.164 L2112.76 47.2441 L2112.76 47.2441 L2112.76 47.2441 L2112.76 47.2441 L1915.4 47.2441 L1718.04 47.2441 L1520.69 47.2441 
  L1323.33 47.2441 L1125.97 47.2441 L928.617 47.2441 L731.26 47.2441 L533.904 47.2441 L336.547 47.2441 L139.191 47.2441 L139.191 47.2441 L139.191 47.2441 L139.191 47.2441 
  L139.191 191.164 L139.191 189.149 L336.547 169.691 L502.186 191.164 L533.904 193.632 L731.26 232.819 L924.086 335.085 L928.617 336.627 L1125.97 448.314 L1162.73 479.005 
  L1323.33 617.095 L1330.57 622.926 L1520.69 736.92 L1567.44 766.846 L1718.04 885.7 L1754.94 910.766 L1881.78 1054.69 L1908.24 1198.61 L1892.59 1342.53 L1915.4 1416.54 
  L1951.57 1486.45 L1915.4 1486.45 L2112.76 1486.45  Z
  " fill="#f6d542" fill-rule="evenodd" fill-opacity="1"/>
<path clip-path="url(#clip982)" d="
M2112.76 1241.44 L2112.76 1342.53 L2112.76 1198.61 L2112.76 1054.69 L2112.76 910.766 L2112.76 766.846 L2112.76 622.926 L2112.76 479.005 L2112.76 335.085 L2112.76 191.164 
  L2112.76 47.2441 L2112.76 47.2441 L2112.76 47.2441 L2112.76 47.2441 L1915.4 47.2441 L1718.04 47.2441 L1520.69 47.2441 L1323.33 47.2441 L1125.97 47.2441 L928.617 47.2441 
  L731.26 47.2441 L533.904 47.2441 L603.449 47.2441 L731.26 104.077 L900.099 191.164 L928.617 203.226 L1099.2 335.085 L1125.97 350.083 L1280.38 479.005 L1323.33 515.931 
  L1456.17 622.926 L1520.69 661.609 L1685.09 766.846 L1718.04 792.851 L1891.63 910.766 L1915.4 938.832 L2048.85 1054.69 L2107.65 1198.61 L2112.76 1241.44 M139.191 191.164 L139.191 56.2475 L191.663 47.2441 L139.191 47.2441 L139.191 47.2441 L139.191 47.2441 L139.191 47.2441 L139.191 47.2441 L139.191 191.164  Z
  " fill="#f1ed70" fill-rule="evenodd" fill-opacity="1"/>
<path clip-path="url(#clip982)" d="
M1915.4 770.787 L2112.76 896.338 L2112.76 910.766 L2112.76 766.846 L2112.76 622.926 L2112.76 479.005 L2112.76 335.085 L2112.76 191.164 L2112.76 47.2441 L2112.76 47.2441 
  L2112.76 47.2441 L2112.76 47.2441 L1915.4 47.2441 L1718.04 47.2441 L1520.69 47.2441 L1323.33 47.2441 L1125.97 47.2441 L928.617 47.2441 L731.26 47.2441 L928.011 47.2441 
  L928.617 47.5629 L1125.97 175.085 L1145.74 191.164 L1274.57 335.085 L1323.33 378.914 L1451.63 479.005 L1520.69 538.401 L1646.25 622.926 L1718.04 663.025 L1909.22 766.846 
  L1915.4 770.787  Z
  " fill="#fcfea4" fill-rule="evenodd" fill-opacity="1"/>
<polyline clip-path="url(#clip982)" style="stroke:#000000; stroke-width:4; stroke-opacity:1; fill:none" points="
  139.191,1486.45 139.191,1486.45 336.547,1486.45 533.904,1486.45 731.26,1486.45 928.617,1486.45 1125.97,1486.45 1323.33,1486.45 1520.69,1486.45 1718.04,1486.45 
  1915.4,1486.45 2112.76,1486.45 2112.76,1342.53 2112.76,1198.61 2112.76,1054.69 2112.76,910.766 2112.76,766.846 
  2112.76,622.926 2112.76,479.005 2112.76,335.085 2112.76,191.164 2112.76,47.2441 1915.4,47.2441 1718.04,47.2441 
  1520.69,47.2441 1323.33,47.2441 1125.97,47.2441 928.617,47.2441 731.26,47.2441 533.904,47.2441 336.547,47.2441 139.191,47.2441 
  139.191,191.164 139.191,335.085 139.191,479.005 139.191,622.926 139.191,766.846 139.191,910.766 139.191,1054.69 139.191,1198.61 139.191,1342.53 
  139.191,1486.45 
  "/>
<polyline clip-path="url(#clip982)" style="stroke:#000000; stroke-width:4; stroke-opacity:1; fill:none" points="
  928.617,1486.45 1125.97,1486.45 1323.33,1486.45 1520.69,1486.45 1718.04,1486.45 1915.4,1486.45 2112.76,1486.45 
  2112.76,1342.53 2112.76,1198.61 2112.76,1054.69 2112.76,910.766 2112.76,766.846 2112.76,622.926 2112.76,479.005 2112.76,335.085 2112.76,191.164 2112.76,47.2441 
  1915.4,47.2441 1718.04,47.2441 1520.69,47.2441 1323.33,47.2441 1125.97,47.2441 928.617,47.2441 731.26,47.2441 
  533.904,47.2441 336.547,47.2441 139.191,47.2441 139.191,191.164 139.191,335.085 139.191,479.005 139.191,622.926 
  139.191,766.846 139.191,910.766 139.191,1054.69 139.191,1020.19 336.547,1022.73 533.904,1028.11 731.26,1054.52 731.511,1054.69 798.55,1198.61 782.187,1342.53 
  801.809,1486.45 731.26,1486.45 928.617,1486.45 
  "/>
<polyline clip-path="url(#clip982)" style="stroke:#000000; stroke-width:4; stroke-opacity:1; fill:none" points="
  1125.97,1486.45 1323.33,1486.45 1520.69,1486.45 1718.04,1486.45 1915.4,1486.45 2112.76,1486.45 2112.76,1342.53 
  2112.76,1198.61 2112.76,1054.69 2112.76,910.766 2112.76,766.846 2112.76,622.926 2112.76,479.005 2112.76,335.085 2112.76,191.164 2112.76,47.2441 
  1915.4,47.2441 1718.04,47.2441 1520.69,47.2441 1323.33,47.2441 1125.97,47.2441 928.617,47.2441 731.26,47.2441 533.904,47.2441 
  336.547,47.2441 139.191,47.2441 139.191,191.164 139.191,335.085 139.191,479.005 139.191,622.926 139.191,766.846 
  139.191,910.766 139.191,1054.69 139.191,943.164 336.547,951.381 533.904,958.95 731.26,970.839 855.438,1054.69 891.495,1198.61 907.789,1342.53 928.617,1483.02 
  928.828,1486.45 928.617,1486.45 1125.97,1486.45 
  "/>
<polyline clip-path="url(#clip982)" style="stroke:#000000; stroke-width:4; stroke-opacity:1; fill:none" points="
  1125.97,1486.45 1323.33,1486.45 1520.69,1486.45 1718.04,1486.45 1915.4,1486.45 2112.76,1486.45 2112.76,1342.53 
  2112.76,1198.61 2112.76,1054.69 2112.76,910.766 2112.76,766.846 2112.76,622.926 2112.76,479.005 2112.76,335.085 2112.76,191.164 2112.76,47.2441 
  1915.4,47.2441 1718.04,47.2441 1520.69,47.2441 1323.33,47.2441 1125.97,47.2441 928.617,47.2441 731.26,47.2441 533.904,47.2441 
  336.547,47.2441 139.191,47.2441 139.191,191.164 139.191,335.085 139.191,479.005 139.191,622.926 139.191,766.846 
  139.191,910.766 139.191,890.098 336.547,892.855 533.904,898.882 731.26,899.452 763.631,910.766 928.617,1022.78 947.459,1054.69 961.073,1198.61 969.64,1342.53 
  981.045,1486.45 928.617,1486.45 1125.97,1486.45 
  "/>
<polyline clip-path="url(#clip982)" style="stroke:#000000; stroke-width:4; stroke-opacity:1; fill:none" points="
  1125.97,1486.45 1323.33,1486.45 1520.69,1486.45 1718.04,1486.45 1915.4,1486.45 2112.76,1486.45 2112.76,1342.53 
  2112.76,1198.61 2112.76,1054.69 2112.76,910.766 2112.76,766.846 2112.76,622.926 2112.76,479.005 2112.76,335.085 2112.76,191.164 2112.76,47.2441 
  1915.4,47.2441 1718.04,47.2441 1520.69,47.2441 1323.33,47.2441 1125.97,47.2441 928.617,47.2441 731.26,47.2441 533.904,47.2441 
  336.547,47.2441 139.191,47.2441 139.191,191.164 139.191,335.085 139.191,479.005 139.191,622.926 139.191,766.846 
  139.191,910.766 139.191,854.425 336.547,851.273 533.904,859.703 731.26,859.346 878.379,910.766 928.617,944.876 993.472,1054.69 1015.11,1198.61 1018.82,1342.53 
  1033.26,1486.45 928.617,1486.45 1125.97,1486.45 
  "/>
<polyline clip-path="url(#clip982)" style="stroke:#000000; stroke-width:4; stroke-opacity:1; fill:none" points="
  1125.97,1486.45 1323.33,1486.45 1520.69,1486.45 1718.04,1486.45 1915.4,1486.45 2112.76,1486.45 2112.76,1342.53 
  2112.76,1198.61 2112.76,1054.69 2112.76,910.766 2112.76,766.846 2112.76,622.926 2112.76,479.005 2112.76,335.085 2112.76,191.164 2112.76,47.2441 
  1915.4,47.2441 1718.04,47.2441 1520.69,47.2441 1323.33,47.2441 1125.97,47.2441 928.617,47.2441 731.26,47.2441 533.904,47.2441 
  336.547,47.2441 139.191,47.2441 139.191,191.164 139.191,335.085 139.191,479.005 139.191,622.926 139.191,766.846 
  139.191,910.766 139.191,818.751 336.547,809.69 533.904,820.524 731.26,819.24 928.617,893.831 958.138,910.766 1039.48,1054.69 1069.15,1198.61 1067.99,1342.53 
  1085.48,1486.45 928.617,1486.45 1125.97,1486.45 
  "/>
<polyline clip-path="url(#clip982)" style="stroke:#000000; stroke-width:4; stroke-opacity:1; fill:none" points="
  1323.33,1486.45 1520.69,1486.45 1718.04,1486.45 1915.4,1486.45 2112.76,1486.45 2112.76,1342.53 2112.76,1198.61 
  2112.76,1054.69 2112.76,910.766 2112.76,766.846 2112.76,622.926 2112.76,479.005 2112.76,335.085 2112.76,191.164 2112.76,47.2441 
  1915.4,47.2441 1718.04,47.2441 1520.69,47.2441 1323.33,47.2441 1125.97,47.2441 928.617,47.2441 731.26,47.2441 533.904,47.2441 336.547,47.2441 
  139.191,47.2441 139.191,191.164 139.191,335.085 139.191,479.005 139.191,622.926 139.191,766.846 139.191,910.766 
  139.191,783.078 336.547,768.107 533.904,781.345 731.26,779.133 928.617,863.707 1010.65,910.766 1085.5,1054.69 1123.19,1198.61 1117.17,1342.53 1125.97,1406.37 
  1134.85,1486.45 1125.97,1486.45 1323.33,1486.45 
  "/>
<polyline clip-path="url(#clip982)" style="stroke:#000000; stroke-width:4; stroke-opacity:1; fill:none" points="
  1323.33,1486.45 1520.69,1486.45 1718.04,1486.45 1915.4,1486.45 2112.76,1486.45 2112.76,1342.53 2112.76,1198.61 
  2112.76,1054.69 2112.76,910.766 2112.76,766.846 2112.76,622.926 2112.76,479.005 2112.76,335.085 2112.76,191.164 2112.76,47.2441 
  1915.4,47.2441 1718.04,47.2441 1520.69,47.2441 1323.33,47.2441 1125.97,47.2441 928.617,47.2441 731.26,47.2441 533.904,47.2441 336.547,47.2441 
  139.191,47.2441 139.191,191.164 139.191,335.085 139.191,479.005 139.191,622.926 139.191,766.846 139.191,747.404 
  336.547,735.248 533.904,742.023 731.26,746.043 778.319,766.846 928.617,833.582 1063.16,910.766 1125.97,1041.53 1131.8,1054.69 1170.95,1198.61 1165.93,1342.53 
  1174.4,1486.45 1125.97,1486.45 1323.33,1486.45 
  "/>
<polyline clip-path="url(#clip982)" style="stroke:#000000; stroke-width:4; stroke-opacity:1; fill:none" points="
  1323.33,1486.45 1520.69,1486.45 1718.04,1486.45 1915.4,1486.45 2112.76,1486.45 2112.76,1342.53 2112.76,1198.61 
  2112.76,1054.69 2112.76,910.766 2112.76,766.846 2112.76,622.926 2112.76,479.005 2112.76,335.085 2112.76,191.164 2112.76,47.2441 
  1915.4,47.2441 1718.04,47.2441 1520.69,47.2441 1323.33,47.2441 1125.97,47.2441 928.617,47.2441 731.26,47.2441 533.904,47.2441 336.547,47.2441 
  139.191,47.2441 139.191,191.164 139.191,335.085 139.191,479.005 139.191,622.926 139.191,766.846 139.191,711.731 
  336.547,702.662 533.904,702.616 731.26,716.052 846.162,766.846 928.617,803.458 1115.67,910.766 1125.97,932.211 1180.21,1054.69 1218.37,1198.61 1214.59,1342.53 
  1213.95,1486.45 1125.97,1486.45 1323.33,1486.45 
  "/>
<polyline clip-path="url(#clip982)" style="stroke:#000000; stroke-width:4; stroke-opacity:1; fill:none" points="
  1323.33,1486.45 1520.69,1486.45 1718.04,1486.45 1915.4,1486.45 2112.76,1486.45 2112.76,1342.53 2112.76,1198.61 
  2112.76,1054.69 2112.76,910.766 2112.76,766.846 2112.76,622.926 2112.76,479.005 2112.76,335.085 2112.76,191.164 2112.76,47.2441 
  1915.4,47.2441 1718.04,47.2441 1520.69,47.2441 1323.33,47.2441 1125.97,47.2441 928.617,47.2441 731.26,47.2441 533.904,47.2441 336.547,47.2441 
  139.191,47.2441 139.191,191.164 139.191,335.085 139.191,479.005 139.191,622.926 139.191,766.846 139.191,676.057 
  336.547,670.075 533.904,663.209 731.26,686.061 914.006,766.846 928.617,773.334 1125.97,869.175 1169.67,910.766 1228.62,1054.69 1265.79,1198.61 1263.25,1342.53 
  1253.51,1486.45 1125.97,1486.45 1323.33,1486.45 
  "/>
<polyline clip-path="url(#clip982)" style="stroke:#000000; stroke-width:4; stroke-opacity:1; fill:none" points="
  1323.33,1486.45 1520.69,1486.45 1718.04,1486.45 1915.4,1486.45 2112.76,1486.45 2112.76,1342.53 2112.76,1198.61 
  2112.76,1054.69 2112.76,910.766 2112.76,766.846 2112.76,622.926 2112.76,479.005 2112.76,335.085 2112.76,191.164 2112.76,47.2441 
  1915.4,47.2441 1718.04,47.2441 1520.69,47.2441 1323.33,47.2441 1125.97,47.2441 928.617,47.2441 731.26,47.2441 533.904,47.2441 336.547,47.2441 
  139.191,47.2441 139.191,191.164 139.191,335.085 139.191,479.005 139.191,622.926 139.191,766.846 139.191,640.384 
  336.547,637.489 533.904,623.802 731.26,656.07 928.617,732.312 1016.48,766.846 1125.97,817.435 1224.02,910.766 1277.03,1054.69 1313.21,1198.61 1311.91,1342.53 
  1293.06,1486.45 1125.97,1486.45 1323.33,1486.45 
  "/>
<polyline clip-path="url(#clip982)" style="stroke:#000000; stroke-width:4; stroke-opacity:1; fill:none" points="
  1520.69,1486.45 1718.04,1486.45 1915.4,1486.45 2112.76,1486.45 2112.76,1342.53 2112.76,1198.61 2112.76,1054.69 
  2112.76,910.766 2112.76,766.846 2112.76,622.926 2112.76,479.005 2112.76,335.085 2112.76,191.164 2112.76,47.2441 
  1915.4,47.2441 1718.04,47.2441 1520.69,47.2441 1323.33,47.2441 1125.97,47.2441 928.617,47.2441 731.26,47.2441 533.904,47.2441 336.547,47.2441 139.191,47.2441 
  139.191,191.164 139.191,335.085 139.191,479.005 139.191,622.926 139.191,602.567 336.547,601.003 533.904,590.118 
  712.096,622.926 731.26,626.079 928.617,688.299 1125.97,766.031 1126.99,766.846 1278.37,910.766 1323.33,1047.5 1325.97,1054.69 1359.89,1198.61 1362.85,1342.53 
  1335.44,1486.45 1323.33,1486.45 1520.69,1486.45 
  "/>
<polyline clip-path="url(#clip982)" style="stroke:#000000; stroke-width:4; stroke-opacity:1; fill:none" points="
  1520.69,1486.45 1718.04,1486.45 1915.4,1486.45 2112.76,1486.45 2112.76,1342.53 2112.76,1198.61 2112.76,1054.69 
  2112.76,910.766 2112.76,766.846 2112.76,622.926 2112.76,479.005 2112.76,335.085 2112.76,191.164 2112.76,47.2441 
  1915.4,47.2441 1718.04,47.2441 1520.69,47.2441 1323.33,47.2441 1125.97,47.2441 928.617,47.2441 731.26,47.2441 533.904,47.2441 336.547,47.2441 139.191,47.2441 
  139.191,191.164 139.191,335.085 139.191,479.005 139.191,622.926 139.191,562.697 336.547,561.366 533.904,556.563 
  731.26,587.867 859.217,622.926 928.617,644.287 1125.97,729.393 1172.78,766.846 1323.33,903.577 1331.88,910.766 1386.72,1054.69 1406.36,1198.61 1414.49,1342.53 
  1387.08,1486.45 1323.33,1486.45 1520.69,1486.45 
  "/>
<polyline clip-path="url(#clip982)" style="stroke:#000000; stroke-width:4; stroke-opacity:1; fill:none" points="
  1520.69,1486.45 1718.04,1486.45 1915.4,1486.45 2112.76,1486.45 2112.76,1342.53 2112.76,1198.61 2112.76,1054.69 
  2112.76,910.766 2112.76,766.846 2112.76,622.926 2112.76,479.005 2112.76,335.085 2112.76,191.164 2112.76,47.2441 
  1915.4,47.2441 1718.04,47.2441 1520.69,47.2441 1323.33,47.2441 1125.97,47.2441 928.617,47.2441 731.26,47.2441 533.904,47.2441 336.547,47.2441 139.191,47.2441 
  139.191,191.164 139.191,335.085 139.191,479.005 139.191,622.926 139.191,522.826 336.547,521.728 533.904,523.009 
  731.26,548.688 928.617,598.185 970.578,622.926 1125.97,692.756 1218.56,766.846 1323.33,861.994 1381.32,910.766 1447.47,1054.69 1452.83,1198.61 1466.13,1342.53 
  1438.72,1486.45 1323.33,1486.45 1520.69,1486.45 
  "/>
<polyline clip-path="url(#clip982)" style="stroke:#000000; stroke-width:4; stroke-opacity:1; fill:none" points="
  1520.69,1486.45 1718.04,1486.45 1915.4,1486.45 2112.76,1486.45 2112.76,1342.53 2112.76,1198.61 2112.76,1054.69 
  2112.76,910.766 2112.76,766.846 2112.76,622.926 2112.76,479.005 2112.76,335.085 2112.76,191.164 2112.76,47.2441 
  1915.4,47.2441 1718.04,47.2441 1520.69,47.2441 1323.33,47.2441 1125.97,47.2441 928.617,47.2441 731.26,47.2441 533.904,47.2441 336.547,47.2441 139.191,47.2441 
  139.191,191.164 139.191,335.085 139.191,479.005 139.191,622.926 139.191,482.956 336.547,482.091 533.904,489.455 
  731.26,509.509 928.617,550.115 1052.11,622.926 1125.97,656.118 1264.35,766.846 1323.33,820.411 1430.76,910.766 1508.22,1054.69 1499.31,1198.61 1517.76,1342.53 
  1490.35,1486.45 1323.33,1486.45 1520.69,1486.45 
  "/>
<polyline clip-path="url(#clip982)" style="stroke:#000000; stroke-width:4; stroke-opacity:1; fill:none" points="
  1718.04,1486.45 1915.4,1486.45 2112.76,1486.45 2112.76,1342.53 2112.76,1198.61 2112.76,1054.69 2112.76,910.766 
  2112.76,766.846 2112.76,622.926 2112.76,479.005 2112.76,335.085 2112.76,191.164 2112.76,47.2441 1915.4,47.2441 
  1718.04,47.2441 1520.69,47.2441 1323.33,47.2441 1125.97,47.2441 928.617,47.2441 731.26,47.2441 533.904,47.2441 336.547,47.2441 139.191,47.2441 
  139.191,191.164 139.191,335.085 139.191,479.005 139.191,425.441 336.547,421.663 533.904,432.334 731.26,463.532 793.628,479.005 
  928.617,502.044 1125.97,618.06 1132.09,622.926 1310.14,766.846 1323.33,778.829 1480.2,910.766 1520.69,983.809 1585.48,1054.69 1568.03,1198.61 1602.63,1342.53 
  1573.94,1486.45 1520.69,1486.45 1718.04,1486.45 
  "/>
<polyline clip-path="url(#clip982)" style="stroke:#000000; stroke-width:4; stroke-opacity:1; fill:none" points="
  1718.04,1486.45 1915.4,1486.45 2112.76,1486.45 2112.76,1342.53 2112.76,1198.61 2112.76,1054.69 2112.76,910.766 
  2112.76,766.846 2112.76,622.926 2112.76,479.005 2112.76,335.085 2112.76,191.164 2112.76,47.2441 1915.4,47.2441 
  1718.04,47.2441 1520.69,47.2441 1323.33,47.2441 1125.97,47.2441 928.617,47.2441 731.26,47.2441 533.904,47.2441 336.547,47.2441 139.191,47.2441 
  139.191,191.164 139.191,335.085 139.191,479.005 139.191,365.985 336.547,359.48 533.904,364.554 731.26,393.656 928.617,449.593 
  975.155,479.005 1125.97,566.32 1197.08,622.926 1323.33,728.248 1384.03,766.846 1520.69,896.162 1539.38,910.766 1667.01,1054.69 1655.72,1198.61 1689.5,1342.53 
  1703.03,1486.45 1520.69,1486.45 1718.04,1486.45 
  "/>
<polyline clip-path="url(#clip982)" style="stroke:#000000; stroke-width:4; stroke-opacity:1; fill:none" points="
  1915.4,1486.45 2112.76,1486.45 2112.76,1342.53 2112.76,1198.61 2112.76,1054.69 2112.76,910.766 2112.76,766.846 
  2112.76,622.926 2112.76,479.005 2112.76,335.085 2112.76,191.164 2112.76,47.2441 1915.4,47.2441 1718.04,47.2441 
  1520.69,47.2441 1323.33,47.2441 1125.97,47.2441 928.617,47.2441 731.26,47.2441 533.904,47.2441 336.547,47.2441 139.191,47.2441 
  139.191,191.164 139.191,335.085 139.191,287.906 336.547,275.391 533.904,284.005 731.26,320.844 758.112,335.085 928.617,393.11 1064.53,479.005 
  1125.97,514.58 1262.08,622.926 1323.33,674.024 1469.3,766.846 1520.69,815.472 1642.65,910.766 1718.04,1005.92 1762.62,1054.69 1760.71,1198.61 1788.16,1342.53 
  1822.01,1486.45 1718.04,1486.45 1915.4,1486.45 
  "/>
<polyline clip-path="url(#clip982)" style="stroke:#000000; stroke-width:4; stroke-opacity:1; fill:none" points="
  2112.76,1486.45 2112.76,1486.45 2112.76,1342.53 2112.76,1198.61 2112.76,1054.69 2112.76,910.766 2112.76,766.846 2112.76,622.926 
  2112.76,479.005 2112.76,335.085 2112.76,191.164 2112.76,47.2441 1915.4,47.2441 1718.04,47.2441 1520.69,47.2441 
  1323.33,47.2441 1125.97,47.2441 928.617,47.2441 731.26,47.2441 533.904,47.2441 336.547,47.2441 139.191,47.2441 
  139.191,191.164 139.191,189.149 336.547,169.691 502.186,191.164 533.904,193.632 731.26,232.819 924.086,335.085 928.617,336.627 1125.97,448.314 1162.73,479.005 
  1323.33,617.095 1330.57,622.926 1520.69,736.92 1567.44,766.846 1718.04,885.7 1754.94,910.766 1881.78,1054.69 1908.24,1198.61 1892.59,1342.53 1915.4,1416.54 
  1951.57,1486.45 1915.4,1486.45 2112.76,1486.45 
  "/>
<polyline clip-path="url(#clip982)" style="stroke:#000000; stroke-width:4; stroke-opacity:1; fill:none" points="
  2112.76,1241.44 2112.76,1342.53 2112.76,1198.61 2112.76,1054.69 2112.76,910.766 2112.76,766.846 2112.76,622.926 2112.76,479.005 2112.76,335.085 2112.76,191.164 
  2112.76,47.2441 1915.4,47.2441 1718.04,47.2441 1520.69,47.2441 1323.33,47.2441 1125.97,47.2441 928.617,47.2441 
  731.26,47.2441 533.904,47.2441 603.449,47.2441 731.26,104.077 900.099,191.164 928.617,203.226 1099.2,335.085 1125.97,350.083 1280.38,479.005 1323.33,515.931 
  1456.17,622.926 1520.69,661.609 1685.09,766.846 1718.04,792.851 1891.63,910.766 1915.4,938.832 2048.85,1054.69 2107.65,1198.61 2112.76,1241.44 
  "/>
<polyline clip-path="url(#clip982)" style="stroke:#000000; stroke-width:4; stroke-opacity:1; fill:none" points="
  139.191,191.164 139.191,56.2475 191.663,47.2441 139.191,47.2441 139.191,191.164 
  "/>
<polyline clip-path="url(#clip982)" style="stroke:#000000; stroke-width:4; stroke-opacity:1; fill:none" points="
  1915.4,770.787 2112.76,896.338 2112.76,910.766 2112.76,766.846 2112.76,622.926 2112.76,479.005 2112.76,335.085 2112.76,191.164 2112.76,47.2441 
  1915.4,47.2441 1718.04,47.2441 1520.69,47.2441 1323.33,47.2441 1125.97,47.2441 928.617,47.2441 731.26,47.2441 928.011,47.2441 
  928.617,47.5629 1125.97,175.085 1145.74,191.164 1274.57,335.085 1323.33,378.914 1451.63,479.005 1520.69,538.401 1646.25,622.926 1718.04,663.025 1909.22,766.846 
  1915.4,770.787 
  "/>
<defs>
  <clipPath id="clip983">
    <rect x="2160" y="47" width="73" height="1440"/>
  </clipPath>
</defs>
<path clip-path="url(#clip983)" d="
M2160.76 1486.45 L2232.76 1486.45 L2232.76 1417.91 L2160.76 1417.91  Z
  " fill="#000003" fill-rule="evenodd" fill-opacity="1"/>
<path clip-path="url(#clip983)" d="
M2160.76 1417.91 L2232.76 1417.91 L2232.76 1349.38 L2160.76 1349.38  Z
  " fill="#07051d" fill-rule="evenodd" fill-opacity="1"/>
<path clip-path="url(#clip983)" d="
M2160.76 1349.38 L2232.76 1349.38 L2232.76 1280.85 L2160.76 1280.85  Z
  " fill="#170b3b" fill-rule="evenodd" fill-opacity="1"/>
<path clip-path="url(#clip983)" d="
M2160.76 1280.85 L2232.76 1280.85 L2232.76 1212.31 L2160.76 1212.31  Z
  " fill="#2b0a56" fill-rule="evenodd" fill-opacity="1"/>
<path clip-path="url(#clip983)" d="
M2160.76 1212.31 L2232.76 1212.31 L2232.76 1143.78 L2160.76 1143.78  Z
  " fill="#410967" fill-rule="evenodd" fill-opacity="1"/>
<path clip-path="url(#clip983)" d="
M2160.76 1143.78 L2232.76 1143.78 L2232.76 1075.25 L2160.76 1075.25  Z
  " fill="#570f6d" fill-rule="evenodd" fill-opacity="1"/>
<path clip-path="url(#clip983)" d="
M2160.76 1075.25 L2232.76 1075.25 L2232.76 1006.71 L2160.76 1006.71  Z
  " fill="#6a176e" fill-rule="evenodd" fill-opacity="1"/>
<path clip-path="url(#clip983)" d="
M2160.76 1006.71 L2232.76 1006.71 L2232.76 938.18 L2160.76 938.18  Z
  " fill="#7e1e6c" fill-rule="evenodd" fill-opacity="1"/>
<path clip-path="url(#clip983)" d="
M2160.76 938.18 L2232.76 938.18 L2232.76 869.646 L2160.76 869.646  Z
  " fill="#932567" fill-rule="evenodd" fill-opacity="1"/>
<path clip-path="url(#clip983)" d="
M2160.76 869.646 L2232.76 869.646 L2232.76 801.113 L2160.76 801.113  Z
  " fill="#a72d5f" fill-rule="evenodd" fill-opacity="1"/>
<path clip-path="url(#clip983)" d="
M2160.76 801.113 L2232.76 801.113 L2232.76 732.579 L2160.76 732.579  Z
  " fill="#bb3754" fill-rule="evenodd" fill-opacity="1"/>
<path clip-path="url(#clip983)" d="
M2160.76 732.579 L2232.76 732.579 L2232.76 664.046 L2160.76 664.046  Z
  " fill="#cc4148" fill-rule="evenodd" fill-opacity="1"/>
<path clip-path="url(#clip983)" d="
M2160.76 664.046 L2232.76 664.046 L2232.76 595.512 L2160.76 595.512  Z
  " fill="#dc5039" fill-rule="evenodd" fill-opacity="1"/>
<path clip-path="url(#clip983)" d="
M2160.76 595.512 L2232.76 595.512 L2232.76 526.979 L2160.76 526.979  Z
  " fill="#e9622a" fill-rule="evenodd" fill-opacity="1"/>
<path clip-path="url(#clip983)" d="
M2160.76 526.979 L2232.76 526.979 L2232.76 458.445 L2160.76 458.445  Z
  " fill="#f2751a" fill-rule="evenodd" fill-opacity="1"/>
<path clip-path="url(#clip983)" d="
M2160.76 458.445 L2232.76 458.445 L2232.76 389.912 L2160.76 389.912  Z
  " fill="#f98c09" fill-rule="evenodd" fill-opacity="1"/>
<path clip-path="url(#clip983)" d="
M2160.76 389.912 L2232.76 389.912 L2232.76 321.378 L2160.76 321.378  Z
  " fill="#fba40a" fill-rule="evenodd" fill-opacity="1"/>
<path clip-path="url(#clip983)" d="
M2160.76 321.378 L2232.76 321.378 L2232.76 252.845 L2160.76 252.845  Z
  " fill="#fabd23" fill-rule="evenodd" fill-opacity="1"/>
<path clip-path="url(#clip983)" d="
M2160.76 252.845 L2232.76 252.845 L2232.76 184.311 L2160.76 184.311  Z
  " fill="#f5d745" fill-rule="evenodd" fill-opacity="1"/>
<path clip-path="url(#clip983)" d="
M2160.76 184.311 L2232.76 184.311 L2232.76 115.778 L2160.76 115.778  Z
  " fill="#f1ed70" fill-rule="evenodd" fill-opacity="1"/>
<path clip-path="url(#clip983)" d="
M2160.76 115.778 L2232.76 115.778 L2232.76 47.2441 L2160.76 47.2441  Z
  " fill="#fcfea4" fill-rule="evenodd" fill-opacity="1"/>
<path clip-path="url(#clip980)" d="M 0 0 M2280.7 1468.62 Q2277.09 1468.62 2275.26 1472.18 Q2273.45 1475.72 2273.45 1482.85 Q2273.45 1489.96 2275.26 1493.53 Q2277.09 1497.07 2280.7 1497.07 Q2284.33 1497.07 2286.14 1493.53 Q2287.97 1489.96 2287.97 1482.85 Q2287.97 1475.72 2286.14 1472.18 Q2284.33 1468.62 2280.7 1468.62 M2280.7 1464.91 Q2286.51 1464.91 2289.57 1469.52 Q2292.64 1474.1 2292.64 1482.85 Q2292.64 1491.58 2289.57 1496.19 Q2286.51 1500.77 2280.7 1500.77 Q2274.89 1500.77 2271.81 1496.19 Q2268.76 1491.58 2268.76 1482.85 Q2268.76 1474.1 2271.81 1469.52 Q2274.89 1464.91 2280.7 1464.91 Z" fill="#000000" fill-rule="evenodd" fill-opacity="1" /><path clip-path="url(#clip980)" d="M 0 0 M2269.43 1350.64 L2277.07 1350.64 L2277.07 1324.28 L2268.76 1325.94 L2268.76 1321.68 L2277.02 1320.02 L2281.7 1320.02 L2281.7 1350.64 L2289.33 1350.64 L2289.33 1354.58 L2269.43 1354.58 L2269.43 1350.64 Z" fill="#000000" fill-rule="evenodd" fill-opacity="1" /><path clip-path="url(#clip980)" d="M 0 0 M2274.38 1205.12 L2290.7 1205.12 L2290.7 1209.06 L2268.76 1209.06 L2268.76 1205.12 Q2271.42 1202.37 2276 1197.74 Q2280.61 1193.08 2281.79 1191.74 Q2284.03 1189.22 2284.91 1187.48 Q2285.82 1185.72 2285.82 1184.03 Q2285.82 1181.28 2283.87 1179.54 Q2281.95 1177.81 2278.85 1177.81 Q2276.65 1177.81 2274.2 1178.57 Q2271.77 1179.33 2268.99 1180.89 L2268.99 1176.16 Q2271.81 1175.03 2274.27 1174.45 Q2276.72 1173.87 2278.76 1173.87 Q2284.13 1173.87 2287.32 1176.56 Q2290.52 1179.24 2290.52 1183.73 Q2290.52 1185.86 2289.7 1187.78 Q2288.92 1189.68 2286.81 1192.27 Q2286.23 1192.95 2283.13 1196.16 Q2280.03 1199.36 2274.38 1205.12 Z" fill="#000000" fill-rule="evenodd" fill-opacity="1" /><path clip-path="url(#clip980)" d="M 0 0 M2284.38 1044.9 Q2287.74 1045.62 2289.61 1047.89 Q2291.51 1050.16 2291.51 1053.49 Q2291.51 1058.61 2287.99 1061.41 Q2284.47 1064.21 2277.99 1064.21 Q2275.82 1064.21 2273.5 1063.77 Q2271.21 1063.35 2268.76 1062.49 L2268.76 1057.98 Q2270.7 1059.11 2273.02 1059.69 Q2275.33 1060.27 2277.85 1060.27 Q2282.25 1060.27 2284.54 1058.54 Q2286.86 1056.8 2286.86 1053.49 Q2286.86 1050.43 2284.7 1048.72 Q2282.58 1046.98 2278.76 1046.98 L2274.73 1046.98 L2274.73 1043.14 L2278.94 1043.14 Q2282.39 1043.14 2284.22 1041.78 Q2286.05 1040.39 2286.05 1037.8 Q2286.05 1035.13 2284.15 1033.72 Q2282.27 1032.29 2278.76 1032.29 Q2276.83 1032.29 2274.64 1032.7 Q2272.44 1033.12 2269.8 1034 L2269.8 1029.83 Q2272.46 1029.09 2274.77 1028.72 Q2277.11 1028.35 2279.17 1028.35 Q2284.5 1028.35 2287.6 1030.78 Q2290.7 1033.19 2290.7 1037.31 Q2290.7 1040.18 2289.06 1042.17 Q2287.41 1044.14 2284.38 1044.9 Z" fill="#000000" fill-rule="evenodd" fill-opacity="1" /><path clip-path="url(#clip980)" d="M 0 0 M2284.36 887.529 L2272.55 905.978 L2284.36 905.978 L2284.36 887.529 M2283.13 883.455 L2289.01 883.455 L2289.01 905.978 L2293.94 905.978 L2293.94 909.867 L2289.01 909.867 L2289.01 918.015 L2284.36 918.015 L2284.36 909.867 L2268.76 909.867 L2268.76 905.353 L2283.13 883.455 Z" fill="#000000" fill-rule="evenodd" fill-opacity="1" /><path clip-path="url(#clip980)" d="M 0 0 M2270.21 737.934 L2288.57 737.934 L2288.57 741.869 L2274.5 741.869 L2274.5 750.341 Q2275.52 749.994 2276.53 749.832 Q2277.55 749.646 2278.57 749.646 Q2284.36 749.646 2287.74 752.818 Q2291.12 755.989 2291.12 761.406 Q2291.12 766.984 2287.64 770.086 Q2284.17 773.165 2277.85 773.165 Q2275.68 773.165 2273.41 772.794 Q2271.16 772.424 2268.76 771.683 L2268.76 766.984 Q2270.84 768.119 2273.06 768.674 Q2275.28 769.23 2277.76 769.23 Q2281.77 769.23 2284.1 767.123 Q2286.44 765.017 2286.44 761.406 Q2286.44 757.795 2284.1 755.688 Q2281.77 753.582 2277.76 753.582 Q2275.89 753.582 2274.01 753.998 Q2272.16 754.415 2270.21 755.295 L2270.21 737.934 Z" fill="#000000" fill-rule="evenodd" fill-opacity="1" /><path clip-path="url(#clip980)" d="M 0 0 M2281.09 607.829 Q2277.95 607.829 2276.09 609.982 Q2274.27 612.135 2274.27 615.885 Q2274.27 619.611 2276.09 621.787 Q2277.95 623.94 2281.09 623.94 Q2284.24 623.94 2286.07 621.787 Q2287.92 619.611 2287.92 615.885 Q2287.92 612.135 2286.07 609.982 Q2284.24 607.829 2281.09 607.829 M2290.38 593.176 L2290.38 597.436 Q2288.62 596.602 2286.81 596.162 Q2285.03 595.723 2283.27 595.723 Q2278.64 595.723 2276.19 598.848 Q2273.76 601.973 2273.41 608.292 Q2274.77 606.278 2276.83 605.213 Q2278.89 604.125 2281.37 604.125 Q2286.58 604.125 2289.59 607.297 Q2292.62 610.445 2292.62 615.885 Q2292.62 621.209 2289.47 624.426 Q2286.33 627.644 2281.09 627.644 Q2275.1 627.644 2271.93 623.06 Q2268.76 618.454 2268.76 609.727 Q2268.76 601.533 2272.64 596.672 Q2276.53 591.787 2283.08 591.787 Q2284.84 591.787 2286.63 592.135 Q2288.43 592.482 2290.38 593.176 Z" fill="#000000" fill-rule="evenodd" fill-opacity="1" /><path clip-path="url(#clip980)" d="M 0 0 M2268.76 446.891 L2290.98 446.891 L2290.98 448.882 L2278.43 481.451 L2273.55 481.451 L2285.35 450.826 L2268.76 450.826 L2268.76 446.891 Z" fill="#000000" fill-rule="evenodd" fill-opacity="1" /><path clip-path="url(#clip980)" d="M 0 0 M2280.61 319.518 Q2277.27 319.518 2275.35 321.301 Q2273.45 323.083 2273.45 326.208 Q2273.45 329.333 2275.35 331.115 Q2277.27 332.898 2280.61 332.898 Q2283.94 332.898 2285.86 331.115 Q2287.78 329.31 2287.78 326.208 Q2287.78 323.083 2285.86 321.301 Q2283.96 319.518 2280.61 319.518 M2275.93 317.528 Q2272.92 316.787 2271.23 314.727 Q2269.57 312.666 2269.57 309.703 Q2269.57 305.56 2272.51 303.153 Q2275.47 300.745 2280.61 300.745 Q2285.77 300.745 2288.71 303.153 Q2291.65 305.56 2291.65 309.703 Q2291.65 312.666 2289.96 314.727 Q2288.29 316.787 2285.31 317.528 Q2288.69 318.315 2290.56 320.606 Q2292.46 322.898 2292.46 326.208 Q2292.46 331.231 2289.38 333.916 Q2286.33 336.601 2280.61 336.601 Q2274.89 336.601 2271.81 333.916 Q2268.76 331.231 2268.76 326.208 Q2268.76 322.898 2270.65 320.606 Q2272.55 318.315 2275.93 317.528 M2274.22 310.143 Q2274.22 312.828 2275.89 314.333 Q2277.58 315.838 2280.61 315.838 Q2283.62 315.838 2285.31 314.333 Q2287.02 312.828 2287.02 310.143 Q2287.02 307.458 2285.31 305.954 Q2283.62 304.449 2280.61 304.449 Q2277.58 304.449 2275.89 305.954 Q2274.22 307.458 2274.22 310.143 Z" fill="#000000" fill-rule="evenodd" fill-opacity="1" /><path clip-path="url(#clip980)" d="M 0 0 M2270.98 189.691 L2270.98 185.432 Q2272.74 186.266 2274.54 186.705 Q2276.35 187.145 2278.08 187.145 Q2282.71 187.145 2285.14 184.043 Q2287.6 180.918 2287.95 174.576 Q2286.6 176.567 2284.54 177.631 Q2282.48 178.696 2279.98 178.696 Q2274.8 178.696 2271.77 175.571 Q2268.76 172.423 2268.76 166.983 Q2268.76 161.659 2271.9 158.442 Q2275.05 155.224 2280.28 155.224 Q2286.28 155.224 2289.43 159.831 Q2292.6 164.414 2292.6 173.164 Q2292.6 181.335 2288.71 186.219 Q2284.84 191.08 2278.29 191.08 Q2276.53 191.08 2274.73 190.733 Q2272.92 190.386 2270.98 189.691 M2280.28 175.039 Q2283.43 175.039 2285.26 172.886 Q2287.11 170.733 2287.11 166.983 Q2287.11 163.256 2285.26 161.104 Q2283.43 158.928 2280.28 158.928 Q2277.14 158.928 2275.28 161.104 Q2273.45 163.256 2273.45 166.983 Q2273.45 170.733 2275.28 172.886 Q2277.14 175.039 2280.28 175.039 Z" fill="#000000" fill-rule="evenodd" fill-opacity="1" /><polyline clip-path="url(#clip980)" style="stroke:#000000; stroke-width:4; stroke-opacity:1; fill:none" points="
  2232.76,1486.45 2232.76,1486.45 2256.76,1486.45 2232.76,1486.45 2232.76,1340.93 2256.76,1340.93 2232.76,1340.93 2232.76,1195.41 2256.76,1195.41 2232.76,1195.41 
  2232.76,1049.88 2256.76,1049.88 2232.76,1049.88 2232.76,904.363 2256.76,904.363 2232.76,904.363 2232.76,758.842 2256.76,758.842 2232.76,758.842 2232.76,613.321 
  2256.76,613.321 2232.76,613.321 2232.76,467.8 2256.76,467.8 2232.76,467.8 2232.76,322.279 2256.76,322.279 2232.76,322.279 2232.76,176.758 2256.76,176.758 
  2232.76,176.758 2232.76,47.2441 
  "/>
</svg>
