<?xml version="1.0" encoding="utf-8"?>
<svg xmlns="http://www.w3.org/2000/svg" xmlns:xlink="http://www.w3.org/1999/xlink" width="600" height="400" viewBox="0 0 2400 1600">
<defs>
  <clipPath id="clip010">
    <rect x="0" y="0" width="2400" height="1600"/>
  </clipPath>
</defs>
<path clip-path="url(#clip010)" d="
M0 1600 L2400 1600 L2400 0 L0 0  Z
  " fill="#ffffff" fill-rule="evenodd" fill-opacity="1"/>
<defs>
  <clipPath id="clip011">
    <rect x="480" y="0" width="1681" height="1600"/>
  </clipPath>
</defs>
<path clip-path="url(#clip010)" d="
M139.191 1486.45 L2112.76 1486.45 L2112.76 47.2441 L139.191 47.2441  Z
  " fill="#ffffff" fill-rule="evenodd" fill-opacity="1"/>
<defs>
  <clipPath id="clip012">
    <rect x="139" y="47" width="1975" height="1440"/>
  </clipPath>
</defs>
<polyline clip-path="url(#clip012)" style="stroke:#000000; stroke-width:2; stroke-opacity:0.1; fill:none" points="
  139.191,1486.45 139.191,47.2441 
  "/>
<polyline clip-path="url(#clip012)" style="stroke:#000000; stroke-width:2; stroke-opacity:0.1; fill:none" points="
  533.904,1486.45 533.904,47.2441 
  "/>
<polyline clip-path="url(#clip012)" style="stroke:#000000; stroke-width:2; stroke-opacity:0.1; fill:none" points="
  928.617,1486.45 928.617,47.2441 
  "/>
<polyline clip-path="url(#clip012)" style="stroke:#000000; stroke-width:2; stroke-opacity:0.1; fill:none" points="
  1323.33,1486.45 1323.33,47.2441 
  "/>
<polyline clip-path="url(#clip012)" style="stroke:#000000; stroke-width:2; stroke-opacity:0.1; fill:none" points="
  1718.04,1486.45 1718.04,47.2441 
  "/>
<polyline clip-path="url(#clip012)" style="stroke:#000000; stroke-width:2; stroke-opacity:0.1; fill:none" points="
  2112.76,1486.45 2112.76,47.2441 
  "/>
<polyline clip-path="url(#clip012)" style="stroke:#000000; stroke-width:2; stroke-opacity:0.1; fill:none" points="
  139.191,1486.45 2112.76,1486.45 
  "/>
<polyline clip-path="url(#clip012)" style="stroke:#000000; stroke-width:2; stroke-opacity:0.1; fill:none" points="
  139.191,1198.61 2112.76,1198.61 
  "/>
<polyline clip-path="url(#clip012)" style="stroke:#000000; stroke-width:2; stroke-opacity:0.1; fill:none" points="
  139.191,910.766 2112.76,910.766 
  "/>
<polyline clip-path="url(#clip012)" style="stroke:#000000; stroke-width:2; stroke-opacity:0.1; fill:none" points="
  139.191,622.926 2112.76,622.926 
  "/>
<polyline clip-path="url(#clip012)" style="stroke:#000000; stroke-width:2; stroke-opacity:0.1; fill:none" points="
  139.191,335.085 2112.76,335.085 
  "/>
<polyline clip-path="url(#clip012)" style="stroke:#000000; stroke-width:2; stroke-opacity:0.1; fill:none" points="
  139.191,47.2441 2112.76,47.2441 
  "/>
<polyline clip-path="url(#clip010)" style="stroke:#000000; stroke-width:4; stroke-opacity:1; fill:none" points="
  139.191,1486.45 2112.76,1486.45 
  "/>
<polyline clip-path="url(#clip010)" style="stroke:#000000; stroke-width:4; stroke-opacity:1; fill:none" points="
  139.191,1486.45 139.191,47.2441 
  "/>
<polyline clip-path="url(#clip010)" style="stroke:#000000; stroke-width:4; stroke-opacity:1; fill:none" points="
  139.191,1486.45 139.191,1469.18 
  "/>
<polyline clip-path="url(#clip010)" style="stroke:#000000; stroke-width:4; stroke-opacity:1; fill:none" points="
  533.904,1486.45 533.904,1469.18 
  "/>
<polyline clip-path="url(#clip010)" style="stroke:#000000; stroke-width:4; stroke-opacity:1; fill:none" points="
  928.617,1486.45 928.617,1469.18 
  "/>
<polyline clip-path="url(#clip010)" style="stroke:#000000; stroke-width:4; stroke-opacity:1; fill:none" points="
  1323.33,1486.45 1323.33,1469.18 
  "/>
<polyline clip-path="url(#clip010)" style="stroke:#000000; stroke-width:4; stroke-opacity:1; fill:none" points="
  1718.04,1486.45 1718.04,1469.18 
  "/>
<polyline clip-path="url(#clip010)" style="stroke:#000000; stroke-width:4; stroke-opacity:1; fill:none" points="
  2112.76,1486.45 2112.76,1469.18 
  "/>
<polyline clip-path="url(#clip010)" style="stroke:#000000; stroke-width:4; stroke-opacity:1; fill:none" points="
  139.191,1486.45 162.874,1486.45 
  "/>
<polyline clip-path="url(#clip010)" style="stroke:#000000; stroke-width:4; stroke-opacity:1; fill:none" points="
  139.191,1198.61 162.874,1198.61 
  "/>
<polyline clip-path="url(#clip010)" style="stroke:#000000; stroke-width:4; stroke-opacity:1; fill:none" points="
  139.191,910.766 162.874,910.766 
  "/>
<polyline clip-path="url(#clip010)" style="stroke:#000000; stroke-width:4; stroke-opacity:1; fill:none" points="
  139.191,622.926 162.874,622.926 
  "/>
<polyline clip-path="url(#clip010)" style="stroke:#000000; stroke-width:4; stroke-opacity:1; fill:none" points="
  139.191,335.085 162.874,335.085 
  "/>
<polyline clip-path="url(#clip010)" style="stroke:#000000; stroke-width:4; stroke-opacity:1; fill:none" points="
  139.191,47.2441 162.874,47.2441 
  "/>
<path clip-path="url(#clip010)" d="M 0 0 M139.191 1508.44 Q135.58 1508.44 133.751 1512 Q131.946 1515.55 131.946 1522.67 Q131.946 1529.78 133.751 1533.35 Q135.58 1536.89 139.191 1536.89 Q142.825 1536.89 144.631 1533.35 Q146.459 1529.78 146.459 1522.67 Q146.459 1515.55 144.631 1512 Q142.825 1508.44 139.191 1508.44 M139.191 1504.73 Q145.001 1504.73 148.057 1509.34 Q151.135 1513.92 151.135 1522.67 Q151.135 1531.4 148.057 1536.01 Q145.001 1540.59 139.191 1540.59 Q133.381 1540.59 130.302 1536.01 Q127.247 1531.4 127.247 1522.67 Q127.247 1513.92 130.302 1509.34 Q133.381 1504.73 139.191 1504.73 Z" fill="#000000" fill-rule="evenodd" fill-opacity="1" /><path clip-path="url(#clip010)" d="M 0 0 M510.779 1535.98 L518.418 1535.98 L518.418 1509.62 L510.108 1511.29 L510.108 1507.03 L518.372 1505.36 L523.047 1505.36 L523.047 1535.98 L530.686 1535.98 L530.686 1539.92 L510.779 1539.92 L510.779 1535.98 Z" fill="#000000" fill-rule="evenodd" fill-opacity="1" /><path clip-path="url(#clip010)" d="M 0 0 M545.756 1508.44 Q542.145 1508.44 540.316 1512 Q538.51 1515.55 538.51 1522.67 Q538.51 1529.78 540.316 1533.35 Q542.145 1536.89 545.756 1536.89 Q549.39 1536.89 551.195 1533.35 Q553.024 1529.78 553.024 1522.67 Q553.024 1515.55 551.195 1512 Q549.39 1508.44 545.756 1508.44 M545.756 1504.73 Q551.566 1504.73 554.621 1509.34 Q557.7 1513.92 557.7 1522.67 Q557.7 1531.4 554.621 1536.01 Q551.566 1540.59 545.756 1540.59 Q539.946 1540.59 536.867 1536.01 Q533.811 1531.4 533.811 1522.67 Q533.811 1513.92 536.867 1509.34 Q539.946 1504.73 545.756 1504.73 Z" fill="#000000" fill-rule="evenodd" fill-opacity="1" /><path clip-path="url(#clip010)" d="M 0 0 M909.763 1535.98 L926.082 1535.98 L926.082 1539.92 L904.138 1539.92 L904.138 1535.98 Q906.8 1533.23 911.383 1528.6 Q915.99 1523.95 917.17 1522.61 Q919.416 1520.08 920.295 1518.35 Q921.198 1516.59 921.198 1514.9 Q921.198 1512.14 919.254 1510.41 Q917.332 1508.67 914.23 1508.67 Q912.031 1508.67 909.578 1509.43 Q907.147 1510.2 904.369 1511.75 L904.369 1507.03 Q907.193 1505.89 909.647 1505.31 Q912.101 1504.73 914.138 1504.73 Q919.508 1504.73 922.703 1507.42 Q925.897 1510.11 925.897 1514.6 Q925.897 1516.73 925.087 1518.65 Q924.3 1520.54 922.193 1523.14 Q921.615 1523.81 918.513 1527.03 Q915.411 1530.22 909.763 1535.98 Z" fill="#000000" fill-rule="evenodd" fill-opacity="1" /><path clip-path="url(#clip010)" d="M 0 0 M941.152 1508.44 Q937.54 1508.44 935.712 1512 Q933.906 1515.55 933.906 1522.67 Q933.906 1529.78 935.712 1533.35 Q937.54 1536.89 941.152 1536.89 Q944.786 1536.89 946.591 1533.35 Q948.42 1529.78 948.42 1522.67 Q948.42 1515.55 946.591 1512 Q944.786 1508.44 941.152 1508.44 M941.152 1504.73 Q946.962 1504.73 950.017 1509.34 Q953.096 1513.92 953.096 1522.67 Q953.096 1531.4 950.017 1536.01 Q946.962 1540.59 941.152 1540.59 Q935.341 1540.59 932.263 1536.01 Q929.207 1531.4 929.207 1522.67 Q929.207 1513.92 932.263 1509.34 Q935.341 1504.73 941.152 1504.73 Z" fill="#000000" fill-rule="evenodd" fill-opacity="1" /><path clip-path="url(#clip010)" d="M 0 0 M1314.07 1521.29 Q1317.43 1522 1319.3 1524.27 Q1321.2 1526.54 1321.2 1529.87 Q1321.2 1534.99 1317.68 1537.79 Q1314.16 1540.59 1307.68 1540.59 Q1305.51 1540.59 1303.19 1540.15 Q1300.9 1539.73 1298.45 1538.88 L1298.45 1534.36 Q1300.39 1535.5 1302.71 1536.08 Q1305.02 1536.66 1307.54 1536.66 Q1311.94 1536.66 1314.23 1534.92 Q1316.55 1533.18 1316.55 1529.87 Q1316.55 1526.82 1314.39 1525.11 Q1312.27 1523.37 1308.45 1523.37 L1304.42 1523.37 L1304.42 1519.53 L1308.63 1519.53 Q1312.08 1519.53 1313.91 1518.16 Q1315.74 1516.77 1315.74 1514.18 Q1315.74 1511.52 1313.84 1510.11 Q1311.96 1508.67 1308.45 1508.67 Q1306.52 1508.67 1304.33 1509.09 Q1302.13 1509.5 1299.49 1510.38 L1299.49 1506.22 Q1302.15 1505.48 1304.46 1505.11 Q1306.8 1504.73 1308.86 1504.73 Q1314.19 1504.73 1317.29 1507.17 Q1320.39 1509.57 1320.39 1513.69 Q1320.39 1516.56 1318.75 1518.55 Q1317.1 1520.52 1314.07 1521.29 Z" fill="#000000" fill-rule="evenodd" fill-opacity="1" /><path clip-path="url(#clip010)" d="M 0 0 M1336.27 1508.44 Q1332.66 1508.44 1330.83 1512 Q1329.02 1515.55 1329.02 1522.67 Q1329.02 1529.78 1330.83 1533.35 Q1332.66 1536.89 1336.27 1536.89 Q1339.9 1536.89 1341.71 1533.35 Q1343.54 1529.78 1343.54 1522.67 Q1343.54 1515.55 1341.71 1512 Q1339.9 1508.44 1336.27 1508.44 M1336.27 1504.73 Q1342.08 1504.73 1345.14 1509.34 Q1348.21 1513.92 1348.21 1522.67 Q1348.21 1531.4 1345.14 1536.01 Q1342.08 1540.59 1336.27 1540.59 Q1330.46 1540.59 1327.38 1536.01 Q1324.33 1531.4 1324.33 1522.67 Q1324.33 1513.92 1327.38 1509.34 Q1330.46 1504.73 1336.27 1504.73 Z" fill="#000000" fill-rule="evenodd" fill-opacity="1" /><path clip-path="url(#clip010)" d="M 0 0 M1707.55 1509.43 L1695.74 1527.88 L1707.55 1527.88 L1707.55 1509.43 M1706.32 1505.36 L1712.2 1505.36 L1712.2 1527.88 L1717.13 1527.88 L1717.13 1531.77 L1712.2 1531.77 L1712.2 1539.92 L1707.55 1539.92 L1707.55 1531.77 L1691.94 1531.77 L1691.94 1527.26 L1706.32 1505.36 Z" fill="#000000" fill-rule="evenodd" fill-opacity="1" /><path clip-path="url(#clip010)" d="M 0 0 M1732.2 1508.44 Q1728.59 1508.44 1726.76 1512 Q1724.95 1515.55 1724.95 1522.67 Q1724.95 1529.78 1726.76 1533.35 Q1728.59 1536.89 1732.2 1536.89 Q1735.83 1536.89 1737.64 1533.35 Q1739.47 1529.78 1739.47 1522.67 Q1739.47 1515.55 1737.64 1512 Q1735.83 1508.44 1732.2 1508.44 M1732.2 1504.73 Q1738.01 1504.73 1741.06 1509.34 Q1744.14 1513.92 1744.14 1522.67 Q1744.14 1531.4 1741.06 1536.01 Q1738.01 1540.59 1732.2 1540.59 Q1726.39 1540.59 1723.31 1536.01 Q1720.25 1531.4 1720.25 1522.67 Q1720.25 1513.92 1723.31 1509.34 Q1726.39 1504.73 1732.2 1504.73 Z" fill="#000000" fill-rule="evenodd" fill-opacity="1" /><path clip-path="url(#clip010)" d="M 0 0 M2089.53 1505.36 L2107.88 1505.36 L2107.88 1509.3 L2093.81 1509.3 L2093.81 1517.77 Q2094.83 1517.42 2095.85 1517.26 Q2096.86 1517.07 2097.88 1517.07 Q2103.67 1517.07 2107.05 1520.24 Q2110.43 1523.42 2110.43 1528.83 Q2110.43 1534.41 2106.96 1537.51 Q2103.49 1540.59 2097.17 1540.59 Q2094.99 1540.59 2092.72 1540.22 Q2090.48 1539.85 2088.07 1539.11 L2088.07 1534.41 Q2090.15 1535.54 2092.37 1536.1 Q2094.6 1536.66 2097.07 1536.66 Q2101.08 1536.66 2103.42 1534.55 Q2105.75 1532.44 2105.75 1528.83 Q2105.75 1525.22 2103.42 1523.11 Q2101.08 1521.01 2097.07 1521.01 Q2095.2 1521.01 2093.32 1521.42 Q2091.47 1521.84 2089.53 1522.72 L2089.53 1505.36 Z" fill="#000000" fill-rule="evenodd" fill-opacity="1" /><path clip-path="url(#clip010)" d="M 0 0 M2125.5 1508.44 Q2121.89 1508.44 2120.06 1512 Q2118.25 1515.55 2118.25 1522.67 Q2118.25 1529.78 2120.06 1533.35 Q2121.89 1536.89 2125.5 1536.89 Q2129.13 1536.89 2130.94 1533.35 Q2132.77 1529.78 2132.77 1522.67 Q2132.77 1515.55 2130.94 1512 Q2129.13 1508.44 2125.5 1508.44 M2125.5 1504.73 Q2131.31 1504.73 2134.36 1509.34 Q2137.44 1513.92 2137.44 1522.67 Q2137.44 1531.4 2134.36 1536.01 Q2131.31 1540.59 2125.5 1540.59 Q2119.69 1540.59 2116.61 1536.01 Q2113.55 1531.4 2113.55 1522.67 Q2113.55 1513.92 2116.61 1509.34 Q2119.69 1504.73 2125.5 1504.73 Z" fill="#000000" fill-rule="evenodd" fill-opacity="1" /><path clip-path="url(#clip010)" d="M 0 0 M103.247 1472.25 Q99.6354 1472.25 97.8068 1475.81 Q96.0012 1479.35 96.0012 1486.48 Q96.0012 1493.59 97.8068 1497.15 Q99.6354 1500.7 103.247 1500.7 Q106.881 1500.7 108.686 1497.15 Q110.515 1493.59 110.515 1486.48 Q110.515 1479.35 108.686 1475.81 Q106.881 1472.25 103.247 1472.25 M103.247 1468.54 Q109.057 1468.54 112.112 1473.15 Q115.191 1477.73 115.191 1486.48 Q115.191 1495.21 112.112 1499.82 Q109.057 1504.4 103.247 1504.4 Q97.4364 1504.4 94.3577 1499.82 Q91.3022 1495.21 91.3022 1486.48 Q91.3022 1477.73 94.3577 1473.15 Q97.4364 1468.54 103.247 1468.54 Z" fill="#000000" fill-rule="evenodd" fill-opacity="1" /><path clip-path="url(#clip010)" d="M 0 0 M68.2699 1211.95 L75.9087 1211.95 L75.9087 1185.59 L67.5986 1187.25 L67.5986 1182.99 L75.8624 1181.33 L80.5383 1181.33 L80.5383 1211.95 L88.1772 1211.95 L88.1772 1215.89 L68.2699 1215.89 L68.2699 1211.95 Z" fill="#000000" fill-rule="evenodd" fill-opacity="1" /><path clip-path="url(#clip010)" d="M 0 0 M103.247 1184.41 Q99.6354 1184.41 97.8068 1187.97 Q96.0012 1191.51 96.0012 1198.64 Q96.0012 1205.75 97.8068 1209.31 Q99.6354 1212.85 103.247 1212.85 Q106.881 1212.85 108.686 1209.31 Q110.515 1205.75 110.515 1198.64 Q110.515 1191.51 108.686 1187.97 Q106.881 1184.41 103.247 1184.41 M103.247 1180.7 Q109.057 1180.7 112.112 1185.31 Q115.191 1189.89 115.191 1198.64 Q115.191 1207.37 112.112 1211.98 Q109.057 1216.56 103.247 1216.56 Q97.4364 1216.56 94.3577 1211.98 Q91.3022 1207.37 91.3022 1198.64 Q91.3022 1189.89 94.3577 1185.31 Q97.4364 1180.7 103.247 1180.7 Z" fill="#000000" fill-rule="evenodd" fill-opacity="1" /><path clip-path="url(#clip010)" d="M 0 0 M71.8578 924.111 L88.1772 924.111 L88.1772 928.046 L66.2328 928.046 L66.2328 924.111 Q68.8949 921.357 73.4782 916.727 Q78.0846 912.074 79.2652 910.732 Q81.5105 908.209 82.3902 906.472 Q83.2929 904.713 83.2929 903.023 Q83.2929 900.269 81.3485 898.533 Q79.4272 896.797 76.3254 896.797 Q74.1263 896.797 71.6726 897.56 Q69.2421 898.324 66.4643 899.875 L66.4643 895.153 Q69.2884 894.019 71.7421 893.44 Q74.1958 892.861 76.2328 892.861 Q81.6031 892.861 84.7976 895.547 Q87.992 898.232 87.992 902.722 Q87.992 904.852 87.1818 906.773 Q86.3948 908.671 84.2883 911.264 Q83.7096 911.935 80.6078 915.153 Q77.5059 918.347 71.8578 924.111 Z" fill="#000000" fill-rule="evenodd" fill-opacity="1" /><path clip-path="url(#clip010)" d="M 0 0 M103.247 896.565 Q99.6354 896.565 97.8068 900.13 Q96.0012 903.671 96.0012 910.801 Q96.0012 917.908 97.8068 921.472 Q99.6354 925.014 103.247 925.014 Q106.881 925.014 108.686 921.472 Q110.515 917.908 110.515 910.801 Q110.515 903.671 108.686 900.13 Q106.881 896.565 103.247 896.565 M103.247 892.861 Q109.057 892.861 112.112 897.468 Q115.191 902.051 115.191 910.801 Q115.191 919.528 112.112 924.134 Q109.057 928.718 103.247 928.718 Q97.4364 928.718 94.3577 924.134 Q91.3022 919.528 91.3022 910.801 Q91.3022 902.051 94.3577 897.468 Q97.4364 892.861 103.247 892.861 Z" fill="#000000" fill-rule="evenodd" fill-opacity="1" /><path clip-path="url(#clip010)" d="M 0 0 M81.0476 621.571 Q84.404 622.289 86.279 624.558 Q88.1772 626.826 88.1772 630.159 Q88.1772 635.275 84.6587 638.076 Q81.1402 640.877 74.6587 640.877 Q72.4828 640.877 70.168 640.437 Q67.8764 640.02 65.4227 639.164 L65.4227 634.65 Q67.3671 635.784 69.6819 636.363 Q71.9967 636.942 74.5198 636.942 Q78.918 636.942 81.2096 635.206 Q83.5244 633.47 83.5244 630.159 Q83.5244 627.104 81.3717 625.391 Q79.242 623.655 75.4226 623.655 L71.3949 623.655 L71.3949 619.812 L75.6078 619.812 Q79.0569 619.812 80.8855 618.446 Q82.7142 617.058 82.7142 614.465 Q82.7142 611.803 80.8161 610.391 Q78.9411 608.956 75.4226 608.956 Q73.5013 608.956 71.3023 609.372 Q69.1032 609.789 66.4643 610.669 L66.4643 606.502 Q69.1264 605.761 71.4412 605.391 Q73.7791 605.021 75.8393 605.021 Q81.1633 605.021 84.2652 607.451 Q87.367 609.859 87.367 613.979 Q87.367 616.849 85.7235 618.84 Q84.08 620.808 81.0476 621.571 Z" fill="#000000" fill-rule="evenodd" fill-opacity="1" /><path clip-path="url(#clip010)" d="M 0 0 M103.247 608.724 Q99.6354 608.724 97.8068 612.289 Q96.0012 615.831 96.0012 622.96 Q96.0012 630.067 97.8068 633.632 Q99.6354 637.173 103.247 637.173 Q106.881 637.173 108.686 633.632 Q110.515 630.067 110.515 622.96 Q110.515 615.831 108.686 612.289 Q106.881 608.724 103.247 608.724 M103.247 605.021 Q109.057 605.021 112.112 609.627 Q115.191 614.21 115.191 622.96 Q115.191 631.687 112.112 636.294 Q109.057 640.877 103.247 640.877 Q97.4364 640.877 94.3577 636.294 Q91.3022 631.687 91.3022 622.96 Q91.3022 614.21 94.3577 609.627 Q97.4364 605.021 103.247 605.021 Z" fill="#000000" fill-rule="evenodd" fill-opacity="1" /><path clip-path="url(#clip010)" d="M 0 0 M78.5939 321.879 L66.7884 340.328 L78.5939 340.328 L78.5939 321.879 M77.367 317.805 L83.2466 317.805 L83.2466 340.328 L88.1772 340.328 L88.1772 344.217 L83.2466 344.217 L83.2466 352.365 L78.5939 352.365 L78.5939 344.217 L62.9921 344.217 L62.9921 339.703 L77.367 317.805 Z" fill="#000000" fill-rule="evenodd" fill-opacity="1" /><path clip-path="url(#clip010)" d="M 0 0 M103.247 320.884 Q99.6354 320.884 97.8068 324.448 Q96.0012 327.99 96.0012 335.12 Q96.0012 342.226 97.8068 345.791 Q99.6354 349.332 103.247 349.332 Q106.881 349.332 108.686 345.791 Q110.515 342.226 110.515 335.12 Q110.515 327.99 108.686 324.448 Q106.881 320.884 103.247 320.884 M103.247 317.18 Q109.057 317.18 112.112 321.786 Q115.191 326.37 115.191 335.12 Q115.191 343.846 112.112 348.453 Q109.057 353.036 103.247 353.036 Q97.4364 353.036 94.3577 348.453 Q91.3022 343.846 91.3022 335.12 Q91.3022 326.37 94.3577 321.786 Q97.4364 317.18 103.247 317.18 Z" fill="#000000" fill-rule="evenodd" fill-opacity="1" /><path clip-path="url(#clip010)" d="M 0 0 M67.2745 29.9641 L85.6309 29.9641 L85.6309 33.8993 L71.5569 33.8993 L71.5569 42.3714 Q72.5754 42.0242 73.5939 41.8622 Q74.6124 41.677 75.6309 41.677 Q81.418 41.677 84.7976 44.8483 Q88.1772 48.0196 88.1772 53.4362 Q88.1772 59.0149 84.705 62.1167 Q81.2328 65.1954 74.9134 65.1954 Q72.7374 65.1954 70.4689 64.825 Q68.2236 64.4547 65.8162 63.7139 L65.8162 59.0149 Q67.8995 60.1491 70.1217 60.7047 Q72.3439 61.2602 74.8208 61.2602 Q78.8254 61.2602 81.1633 59.1538 Q83.5013 57.0473 83.5013 53.4362 Q83.5013 49.8251 81.1633 47.7186 Q78.8254 45.6122 74.8208 45.6122 Q72.9458 45.6122 71.0708 46.0288 Q69.2189 46.4455 67.2745 47.3251 L67.2745 29.9641 Z" fill="#000000" fill-rule="evenodd" fill-opacity="1" /><path clip-path="url(#clip010)" d="M 0 0 M103.247 33.0428 Q99.6354 33.0428 97.8068 36.6076 Q96.0012 40.1492 96.0012 47.2788 Q96.0012 54.3853 97.8068 57.9501 Q99.6354 61.4917 103.247 61.4917 Q106.881 61.4917 108.686 57.9501 Q110.515 54.3853 110.515 47.2788 Q110.515 40.1492 108.686 36.6076 Q106.881 33.0428 103.247 33.0428 M103.247 29.3391 Q109.057 29.3391 112.112 33.9456 Q115.191 38.5289 115.191 47.2788 Q115.191 56.0056 112.112 60.6121 Q109.057 65.1954 103.247 65.1954 Q97.4364 65.1954 94.3577 60.6121 Q91.3022 56.0056 91.3022 47.2788 Q91.3022 38.5289 94.3577 33.9456 Q97.4364 29.3391 103.247 29.3391 Z" fill="#000000" fill-rule="evenodd" fill-opacity="1" /><path clip-path="url(#clip012)" d="
M139.191 1486.45 L139.191 1486.45 L336.547 1486.45 L533.904 1486.45 L731.26 1486.45 L928.617 1486.45 L1125.97 1486.45 L1323.33 1486.45 L1520.69 1486.45 L1718.04 1486.45 
  L1915.4 1486.45 L2112.76 1486.45 L2112.76 1486.45 L2112.76 1486.45 L2112.76 1486.45 L2112.76 1342.53 L2112.76 1198.61 L2112.76 1054.69 L2112.76 910.766 L2112.76 766.846 
  L2112.76 622.926 L2112.76 479.005 L2112.76 335.085 L2112.76 191.164 L2112.76 47.2441 L2112.76 47.2441 L2112.76 47.2441 L2112.76 47.2441 L1915.4 47.2441 L1718.04 47.2441 
  L1520.69 47.2441 L1323.33 47.2441 L1125.97 47.2441 L928.617 47.2441 L731.26 47.2441 L533.904 47.2441 L336.547 47.2441 L139.191 47.2441 L139.191 47.2441 L139.191 47.2441 
  L139.191 47.2441 L139.191 191.164 L139.191 335.085 L139.191 479.005 L139.191 622.926 L139.191 766.846 L139.191 910.766 L139.191 1054.69 L139.191 1198.61 L139.191 1342.53 
  L139.191 1486.45 L139.191 1486.45 L139.191 1486.45  Z
  " fill="#000003" fill-rule="evenodd" fill-opacity="1"/>
<path clip-path="url(#clip012)" d="
M1125.97 963.443 L1323.33 1008.05 L1520.69 1017.17 L1718.04 1011.83 L1915.4 1028.85 L2112.76 1039.42 L2112.76 1054.69 L2112.76 910.766 L2112.76 766.846 L2112.76 622.926 
  L2112.76 479.005 L2112.76 335.085 L2112.76 191.164 L2112.76 47.2441 L2112.76 47.2441 L2112.76 47.2441 L2112.76 47.2441 L1915.4 47.2441 L1718.04 47.2441 L1520.69 47.2441 
  L1323.33 47.2441 L1125.97 47.2441 L928.617 47.2441 L731.26 47.2441 L751.075 47.2441 L772.587 191.164 L770.166 335.085 L795.631 479.005 L809.381 622.926 L880.922 766.846 
  L928.617 818.373 L1023.64 910.766 L1125.97 963.443  Z
  " fill="#06041b" fill-rule="evenodd" fill-opacity="1"/>
<path clip-path="url(#clip012)" d="
M1323.33 925.425 L1520.69 940.904 L1718.04 932.514 L1915.4 963.484 L2112.76 971.823 L2112.76 1054.69 L2112.76 910.766 L2112.76 766.846 L2112.76 622.926 L2112.76 479.005 
  L2112.76 335.085 L2112.76 191.164 L2112.76 47.2441 L2112.76 47.2441 L2112.76 47.2441 L2112.76 47.2441 L1915.4 47.2441 L1718.04 47.2441 L1520.69 47.2441 L1323.33 47.2441 
  L1125.97 47.2441 L928.617 47.2441 L731.26 47.2441 L849.357 47.2441 L877.169 191.164 L857.88 335.085 L883.345 479.005 L928.617 606.934 L932.544 622.926 L1040.22 766.846 
  L1125.97 841.358 L1275.09 910.766 L1323.33 925.425  Z
  " fill="#160b39" fill-rule="evenodd" fill-opacity="1"/>
<path clip-path="url(#clip012)" d="
M1323.33 868.943 L1520.69 886.122 L1718.04 883.612 L1915.4 903.788 L2112.76 907.4 L2112.76 910.766 L2112.76 766.846 L2112.76 622.926 L2112.76 479.005 L2112.76 335.085 
  L2112.76 191.164 L2112.76 47.2441 L2112.76 47.2441 L2112.76 47.2441 L2112.76 47.2441 L1915.4 47.2441 L1718.04 47.2441 L1520.69 47.2441 L1323.33 47.2441 L1125.97 47.2441 
  L928.617 47.2441 L937.537 47.2441 L949.443 191.164 L937.487 335.085 L954.248 479.005 L993.421 622.926 L1125.97 743.98 L1159.52 766.846 L1323.33 868.943  Z
  " fill="#2b0a56" fill-rule="evenodd" fill-opacity="1"/>
<path clip-path="url(#clip012)" d="
M1323.33 818.1 L1520.69 845.378 L1718.04 846.198 L1915.4 867.736 L2112.76 872.612 L2112.76 910.766 L2112.76 766.846 L2112.76 622.926 L2112.76 479.005 L2112.76 335.085 
  L2112.76 191.164 L2112.76 47.2441 L2112.76 47.2441 L2112.76 47.2441 L2112.76 47.2441 L1915.4 47.2441 L1718.04 47.2441 L1520.69 47.2441 L1323.33 47.2441 L1125.97 47.2441 
  L928.617 47.2441 L983.624 47.2441 L990.435 191.164 L983.315 335.085 L1007.22 479.005 L1054.3 622.926 L1125.97 688.385 L1241.1 766.846 L1323.33 818.1  Z
  " fill="#410967" fill-rule="evenodd" fill-opacity="1"/>
<path clip-path="url(#clip012)" d="
M1323.33 767.256 L1520.69 804.633 L1718.04 808.785 L1915.4 831.683 L2112.76 837.824 L2112.76 910.766 L2112.76 766.846 L2112.76 622.926 L2112.76 479.005 L2112.76 335.085 
  L2112.76 191.164 L2112.76 47.2441 L2112.76 47.2441 L2112.76 47.2441 L2112.76 47.2441 L1915.4 47.2441 L1718.04 47.2441 L1520.69 47.2441 L1323.33 47.2441 L1125.97 47.2441 
  L928.617 47.2441 L1029.71 47.2441 L1031.43 191.164 L1029.14 335.085 L1060.19 479.005 L1115.17 622.926 L1125.97 632.789 L1322.67 766.846 L1323.33 767.256  Z
  " fill="#550f6d" fill-rule="evenodd" fill-opacity="1"/>
<path clip-path="url(#clip012)" d="
M1718.04 771.372 L1915.4 795.63 L2112.76 803.036 L2112.76 910.766 L2112.76 766.846 L2112.76 622.926 L2112.76 479.005 L2112.76 335.085 L2112.76 191.164 L2112.76 47.2441 
  L2112.76 47.2441 L2112.76 47.2441 L2112.76 47.2441 L1915.4 47.2441 L1718.04 47.2441 L1520.69 47.2441 L1323.33 47.2441 L1125.97 47.2441 L928.617 47.2441 L1075.8 47.2441 
  L1072.42 191.164 L1074.97 335.085 L1113.16 479.005 L1125.97 511.714 L1174.25 622.926 L1323.33 726.43 L1520.69 764.574 L1594.7 766.846 L1718.04 771.372  Z
  " fill="#6a176e" fill-rule="evenodd" fill-opacity="1"/>
<path clip-path="url(#clip012)" d="
M2112.76 768.249 L2112.76 910.766 L2112.76 766.846 L2112.76 622.926 L2112.76 479.005 L2112.76 335.085 L2112.76 191.164 L2112.76 47.2441 L2112.76 47.2441 L2112.76 47.2441 
  L2112.76 47.2441 L1915.4 47.2441 L1718.04 47.2441 L1520.69 47.2441 L1323.33 47.2441 L1125.97 47.2441 L928.617 47.2441 L1121.89 47.2441 L1113.41 191.164 L1120.8 335.085 
  L1125.97 353.741 L1158.52 479.005 L1232.93 622.926 L1323.33 685.685 L1520.69 733.265 L1718.04 743.291 L1915.4 760.727 L2079.86 766.846 L2112.76 768.249  Z
  " fill="#7e1e6c" fill-rule="evenodd" fill-opacity="1"/>
<path clip-path="url(#clip012)" d="
M1323.33 644.941 L1520.69 701.956 L1718.04 716.495 L1915.4 730.376 L2112.76 737.867 L2112.76 766.846 L2112.76 622.926 L2112.76 479.005 L2112.76 335.085 L2112.76 191.164 
  L2112.76 47.2441 L2112.76 47.2441 L2112.76 47.2441 L2112.76 47.2441 L1915.4 47.2441 L1718.04 47.2441 L1520.69 47.2441 L1323.33 47.2441 L1125.97 47.2441 L1160.71 47.2441 
  L1155.14 191.164 L1164.06 335.085 L1201.45 479.005 L1291.62 622.926 L1323.33 644.941  Z
  " fill="#932567" fill-rule="evenodd" fill-opacity="1"/>
<path clip-path="url(#clip012)" d="
M1520.69 670.647 L1718.04 689.699 L1915.4 700.026 L2112.76 707.671 L2112.76 766.846 L2112.76 622.926 L2112.76 479.005 L2112.76 335.085 L2112.76 191.164 L2112.76 47.2441 
  L2112.76 47.2441 L2112.76 47.2441 L2112.76 47.2441 L1915.4 47.2441 L1718.04 47.2441 L1520.69 47.2441 L1323.33 47.2441 L1125.97 47.2441 L1198.83 47.2441 L1197.18 191.164 
  L1206.99 335.085 L1244.39 479.005 L1323.33 594.142 L1369.06 622.926 L1520.69 670.647  Z
  " fill="#a62c5f" fill-rule="evenodd" fill-opacity="1"/>
<path clip-path="url(#clip012)" d="
M1520.69 639.338 L1718.04 662.903 L1915.4 669.675 L2112.76 677.474 L2112.76 766.846 L2112.76 622.926 L2112.76 479.005 L2112.76 335.085 L2112.76 191.164 L2112.76 47.2441 
  L2112.76 47.2441 L2112.76 47.2441 L2112.76 47.2441 L1915.4 47.2441 L1718.04 47.2441 L1520.69 47.2441 L1323.33 47.2441 L1125.97 47.2441 L1236.95 47.2441 L1239.23 191.164 
  L1249.93 335.085 L1287.32 479.005 L1323.33 531.524 L1468.54 622.926 L1520.69 639.338  Z
  " fill="#ba3655" fill-rule="evenodd" fill-opacity="1"/>
<path clip-path="url(#clip012)" d="
M1718.04 636.108 L1915.4 639.325 L2112.76 647.278 L2112.76 766.846 L2112.76 622.926 L2112.76 479.005 L2112.76 335.085 L2112.76 191.164 L2112.76 47.2441 L2112.76 47.2441 
  L2112.76 47.2441 L2112.76 47.2441 L1915.4 47.2441 L1718.04 47.2441 L1520.69 47.2441 L1323.33 47.2441 L1125.97 47.2441 L1275.07 47.2441 L1281.28 191.164 L1292.86 335.085 
  L1323.33 452.353 L1335.86 479.005 L1520.69 598.939 L1617.72 622.926 L1718.04 636.108  Z
  " fill="#cc4148" fill-rule="evenodd" fill-opacity="1"/>
<path clip-path="url(#clip012)" d="
M1520.69 548.526 L1718.04 603.3 L1915.4 606.84 L2112.76 615.99 L2112.76 622.926 L2112.76 479.005 L2112.76 335.085 L2112.76 191.164 L2112.76 47.2441 L2112.76 47.2441 
  L2112.76 47.2441 L2112.76 47.2441 L1915.4 47.2441 L1718.04 47.2441 L1520.69 47.2441 L1323.33 47.2441 L1125.97 47.2441 L1313.19 47.2441 L1323.33 191.164 L1323.33 191.164 
  L1339.78 335.085 L1413.55 479.005 L1520.69 548.526  Z
  " fill="#dc5039" fill-rule="evenodd" fill-opacity="1"/>
<path clip-path="url(#clip012)" d="
M1520.69 498.113 L1718.04 564.672 L1915.4 571.848 L2112.76 580.154 L2112.76 622.926 L2112.76 479.005 L2112.76 335.085 L2112.76 191.164 L2112.76 47.2441 L2112.76 47.2441 
  L2112.76 47.2441 L2112.76 47.2441 L1915.4 47.2441 L1718.04 47.2441 L1520.69 47.2441 L1323.33 47.2441 L1364.05 47.2441 L1378.82 191.164 L1396.42 335.085 L1491.24 479.005 
  L1520.69 498.113  Z
  " fill="#e8612b" fill-rule="evenodd" fill-opacity="1"/>
<path clip-path="url(#clip012)" d="
M1718.04 526.044 L1915.4 536.856 L2112.76 544.318 L2112.76 622.926 L2112.76 479.005 L2112.76 335.085 L2112.76 191.164 L2112.76 47.2441 L2112.76 47.2441 L2112.76 47.2441 
  L2112.76 47.2441 L1915.4 47.2441 L1718.04 47.2441 L1520.69 47.2441 L1323.33 47.2441 L1419.55 47.2441 L1434.31 191.164 L1453.07 335.085 L1520.69 429.752 L1587.34 479.005 
  L1718.04 526.044  Z
  " fill="#f2751a" fill-rule="evenodd" fill-opacity="1"/>
<path clip-path="url(#clip012)" d="
M1718.04 487.416 L1915.4 501.863 L2112.76 508.483 L2112.76 622.926 L2112.76 479.005 L2112.76 335.085 L2112.76 191.164 L2112.76 47.2441 L2112.76 47.2441 L2112.76 47.2441 
  L2112.76 47.2441 L1915.4 47.2441 L1718.04 47.2441 L1520.69 47.2441 L1323.33 47.2441 L1475.04 47.2441 L1489.81 191.164 L1509.72 335.085 L1520.69 350.436 L1694.67 479.005 
  L1718.04 487.416  Z
  " fill="#f98c09" fill-rule="evenodd" fill-opacity="1"/>
<path clip-path="url(#clip012)" d="
M1718.04 428.968 L1915.4 458.781 L2112.76 469.582 L2112.76 479.005 L2112.76 335.085 L2112.76 191.164 L2112.76 47.2441 L2112.76 47.2441 L2112.76 47.2441 L2112.76 47.2441 
  L1915.4 47.2441 L1718.04 47.2441 L1520.69 47.2441 L1533.06 47.2441 L1551.35 191.164 L1590.67 335.085 L1718.04 428.968  Z
  " fill="#fba40a" fill-rule="evenodd" fill-opacity="1"/>
<path clip-path="url(#clip012)" d="
M1718.04 365.004 L1915.4 400.46 L2112.76 416.468 L2112.76 479.005 L2112.76 335.085 L2112.76 191.164 L2112.76 47.2441 L2112.76 47.2441 L2112.76 47.2441 L2112.76 47.2441 
  L1915.4 47.2441 L1718.04 47.2441 L1520.69 47.2441 L1602.78 47.2441 L1620.48 191.164 L1677.45 335.085 L1718.04 365.004  Z
  " fill="#fabb21" fill-rule="evenodd" fill-opacity="1"/>
<path clip-path="url(#clip012)" d="
M1915.4 342.14 L2112.76 363.355 L2112.76 479.005 L2112.76 335.085 L2112.76 191.164 L2112.76 47.2441 L2112.76 47.2441 L2112.76 47.2441 L2112.76 47.2441 L1915.4 47.2441 
  L1718.04 47.2441 L1520.69 47.2441 L1672.5 47.2441 L1689.61 191.164 L1718.04 253.899 L1878.85 335.085 L1915.4 342.14  Z
  " fill="#f6d542" fill-rule="evenodd" fill-opacity="1"/>
<path clip-path="url(#clip012)" d="
M1915.4 252.083 L2112.76 293.556 L2112.76 335.085 L2112.76 191.164 L2112.76 47.2441 L2112.76 47.2441 L2112.76 47.2441 L2112.76 47.2441 L1915.4 47.2441 L1718.04 47.2441 
  L1762.94 47.2441 L1812.21 191.164 L1915.4 252.083  Z
  " fill="#f1ed70" fill-rule="evenodd" fill-opacity="1"/>
<path clip-path="url(#clip012)" d="
M2112.76 204.769 L2112.76 335.085 L2112.76 191.164 L2112.76 47.2441 L2112.76 47.2441 L2112.76 47.2441 L2112.76 47.2441 L1915.4 47.2441 L1718.04 47.2441 L1892.43 47.2441 
  L1915.4 95.2176 L2053.24 191.164 L2112.76 204.769  Z
  " fill="#fcfea4" fill-rule="evenodd" fill-opacity="1"/>
<polyline clip-path="url(#clip012)" style="stroke:#000000; stroke-width:4; stroke-opacity:1; fill:none" points="
  139.191,1486.45 139.191,1486.45 336.547,1486.45 533.904,1486.45 731.26,1486.45 928.617,1486.45 1125.97,1486.45 1323.33,1486.45 1520.69,1486.45 1718.04,1486.45 
  1915.4,1486.45 2112.76,1486.45 2112.76,1342.53 2112.76,1198.61 2112.76,1054.69 2112.76,910.766 2112.76,766.846 
  2112.76,622.926 2112.76,479.005 2112.76,335.085 2112.76,191.164 2112.76,47.2441 1915.4,47.2441 1718.04,47.2441 
  1520.69,47.2441 1323.33,47.2441 1125.97,47.2441 928.617,47.2441 731.26,47.2441 533.904,47.2441 336.547,47.2441 139.191,47.2441 
  139.191,191.164 139.191,335.085 139.191,479.005 139.191,622.926 139.191,766.846 139.191,910.766 139.191,1054.69 139.191,1198.61 139.191,1342.53 
  139.191,1486.45 
  "/>
<polyline clip-path="url(#clip012)" style="stroke:#000000; stroke-width:4; stroke-opacity:1; fill:none" points="
  1125.97,963.443 1323.33,1008.05 1520.69,1017.17 1718.04,1011.83 1915.4,1028.85 2112.76,1039.42 2112.76,1054.69 2112.76,910.766 2112.76,766.846 2112.76,622.926 
  2112.76,479.005 2112.76,335.085 2112.76,191.164 2112.76,47.2441 1915.4,47.2441 1718.04,47.2441 1520.69,47.2441 
  1323.33,47.2441 1125.97,47.2441 928.617,47.2441 731.26,47.2441 751.075,47.2441 772.587,191.164 770.166,335.085 795.631,479.005 809.381,622.926 880.922,766.846 
  928.617,818.373 1023.64,910.766 1125.97,963.443 
  "/>
<polyline clip-path="url(#clip012)" style="stroke:#000000; stroke-width:4; stroke-opacity:1; fill:none" points="
  1323.33,925.425 1520.69,940.904 1718.04,932.514 1915.4,963.484 2112.76,971.823 2112.76,1054.69 2112.76,910.766 2112.76,766.846 2112.76,622.926 2112.76,479.005 
  2112.76,335.085 2112.76,191.164 2112.76,47.2441 1915.4,47.2441 1718.04,47.2441 1520.69,47.2441 1323.33,47.2441 
  1125.97,47.2441 928.617,47.2441 731.26,47.2441 849.357,47.2441 877.169,191.164 857.88,335.085 883.345,479.005 928.617,606.934 932.544,622.926 1040.22,766.846 
  1125.97,841.358 1275.09,910.766 1323.33,925.425 
  "/>
<polyline clip-path="url(#clip012)" style="stroke:#000000; stroke-width:4; stroke-opacity:1; fill:none" points="
  1323.33,868.943 1520.69,886.122 1718.04,883.612 1915.4,903.788 2112.76,907.4 2112.76,910.766 2112.76,766.846 2112.76,622.926 2112.76,479.005 2112.76,335.085 
  2112.76,191.164 2112.76,47.2441 1915.4,47.2441 1718.04,47.2441 1520.69,47.2441 1323.33,47.2441 1125.97,47.2441 
  928.617,47.2441 937.537,47.2441 949.443,191.164 937.487,335.085 954.248,479.005 993.421,622.926 1125.97,743.98 1159.52,766.846 1323.33,868.943 
  "/>
<polyline clip-path="url(#clip012)" style="stroke:#000000; stroke-width:4; stroke-opacity:1; fill:none" points="
  1323.33,818.1 1520.69,845.378 1718.04,846.198 1915.4,867.736 2112.76,872.612 2112.76,910.766 2112.76,766.846 2112.76,622.926 2112.76,479.005 2112.76,335.085 
  2112.76,191.164 2112.76,47.2441 1915.4,47.2441 1718.04,47.2441 1520.69,47.2441 1323.33,47.2441 1125.97,47.2441 
  928.617,47.2441 983.624,47.2441 990.435,191.164 983.315,335.085 1007.22,479.005 1054.3,622.926 1125.97,688.385 1241.1,766.846 1323.33,818.1 
  "/>
<polyline clip-path="url(#clip012)" style="stroke:#000000; stroke-width:4; stroke-opacity:1; fill:none" points="
  1323.33,767.256 1520.69,804.633 1718.04,808.785 1915.4,831.683 2112.76,837.824 2112.76,910.766 2112.76,766.846 2112.76,622.926 2112.76,479.005 2112.76,335.085 
  2112.76,191.164 2112.76,47.2441 1915.4,47.2441 1718.04,47.2441 1520.69,47.2441 1323.33,47.2441 1125.97,47.2441 
  928.617,47.2441 1029.71,47.2441 1031.43,191.164 1029.14,335.085 1060.19,479.005 1115.17,622.926 1125.97,632.789 1322.67,766.846 1323.33,767.256 
  "/>
<polyline clip-path="url(#clip012)" style="stroke:#000000; stroke-width:4; stroke-opacity:1; fill:none" points="
  1718.04,771.372 1915.4,795.63 2112.76,803.036 2112.76,910.766 2112.76,766.846 2112.76,622.926 2112.76,479.005 2112.76,335.085 2112.76,191.164 2112.76,47.2441 
  1915.4,47.2441 1718.04,47.2441 1520.69,47.2441 1323.33,47.2441 1125.97,47.2441 928.617,47.2441 1075.8,47.2441 
  1072.42,191.164 1074.97,335.085 1113.16,479.005 1125.97,511.714 1174.25,622.926 1323.33,726.43 1520.69,764.574 1594.7,766.846 1718.04,771.372 
  "/>
<polyline clip-path="url(#clip012)" style="stroke:#000000; stroke-width:4; stroke-opacity:1; fill:none" points="
  2112.76,768.249 2112.76,910.766 2112.76,766.846 2112.76,622.926 2112.76,479.005 2112.76,335.085 2112.76,191.164 2112.76,47.2441 
  1915.4,47.2441 1718.04,47.2441 1520.69,47.2441 1323.33,47.2441 1125.97,47.2441 928.617,47.2441 1121.89,47.2441 1113.41,191.164 1120.8,335.085 
  1125.97,353.741 1158.52,479.005 1232.93,622.926 1323.33,685.685 1520.69,733.265 1718.04,743.291 1915.4,760.727 2079.86,766.846 2112.76,768.249 
  "/>
<polyline clip-path="url(#clip012)" style="stroke:#000000; stroke-width:4; stroke-opacity:1; fill:none" points="
  1323.33,644.941 1520.69,701.956 1718.04,716.495 1915.4,730.376 2112.76,737.867 2112.76,766.846 2112.76,622.926 2112.76,479.005 2112.76,335.085 2112.76,191.164 
  2112.76,47.2441 1915.4,47.2441 1718.04,47.2441 1520.69,47.2441 1323.33,47.2441 1125.97,47.2441 1160.71,47.2441 
  1155.14,191.164 1164.06,335.085 1201.45,479.005 1291.62,622.926 1323.33,644.941 
  "/>
<polyline clip-path="url(#clip012)" style="stroke:#000000; stroke-width:4; stroke-opacity:1; fill:none" points="
  1520.69,670.647 1718.04,689.699 1915.4,700.026 2112.76,707.671 2112.76,766.846 2112.76,622.926 2112.76,479.005 2112.76,335.085 2112.76,191.164 2112.76,47.2441 
  1915.4,47.2441 1718.04,47.2441 1520.69,47.2441 1323.33,47.2441 1125.97,47.2441 1198.83,47.2441 1197.18,191.164 
  1206.99,335.085 1244.39,479.005 1323.33,594.142 1369.06,622.926 1520.69,670.647 
  "/>
<polyline clip-path="url(#clip012)" style="stroke:#000000; stroke-width:4; stroke-opacity:1; fill:none" points="
  1520.69,639.338 1718.04,662.903 1915.4,669.675 2112.76,677.474 2112.76,766.846 2112.76,622.926 2112.76,479.005 2112.76,335.085 2112.76,191.164 2112.76,47.2441 
  1915.4,47.2441 1718.04,47.2441 1520.69,47.2441 1323.33,47.2441 1125.97,47.2441 1236.95,47.2441 1239.23,191.164 
  1249.93,335.085 1287.32,479.005 1323.33,531.524 1468.54,622.926 1520.69,639.338 
  "/>
<polyline clip-path="url(#clip012)" style="stroke:#000000; stroke-width:4; stroke-opacity:1; fill:none" points="
  1718.04,636.108 1915.4,639.325 2112.76,647.278 2112.76,766.846 2112.76,622.926 2112.76,479.005 2112.76,335.085 2112.76,191.164 2112.76,47.2441 
  1915.4,47.2441 1718.04,47.2441 1520.69,47.2441 1323.33,47.2441 1125.97,47.2441 1275.07,47.2441 1281.28,191.164 1292.86,335.085 
  1323.33,452.353 1335.86,479.005 1520.69,598.939 1617.72,622.926 1718.04,636.108 
  "/>
<polyline clip-path="url(#clip012)" style="stroke:#000000; stroke-width:4; stroke-opacity:1; fill:none" points="
  1520.69,548.526 1718.04,603.3 1915.4,606.84 2112.76,615.99 2112.76,622.926 2112.76,479.005 2112.76,335.085 2112.76,191.164 2112.76,47.2441 
  1915.4,47.2441 1718.04,47.2441 1520.69,47.2441 1323.33,47.2441 1125.97,47.2441 1313.19,47.2441 1323.33,191.164 
  1339.78,335.085 1413.55,479.005 1520.69,548.526 
  "/>
<polyline clip-path="url(#clip012)" style="stroke:#000000; stroke-width:4; stroke-opacity:1; fill:none" points="
  1520.69,498.113 1718.04,564.672 1915.4,571.848 2112.76,580.154 2112.76,622.926 2112.76,479.005 2112.76,335.085 2112.76,191.164 2112.76,47.2441 
  1915.4,47.2441 1718.04,47.2441 1520.69,47.2441 1323.33,47.2441 1364.05,47.2441 1378.82,191.164 1396.42,335.085 1491.24,479.005 
  1520.69,498.113 
  "/>
<polyline clip-path="url(#clip012)" style="stroke:#000000; stroke-width:4; stroke-opacity:1; fill:none" points="
  1718.04,526.044 1915.4,536.856 2112.76,544.318 2112.76,622.926 2112.76,479.005 2112.76,335.085 2112.76,191.164 2112.76,47.2441 
  1915.4,47.2441 1718.04,47.2441 1520.69,47.2441 1323.33,47.2441 1419.55,47.2441 1434.31,191.164 1453.07,335.085 1520.69,429.752 1587.34,479.005 
  1718.04,526.044 
  "/>
<polyline clip-path="url(#clip012)" style="stroke:#000000; stroke-width:4; stroke-opacity:1; fill:none" points="
  1718.04,487.416 1915.4,501.863 2112.76,508.483 2112.76,622.926 2112.76,479.005 2112.76,335.085 2112.76,191.164 2112.76,47.2441 
  1915.4,47.2441 1718.04,47.2441 1520.69,47.2441 1323.33,47.2441 1475.04,47.2441 1489.81,191.164 1509.72,335.085 1520.69,350.436 1694.67,479.005 
  1718.04,487.416 
  "/>
<polyline clip-path="url(#clip012)" style="stroke:#000000; stroke-width:4; stroke-opacity:1; fill:none" points="
  1718.04,428.968 1915.4,458.781 2112.76,469.582 2112.76,479.005 2112.76,335.085 2112.76,191.164 2112.76,47.2441 
  1915.4,47.2441 1718.04,47.2441 1520.69,47.2441 1533.06,47.2441 1551.35,191.164 1590.67,335.085 1718.04,428.968 
  "/>
<polyline clip-path="url(#clip012)" style="stroke:#000000; stroke-width:4; stroke-opacity:1; fill:none" points="
  1718.04,365.004 1915.4,400.46 2112.76,416.468 2112.76,479.005 2112.76,335.085 2112.76,191.164 2112.76,47.2441 
  1915.4,47.2441 1718.04,47.2441 1520.69,47.2441 1602.78,47.2441 1620.48,191.164 1677.45,335.085 1718.04,365.004 
  "/>
<polyline clip-path="url(#clip012)" style="stroke:#000000; stroke-width:4; stroke-opacity:1; fill:none" points="
  1915.4,342.14 2112.76,363.355 2112.76,479.005 2112.76,335.085 2112.76,191.164 2112.76,47.2441 1915.4,47.2441 
  1718.04,47.2441 1520.69,47.2441 1672.5,47.2441 1689.61,191.164 1718.04,253.899 1878.85,335.085 1915.4,342.14 
  "/>
<polyline clip-path="url(#clip012)" style="stroke:#000000; stroke-width:4; stroke-opacity:1; fill:none" points="
  1915.4,252.083 2112.76,293.556 2112.76,335.085 2112.76,191.164 2112.76,47.2441 1915.4,47.2441 1718.04,47.2441 
  1762.94,47.2441 1812.21,191.164 1915.4,252.083 
  "/>
<polyline clip-path="url(#clip012)" style="stroke:#000000; stroke-width:4; stroke-opacity:1; fill:none" points="
  2112.76,204.769 2112.76,335.085 2112.76,191.164 2112.76,47.2441 1915.4,47.2441 1718.04,47.2441 1892.43,47.2441 
  1915.4,95.2176 2053.24,191.164 2112.76,204.769 
  "/>
<defs>
  <clipPath id="clip013">
    <rect x="2160" y="47" width="73" height="1440"/>
  </clipPath>
</defs>
<path clip-path="url(#clip013)" d="
M2160.76 1486.45 L2232.76 1486.45 L2232.76 1417.91 L2160.76 1417.91  Z
  " fill="#000003" fill-rule="evenodd" fill-opacity="1"/>
<path clip-path="url(#clip013)" d="
M2160.76 1417.91 L2232.76 1417.91 L2232.76 1349.38 L2160.76 1349.38  Z
  " fill="#07051d" fill-rule="evenodd" fill-opacity="1"/>
<path clip-path="url(#clip013)" d="
M2160.76 1349.38 L2232.76 1349.38 L2232.76 1280.85 L2160.76 1280.85  Z
  " fill="#170b3b" fill-rule="evenodd" fill-opacity="1"/>
<path clip-path="url(#clip013)" d="
M2160.76 1280.85 L2232.76 1280.85 L2232.76 1212.31 L2160.76 1212.31  Z
  " fill="#2b0a56" fill-rule="evenodd" fill-opacity="1"/>
<path clip-path="url(#clip013)" d="
M2160.76 1212.31 L2232.76 1212.31 L2232.76 1143.78 L2160.76 1143.78  Z
  " fill="#410967" fill-rule="evenodd" fill-opacity="1"/>
<path clip-path="url(#clip013)" d="
M2160.76 1143.78 L2232.76 1143.78 L2232.76 1075.25 L2160.76 1075.25  Z
  " fill="#570f6d" fill-rule="evenodd" fill-opacity="1"/>
<path clip-path="url(#clip013)" d="
M2160.76 1075.25 L2232.76 1075.25 L2232.76 1006.71 L2160.76 1006.71  Z
  " fill="#6a176e" fill-rule="evenodd" fill-opacity="1"/>
<path clip-path="url(#clip013)" d="
M2160.76 1006.71 L2232.76 1006.71 L2232.76 938.18 L2160.76 938.18  Z
  " fill="#7e1e6c" fill-rule="evenodd" fill-opacity="1"/>
<path clip-path="url(#clip013)" d="
M2160.76 938.18 L2232.76 938.18 L2232.76 869.646 L2160.76 869.646  Z
  " fill="#932567" fill-rule="evenodd" fill-opacity="1"/>
<path clip-path="url(#clip013)" d="
M2160.76 869.646 L2232.76 869.646 L2232.76 801.113 L2160.76 801.113  Z
  " fill="#a72d5f" fill-rule="evenodd" fill-opacity="1"/>
<path clip-path="url(#clip013)" d="
M2160.76 801.113 L2232.76 801.113 L2232.76 732.579 L2160.76 732.579  Z
  " fill="#bb3754" fill-rule="evenodd" fill-opacity="1"/>
<path clip-path="url(#clip013)" d="
M2160.76 732.579 L2232.76 732.579 L2232.76 664.046 L2160.76 664.046  Z
  " fill="#cc4148" fill-rule="evenodd" fill-opacity="1"/>
<path clip-path="url(#clip013)" d="
M2160.76 664.046 L2232.76 664.046 L2232.76 595.512 L2160.76 595.512  Z
  " fill="#dc5039" fill-rule="evenodd" fill-opacity="1"/>
<path clip-path="url(#clip013)" d="
M2160.76 595.512 L2232.76 595.512 L2232.76 526.979 L2160.76 526.979  Z
  " fill="#e9622a" fill-rule="evenodd" fill-opacity="1"/>
<path clip-path="url(#clip013)" d="
M2160.76 526.979 L2232.76 526.979 L2232.76 458.445 L2160.76 458.445  Z
  " fill="#f2751a" fill-rule="evenodd" fill-opacity="1"/>
<path clip-path="url(#clip013)" d="
M2160.76 458.445 L2232.76 458.445 L2232.76 389.912 L2160.76 389.912  Z
  " fill="#f98c09" fill-rule="evenodd" fill-opacity="1"/>
<path clip-path="url(#clip013)" d="
M2160.76 389.912 L2232.76 389.912 L2232.76 321.378 L2160.76 321.378  Z
  " fill="#fba40a" fill-rule="evenodd" fill-opacity="1"/>
<path clip-path="url(#clip013)" d="
M2160.76 321.378 L2232.76 321.378 L2232.76 252.845 L2160.76 252.845  Z
  " fill="#fabd23" fill-rule="evenodd" fill-opacity="1"/>
<path clip-path="url(#clip013)" d="
M2160.76 252.845 L2232.76 252.845 L2232.76 184.311 L2160.76 184.311  Z
  " fill="#f5d745" fill-rule="evenodd" fill-opacity="1"/>
<path clip-path="url(#clip013)" d="
M2160.76 184.311 L2232.76 184.311 L2232.76 115.778 L2160.76 115.778  Z
  " fill="#f1ed70" fill-rule="evenodd" fill-opacity="1"/>
<path clip-path="url(#clip013)" d="
M2160.76 115.778 L2232.76 115.778 L2232.76 47.2441 L2160.76 47.2441  Z
  " fill="#fcfea4" fill-rule="evenodd" fill-opacity="1"/>
<path clip-path="url(#clip010)" d="M 0 0 M2280.7 1468.62 Q2277.09 1468.62 2275.26 1472.18 Q2273.45 1475.72 2273.45 1482.85 Q2273.45 1489.96 2275.26 1493.53 Q2277.09 1497.07 2280.7 1497.07 Q2284.33 1497.07 2286.14 1493.53 Q2287.97 1489.96 2287.97 1482.85 Q2287.97 1475.72 2286.14 1472.18 Q2284.33 1468.62 2280.7 1468.62 M2280.7 1464.91 Q2286.51 1464.91 2289.57 1469.52 Q2292.64 1474.1 2292.64 1482.85 Q2292.64 1491.58 2289.57 1496.19 Q2286.51 1500.77 2280.7 1500.77 Q2274.89 1500.77 2271.81 1496.19 Q2268.76 1491.58 2268.76 1482.85 Q2268.76 1474.1 2271.81 1469.52 Q2274.89 1464.91 2280.7 1464.91 Z" fill="#000000" fill-rule="evenodd" fill-opacity="1" /><path clip-path="url(#clip010)" d="M 0 0 M2269.43 1330.36 L2277.07 1330.36 L2277.07 1303.99 L2268.76 1305.66 L2268.76 1301.4 L2277.02 1299.73 L2281.7 1299.73 L2281.7 1330.36 L2289.33 1330.36 L2289.33 1334.29 L2269.43 1334.29 L2269.43 1330.36 Z" fill="#000000" fill-rule="evenodd" fill-opacity="1" /><path clip-path="url(#clip010)" d="M 0 0 M2274.38 1164.55 L2290.7 1164.55 L2290.7 1168.49 L2268.76 1168.49 L2268.76 1164.55 Q2271.42 1161.8 2276 1157.17 Q2280.61 1152.51 2281.79 1151.17 Q2284.03 1148.65 2284.91 1146.91 Q2285.82 1145.15 2285.82 1143.46 Q2285.82 1140.71 2283.87 1138.97 Q2281.95 1137.24 2278.85 1137.24 Q2276.65 1137.24 2274.2 1138 Q2271.77 1138.76 2268.99 1140.31 L2268.99 1135.59 Q2271.81 1134.46 2274.27 1133.88 Q2276.72 1133.3 2278.76 1133.3 Q2284.13 1133.3 2287.32 1135.99 Q2290.52 1138.67 2290.52 1143.16 Q2290.52 1145.29 2289.7 1147.21 Q2288.92 1149.11 2286.81 1151.7 Q2286.23 1152.37 2283.13 1155.59 Q2280.03 1158.79 2274.38 1164.55 Z" fill="#000000" fill-rule="evenodd" fill-opacity="1" /><path clip-path="url(#clip010)" d="M 0 0 M2284.38 984.044 Q2287.74 984.762 2289.61 987.03 Q2291.51 989.299 2291.51 992.632 Q2291.51 997.748 2287.99 1000.55 Q2284.47 1003.35 2277.99 1003.35 Q2275.82 1003.35 2273.5 1002.91 Q2271.21 1002.49 2268.76 1001.64 L2268.76 997.123 Q2270.7 998.257 2273.02 998.836 Q2275.33 999.415 2277.85 999.415 Q2282.25 999.415 2284.54 997.678 Q2286.86 995.942 2286.86 992.632 Q2286.86 989.577 2284.7 987.864 Q2282.58 986.128 2278.76 986.128 L2274.73 986.128 L2274.73 982.285 L2278.94 982.285 Q2282.39 982.285 2284.22 980.919 Q2286.05 979.53 2286.05 976.938 Q2286.05 974.276 2284.15 972.864 Q2282.27 971.429 2278.76 971.429 Q2276.83 971.429 2274.64 971.845 Q2272.44 972.262 2269.8 973.142 L2269.8 968.975 Q2272.46 968.234 2274.77 967.864 Q2277.11 967.493 2279.17 967.493 Q2284.5 967.493 2287.6 969.924 Q2290.7 972.331 2290.7 976.452 Q2290.7 979.322 2289.06 981.313 Q2287.41 983.28 2284.38 984.044 Z" fill="#000000" fill-rule="evenodd" fill-opacity="1" /><path clip-path="url(#clip010)" d="M 0 0 M2284.36 806.386 L2272.55 824.835 L2284.36 824.835 L2284.36 806.386 M2283.13 802.312 L2289.01 802.312 L2289.01 824.835 L2293.94 824.835 L2293.94 828.723 L2289.01 828.723 L2289.01 836.872 L2284.36 836.872 L2284.36 828.723 L2268.76 828.723 L2268.76 824.21 L2283.13 802.312 Z" fill="#000000" fill-rule="evenodd" fill-opacity="1" /><path clip-path="url(#clip010)" d="M 0 0 M2270.21 636.505 L2288.57 636.505 L2288.57 640.44 L2274.5 640.44 L2274.5 648.912 Q2275.52 648.565 2276.53 648.403 Q2277.55 648.218 2278.57 648.218 Q2284.36 648.218 2287.74 651.389 Q2291.12 654.56 2291.12 659.977 Q2291.12 665.555 2287.64 668.657 Q2284.17 671.736 2277.85 671.736 Q2275.68 671.736 2273.41 671.366 Q2271.16 670.995 2268.76 670.254 L2268.76 665.555 Q2270.84 666.69 2273.06 667.245 Q2275.28 667.801 2277.76 667.801 Q2281.77 667.801 2284.1 665.694 Q2286.44 663.588 2286.44 659.977 Q2286.44 656.366 2284.1 654.259 Q2281.77 652.153 2277.76 652.153 Q2275.89 652.153 2274.01 652.569 Q2272.16 652.986 2270.21 653.866 L2270.21 636.505 Z" fill="#000000" fill-rule="evenodd" fill-opacity="1" /><path clip-path="url(#clip010)" d="M 0 0 M2281.09 486.114 Q2277.95 486.114 2276.09 488.267 Q2274.27 490.42 2274.27 494.17 Q2274.27 497.897 2276.09 500.073 Q2277.95 502.225 2281.09 502.225 Q2284.24 502.225 2286.07 500.073 Q2287.92 497.897 2287.92 494.17 Q2287.92 490.42 2286.07 488.267 Q2284.24 486.114 2281.09 486.114 M2290.38 471.462 L2290.38 475.721 Q2288.62 474.888 2286.81 474.448 Q2285.03 474.008 2283.27 474.008 Q2278.64 474.008 2276.19 477.133 Q2273.76 480.258 2273.41 486.577 Q2274.77 484.563 2276.83 483.499 Q2278.89 482.411 2281.37 482.411 Q2286.58 482.411 2289.59 485.582 Q2292.62 488.73 2292.62 494.17 Q2292.62 499.494 2289.47 502.711 Q2286.33 505.929 2281.09 505.929 Q2275.1 505.929 2271.93 501.346 Q2268.76 496.739 2268.76 488.012 Q2268.76 479.818 2272.64 474.957 Q2276.53 470.073 2283.08 470.073 Q2284.84 470.073 2286.63 470.42 Q2288.43 470.767 2290.38 471.462 Z" fill="#000000" fill-rule="evenodd" fill-opacity="1" /><path clip-path="url(#clip010)" d="M 0 0 M2268.76 304.891 L2290.98 304.891 L2290.98 306.882 L2278.43 339.451 L2273.55 339.451 L2285.35 308.826 L2268.76 308.826 L2268.76 304.891 Z" fill="#000000" fill-rule="evenodd" fill-opacity="1" /><path clip-path="url(#clip010)" d="M 0 0 M2280.61 157.232 Q2277.27 157.232 2275.35 159.014 Q2273.45 160.797 2273.45 163.922 Q2273.45 167.047 2275.35 168.829 Q2277.27 170.612 2280.61 170.612 Q2283.94 170.612 2285.86 168.829 Q2287.78 167.024 2287.78 163.922 Q2287.78 160.797 2285.86 159.014 Q2283.96 157.232 2280.61 157.232 M2275.93 155.241 Q2272.92 154.501 2271.23 152.44 Q2269.57 150.38 2269.57 147.417 Q2269.57 143.274 2272.51 140.866 Q2275.47 138.459 2280.61 138.459 Q2285.77 138.459 2288.71 140.866 Q2291.65 143.274 2291.65 147.417 Q2291.65 150.38 2289.96 152.44 Q2288.29 154.501 2285.31 155.241 Q2288.69 156.028 2290.56 158.32 Q2292.46 160.612 2292.46 163.922 Q2292.46 168.945 2289.38 171.63 Q2286.33 174.315 2280.61 174.315 Q2274.89 174.315 2271.81 171.63 Q2268.76 168.945 2268.76 163.922 Q2268.76 160.612 2270.65 158.32 Q2272.55 156.028 2275.93 155.241 M2274.22 147.857 Q2274.22 150.542 2275.89 152.047 Q2277.58 153.551 2280.61 153.551 Q2283.62 153.551 2285.31 152.047 Q2287.02 150.542 2287.02 147.857 Q2287.02 145.172 2285.31 143.667 Q2283.62 142.163 2280.61 142.163 Q2277.58 142.163 2275.89 143.667 Q2274.22 145.172 2274.22 147.857 Z" fill="#000000" fill-rule="evenodd" fill-opacity="1" /><polyline clip-path="url(#clip010)" style="stroke:#000000; stroke-width:4; stroke-opacity:1; fill:none" points="
  2232.76,1486.45 2232.76,1486.45 2256.76,1486.45 2232.76,1486.45 2232.76,1320.64 2256.76,1320.64 2232.76,1320.64 2232.76,1154.83 2256.76,1154.83 2232.76,1154.83 
  2232.76,989.027 2256.76,989.027 2232.76,989.027 2232.76,823.22 2256.76,823.22 2232.76,823.22 2232.76,657.413 2256.76,657.413 2232.76,657.413 2232.76,491.607 
  2256.76,491.607 2232.76,491.607 2232.76,325.8 2256.76,325.8 2232.76,325.8 2232.76,159.993 2256.76,159.993 2232.76,159.993 2232.76,47.2441 
  "/>
</svg>
