<?xml version="1.0" encoding="utf-8"?>
<svg xmlns="http://www.w3.org/2000/svg" xmlns:xlink="http://www.w3.org/1999/xlink" width="600" height="400" viewBox="0 0 2400 1600">
<defs>
  <clipPath id="clip070">
    <rect x="0" y="0" width="2400" height="1600"/>
  </clipPath>
</defs>
<path clip-path="url(#clip070)" d="
M0 1600 L2400 1600 L2400 0 L0 0  Z
  " fill="#ffffff" fill-rule="evenodd" fill-opacity="1"/>
<defs>
  <clipPath id="clip071">
    <rect x="480" y="0" width="1681" height="1600"/>
  </clipPath>
</defs>
<path clip-path="url(#clip070)" d="
M139.191 1486.45 L2112.76 1486.45 L2112.76 47.2441 L139.191 47.2441  Z
  " fill="#ffffff" fill-rule="evenodd" fill-opacity="1"/>
<defs>
  <clipPath id="clip072">
    <rect x="139" y="47" width="1975" height="1440"/>
  </clipPath>
</defs>
<polyline clip-path="url(#clip072)" style="stroke:#000000; stroke-width:2; stroke-opacity:0.1; fill:none" points="
  139.191,1486.45 139.191,47.2441 
  "/>
<polyline clip-path="url(#clip072)" style="stroke:#000000; stroke-width:2; stroke-opacity:0.1; fill:none" points="
  533.904,1486.45 533.904,47.2441 
  "/>
<polyline clip-path="url(#clip072)" style="stroke:#000000; stroke-width:2; stroke-opacity:0.1; fill:none" points="
  928.617,1486.45 928.617,47.2441 
  "/>
<polyline clip-path="url(#clip072)" style="stroke:#000000; stroke-width:2; stroke-opacity:0.1; fill:none" points="
  1323.33,1486.45 1323.33,47.2441 
  "/>
<polyline clip-path="url(#clip072)" style="stroke:#000000; stroke-width:2; stroke-opacity:0.1; fill:none" points="
  1718.04,1486.45 1718.04,47.2441 
  "/>
<polyline clip-path="url(#clip072)" style="stroke:#000000; stroke-width:2; stroke-opacity:0.1; fill:none" points="
  2112.76,1486.45 2112.76,47.2441 
  "/>
<polyline clip-path="url(#clip072)" style="stroke:#000000; stroke-width:2; stroke-opacity:0.1; fill:none" points="
  139.191,1486.45 2112.76,1486.45 
  "/>
<polyline clip-path="url(#clip072)" style="stroke:#000000; stroke-width:2; stroke-opacity:0.1; fill:none" points="
  139.191,1198.61 2112.76,1198.61 
  "/>
<polyline clip-path="url(#clip072)" style="stroke:#000000; stroke-width:2; stroke-opacity:0.1; fill:none" points="
  139.191,910.766 2112.76,910.766 
  "/>
<polyline clip-path="url(#clip072)" style="stroke:#000000; stroke-width:2; stroke-opacity:0.1; fill:none" points="
  139.191,622.926 2112.76,622.926 
  "/>
<polyline clip-path="url(#clip072)" style="stroke:#000000; stroke-width:2; stroke-opacity:0.1; fill:none" points="
  139.191,335.085 2112.76,335.085 
  "/>
<polyline clip-path="url(#clip072)" style="stroke:#000000; stroke-width:2; stroke-opacity:0.1; fill:none" points="
  139.191,47.2441 2112.76,47.2441 
  "/>
<polyline clip-path="url(#clip070)" style="stroke:#000000; stroke-width:4; stroke-opacity:1; fill:none" points="
  139.191,1486.45 2112.76,1486.45 
  "/>
<polyline clip-path="url(#clip070)" style="stroke:#000000; stroke-width:4; stroke-opacity:1; fill:none" points="
  139.191,1486.45 139.191,47.2441 
  "/>
<polyline clip-path="url(#clip070)" style="stroke:#000000; stroke-width:4; stroke-opacity:1; fill:none" points="
  139.191,1486.45 139.191,1469.18 
  "/>
<polyline clip-path="url(#clip070)" style="stroke:#000000; stroke-width:4; stroke-opacity:1; fill:none" points="
  533.904,1486.45 533.904,1469.18 
  "/>
<polyline clip-path="url(#clip070)" style="stroke:#000000; stroke-width:4; stroke-opacity:1; fill:none" points="
  928.617,1486.45 928.617,1469.18 
  "/>
<polyline clip-path="url(#clip070)" style="stroke:#000000; stroke-width:4; stroke-opacity:1; fill:none" points="
  1323.33,1486.45 1323.33,1469.18 
  "/>
<polyline clip-path="url(#clip070)" style="stroke:#000000; stroke-width:4; stroke-opacity:1; fill:none" points="
  1718.04,1486.45 1718.04,1469.18 
  "/>
<polyline clip-path="url(#clip070)" style="stroke:#000000; stroke-width:4; stroke-opacity:1; fill:none" points="
  2112.76,1486.45 2112.76,1469.18 
  "/>
<polyline clip-path="url(#clip070)" style="stroke:#000000; stroke-width:4; stroke-opacity:1; fill:none" points="
  139.191,1486.45 162.874,1486.45 
  "/>
<polyline clip-path="url(#clip070)" style="stroke:#000000; stroke-width:4; stroke-opacity:1; fill:none" points="
  139.191,1198.61 162.874,1198.61 
  "/>
<polyline clip-path="url(#clip070)" style="stroke:#000000; stroke-width:4; stroke-opacity:1; fill:none" points="
  139.191,910.766 162.874,910.766 
  "/>
<polyline clip-path="url(#clip070)" style="stroke:#000000; stroke-width:4; stroke-opacity:1; fill:none" points="
  139.191,622.926 162.874,622.926 
  "/>
<polyline clip-path="url(#clip070)" style="stroke:#000000; stroke-width:4; stroke-opacity:1; fill:none" points="
  139.191,335.085 162.874,335.085 
  "/>
<polyline clip-path="url(#clip070)" style="stroke:#000000; stroke-width:4; stroke-opacity:1; fill:none" points="
  139.191,47.2441 162.874,47.2441 
  "/>
<path clip-path="url(#clip070)" d="M 0 0 M139.191 1508.44 Q135.58 1508.44 133.751 1512 Q131.946 1515.55 131.946 1522.67 Q131.946 1529.78 133.751 1533.35 Q135.58 1536.89 139.191 1536.89 Q142.825 1536.89 144.631 1533.35 Q146.459 1529.78 146.459 1522.67 Q146.459 1515.55 144.631 1512 Q142.825 1508.44 139.191 1508.44 M139.191 1504.73 Q145.001 1504.73 148.057 1509.34 Q151.135 1513.92 151.135 1522.67 Q151.135 1531.4 148.057 1536.01 Q145.001 1540.59 139.191 1540.59 Q133.381 1540.59 130.302 1536.01 Q127.247 1531.4 127.247 1522.67 Q127.247 1513.92 130.302 1509.34 Q133.381 1504.73 139.191 1504.73 Z" fill="#000000" fill-rule="evenodd" fill-opacity="1" /><path clip-path="url(#clip070)" d="M 0 0 M510.779 1535.98 L518.418 1535.98 L518.418 1509.62 L510.108 1511.29 L510.108 1507.03 L518.372 1505.36 L523.047 1505.36 L523.047 1535.98 L530.686 1535.98 L530.686 1539.92 L510.779 1539.92 L510.779 1535.98 Z" fill="#000000" fill-rule="evenodd" fill-opacity="1" /><path clip-path="url(#clip070)" d="M 0 0 M545.756 1508.44 Q542.145 1508.44 540.316 1512 Q538.51 1515.55 538.51 1522.67 Q538.51 1529.78 540.316 1533.35 Q542.145 1536.89 545.756 1536.89 Q549.39 1536.89 551.195 1533.35 Q553.024 1529.78 553.024 1522.67 Q553.024 1515.55 551.195 1512 Q549.39 1508.44 545.756 1508.44 M545.756 1504.73 Q551.566 1504.73 554.621 1509.34 Q557.7 1513.92 557.7 1522.67 Q557.7 1531.4 554.621 1536.01 Q551.566 1540.59 545.756 1540.59 Q539.946 1540.59 536.867 1536.01 Q533.811 1531.4 533.811 1522.67 Q533.811 1513.92 536.867 1509.34 Q539.946 1504.73 545.756 1504.73 Z" fill="#000000" fill-rule="evenodd" fill-opacity="1" /><path clip-path="url(#clip070)" d="M 0 0 M909.763 1535.98 L926.082 1535.98 L926.082 1539.92 L904.138 1539.92 L904.138 1535.98 Q906.8 1533.23 911.383 1528.6 Q915.99 1523.95 917.17 1522.61 Q919.416 1520.08 920.295 1518.35 Q921.198 1516.59 921.198 1514.9 Q921.198 1512.14 919.254 1510.41 Q917.332 1508.67 914.23 1508.67 Q912.031 1508.67 909.578 1509.43 Q907.147 1510.2 904.369 1511.75 L904.369 1507.03 Q907.193 1505.89 909.647 1505.31 Q912.101 1504.73 914.138 1504.73 Q919.508 1504.73 922.703 1507.42 Q925.897 1510.11 925.897 1514.6 Q925.897 1516.73 925.087 1518.65 Q924.3 1520.54 922.193 1523.14 Q921.615 1523.81 918.513 1527.03 Q915.411 1530.22 909.763 1535.98 Z" fill="#000000" fill-rule="evenodd" fill-opacity="1" /><path clip-path="url(#clip070)" d="M 0 0 M941.152 1508.44 Q937.54 1508.44 935.712 1512 Q933.906 1515.55 933.906 1522.67 Q933.906 1529.78 935.712 1533.35 Q937.54 1536.89 941.152 1536.89 Q944.786 1536.89 946.591 1533.35 Q948.42 1529.78 948.42 1522.67 Q948.42 1515.55 946.591 1512 Q944.786 1508.44 941.152 1508.44 M941.152 1504.73 Q946.962 1504.73 950.017 1509.34 Q953.096 1513.92 953.096 1522.67 Q953.096 1531.4 950.017 1536.01 Q946.962 1540.59 941.152 1540.59 Q935.341 1540.59 932.263 1536.01 Q929.207 1531.4 929.207 1522.67 Q929.207 1513.92 932.263 1509.34 Q935.341 1504.73 941.152 1504.73 Z" fill="#000000" fill-rule="evenodd" fill-opacity="1" /><path clip-path="url(#clip070)" d="M 0 0 M1314.07 1521.29 Q1317.43 1522 1319.3 1524.27 Q1321.2 1526.54 1321.2 1529.87 Q1321.2 1534.99 1317.68 1537.79 Q1314.16 1540.59 1307.68 1540.59 Q1305.51 1540.59 1303.19 1540.15 Q1300.9 1539.73 1298.45 1538.88 L1298.45 1534.36 Q1300.39 1535.5 1302.71 1536.08 Q1305.02 1536.66 1307.54 1536.66 Q1311.94 1536.66 1314.23 1534.92 Q1316.55 1533.18 1316.55 1529.87 Q1316.55 1526.82 1314.39 1525.11 Q1312.27 1523.37 1308.45 1523.37 L1304.42 1523.37 L1304.42 1519.53 L1308.63 1519.53 Q1312.08 1519.53 1313.91 1518.16 Q1315.74 1516.77 1315.74 1514.18 Q1315.74 1511.52 1313.84 1510.11 Q1311.96 1508.67 1308.45 1508.67 Q1306.52 1508.67 1304.33 1509.09 Q1302.13 1509.5 1299.49 1510.38 L1299.49 1506.22 Q1302.15 1505.48 1304.46 1505.11 Q1306.8 1504.73 1308.86 1504.73 Q1314.19 1504.73 1317.29 1507.17 Q1320.39 1509.57 1320.39 1513.69 Q1320.39 1516.56 1318.75 1518.55 Q1317.1 1520.52 1314.07 1521.29 Z" fill="#000000" fill-rule="evenodd" fill-opacity="1" /><path clip-path="url(#clip070)" d="M 0 0 M1336.27 1508.44 Q1332.66 1508.44 1330.83 1512 Q1329.02 1515.55 1329.02 1522.67 Q1329.02 1529.78 1330.83 1533.35 Q1332.66 1536.89 1336.27 1536.89 Q1339.9 1536.89 1341.71 1533.35 Q1343.54 1529.78 1343.54 1522.67 Q1343.54 1515.55 1341.71 1512 Q1339.9 1508.44 1336.27 1508.44 M1336.27 1504.73 Q1342.08 1504.73 1345.14 1509.34 Q1348.21 1513.92 1348.21 1522.67 Q1348.21 1531.4 1345.14 1536.01 Q1342.08 1540.59 1336.27 1540.59 Q1330.46 1540.59 1327.38 1536.01 Q1324.33 1531.4 1324.33 1522.67 Q1324.33 1513.92 1327.38 1509.34 Q1330.46 1504.73 1336.27 1504.73 Z" fill="#000000" fill-rule="evenodd" fill-opacity="1" /><path clip-path="url(#clip070)" d="M 0 0 M1707.55 1509.43 L1695.74 1527.88 L1707.55 1527.88 L1707.55 1509.43 M1706.32 1505.36 L1712.2 1505.36 L1712.2 1527.88 L1717.13 1527.88 L1717.13 1531.77 L1712.2 1531.77 L1712.2 1539.92 L1707.55 1539.92 L1707.55 1531.77 L1691.94 1531.77 L1691.94 1527.26 L1706.32 1505.36 Z" fill="#000000" fill-rule="evenodd" fill-opacity="1" /><path clip-path="url(#clip070)" d="M 0 0 M1732.2 1508.44 Q1728.59 1508.44 1726.76 1512 Q1724.95 1515.55 1724.95 1522.67 Q1724.95 1529.78 1726.76 1533.35 Q1728.59 1536.89 1732.2 1536.89 Q1735.83 1536.89 1737.64 1533.35 Q1739.47 1529.78 1739.47 1522.67 Q1739.47 1515.55 1737.64 1512 Q1735.83 1508.44 1732.2 1508.44 M1732.2 1504.73 Q1738.01 1504.73 1741.06 1509.34 Q1744.14 1513.92 1744.14 1522.67 Q1744.14 1531.4 1741.06 1536.01 Q1738.01 1540.59 1732.2 1540.59 Q1726.39 1540.59 1723.31 1536.01 Q1720.25 1531.4 1720.25 1522.67 Q1720.25 1513.92 1723.31 1509.34 Q1726.39 1504.73 1732.2 1504.73 Z" fill="#000000" fill-rule="evenodd" fill-opacity="1" /><path clip-path="url(#clip070)" d="M 0 0 M2089.53 1505.36 L2107.88 1505.36 L2107.88 1509.3 L2093.81 1509.3 L2093.81 1517.77 Q2094.83 1517.42 2095.85 1517.26 Q2096.86 1517.07 2097.88 1517.07 Q2103.67 1517.07 2107.05 1520.24 Q2110.43 1523.42 2110.43 1528.83 Q2110.43 1534.41 2106.96 1537.51 Q2103.49 1540.59 2097.17 1540.59 Q2094.99 1540.59 2092.72 1540.22 Q2090.48 1539.85 2088.07 1539.11 L2088.07 1534.41 Q2090.15 1535.54 2092.37 1536.1 Q2094.6 1536.66 2097.07 1536.66 Q2101.08 1536.66 2103.42 1534.55 Q2105.75 1532.44 2105.75 1528.83 Q2105.75 1525.22 2103.42 1523.11 Q2101.08 1521.01 2097.07 1521.01 Q2095.2 1521.01 2093.32 1521.42 Q2091.47 1521.84 2089.53 1522.72 L2089.53 1505.36 Z" fill="#000000" fill-rule="evenodd" fill-opacity="1" /><path clip-path="url(#clip070)" d="M 0 0 M2125.5 1508.44 Q2121.89 1508.44 2120.06 1512 Q2118.25 1515.55 2118.25 1522.67 Q2118.25 1529.78 2120.06 1533.35 Q2121.89 1536.89 2125.5 1536.89 Q2129.13 1536.89 2130.94 1533.35 Q2132.77 1529.78 2132.77 1522.67 Q2132.77 1515.55 2130.94 1512 Q2129.13 1508.44 2125.5 1508.44 M2125.5 1504.73 Q2131.31 1504.73 2134.36 1509.34 Q2137.44 1513.92 2137.44 1522.67 Q2137.44 1531.4 2134.36 1536.01 Q2131.31 1540.59 2125.5 1540.59 Q2119.69 1540.59 2116.61 1536.01 Q2113.55 1531.4 2113.55 1522.67 Q2113.55 1513.92 2116.61 1509.34 Q2119.69 1504.73 2125.5 1504.73 Z" fill="#000000" fill-rule="evenodd" fill-opacity="1" /><path clip-path="url(#clip070)" d="M 0 0 M103.247 1472.25 Q99.6354 1472.25 97.8068 1475.81 Q96.0012 1479.35 96.0012 1486.48 Q96.0012 1493.59 97.8068 1497.15 Q99.6354 1500.7 103.247 1500.7 Q106.881 1500.7 108.686 1497.15 Q110.515 1493.59 110.515 1486.48 Q110.515 1479.35 108.686 1475.81 Q106.881 1472.25 103.247 1472.25 M103.247 1468.54 Q109.057 1468.54 112.112 1473.15 Q115.191 1477.73 115.191 1486.48 Q115.191 1495.21 112.112 1499.82 Q109.057 1504.4 103.247 1504.4 Q97.4364 1504.4 94.3577 1499.82 Q91.3022 1495.21 91.3022 1486.48 Q91.3022 1477.73 94.3577 1473.15 Q97.4364 1468.54 103.247 1468.54 Z" fill="#000000" fill-rule="evenodd" fill-opacity="1" /><path clip-path="url(#clip070)" d="M 0 0 M68.2699 1211.95 L75.9087 1211.95 L75.9087 1185.59 L67.5986 1187.25 L67.5986 1182.99 L75.8624 1181.33 L80.5383 1181.33 L80.5383 1211.95 L88.1772 1211.95 L88.1772 1215.89 L68.2699 1215.89 L68.2699 1211.95 Z" fill="#000000" fill-rule="evenodd" fill-opacity="1" /><path clip-path="url(#clip070)" d="M 0 0 M103.247 1184.41 Q99.6354 1184.41 97.8068 1187.97 Q96.0012 1191.51 96.0012 1198.64 Q96.0012 1205.75 97.8068 1209.31 Q99.6354 1212.85 103.247 1212.85 Q106.881 1212.85 108.686 1209.31 Q110.515 1205.75 110.515 1198.64 Q110.515 1191.51 108.686 1187.97 Q106.881 1184.41 103.247 1184.41 M103.247 1180.7 Q109.057 1180.7 112.112 1185.31 Q115.191 1189.89 115.191 1198.64 Q115.191 1207.37 112.112 1211.98 Q109.057 1216.56 103.247 1216.56 Q97.4364 1216.56 94.3577 1211.98 Q91.3022 1207.37 91.3022 1198.64 Q91.3022 1189.89 94.3577 1185.31 Q97.4364 1180.7 103.247 1180.7 Z" fill="#000000" fill-rule="evenodd" fill-opacity="1" /><path clip-path="url(#clip070)" d="M 0 0 M71.8578 924.111 L88.1772 924.111 L88.1772 928.046 L66.2328 928.046 L66.2328 924.111 Q68.8949 921.357 73.4782 916.727 Q78.0846 912.074 79.2652 910.732 Q81.5105 908.209 82.3902 906.472 Q83.2929 904.713 83.2929 903.023 Q83.2929 900.269 81.3485 898.533 Q79.4272 896.797 76.3254 896.797 Q74.1263 896.797 71.6726 897.56 Q69.2421 898.324 66.4643 899.875 L66.4643 895.153 Q69.2884 894.019 71.7421 893.44 Q74.1958 892.861 76.2328 892.861 Q81.6031 892.861 84.7976 895.547 Q87.992 898.232 87.992 902.722 Q87.992 904.852 87.1818 906.773 Q86.3948 908.671 84.2883 911.264 Q83.7096 911.935 80.6078 915.153 Q77.5059 918.347 71.8578 924.111 Z" fill="#000000" fill-rule="evenodd" fill-opacity="1" /><path clip-path="url(#clip070)" d="M 0 0 M103.247 896.565 Q99.6354 896.565 97.8068 900.13 Q96.0012 903.671 96.0012 910.801 Q96.0012 917.908 97.8068 921.472 Q99.6354 925.014 103.247 925.014 Q106.881 925.014 108.686 921.472 Q110.515 917.908 110.515 910.801 Q110.515 903.671 108.686 900.13 Q106.881 896.565 103.247 896.565 M103.247 892.861 Q109.057 892.861 112.112 897.468 Q115.191 902.051 115.191 910.801 Q115.191 919.528 112.112 924.134 Q109.057 928.718 103.247 928.718 Q97.4364 928.718 94.3577 924.134 Q91.3022 919.528 91.3022 910.801 Q91.3022 902.051 94.3577 897.468 Q97.4364 892.861 103.247 892.861 Z" fill="#000000" fill-rule="evenodd" fill-opacity="1" /><path clip-path="url(#clip070)" d="M 0 0 M81.0476 621.571 Q84.404 622.289 86.279 624.558 Q88.1772 626.826 88.1772 630.159 Q88.1772 635.275 84.6587 638.076 Q81.1402 640.877 74.6587 640.877 Q72.4828 640.877 70.168 640.437 Q67.8764 640.02 65.4227 639.164 L65.4227 634.65 Q67.3671 635.784 69.6819 636.363 Q71.9967 636.942 74.5198 636.942 Q78.918 636.942 81.2096 635.206 Q83.5244 633.47 83.5244 630.159 Q83.5244 627.104 81.3717 625.391 Q79.242 623.655 75.4226 623.655 L71.3949 623.655 L71.3949 619.812 L75.6078 619.812 Q79.0569 619.812 80.8855 618.446 Q82.7142 617.058 82.7142 614.465 Q82.7142 611.803 80.8161 610.391 Q78.9411 608.956 75.4226 608.956 Q73.5013 608.956 71.3023 609.372 Q69.1032 609.789 66.4643 610.669 L66.4643 606.502 Q69.1264 605.761 71.4412 605.391 Q73.7791 605.021 75.8393 605.021 Q81.1633 605.021 84.2652 607.451 Q87.367 609.859 87.367 613.979 Q87.367 616.849 85.7235 618.84 Q84.08 620.808 81.0476 621.571 Z" fill="#000000" fill-rule="evenodd" fill-opacity="1" /><path clip-path="url(#clip070)" d="M 0 0 M103.247 608.724 Q99.6354 608.724 97.8068 612.289 Q96.0012 615.831 96.0012 622.96 Q96.0012 630.067 97.8068 633.632 Q99.6354 637.173 103.247 637.173 Q106.881 637.173 108.686 633.632 Q110.515 630.067 110.515 622.96 Q110.515 615.831 108.686 612.289 Q106.881 608.724 103.247 608.724 M103.247 605.021 Q109.057 605.021 112.112 609.627 Q115.191 614.21 115.191 622.96 Q115.191 631.687 112.112 636.294 Q109.057 640.877 103.247 640.877 Q97.4364 640.877 94.3577 636.294 Q91.3022 631.687 91.3022 622.96 Q91.3022 614.21 94.3577 609.627 Q97.4364 605.021 103.247 605.021 Z" fill="#000000" fill-rule="evenodd" fill-opacity="1" /><path clip-path="url(#clip070)" d="M 0 0 M78.5939 321.879 L66.7884 340.328 L78.5939 340.328 L78.5939 321.879 M77.367 317.805 L83.2466 317.805 L83.2466 340.328 L88.1772 340.328 L88.1772 344.217 L83.2466 344.217 L83.2466 352.365 L78.5939 352.365 L78.5939 344.217 L62.9921 344.217 L62.9921 339.703 L77.367 317.805 Z" fill="#000000" fill-rule="evenodd" fill-opacity="1" /><path clip-path="url(#clip070)" d="M 0 0 M103.247 320.884 Q99.6354 320.884 97.8068 324.448 Q96.0012 327.99 96.0012 335.12 Q96.0012 342.226 97.8068 345.791 Q99.6354 349.332 103.247 349.332 Q106.881 349.332 108.686 345.791 Q110.515 342.226 110.515 335.12 Q110.515 327.99 108.686 324.448 Q106.881 320.884 103.247 320.884 M103.247 317.18 Q109.057 317.18 112.112 321.786 Q115.191 326.37 115.191 335.12 Q115.191 343.846 112.112 348.453 Q109.057 353.036 103.247 353.036 Q97.4364 353.036 94.3577 348.453 Q91.3022 343.846 91.3022 335.12 Q91.3022 326.37 94.3577 321.786 Q97.4364 317.18 103.247 317.18 Z" fill="#000000" fill-rule="evenodd" fill-opacity="1" /><path clip-path="url(#clip070)" d="M 0 0 M67.2745 29.9641 L85.6309 29.9641 L85.6309 33.8993 L71.5569 33.8993 L71.5569 42.3714 Q72.5754 42.0242 73.5939 41.8622 Q74.6124 41.677 75.6309 41.677 Q81.418 41.677 84.7976 44.8483 Q88.1772 48.0196 88.1772 53.4362 Q88.1772 59.0149 84.705 62.1167 Q81.2328 65.1954 74.9134 65.1954 Q72.7374 65.1954 70.4689 64.825 Q68.2236 64.4547 65.8162 63.7139 L65.8162 59.0149 Q67.8995 60.1491 70.1217 60.7047 Q72.3439 61.2602 74.8208 61.2602 Q78.8254 61.2602 81.1633 59.1538 Q83.5013 57.0473 83.5013 53.4362 Q83.5013 49.8251 81.1633 47.7186 Q78.8254 45.6122 74.8208 45.6122 Q72.9458 45.6122 71.0708 46.0288 Q69.2189 46.4455 67.2745 47.3251 L67.2745 29.9641 Z" fill="#000000" fill-rule="evenodd" fill-opacity="1" /><path clip-path="url(#clip070)" d="M 0 0 M103.247 33.0428 Q99.6354 33.0428 97.8068 36.6076 Q96.0012 40.1492 96.0012 47.2788 Q96.0012 54.3853 97.8068 57.9501 Q99.6354 61.4917 103.247 61.4917 Q106.881 61.4917 108.686 57.9501 Q110.515 54.3853 110.515 47.2788 Q110.515 40.1492 108.686 36.6076 Q106.881 33.0428 103.247 33.0428 M103.247 29.3391 Q109.057 29.3391 112.112 33.9456 Q115.191 38.5289 115.191 47.2788 Q115.191 56.0056 112.112 60.6121 Q109.057 65.1954 103.247 65.1954 Q97.4364 65.1954 94.3577 60.6121 Q91.3022 56.0056 91.3022 47.2788 Q91.3022 38.5289 94.3577 33.9456 Q97.4364 29.3391 103.247 29.3391 Z" fill="#000000" fill-rule="evenodd" fill-opacity="1" /><path clip-path="url(#clip072)" d="
M139.191 1486.45 L139.191 1486.45 L336.547 1486.45 L533.904 1486.45 L731.26 1486.45 L928.617 1486.45 L1125.97 1486.45 L1323.33 1486.45 L1520.69 1486.45 L1718.04 1486.45 
  L1915.4 1486.45 L2112.76 1486.45 L2112.76 1486.45 L2112.76 1486.45 L2112.76 1486.45 L2112.76 1342.53 L2112.76 1198.61 L2112.76 1054.69 L2112.76 910.766 L2112.76 766.846 
  L2112.76 622.926 L2112.76 479.005 L2112.76 335.085 L2112.76 191.164 L2112.76 47.2441 L2112.76 47.2441 L2112.76 47.2441 L2112.76 47.2441 L1915.4 47.2441 L1718.04 47.2441 
  L1520.69 47.2441 L1323.33 47.2441 L1125.97 47.2441 L928.617 47.2441 L731.26 47.2441 L533.904 47.2441 L336.547 47.2441 L139.191 47.2441 L139.191 47.2441 L139.191 47.2441 
  L139.191 47.2441 L139.191 191.164 L139.191 335.085 L139.191 479.005 L139.191 622.926 L139.191 766.846 L139.191 910.766 L139.191 1054.69 L139.191 1198.61 L139.191 1342.53 
  L139.191 1486.45 L139.191 1486.45 L139.191 1486.45  Z
  " fill="#000003" fill-rule="evenodd" fill-opacity="1"/>
<path clip-path="url(#clip072)" d="
M1323.33 939.064 L1520.69 995.577 L1718.04 1002.81 L1915.4 1011.58 L2112.76 1007.9 L2112.76 1054.69 L2112.76 910.766 L2112.76 766.846 L2112.76 622.926 L2112.76 479.005 
  L2112.76 335.085 L2112.76 191.164 L2112.76 47.2441 L2112.76 47.2441 L2112.76 47.2441 L2112.76 47.2441 L1915.4 47.2441 L1718.04 47.2441 L1520.69 47.2441 L1323.33 47.2441 
  L1125.97 47.2441 L928.617 47.2441 L731.26 47.2441 L756.838 47.2441 L747.608 191.164 L761.822 335.085 L774.967 479.005 L833.608 622.926 L928.617 737.875 L953.95 766.846 
  L1125.97 893.208 L1220.22 910.766 L1323.33 939.064  Z
  " fill="#06041b" fill-rule="evenodd" fill-opacity="1"/>
<path clip-path="url(#clip072)" d="
M1718.04 917.029 L1915.4 931.326 L2112.76 931.746 L2112.76 1054.69 L2112.76 910.766 L2112.76 766.846 L2112.76 622.926 L2112.76 479.005 L2112.76 335.085 L2112.76 191.164 
  L2112.76 47.2441 L2112.76 47.2441 L2112.76 47.2441 L2112.76 47.2441 L1915.4 47.2441 L1718.04 47.2441 L1520.69 47.2441 L1323.33 47.2441 L1125.97 47.2441 L928.617 47.2441 
  L731.26 47.2441 L827.177 47.2441 L833.611 191.164 L843.697 335.085 L864.35 479.005 L928.617 578.379 L953.894 622.926 L1102.27 766.846 L1125.97 784.254 L1323.33 867.777 
  L1520.69 906.654 L1630.14 910.766 L1718.04 917.029  Z
  " fill="#160b39" fill-rule="evenodd" fill-opacity="1"/>
<path clip-path="url(#clip072)" d="
M1323.33 815.586 L1520.69 861.422 L1718.04 874.064 L1915.4 880.921 L2112.76 885.2 L2112.76 910.766 L2112.76 766.846 L2112.76 622.926 L2112.76 479.005 L2112.76 335.085 
  L2112.76 191.164 L2112.76 47.2441 L2112.76 47.2441 L2112.76 47.2441 L2112.76 47.2441 L1915.4 47.2441 L1718.04 47.2441 L1520.69 47.2441 L1323.33 47.2441 L1125.97 47.2441 
  L928.617 47.2441 L731.26 47.2441 L897.517 47.2441 L919.614 191.164 L925.572 335.085 L928.617 351.907 L945.05 479.005 L1032.32 622.926 L1125.97 707.407 L1219.44 766.846 
  L1323.33 815.586  Z
  " fill="#2b0a56" fill-rule="evenodd" fill-opacity="1"/>
<path clip-path="url(#clip072)" d="
M1520.69 816.19 L1718.04 834.471 L1915.4 840.796 L2112.76 849.912 L2112.76 910.766 L2112.76 766.846 L2112.76 622.926 L2112.76 479.005 L2112.76 335.085 L2112.76 191.164 
  L2112.76 47.2441 L2112.76 47.2441 L2112.76 47.2441 L2112.76 47.2441 L1915.4 47.2441 L1718.04 47.2441 L1520.69 47.2441 L1323.33 47.2441 L1125.97 47.2441 L928.617 47.2441 
  L949.492 47.2441 L964.834 191.164 L972.025 335.085 L1003.53 479.005 L1110.74 622.926 L1125.97 636.665 L1323.33 763.819 L1334.61 766.846 L1520.69 816.19  Z
  " fill="#410967" fill-rule="evenodd" fill-opacity="1"/>
<path clip-path="url(#clip072)" d="
M1520.69 770.958 L1718.04 794.877 L1915.4 800.671 L2112.76 814.625 L2112.76 910.766 L2112.76 766.846 L2112.76 622.926 L2112.76 479.005 L2112.76 335.085 L2112.76 191.164 
  L2112.76 47.2441 L2112.76 47.2441 L2112.76 47.2441 L2112.76 47.2441 L1915.4 47.2441 L1718.04 47.2441 L1520.69 47.2441 L1323.33 47.2441 L1125.97 47.2441 L928.617 47.2441 
  L986.912 47.2441 L1005.29 191.164 L1017.11 335.085 L1062.01 479.005 L1125.97 561.872 L1181.14 622.926 L1323.33 718.032 L1505.18 766.846 L1520.69 770.958  Z
  " fill="#550f6d" fill-rule="evenodd" fill-opacity="1"/>
<path clip-path="url(#clip072)" d="
M2112.76 779.338 L2112.76 910.766 L2112.76 766.846 L2112.76 622.926 L2112.76 479.005 L2112.76 335.085 L2112.76 191.164 L2112.76 47.2441 L2112.76 47.2441 L2112.76 47.2441 
  L2112.76 47.2441 L1915.4 47.2441 L1718.04 47.2441 L1520.69 47.2441 L1323.33 47.2441 L1125.97 47.2441 L928.617 47.2441 L1024.33 47.2441 L1045.74 191.164 L1062.2 335.085 
  L1120.5 479.005 L1125.97 486.102 L1249.59 622.926 L1323.33 672.245 L1520.69 732.141 L1718.04 757.245 L1915.4 762.13 L1976.04 766.846 L2112.76 779.338  Z
  " fill="#6a176e" fill-rule="evenodd" fill-opacity="1"/>
<path clip-path="url(#clip072)" d="
M1323.33 626.457 L1520.69 693.966 L1718.04 724.367 L1915.4 732.097 L2112.76 747.405 L2112.76 766.846 L2112.76 622.926 L2112.76 479.005 L2112.76 335.085 L2112.76 191.164 
  L2112.76 47.2441 L2112.76 47.2441 L2112.76 47.2441 L2112.76 47.2441 L1915.4 47.2441 L1718.04 47.2441 L1520.69 47.2441 L1323.33 47.2441 L1125.97 47.2441 L928.617 47.2441 
  L1061.75 47.2441 L1086.19 191.164 L1107.28 335.085 L1125.97 380.257 L1169.62 479.005 L1318.05 622.926 L1323.33 626.457  Z
  " fill="#7e1e6c" fill-rule="evenodd" fill-opacity="1"/>
<path clip-path="url(#clip072)" d="
M1520.69 655.79 L1718.04 691.489 L1915.4 702.063 L2112.76 717.311 L2112.76 766.846 L2112.76 622.926 L2112.76 479.005 L2112.76 335.085 L2112.76 191.164 L2112.76 47.2441 
  L2112.76 47.2441 L2112.76 47.2441 L2112.76 47.2441 L1915.4 47.2441 L1718.04 47.2441 L1520.69 47.2441 L1323.33 47.2441 L1125.97 47.2441 L928.617 47.2441 L1099.17 47.2441 
  L1125.97 187.918 L1126.6 191.164 L1150.63 335.085 L1217.79 479.005 L1323.33 580.278 L1425.44 622.926 L1520.69 655.79  Z
  " fill="#932567" fill-rule="evenodd" fill-opacity="1"/>
<path clip-path="url(#clip072)" d="
M1718.04 658.611 L1915.4 672.03 L2112.76 687.217 L2112.76 766.846 L2112.76 622.926 L2112.76 479.005 L2112.76 335.085 L2112.76 191.164 L2112.76 47.2441 L2112.76 47.2441 
  L2112.76 47.2441 L2112.76 47.2441 L1915.4 47.2441 L1718.04 47.2441 L1520.69 47.2441 L1323.33 47.2441 L1125.97 47.2441 L1136.2 47.2441 L1164.79 191.164 L1192.75 335.085 
  L1265.95 479.005 L1323.33 534.065 L1520.69 617.313 L1543.11 622.926 L1718.04 658.611  Z
  " fill="#a62c5f" fill-rule="evenodd" fill-opacity="1"/>
<path clip-path="url(#clip072)" d="
M1718.04 625.733 L1915.4 641.996 L2112.76 657.123 L2112.76 766.846 L2112.76 622.926 L2112.76 479.005 L2112.76 335.085 L2112.76 191.164 L2112.76 47.2441 L2112.76 47.2441 
  L2112.76 47.2441 L2112.76 47.2441 L1915.4 47.2441 L1718.04 47.2441 L1520.69 47.2441 L1323.33 47.2441 L1125.97 47.2441 L1172.24 47.2441 L1202.98 191.164 L1234.86 335.085 
  L1314.11 479.005 L1323.33 487.853 L1520.69 576.971 L1704.28 622.926 L1718.04 625.733  Z
  " fill="#ba3655" fill-rule="evenodd" fill-opacity="1"/>
<path clip-path="url(#clip072)" d="
M2112.76 627.029 L2112.76 766.846 L2112.76 622.926 L2112.76 479.005 L2112.76 335.085 L2112.76 191.164 L2112.76 47.2441 L2112.76 47.2441 L2112.76 47.2441 L2112.76 47.2441 
  L1915.4 47.2441 L1718.04 47.2441 L1520.69 47.2441 L1323.33 47.2441 L1125.97 47.2441 L1208.27 47.2441 L1241.17 191.164 L1276.98 335.085 L1323.33 418.052 L1394.67 479.005 
  L1520.69 536.629 L1718.04 591.324 L1915.4 610.764 L2059.08 622.926 L2112.76 627.029  Z
  " fill="#cc4148" fill-rule="evenodd" fill-opacity="1"/>
<path clip-path="url(#clip072)" d="
M1520.69 496.287 L1718.04 556.772 L1915.4 577.446 L2112.76 590.536 L2112.76 622.926 L2112.76 479.005 L2112.76 335.085 L2112.76 191.164 L2112.76 47.2441 L2112.76 47.2441 
  L2112.76 47.2441 L2112.76 47.2441 L1915.4 47.2441 L1718.04 47.2441 L1520.69 47.2441 L1323.33 47.2441 L1125.97 47.2441 L1244.31 47.2441 L1279.36 191.164 L1319.1 335.085 
  L1323.33 342.665 L1482.89 479.005 L1520.69 496.287  Z
  " fill="#dc5039" fill-rule="evenodd" fill-opacity="1"/>
<path clip-path="url(#clip072)" d="
M1718.04 522.219 L1915.4 544.127 L2112.76 553.032 L2112.76 622.926 L2112.76 479.005 L2112.76 335.085 L2112.76 191.164 L2112.76 47.2441 L2112.76 47.2441 L2112.76 47.2441 
  L2112.76 47.2441 L1915.4 47.2441 L1718.04 47.2441 L1520.69 47.2441 L1323.33 47.2441 L1125.97 47.2441 L1280.34 47.2441 L1317.54 191.164 L1323.33 211.913 L1383.5 335.085 
  L1520.69 447.636 L1582.59 479.005 L1718.04 522.219  Z
  " fill="#e8612b" fill-rule="evenodd" fill-opacity="1"/>
<path clip-path="url(#clip072)" d="
M1718.04 487.667 L1915.4 510.809 L2112.76 515.528 L2112.76 622.926 L2112.76 479.005 L2112.76 335.085 L2112.76 191.164 L2112.76 47.2441 L2112.76 47.2441 L2112.76 47.2441 
  L2112.76 47.2441 L1915.4 47.2441 L1718.04 47.2441 L1520.69 47.2441 L1323.33 47.2441 L1125.97 47.2441 L1316.38 47.2441 L1323.33 73.896 L1371.31 191.164 L1450.39 335.085 
  L1520.69 392.759 L1690.89 479.005 L1718.04 487.667  Z
  " fill="#f2751a" fill-rule="evenodd" fill-opacity="1"/>
<path clip-path="url(#clip072)" d="
M1520.69 337.882 L1718.04 438.185 L1915.4 476.573 L2112.76 477.832 L2112.76 479.005 L2112.76 335.085 L2112.76 191.164 L2112.76 47.2441 L2112.76 47.2441 L2112.76 47.2441 
  L2112.76 47.2441 L1915.4 47.2441 L1718.04 47.2441 L1520.69 47.2441 L1323.33 47.2441 L1377.32 47.2441 L1427.85 191.164 L1517.28 335.085 L1520.69 337.882  Z
  " fill="#f98c09" fill-rule="evenodd" fill-opacity="1"/>
<path clip-path="url(#clip072)" d="
M1718.04 383.709 L1915.4 423.073 L2112.76 433.008 L2112.76 479.005 L2112.76 335.085 L2112.76 191.164 L2112.76 47.2441 L2112.76 47.2441 L2112.76 47.2441 L2112.76 47.2441 
  L1915.4 47.2441 L1718.04 47.2441 L1520.69 47.2441 L1323.33 47.2441 L1444.21 47.2441 L1484.39 191.164 L1520.69 249.231 L1622.39 335.085 L1718.04 383.709  Z
  " fill="#fba40a" fill-rule="evenodd" fill-opacity="1"/>
<path clip-path="url(#clip072)" d="
M1915.4 369.573 L2112.76 388.183 L2112.76 479.005 L2112.76 335.085 L2112.76 191.164 L2112.76 47.2441 L2112.76 47.2441 L2112.76 47.2441 L2112.76 47.2441 L1915.4 47.2441 
  L1718.04 47.2441 L1520.69 47.2441 L1323.33 47.2441 L1511.1 47.2441 L1520.69 88.3642 L1557.34 191.164 L1718.04 325.868 L1746.24 335.085 L1915.4 369.573  Z
  " fill="#fabb21" fill-rule="evenodd" fill-opacity="1"/>
<path clip-path="url(#clip072)" d="
M2112.76 343.358 L2112.76 479.005 L2112.76 335.085 L2112.76 191.164 L2112.76 47.2441 L2112.76 47.2441 L2112.76 47.2441 L2112.76 47.2441 L1915.4 47.2441 L1718.04 47.2441 
  L1520.69 47.2441 L1587.88 47.2441 L1659.68 191.164 L1718.04 240.083 L1915.4 304.773 L2045.29 335.085 L2112.76 343.358  Z
  " fill="#f6d542" fill-rule="evenodd" fill-opacity="1"/>
<path clip-path="url(#clip072)" d="
M1915.4 219.479 L2112.76 267.839 L2112.76 335.085 L2112.76 191.164 L2112.76 47.2441 L2112.76 47.2441 L2112.76 47.2441 L2112.76 47.2441 L1915.4 47.2441 L1718.04 47.2441 
  L1520.69 47.2441 L1666.3 47.2441 L1718.04 134.397 L1829.39 191.164 L1915.4 219.479  Z
  " fill="#f1ed70" fill-rule="evenodd" fill-opacity="1"/>
<path clip-path="url(#clip072)" d="
M1915.4 109.43 L2112.76 181.718 L2112.76 191.164 L2112.76 47.2441 L2112.76 47.2441 L2112.76 47.2441 L2112.76 47.2441 L1915.4 47.2441 L1718.04 47.2441 L1797.18 47.2441 
  L1915.4 109.43  Z
  " fill="#fcfea4" fill-rule="evenodd" fill-opacity="1"/>
<polyline clip-path="url(#clip072)" style="stroke:#000000; stroke-width:4; stroke-opacity:1; fill:none" points="
  139.191,1486.45 139.191,1486.45 336.547,1486.45 533.904,1486.45 731.26,1486.45 928.617,1486.45 1125.97,1486.45 1323.33,1486.45 1520.69,1486.45 1718.04,1486.45 
  1915.4,1486.45 2112.76,1486.45 2112.76,1342.53 2112.76,1198.61 2112.76,1054.69 2112.76,910.766 2112.76,766.846 
  2112.76,622.926 2112.76,479.005 2112.76,335.085 2112.76,191.164 2112.76,47.2441 1915.4,47.2441 1718.04,47.2441 
  1520.69,47.2441 1323.33,47.2441 1125.97,47.2441 928.617,47.2441 731.26,47.2441 533.904,47.2441 336.547,47.2441 139.191,47.2441 
  139.191,191.164 139.191,335.085 139.191,479.005 139.191,622.926 139.191,766.846 139.191,910.766 139.191,1054.69 139.191,1198.61 139.191,1342.53 
  139.191,1486.45 
  "/>
<polyline clip-path="url(#clip072)" style="stroke:#000000; stroke-width:4; stroke-opacity:1; fill:none" points="
  1323.33,939.064 1520.69,995.577 1718.04,1002.81 1915.4,1011.58 2112.76,1007.9 2112.76,1054.69 2112.76,910.766 2112.76,766.846 2112.76,622.926 2112.76,479.005 
  2112.76,335.085 2112.76,191.164 2112.76,47.2441 1915.4,47.2441 1718.04,47.2441 1520.69,47.2441 1323.33,47.2441 
  1125.97,47.2441 928.617,47.2441 731.26,47.2441 756.838,47.2441 747.608,191.164 761.822,335.085 774.967,479.005 833.608,622.926 928.617,737.875 953.95,766.846 
  1125.97,893.208 1220.22,910.766 1323.33,939.064 
  "/>
<polyline clip-path="url(#clip072)" style="stroke:#000000; stroke-width:4; stroke-opacity:1; fill:none" points="
  1718.04,917.029 1915.4,931.326 2112.76,931.746 2112.76,1054.69 2112.76,910.766 2112.76,766.846 2112.76,622.926 2112.76,479.005 2112.76,335.085 2112.76,191.164 
  2112.76,47.2441 1915.4,47.2441 1718.04,47.2441 1520.69,47.2441 1323.33,47.2441 1125.97,47.2441 928.617,47.2441 
  731.26,47.2441 827.177,47.2441 833.611,191.164 843.697,335.085 864.35,479.005 928.617,578.379 953.894,622.926 1102.27,766.846 1125.97,784.254 1323.33,867.777 
  1520.69,906.654 1630.14,910.766 1718.04,917.029 
  "/>
<polyline clip-path="url(#clip072)" style="stroke:#000000; stroke-width:4; stroke-opacity:1; fill:none" points="
  1323.33,815.586 1520.69,861.422 1718.04,874.064 1915.4,880.921 2112.76,885.2 2112.76,910.766 2112.76,766.846 2112.76,622.926 2112.76,479.005 2112.76,335.085 
  2112.76,191.164 2112.76,47.2441 1915.4,47.2441 1718.04,47.2441 1520.69,47.2441 1323.33,47.2441 1125.97,47.2441 
  928.617,47.2441 731.26,47.2441 897.517,47.2441 919.614,191.164 925.572,335.085 928.617,351.907 945.05,479.005 1032.32,622.926 1125.97,707.407 1219.44,766.846 
  1323.33,815.586 
  "/>
<polyline clip-path="url(#clip072)" style="stroke:#000000; stroke-width:4; stroke-opacity:1; fill:none" points="
  1520.69,816.19 1718.04,834.471 1915.4,840.796 2112.76,849.912 2112.76,910.766 2112.76,766.846 2112.76,622.926 2112.76,479.005 2112.76,335.085 2112.76,191.164 
  2112.76,47.2441 1915.4,47.2441 1718.04,47.2441 1520.69,47.2441 1323.33,47.2441 1125.97,47.2441 928.617,47.2441 
  949.492,47.2441 964.834,191.164 972.025,335.085 1003.53,479.005 1110.74,622.926 1125.97,636.665 1323.33,763.819 1334.61,766.846 1520.69,816.19 
  "/>
<polyline clip-path="url(#clip072)" style="stroke:#000000; stroke-width:4; stroke-opacity:1; fill:none" points="
  1520.69,770.958 1718.04,794.877 1915.4,800.671 2112.76,814.625 2112.76,910.766 2112.76,766.846 2112.76,622.926 2112.76,479.005 2112.76,335.085 2112.76,191.164 
  2112.76,47.2441 1915.4,47.2441 1718.04,47.2441 1520.69,47.2441 1323.33,47.2441 1125.97,47.2441 928.617,47.2441 
  986.912,47.2441 1005.29,191.164 1017.11,335.085 1062.01,479.005 1125.97,561.872 1181.14,622.926 1323.33,718.032 1505.18,766.846 1520.69,770.958 
  "/>
<polyline clip-path="url(#clip072)" style="stroke:#000000; stroke-width:4; stroke-opacity:1; fill:none" points="
  2112.76,779.338 2112.76,910.766 2112.76,766.846 2112.76,622.926 2112.76,479.005 2112.76,335.085 2112.76,191.164 2112.76,47.2441 
  1915.4,47.2441 1718.04,47.2441 1520.69,47.2441 1323.33,47.2441 1125.97,47.2441 928.617,47.2441 1024.33,47.2441 1045.74,191.164 1062.2,335.085 
  1120.5,479.005 1125.97,486.102 1249.59,622.926 1323.33,672.245 1520.69,732.141 1718.04,757.245 1915.4,762.13 1976.04,766.846 2112.76,779.338 
  "/>
<polyline clip-path="url(#clip072)" style="stroke:#000000; stroke-width:4; stroke-opacity:1; fill:none" points="
  1323.33,626.457 1520.69,693.966 1718.04,724.367 1915.4,732.097 2112.76,747.405 2112.76,766.846 2112.76,622.926 2112.76,479.005 2112.76,335.085 2112.76,191.164 
  2112.76,47.2441 1915.4,47.2441 1718.04,47.2441 1520.69,47.2441 1323.33,47.2441 1125.97,47.2441 928.617,47.2441 
  1061.75,47.2441 1086.19,191.164 1107.28,335.085 1125.97,380.257 1169.62,479.005 1318.05,622.926 1323.33,626.457 
  "/>
<polyline clip-path="url(#clip072)" style="stroke:#000000; stroke-width:4; stroke-opacity:1; fill:none" points="
  1520.69,655.79 1718.04,691.489 1915.4,702.063 2112.76,717.311 2112.76,766.846 2112.76,622.926 2112.76,479.005 2112.76,335.085 2112.76,191.164 2112.76,47.2441 
  1915.4,47.2441 1718.04,47.2441 1520.69,47.2441 1323.33,47.2441 1125.97,47.2441 928.617,47.2441 1099.17,47.2441 
  1125.97,187.918 1126.6,191.164 1150.63,335.085 1217.79,479.005 1323.33,580.278 1425.44,622.926 1520.69,655.79 
  "/>
<polyline clip-path="url(#clip072)" style="stroke:#000000; stroke-width:4; stroke-opacity:1; fill:none" points="
  1718.04,658.611 1915.4,672.03 2112.76,687.217 2112.76,766.846 2112.76,622.926 2112.76,479.005 2112.76,335.085 2112.76,191.164 2112.76,47.2441 
  1915.4,47.2441 1718.04,47.2441 1520.69,47.2441 1323.33,47.2441 1125.97,47.2441 1136.2,47.2441 1164.79,191.164 1192.75,335.085 
  1265.95,479.005 1323.33,534.065 1520.69,617.313 1543.11,622.926 1718.04,658.611 
  "/>
<polyline clip-path="url(#clip072)" style="stroke:#000000; stroke-width:4; stroke-opacity:1; fill:none" points="
  1718.04,625.733 1915.4,641.996 2112.76,657.123 2112.76,766.846 2112.76,622.926 2112.76,479.005 2112.76,335.085 2112.76,191.164 2112.76,47.2441 
  1915.4,47.2441 1718.04,47.2441 1520.69,47.2441 1323.33,47.2441 1125.97,47.2441 1172.24,47.2441 1202.98,191.164 1234.86,335.085 
  1314.11,479.005 1323.33,487.853 1520.69,576.971 1704.28,622.926 1718.04,625.733 
  "/>
<polyline clip-path="url(#clip072)" style="stroke:#000000; stroke-width:4; stroke-opacity:1; fill:none" points="
  2112.76,627.029 2112.76,766.846 2112.76,622.926 2112.76,479.005 2112.76,335.085 2112.76,191.164 2112.76,47.2441 
  1915.4,47.2441 1718.04,47.2441 1520.69,47.2441 1323.33,47.2441 1125.97,47.2441 1208.27,47.2441 1241.17,191.164 1276.98,335.085 1323.33,418.052 1394.67,479.005 
  1520.69,536.629 1718.04,591.324 1915.4,610.764 2059.08,622.926 2112.76,627.029 
  "/>
<polyline clip-path="url(#clip072)" style="stroke:#000000; stroke-width:4; stroke-opacity:1; fill:none" points="
  1520.69,496.287 1718.04,556.772 1915.4,577.446 2112.76,590.536 2112.76,622.926 2112.76,479.005 2112.76,335.085 2112.76,191.164 2112.76,47.2441 
  1915.4,47.2441 1718.04,47.2441 1520.69,47.2441 1323.33,47.2441 1125.97,47.2441 1244.31,47.2441 1279.36,191.164 1319.1,335.085 
  1323.33,342.665 1482.89,479.005 1520.69,496.287 
  "/>
<polyline clip-path="url(#clip072)" style="stroke:#000000; stroke-width:4; stroke-opacity:1; fill:none" points="
  1718.04,522.219 1915.4,544.127 2112.76,553.032 2112.76,622.926 2112.76,479.005 2112.76,335.085 2112.76,191.164 2112.76,47.2441 
  1915.4,47.2441 1718.04,47.2441 1520.69,47.2441 1323.33,47.2441 1125.97,47.2441 1280.34,47.2441 1317.54,191.164 1323.33,211.913 1383.5,335.085 
  1520.69,447.636 1582.59,479.005 1718.04,522.219 
  "/>
<polyline clip-path="url(#clip072)" style="stroke:#000000; stroke-width:4; stroke-opacity:1; fill:none" points="
  1718.04,487.667 1915.4,510.809 2112.76,515.528 2112.76,622.926 2112.76,479.005 2112.76,335.085 2112.76,191.164 2112.76,47.2441 
  1915.4,47.2441 1718.04,47.2441 1520.69,47.2441 1323.33,47.2441 1125.97,47.2441 1316.38,47.2441 1323.33,73.896 1371.31,191.164 1450.39,335.085 
  1520.69,392.759 1690.89,479.005 1718.04,487.667 
  "/>
<polyline clip-path="url(#clip072)" style="stroke:#000000; stroke-width:4; stroke-opacity:1; fill:none" points="
  1520.69,337.882 1718.04,438.185 1915.4,476.573 2112.76,477.832 2112.76,479.005 2112.76,335.085 2112.76,191.164 2112.76,47.2441 
  1915.4,47.2441 1718.04,47.2441 1520.69,47.2441 1323.33,47.2441 1377.32,47.2441 1427.85,191.164 1517.28,335.085 1520.69,337.882 
  "/>
<polyline clip-path="url(#clip072)" style="stroke:#000000; stroke-width:4; stroke-opacity:1; fill:none" points="
  1718.04,383.709 1915.4,423.073 2112.76,433.008 2112.76,479.005 2112.76,335.085 2112.76,191.164 2112.76,47.2441 
  1915.4,47.2441 1718.04,47.2441 1520.69,47.2441 1323.33,47.2441 1444.21,47.2441 1484.39,191.164 1520.69,249.231 1622.39,335.085 1718.04,383.709 
  "/>
<polyline clip-path="url(#clip072)" style="stroke:#000000; stroke-width:4; stroke-opacity:1; fill:none" points="
  1915.4,369.573 2112.76,388.183 2112.76,479.005 2112.76,335.085 2112.76,191.164 2112.76,47.2441 1915.4,47.2441 
  1718.04,47.2441 1520.69,47.2441 1323.33,47.2441 1511.1,47.2441 1520.69,88.3642 1557.34,191.164 1718.04,325.868 1746.24,335.085 1915.4,369.573 
  "/>
<polyline clip-path="url(#clip072)" style="stroke:#000000; stroke-width:4; stroke-opacity:1; fill:none" points="
  2112.76,343.358 2112.76,479.005 2112.76,335.085 2112.76,191.164 2112.76,47.2441 1915.4,47.2441 1718.04,47.2441 
  1520.69,47.2441 1587.88,47.2441 1659.68,191.164 1718.04,240.083 1915.4,304.773 2045.29,335.085 2112.76,343.358 
  "/>
<polyline clip-path="url(#clip072)" style="stroke:#000000; stroke-width:4; stroke-opacity:1; fill:none" points="
  1915.4,219.479 2112.76,267.839 2112.76,335.085 2112.76,191.164 2112.76,47.2441 1915.4,47.2441 1718.04,47.2441 
  1520.69,47.2441 1666.3,47.2441 1718.04,134.397 1829.39,191.164 1915.4,219.479 
  "/>
<polyline clip-path="url(#clip072)" style="stroke:#000000; stroke-width:4; stroke-opacity:1; fill:none" points="
  1915.4,109.43 2112.76,181.718 2112.76,191.164 2112.76,47.2441 1915.4,47.2441 1718.04,47.2441 1797.18,47.2441 
  1915.4,109.43 
  "/>
<defs>
  <clipPath id="clip073">
    <rect x="2160" y="47" width="73" height="1440"/>
  </clipPath>
</defs>
<path clip-path="url(#clip073)" d="
M2160.76 1486.45 L2232.76 1486.45 L2232.76 1417.91 L2160.76 1417.91  Z
  " fill="#000003" fill-rule="evenodd" fill-opacity="1"/>
<path clip-path="url(#clip073)" d="
M2160.76 1417.91 L2232.76 1417.91 L2232.76 1349.38 L2160.76 1349.38  Z
  " fill="#07051d" fill-rule="evenodd" fill-opacity="1"/>
<path clip-path="url(#clip073)" d="
M2160.76 1349.38 L2232.76 1349.38 L2232.76 1280.85 L2160.76 1280.85  Z
  " fill="#170b3b" fill-rule="evenodd" fill-opacity="1"/>
<path clip-path="url(#clip073)" d="
M2160.76 1280.85 L2232.76 1280.85 L2232.76 1212.31 L2160.76 1212.31  Z
  " fill="#2b0a56" fill-rule="evenodd" fill-opacity="1"/>
<path clip-path="url(#clip073)" d="
M2160.76 1212.31 L2232.76 1212.31 L2232.76 1143.78 L2160.76 1143.78  Z
  " fill="#410967" fill-rule="evenodd" fill-opacity="1"/>
<path clip-path="url(#clip073)" d="
M2160.76 1143.78 L2232.76 1143.78 L2232.76 1075.25 L2160.76 1075.25  Z
  " fill="#570f6d" fill-rule="evenodd" fill-opacity="1"/>
<path clip-path="url(#clip073)" d="
M2160.76 1075.25 L2232.76 1075.25 L2232.76 1006.71 L2160.76 1006.71  Z
  " fill="#6a176e" fill-rule="evenodd" fill-opacity="1"/>
<path clip-path="url(#clip073)" d="
M2160.76 1006.71 L2232.76 1006.71 L2232.76 938.18 L2160.76 938.18  Z
  " fill="#7e1e6c" fill-rule="evenodd" fill-opacity="1"/>
<path clip-path="url(#clip073)" d="
M2160.76 938.18 L2232.76 938.18 L2232.76 869.646 L2160.76 869.646  Z
  " fill="#932567" fill-rule="evenodd" fill-opacity="1"/>
<path clip-path="url(#clip073)" d="
M2160.76 869.646 L2232.76 869.646 L2232.76 801.113 L2160.76 801.113  Z
  " fill="#a72d5f" fill-rule="evenodd" fill-opacity="1"/>
<path clip-path="url(#clip073)" d="
M2160.76 801.113 L2232.76 801.113 L2232.76 732.579 L2160.76 732.579  Z
  " fill="#bb3754" fill-rule="evenodd" fill-opacity="1"/>
<path clip-path="url(#clip073)" d="
M2160.76 732.579 L2232.76 732.579 L2232.76 664.046 L2160.76 664.046  Z
  " fill="#cc4148" fill-rule="evenodd" fill-opacity="1"/>
<path clip-path="url(#clip073)" d="
M2160.76 664.046 L2232.76 664.046 L2232.76 595.512 L2160.76 595.512  Z
  " fill="#dc5039" fill-rule="evenodd" fill-opacity="1"/>
<path clip-path="url(#clip073)" d="
M2160.76 595.512 L2232.76 595.512 L2232.76 526.979 L2160.76 526.979  Z
  " fill="#e9622a" fill-rule="evenodd" fill-opacity="1"/>
<path clip-path="url(#clip073)" d="
M2160.76 526.979 L2232.76 526.979 L2232.76 458.445 L2160.76 458.445  Z
  " fill="#f2751a" fill-rule="evenodd" fill-opacity="1"/>
<path clip-path="url(#clip073)" d="
M2160.76 458.445 L2232.76 458.445 L2232.76 389.912 L2160.76 389.912  Z
  " fill="#f98c09" fill-rule="evenodd" fill-opacity="1"/>
<path clip-path="url(#clip073)" d="
M2160.76 389.912 L2232.76 389.912 L2232.76 321.378 L2160.76 321.378  Z
  " fill="#fba40a" fill-rule="evenodd" fill-opacity="1"/>
<path clip-path="url(#clip073)" d="
M2160.76 321.378 L2232.76 321.378 L2232.76 252.845 L2160.76 252.845  Z
  " fill="#fabd23" fill-rule="evenodd" fill-opacity="1"/>
<path clip-path="url(#clip073)" d="
M2160.76 252.845 L2232.76 252.845 L2232.76 184.311 L2160.76 184.311  Z
  " fill="#f5d745" fill-rule="evenodd" fill-opacity="1"/>
<path clip-path="url(#clip073)" d="
M2160.76 184.311 L2232.76 184.311 L2232.76 115.778 L2160.76 115.778  Z
  " fill="#f1ed70" fill-rule="evenodd" fill-opacity="1"/>
<path clip-path="url(#clip073)" d="
M2160.76 115.778 L2232.76 115.778 L2232.76 47.2441 L2160.76 47.2441  Z
  " fill="#fcfea4" fill-rule="evenodd" fill-opacity="1"/>
<path clip-path="url(#clip070)" d="M 0 0 M2280.7 1468.62 Q2277.09 1468.62 2275.26 1472.18 Q2273.45 1475.72 2273.45 1482.85 Q2273.45 1489.96 2275.26 1493.53 Q2277.09 1497.07 2280.7 1497.07 Q2284.33 1497.07 2286.14 1493.53 Q2287.97 1489.96 2287.97 1482.85 Q2287.97 1475.72 2286.14 1472.18 Q2284.33 1468.62 2280.7 1468.62 M2280.7 1464.91 Q2286.51 1464.91 2289.57 1469.52 Q2292.64 1474.1 2292.64 1482.85 Q2292.64 1491.58 2289.57 1496.19 Q2286.51 1500.77 2280.7 1500.77 Q2274.89 1500.77 2271.81 1496.19 Q2268.76 1491.58 2268.76 1482.85 Q2268.76 1474.1 2271.81 1469.52 Q2274.89 1464.91 2280.7 1464.91 Z" fill="#000000" fill-rule="evenodd" fill-opacity="1" /><path clip-path="url(#clip070)" d="M 0 0 M2269.43 1330.97 L2277.07 1330.97 L2277.07 1304.6 L2268.76 1306.27 L2268.76 1302.01 L2277.02 1300.34 L2281.7 1300.34 L2281.7 1330.97 L2289.33 1330.97 L2289.33 1334.9 L2269.43 1334.9 L2269.43 1330.97 Z" fill="#000000" fill-rule="evenodd" fill-opacity="1" /><path clip-path="url(#clip070)" d="M 0 0 M2274.38 1165.77 L2290.7 1165.77 L2290.7 1169.7 L2268.76 1169.7 L2268.76 1165.77 Q2271.42 1163.01 2276 1158.38 Q2280.61 1153.73 2281.79 1152.39 Q2284.03 1149.87 2284.91 1148.13 Q2285.82 1146.37 2285.82 1144.68 Q2285.82 1141.93 2283.87 1140.19 Q2281.95 1138.45 2278.85 1138.45 Q2276.65 1138.45 2274.2 1139.22 Q2271.77 1139.98 2268.99 1141.53 L2268.99 1136.81 Q2271.81 1135.68 2274.27 1135.1 Q2276.72 1134.52 2278.76 1134.52 Q2284.13 1134.52 2287.32 1137.2 Q2290.52 1139.89 2290.52 1144.38 Q2290.52 1146.51 2289.7 1148.43 Q2288.92 1150.33 2286.81 1152.92 Q2286.23 1153.59 2283.13 1156.81 Q2280.03 1160 2274.38 1165.77 Z" fill="#000000" fill-rule="evenodd" fill-opacity="1" /><path clip-path="url(#clip070)" d="M 0 0 M2284.38 985.871 Q2287.74 986.589 2289.61 988.857 Q2291.51 991.126 2291.51 994.459 Q2291.51 999.575 2287.99 1002.38 Q2284.47 1005.18 2277.99 1005.18 Q2275.82 1005.18 2273.5 1004.74 Q2271.21 1004.32 2268.76 1003.46 L2268.76 998.95 Q2270.7 1000.08 2273.02 1000.66 Q2275.33 1001.24 2277.85 1001.24 Q2282.25 1001.24 2284.54 999.506 Q2286.86 997.769 2286.86 994.459 Q2286.86 991.404 2284.7 989.691 Q2282.58 987.955 2278.76 987.955 L2274.73 987.955 L2274.73 984.112 L2278.94 984.112 Q2282.39 984.112 2284.22 982.746 Q2286.05 981.357 2286.05 978.765 Q2286.05 976.103 2284.15 974.691 Q2282.27 973.256 2278.76 973.256 Q2276.83 973.256 2274.64 973.672 Q2272.44 974.089 2269.8 974.969 L2269.8 970.802 Q2272.46 970.061 2274.77 969.691 Q2277.11 969.32 2279.17 969.32 Q2284.5 969.32 2287.6 971.751 Q2290.7 974.158 2290.7 978.279 Q2290.7 981.149 2289.06 983.14 Q2287.41 985.107 2284.38 985.871 Z" fill="#000000" fill-rule="evenodd" fill-opacity="1" /><path clip-path="url(#clip070)" d="M 0 0 M2284.36 808.822 L2272.55 827.271 L2284.36 827.271 L2284.36 808.822 M2283.13 804.748 L2289.01 804.748 L2289.01 827.271 L2293.94 827.271 L2293.94 831.16 L2289.01 831.16 L2289.01 839.308 L2284.36 839.308 L2284.36 831.16 L2268.76 831.16 L2268.76 826.646 L2283.13 804.748 Z" fill="#000000" fill-rule="evenodd" fill-opacity="1" /><path clip-path="url(#clip070)" d="M 0 0 M2270.21 639.55 L2288.57 639.55 L2288.57 643.485 L2274.5 643.485 L2274.5 651.957 Q2275.52 651.61 2276.53 651.448 Q2277.55 651.263 2278.57 651.263 Q2284.36 651.263 2287.74 654.434 Q2291.12 657.605 2291.12 663.022 Q2291.12 668.601 2287.64 671.702 Q2284.17 674.781 2277.85 674.781 Q2275.68 674.781 2273.41 674.411 Q2271.16 674.04 2268.76 673.3 L2268.76 668.601 Q2270.84 669.735 2273.06 670.29 Q2275.28 670.846 2277.76 670.846 Q2281.77 670.846 2284.1 668.739 Q2286.44 666.633 2286.44 663.022 Q2286.44 659.411 2284.1 657.304 Q2281.77 655.198 2277.76 655.198 Q2275.89 655.198 2274.01 655.614 Q2272.16 656.031 2270.21 656.911 L2270.21 639.55 Z" fill="#000000" fill-rule="evenodd" fill-opacity="1" /><path clip-path="url(#clip070)" d="M 0 0 M2281.09 489.768 Q2277.95 489.768 2276.09 491.921 Q2274.27 494.074 2274.27 497.824 Q2274.27 501.551 2276.09 503.727 Q2277.95 505.88 2281.09 505.88 Q2284.24 505.88 2286.07 503.727 Q2287.92 501.551 2287.92 497.824 Q2287.92 494.074 2286.07 491.921 Q2284.24 489.768 2281.09 489.768 M2290.38 475.116 L2290.38 479.375 Q2288.62 478.542 2286.81 478.102 Q2285.03 477.662 2283.27 477.662 Q2278.64 477.662 2276.19 480.787 Q2273.76 483.912 2273.41 490.231 Q2274.77 488.218 2276.83 487.153 Q2278.89 486.065 2281.37 486.065 Q2286.58 486.065 2289.59 489.236 Q2292.62 492.384 2292.62 497.824 Q2292.62 503.148 2289.47 506.366 Q2286.33 509.583 2281.09 509.583 Q2275.1 509.583 2271.93 505 Q2268.76 500.393 2268.76 491.667 Q2268.76 483.472 2272.64 478.611 Q2276.53 473.727 2283.08 473.727 Q2284.84 473.727 2286.63 474.074 Q2288.43 474.421 2290.38 475.116 Z" fill="#000000" fill-rule="evenodd" fill-opacity="1" /><path clip-path="url(#clip070)" d="M 0 0 M2268.76 309.154 L2290.98 309.154 L2290.98 311.145 L2278.43 343.714 L2273.55 343.714 L2285.35 313.089 L2268.76 313.089 L2268.76 309.154 Z" fill="#000000" fill-rule="evenodd" fill-opacity="1" /><path clip-path="url(#clip070)" d="M 0 0 M2280.61 162.104 Q2277.27 162.104 2275.35 163.887 Q2273.45 165.669 2273.45 168.794 Q2273.45 171.919 2275.35 173.701 Q2277.27 175.484 2280.61 175.484 Q2283.94 175.484 2285.86 173.701 Q2287.78 171.896 2287.78 168.794 Q2287.78 165.669 2285.86 163.887 Q2283.96 162.104 2280.61 162.104 M2275.93 160.113 Q2272.92 159.373 2271.23 157.313 Q2269.57 155.252 2269.57 152.289 Q2269.57 148.146 2272.51 145.739 Q2275.47 143.331 2280.61 143.331 Q2285.77 143.331 2288.71 145.739 Q2291.65 148.146 2291.65 152.289 Q2291.65 155.252 2289.96 157.313 Q2288.29 159.373 2285.31 160.113 Q2288.69 160.901 2290.56 163.192 Q2292.46 165.484 2292.46 168.794 Q2292.46 173.817 2289.38 176.502 Q2286.33 179.187 2280.61 179.187 Q2274.89 179.187 2271.81 176.502 Q2268.76 173.817 2268.76 168.794 Q2268.76 165.484 2270.65 163.192 Q2272.55 160.901 2275.93 160.113 M2274.22 152.729 Q2274.22 155.414 2275.89 156.919 Q2277.58 158.424 2280.61 158.424 Q2283.62 158.424 2285.31 156.919 Q2287.02 155.414 2287.02 152.729 Q2287.02 150.044 2285.31 148.539 Q2283.62 147.035 2280.61 147.035 Q2277.58 147.035 2275.89 148.539 Q2274.22 150.044 2274.22 152.729 Z" fill="#000000" fill-rule="evenodd" fill-opacity="1" /><polyline clip-path="url(#clip070)" style="stroke:#000000; stroke-width:4; stroke-opacity:1; fill:none" points="
  2232.76,1486.45 2232.76,1486.45 2256.76,1486.45 2232.76,1486.45 2232.76,1321.25 2256.76,1321.25 2232.76,1321.25 2232.76,1156.05 2256.76,1156.05 2232.76,1156.05 
  2232.76,990.854 2256.76,990.854 2232.76,990.854 2232.76,825.656 2256.76,825.656 2232.76,825.656 2232.76,660.459 2256.76,660.459 2232.76,660.459 2232.76,495.261 
  2256.76,495.261 2232.76,495.261 2232.76,330.063 2256.76,330.063 2232.76,330.063 2232.76,164.865 2256.76,164.865 2232.76,164.865 2232.76,47.2441 
  "/>
</svg>
