<?xml version="1.0" encoding="utf-8"?>
<svg xmlns="http://www.w3.org/2000/svg" xmlns:xlink="http://www.w3.org/1999/xlink" width="600" height="400" viewBox="0 0 2400 1600">
<defs>
  <clipPath id="clip100">
    <rect x="0" y="0" width="2400" height="1600"/>
  </clipPath>
</defs>
<path clip-path="url(#clip100)" d="
M0 1600 L2400 1600 L2400 0 L0 0  Z
  " fill="#ffffff" fill-rule="evenodd" fill-opacity="1"/>
<defs>
  <clipPath id="clip101">
    <rect x="480" y="0" width="1681" height="1600"/>
  </clipPath>
</defs>
<path clip-path="url(#clip100)" d="
M139.191 1486.45 L2112.76 1486.45 L2112.76 47.2441 L139.191 47.2441  Z
  " fill="#ffffff" fill-rule="evenodd" fill-opacity="1"/>
<defs>
  <clipPath id="clip102">
    <rect x="139" y="47" width="1975" height="1440"/>
  </clipPath>
</defs>
<polyline clip-path="url(#clip102)" style="stroke:#000000; stroke-width:2; stroke-opacity:0.1; fill:none" points="
  139.191,1486.45 139.191,47.2441 
  "/>
<polyline clip-path="url(#clip102)" style="stroke:#000000; stroke-width:2; stroke-opacity:0.1; fill:none" points="
  533.904,1486.45 533.904,47.2441 
  "/>
<polyline clip-path="url(#clip102)" style="stroke:#000000; stroke-width:2; stroke-opacity:0.1; fill:none" points="
  928.617,1486.45 928.617,47.2441 
  "/>
<polyline clip-path="url(#clip102)" style="stroke:#000000; stroke-width:2; stroke-opacity:0.1; fill:none" points="
  1323.33,1486.45 1323.33,47.2441 
  "/>
<polyline clip-path="url(#clip102)" style="stroke:#000000; stroke-width:2; stroke-opacity:0.1; fill:none" points="
  1718.04,1486.45 1718.04,47.2441 
  "/>
<polyline clip-path="url(#clip102)" style="stroke:#000000; stroke-width:2; stroke-opacity:0.1; fill:none" points="
  2112.76,1486.45 2112.76,47.2441 
  "/>
<polyline clip-path="url(#clip102)" style="stroke:#000000; stroke-width:2; stroke-opacity:0.1; fill:none" points="
  139.191,1486.45 2112.76,1486.45 
  "/>
<polyline clip-path="url(#clip102)" style="stroke:#000000; stroke-width:2; stroke-opacity:0.1; fill:none" points="
  139.191,1198.61 2112.76,1198.61 
  "/>
<polyline clip-path="url(#clip102)" style="stroke:#000000; stroke-width:2; stroke-opacity:0.1; fill:none" points="
  139.191,910.766 2112.76,910.766 
  "/>
<polyline clip-path="url(#clip102)" style="stroke:#000000; stroke-width:2; stroke-opacity:0.1; fill:none" points="
  139.191,622.926 2112.76,622.926 
  "/>
<polyline clip-path="url(#clip102)" style="stroke:#000000; stroke-width:2; stroke-opacity:0.1; fill:none" points="
  139.191,335.085 2112.76,335.085 
  "/>
<polyline clip-path="url(#clip102)" style="stroke:#000000; stroke-width:2; stroke-opacity:0.1; fill:none" points="
  139.191,47.2441 2112.76,47.2441 
  "/>
<polyline clip-path="url(#clip100)" style="stroke:#000000; stroke-width:4; stroke-opacity:1; fill:none" points="
  139.191,1486.45 2112.76,1486.45 
  "/>
<polyline clip-path="url(#clip100)" style="stroke:#000000; stroke-width:4; stroke-opacity:1; fill:none" points="
  139.191,1486.45 139.191,47.2441 
  "/>
<polyline clip-path="url(#clip100)" style="stroke:#000000; stroke-width:4; stroke-opacity:1; fill:none" points="
  139.191,1486.45 139.191,1469.18 
  "/>
<polyline clip-path="url(#clip100)" style="stroke:#000000; stroke-width:4; stroke-opacity:1; fill:none" points="
  533.904,1486.45 533.904,1469.18 
  "/>
<polyline clip-path="url(#clip100)" style="stroke:#000000; stroke-width:4; stroke-opacity:1; fill:none" points="
  928.617,1486.45 928.617,1469.18 
  "/>
<polyline clip-path="url(#clip100)" style="stroke:#000000; stroke-width:4; stroke-opacity:1; fill:none" points="
  1323.33,1486.45 1323.33,1469.18 
  "/>
<polyline clip-path="url(#clip100)" style="stroke:#000000; stroke-width:4; stroke-opacity:1; fill:none" points="
  1718.04,1486.45 1718.04,1469.18 
  "/>
<polyline clip-path="url(#clip100)" style="stroke:#000000; stroke-width:4; stroke-opacity:1; fill:none" points="
  2112.76,1486.45 2112.76,1469.18 
  "/>
<polyline clip-path="url(#clip100)" style="stroke:#000000; stroke-width:4; stroke-opacity:1; fill:none" points="
  139.191,1486.45 162.874,1486.45 
  "/>
<polyline clip-path="url(#clip100)" style="stroke:#000000; stroke-width:4; stroke-opacity:1; fill:none" points="
  139.191,1198.61 162.874,1198.61 
  "/>
<polyline clip-path="url(#clip100)" style="stroke:#000000; stroke-width:4; stroke-opacity:1; fill:none" points="
  139.191,910.766 162.874,910.766 
  "/>
<polyline clip-path="url(#clip100)" style="stroke:#000000; stroke-width:4; stroke-opacity:1; fill:none" points="
  139.191,622.926 162.874,622.926 
  "/>
<polyline clip-path="url(#clip100)" style="stroke:#000000; stroke-width:4; stroke-opacity:1; fill:none" points="
  139.191,335.085 162.874,335.085 
  "/>
<polyline clip-path="url(#clip100)" style="stroke:#000000; stroke-width:4; stroke-opacity:1; fill:none" points="
  139.191,47.2441 162.874,47.2441 
  "/>
<path clip-path="url(#clip100)" d="M 0 0 M139.191 1508.44 Q135.58 1508.44 133.751 1512 Q131.946 1515.55 131.946 1522.67 Q131.946 1529.78 133.751 1533.35 Q135.58 1536.89 139.191 1536.89 Q142.825 1536.89 144.631 1533.35 Q146.459 1529.78 146.459 1522.67 Q146.459 1515.55 144.631 1512 Q142.825 1508.44 139.191 1508.44 M139.191 1504.73 Q145.001 1504.73 148.057 1509.34 Q151.135 1513.92 151.135 1522.67 Q151.135 1531.4 148.057 1536.01 Q145.001 1540.59 139.191 1540.59 Q133.381 1540.59 130.302 1536.01 Q127.247 1531.4 127.247 1522.67 Q127.247 1513.92 130.302 1509.34 Q133.381 1504.73 139.191 1504.73 Z" fill="#000000" fill-rule="evenodd" fill-opacity="1" /><path clip-path="url(#clip100)" d="M 0 0 M510.779 1535.98 L518.418 1535.98 L518.418 1509.62 L510.108 1511.29 L510.108 1507.03 L518.372 1505.36 L523.047 1505.36 L523.047 1535.98 L530.686 1535.98 L530.686 1539.92 L510.779 1539.92 L510.779 1535.98 Z" fill="#000000" fill-rule="evenodd" fill-opacity="1" /><path clip-path="url(#clip100)" d="M 0 0 M545.756 1508.44 Q542.145 1508.44 540.316 1512 Q538.51 1515.55 538.51 1522.67 Q538.51 1529.78 540.316 1533.35 Q542.145 1536.89 545.756 1536.89 Q549.39 1536.89 551.195 1533.35 Q553.024 1529.78 553.024 1522.67 Q553.024 1515.55 551.195 1512 Q549.39 1508.44 545.756 1508.44 M545.756 1504.73 Q551.566 1504.73 554.621 1509.34 Q557.7 1513.92 557.7 1522.67 Q557.7 1531.4 554.621 1536.01 Q551.566 1540.59 545.756 1540.59 Q539.946 1540.59 536.867 1536.01 Q533.811 1531.4 533.811 1522.67 Q533.811 1513.92 536.867 1509.34 Q539.946 1504.73 545.756 1504.73 Z" fill="#000000" fill-rule="evenodd" fill-opacity="1" /><path clip-path="url(#clip100)" d="M 0 0 M909.763 1535.98 L926.082 1535.98 L926.082 1539.92 L904.138 1539.92 L904.138 1535.98 Q906.8 1533.23 911.383 1528.6 Q915.99 1523.95 917.17 1522.61 Q919.416 1520.08 920.295 1518.35 Q921.198 1516.59 921.198 1514.9 Q921.198 1512.14 919.254 1510.41 Q917.332 1508.67 914.23 1508.67 Q912.031 1508.67 909.578 1509.43 Q907.147 1510.2 904.369 1511.75 L904.369 1507.03 Q907.193 1505.89 909.647 1505.31 Q912.101 1504.73 914.138 1504.73 Q919.508 1504.73 922.703 1507.42 Q925.897 1510.11 925.897 1514.6 Q925.897 1516.73 925.087 1518.65 Q924.3 1520.54 922.193 1523.14 Q921.615 1523.81 918.513 1527.03 Q915.411 1530.22 909.763 1535.98 Z" fill="#000000" fill-rule="evenodd" fill-opacity="1" /><path clip-path="url(#clip100)" d="M 0 0 M941.152 1508.44 Q937.54 1508.44 935.712 1512 Q933.906 1515.55 933.906 1522.67 Q933.906 1529.78 935.712 1533.35 Q937.54 1536.89 941.152 1536.89 Q944.786 1536.89 946.591 1533.35 Q948.42 1529.78 948.42 1522.67 Q948.42 1515.55 946.591 1512 Q944.786 1508.44 941.152 1508.44 M941.152 1504.73 Q946.962 1504.73 950.017 1509.34 Q953.096 1513.92 953.096 1522.67 Q953.096 1531.4 950.017 1536.01 Q946.962 1540.59 941.152 1540.59 Q935.341 1540.59 932.263 1536.01 Q929.207 1531.4 929.207 1522.67 Q929.207 1513.92 932.263 1509.34 Q935.341 1504.73 941.152 1504.73 Z" fill="#000000" fill-rule="evenodd" fill-opacity="1" /><path clip-path="url(#clip100)" d="M 0 0 M1314.07 1521.29 Q1317.43 1522 1319.3 1524.27 Q1321.2 1526.54 1321.2 1529.87 Q1321.2 1534.99 1317.68 1537.79 Q1314.16 1540.59 1307.68 1540.59 Q1305.51 1540.59 1303.19 1540.15 Q1300.9 1539.73 1298.45 1538.88 L1298.45 1534.36 Q1300.39 1535.5 1302.71 1536.08 Q1305.02 1536.66 1307.54 1536.66 Q1311.94 1536.66 1314.23 1534.92 Q1316.55 1533.18 1316.55 1529.87 Q1316.55 1526.82 1314.39 1525.11 Q1312.27 1523.37 1308.45 1523.37 L1304.42 1523.37 L1304.42 1519.53 L1308.63 1519.53 Q1312.08 1519.53 1313.91 1518.16 Q1315.74 1516.77 1315.74 1514.18 Q1315.74 1511.52 1313.84 1510.11 Q1311.96 1508.67 1308.45 1508.67 Q1306.52 1508.67 1304.33 1509.09 Q1302.13 1509.5 1299.49 1510.38 L1299.49 1506.22 Q1302.15 1505.48 1304.46 1505.11 Q1306.8 1504.73 1308.86 1504.73 Q1314.19 1504.73 1317.29 1507.17 Q1320.39 1509.57 1320.39 1513.69 Q1320.39 1516.56 1318.75 1518.55 Q1317.1 1520.52 1314.07 1521.29 Z" fill="#000000" fill-rule="evenodd" fill-opacity="1" /><path clip-path="url(#clip100)" d="M 0 0 M1336.27 1508.44 Q1332.66 1508.44 1330.83 1512 Q1329.02 1515.55 1329.02 1522.67 Q1329.02 1529.78 1330.83 1533.35 Q1332.66 1536.89 1336.27 1536.89 Q1339.9 1536.89 1341.71 1533.35 Q1343.54 1529.78 1343.54 1522.67 Q1343.54 1515.55 1341.71 1512 Q1339.9 1508.44 1336.27 1508.44 M1336.27 1504.73 Q1342.08 1504.73 1345.14 1509.34 Q1348.21 1513.92 1348.21 1522.67 Q1348.21 1531.4 1345.14 1536.01 Q1342.08 1540.59 1336.27 1540.59 Q1330.46 1540.59 1327.38 1536.01 Q1324.33 1531.4 1324.33 1522.67 Q1324.33 1513.92 1327.38 1509.34 Q1330.46 1504.73 1336.27 1504.73 Z" fill="#000000" fill-rule="evenodd" fill-opacity="1" /><path clip-path="url(#clip100)" d="M 0 0 M1707.55 1509.43 L1695.74 1527.88 L1707.55 1527.88 L1707.55 1509.43 M1706.32 1505.36 L1712.2 1505.36 L1712.2 1527.88 L1717.13 1527.88 L1717.13 1531.77 L1712.2 1531.77 L1712.2 1539.92 L1707.55 1539.92 L1707.55 1531.77 L1691.94 1531.77 L1691.94 1527.26 L1706.32 1505.36 Z" fill="#000000" fill-rule="evenodd" fill-opacity="1" /><path clip-path="url(#clip100)" d="M 0 0 M1732.2 1508.44 Q1728.59 1508.44 1726.76 1512 Q1724.95 1515.55 1724.95 1522.67 Q1724.95 1529.78 1726.76 1533.35 Q1728.59 1536.89 1732.2 1536.89 Q1735.83 1536.89 1737.64 1533.35 Q1739.47 1529.78 1739.47 1522.67 Q1739.47 1515.55 1737.64 1512 Q1735.83 1508.44 1732.2 1508.44 M1732.2 1504.73 Q1738.01 1504.73 1741.06 1509.34 Q1744.14 1513.92 1744.14 1522.67 Q1744.14 1531.4 1741.06 1536.01 Q1738.01 1540.59 1732.2 1540.59 Q1726.39 1540.59 1723.31 1536.01 Q1720.25 1531.4 1720.25 1522.67 Q1720.25 1513.92 1723.31 1509.34 Q1726.39 1504.73 1732.2 1504.73 Z" fill="#000000" fill-rule="evenodd" fill-opacity="1" /><path clip-path="url(#clip100)" d="M 0 0 M2089.53 1505.36 L2107.88 1505.36 L2107.88 1509.3 L2093.81 1509.3 L2093.81 1517.77 Q2094.83 1517.42 2095.85 1517.26 Q2096.86 1517.07 2097.88 1517.07 Q2103.67 1517.07 2107.05 1520.24 Q2110.43 1523.42 2110.43 1528.83 Q2110.43 1534.41 2106.96 1537.51 Q2103.49 1540.59 2097.17 1540.59 Q2094.99 1540.59 2092.72 1540.22 Q2090.48 1539.85 2088.07 1539.11 L2088.07 1534.41 Q2090.15 1535.54 2092.37 1536.1 Q2094.6 1536.66 2097.07 1536.66 Q2101.08 1536.66 2103.42 1534.55 Q2105.75 1532.44 2105.75 1528.83 Q2105.75 1525.22 2103.42 1523.11 Q2101.08 1521.01 2097.07 1521.01 Q2095.2 1521.01 2093.32 1521.42 Q2091.47 1521.84 2089.53 1522.72 L2089.53 1505.36 Z" fill="#000000" fill-rule="evenodd" fill-opacity="1" /><path clip-path="url(#clip100)" d="M 0 0 M2125.5 1508.44 Q2121.89 1508.44 2120.06 1512 Q2118.25 1515.55 2118.25 1522.67 Q2118.25 1529.78 2120.06 1533.35 Q2121.89 1536.89 2125.5 1536.89 Q2129.13 1536.89 2130.94 1533.35 Q2132.77 1529.78 2132.77 1522.67 Q2132.77 1515.55 2130.94 1512 Q2129.13 1508.44 2125.5 1508.44 M2125.5 1504.73 Q2131.31 1504.73 2134.36 1509.34 Q2137.44 1513.92 2137.44 1522.67 Q2137.44 1531.4 2134.36 1536.01 Q2131.31 1540.59 2125.5 1540.59 Q2119.69 1540.59 2116.61 1536.01 Q2113.55 1531.4 2113.55 1522.67 Q2113.55 1513.92 2116.61 1509.34 Q2119.69 1504.73 2125.5 1504.73 Z" fill="#000000" fill-rule="evenodd" fill-opacity="1" /><path clip-path="url(#clip100)" d="M 0 0 M103.247 1472.25 Q99.6354 1472.25 97.8068 1475.81 Q96.0012 1479.35 96.0012 1486.48 Q96.0012 1493.59 97.8068 1497.15 Q99.6354 1500.7 103.247 1500.7 Q106.881 1500.7 108.686 1497.15 Q110.515 1493.59 110.515 1486.48 Q110.515 1479.35 108.686 1475.81 Q106.881 1472.25 103.247 1472.25 M103.247 1468.54 Q109.057 1468.54 112.112 1473.15 Q115.191 1477.73 115.191 1486.48 Q115.191 1495.21 112.112 1499.82 Q109.057 1504.4 103.247 1504.4 Q97.4364 1504.4 94.3577 1499.82 Q91.3022 1495.21 91.3022 1486.48 Q91.3022 1477.73 94.3577 1473.15 Q97.4364 1468.54 103.247 1468.54 Z" fill="#000000" fill-rule="evenodd" fill-opacity="1" /><path clip-path="url(#clip100)" d="M 0 0 M68.2699 1211.95 L75.9087 1211.95 L75.9087 1185.59 L67.5986 1187.25 L67.5986 1182.99 L75.8624 1181.33 L80.5383 1181.33 L80.5383 1211.95 L88.1772 1211.95 L88.1772 1215.89 L68.2699 1215.89 L68.2699 1211.95 Z" fill="#000000" fill-rule="evenodd" fill-opacity="1" /><path clip-path="url(#clip100)" d="M 0 0 M103.247 1184.41 Q99.6354 1184.41 97.8068 1187.97 Q96.0012 1191.51 96.0012 1198.64 Q96.0012 1205.75 97.8068 1209.31 Q99.6354 1212.85 103.247 1212.85 Q106.881 1212.85 108.686 1209.31 Q110.515 1205.75 110.515 1198.64 Q110.515 1191.51 108.686 1187.97 Q106.881 1184.41 103.247 1184.41 M103.247 1180.7 Q109.057 1180.7 112.112 1185.31 Q115.191 1189.89 115.191 1198.64 Q115.191 1207.37 112.112 1211.98 Q109.057 1216.56 103.247 1216.56 Q97.4364 1216.56 94.3577 1211.98 Q91.3022 1207.37 91.3022 1198.64 Q91.3022 1189.89 94.3577 1185.31 Q97.4364 1180.7 103.247 1180.7 Z" fill="#000000" fill-rule="evenodd" fill-opacity="1" /><path clip-path="url(#clip100)" d="M 0 0 M71.8578 924.111 L88.1772 924.111 L88.1772 928.046 L66.2328 928.046 L66.2328 924.111 Q68.8949 921.357 73.4782 916.727 Q78.0846 912.074 79.2652 910.732 Q81.5105 908.209 82.3902 906.472 Q83.2929 904.713 83.2929 903.023 Q83.2929 900.269 81.3485 898.533 Q79.4272 896.797 76.3254 896.797 Q74.1263 896.797 71.6726 897.56 Q69.2421 898.324 66.4643 899.875 L66.4643 895.153 Q69.2884 894.019 71.7421 893.44 Q74.1958 892.861 76.2328 892.861 Q81.6031 892.861 84.7976 895.547 Q87.992 898.232 87.992 902.722 Q87.992 904.852 87.1818 906.773 Q86.3948 908.671 84.2883 911.264 Q83.7096 911.935 80.6078 915.153 Q77.5059 918.347 71.8578 924.111 Z" fill="#000000" fill-rule="evenodd" fill-opacity="1" /><path clip-path="url(#clip100)" d="M 0 0 M103.247 896.565 Q99.6354 896.565 97.8068 900.13 Q96.0012 903.671 96.0012 910.801 Q96.0012 917.908 97.8068 921.472 Q99.6354 925.014 103.247 925.014 Q106.881 925.014 108.686 921.472 Q110.515 917.908 110.515 910.801 Q110.515 903.671 108.686 900.13 Q106.881 896.565 103.247 896.565 M103.247 892.861 Q109.057 892.861 112.112 897.468 Q115.191 902.051 115.191 910.801 Q115.191 919.528 112.112 924.134 Q109.057 928.718 103.247 928.718 Q97.4364 928.718 94.3577 924.134 Q91.3022 919.528 91.3022 910.801 Q91.3022 902.051 94.3577 897.468 Q97.4364 892.861 103.247 892.861 Z" fill="#000000" fill-rule="evenodd" fill-opacity="1" /><path clip-path="url(#clip100)" d="M 0 0 M81.0476 621.571 Q84.404 622.289 86.279 624.558 Q88.1772 626.826 88.1772 630.159 Q88.1772 635.275 84.6587 638.076 Q81.1402 640.877 74.6587 640.877 Q72.4828 640.877 70.168 640.437 Q67.8764 640.02 65.4227 639.164 L65.4227 634.65 Q67.3671 635.784 69.6819 636.363 Q71.9967 636.942 74.5198 636.942 Q78.918 636.942 81.2096 635.206 Q83.5244 633.47 83.5244 630.159 Q83.5244 627.104 81.3717 625.391 Q79.242 623.655 75.4226 623.655 L71.3949 623.655 L71.3949 619.812 L75.6078 619.812 Q79.0569 619.812 80.8855 618.446 Q82.7142 617.058 82.7142 614.465 Q82.7142 611.803 80.8161 610.391 Q78.9411 608.956 75.4226 608.956 Q73.5013 608.956 71.3023 609.372 Q69.1032 609.789 66.4643 610.669 L66.4643 606.502 Q69.1264 605.761 71.4412 605.391 Q73.7791 605.021 75.8393 605.021 Q81.1633 605.021 84.2652 607.451 Q87.367 609.859 87.367 613.979 Q87.367 616.849 85.7235 618.84 Q84.08 620.808 81.0476 621.571 Z" fill="#000000" fill-rule="evenodd" fill-opacity="1" /><path clip-path="url(#clip100)" d="M 0 0 M103.247 608.724 Q99.6354 608.724 97.8068 612.289 Q96.0012 615.831 96.0012 622.96 Q96.0012 630.067 97.8068 633.632 Q99.6354 637.173 103.247 637.173 Q106.881 637.173 108.686 633.632 Q110.515 630.067 110.515 622.96 Q110.515 615.831 108.686 612.289 Q106.881 608.724 103.247 608.724 M103.247 605.021 Q109.057 605.021 112.112 609.627 Q115.191 614.21 115.191 622.96 Q115.191 631.687 112.112 636.294 Q109.057 640.877 103.247 640.877 Q97.4364 640.877 94.3577 636.294 Q91.3022 631.687 91.3022 622.96 Q91.3022 614.21 94.3577 609.627 Q97.4364 605.021 103.247 605.021 Z" fill="#000000" fill-rule="evenodd" fill-opacity="1" /><path clip-path="url(#clip100)" d="M 0 0 M78.5939 321.879 L66.7884 340.328 L78.5939 340.328 L78.5939 321.879 M77.367 317.805 L83.2466 317.805 L83.2466 340.328 L88.1772 340.328 L88.1772 344.217 L83.2466 344.217 L83.2466 352.365 L78.5939 352.365 L78.5939 344.217 L62.9921 344.217 L62.9921 339.703 L77.367 317.805 Z" fill="#000000" fill-rule="evenodd" fill-opacity="1" /><path clip-path="url(#clip100)" d="M 0 0 M103.247 320.884 Q99.6354 320.884 97.8068 324.448 Q96.0012 327.99 96.0012 335.12 Q96.0012 342.226 97.8068 345.791 Q99.6354 349.332 103.247 349.332 Q106.881 349.332 108.686 345.791 Q110.515 342.226 110.515 335.12 Q110.515 327.99 108.686 324.448 Q106.881 320.884 103.247 320.884 M103.247 317.18 Q109.057 317.18 112.112 321.786 Q115.191 326.37 115.191 335.12 Q115.191 343.846 112.112 348.453 Q109.057 353.036 103.247 353.036 Q97.4364 353.036 94.3577 348.453 Q91.3022 343.846 91.3022 335.12 Q91.3022 326.37 94.3577 321.786 Q97.4364 317.18 103.247 317.18 Z" fill="#000000" fill-rule="evenodd" fill-opacity="1" /><path clip-path="url(#clip100)" d="M 0 0 M67.2745 29.9641 L85.6309 29.9641 L85.6309 33.8993 L71.5569 33.8993 L71.5569 42.3714 Q72.5754 42.0242 73.5939 41.8622 Q74.6124 41.677 75.6309 41.677 Q81.418 41.677 84.7976 44.8483 Q88.1772 48.0196 88.1772 53.4362 Q88.1772 59.0149 84.705 62.1167 Q81.2328 65.1954 74.9134 65.1954 Q72.7374 65.1954 70.4689 64.825 Q68.2236 64.4547 65.8162 63.7139 L65.8162 59.0149 Q67.8995 60.1491 70.1217 60.7047 Q72.3439 61.2602 74.8208 61.2602 Q78.8254 61.2602 81.1633 59.1538 Q83.5013 57.0473 83.5013 53.4362 Q83.5013 49.8251 81.1633 47.7186 Q78.8254 45.6122 74.8208 45.6122 Q72.9458 45.6122 71.0708 46.0288 Q69.2189 46.4455 67.2745 47.3251 L67.2745 29.9641 Z" fill="#000000" fill-rule="evenodd" fill-opacity="1" /><path clip-path="url(#clip100)" d="M 0 0 M103.247 33.0428 Q99.6354 33.0428 97.8068 36.6076 Q96.0012 40.1492 96.0012 47.2788 Q96.0012 54.3853 97.8068 57.9501 Q99.6354 61.4917 103.247 61.4917 Q106.881 61.4917 108.686 57.9501 Q110.515 54.3853 110.515 47.2788 Q110.515 40.1492 108.686 36.6076 Q106.881 33.0428 103.247 33.0428 M103.247 29.3391 Q109.057 29.3391 112.112 33.9456 Q115.191 38.5289 115.191 47.2788 Q115.191 56.0056 112.112 60.6121 Q109.057 65.1954 103.247 65.1954 Q97.4364 65.1954 94.3577 60.6121 Q91.3022 56.0056 91.3022 47.2788 Q91.3022 38.5289 94.3577 33.9456 Q97.4364 29.3391 103.247 29.3391 Z" fill="#000000" fill-rule="evenodd" fill-opacity="1" /><path clip-path="url(#clip102)" d="
M139.191 1486.45 L139.191 1486.45 L336.547 1486.45 L533.904 1486.45 L731.26 1486.45 L928.617 1486.45 L1125.97 1486.45 L1323.33 1486.45 L1520.69 1486.45 L1718.04 1486.45 
  L1915.4 1486.45 L2112.76 1486.45 L2112.76 1486.45 L2112.76 1486.45 L2112.76 1486.45 L2112.76 1342.53 L2112.76 1198.61 L2112.76 1054.69 L2112.76 910.766 L2112.76 766.846 
  L2112.76 622.926 L2112.76 479.005 L2112.76 335.085 L2112.76 191.164 L2112.76 47.2441 L2112.76 47.2441 L2112.76 47.2441 L2112.76 47.2441 L1915.4 47.2441 L1718.04 47.2441 
  L1520.69 47.2441 L1323.33 47.2441 L1125.97 47.2441 L928.617 47.2441 L731.26 47.2441 L533.904 47.2441 L336.547 47.2441 L139.191 47.2441 L139.191 47.2441 L139.191 47.2441 
  L139.191 47.2441 L139.191 191.164 L139.191 335.085 L139.191 479.005 L139.191 622.926 L139.191 766.846 L139.191 910.766 L139.191 1054.69 L139.191 1198.61 L139.191 1342.53 
  L139.191 1486.45 L139.191 1486.45 L139.191 1486.45  Z
  " fill="#000003" fill-rule="evenodd" fill-opacity="1"/>
<path clip-path="url(#clip102)" d="
M928.617 1486.45 L1125.97 1486.45 L1323.33 1486.45 L1520.69 1486.45 L1718.04 1486.45 L1915.4 1486.45 L2112.76 1486.45 L2112.76 1486.45 L2112.76 1486.45 L2112.76 1486.45 
  L2112.76 1342.53 L2112.76 1198.61 L2112.76 1054.69 L2112.76 910.766 L2112.76 766.846 L2112.76 622.926 L2112.76 479.005 L2112.76 335.085 L2112.76 191.164 L2112.76 47.2441 
  L2112.76 47.2441 L2112.76 47.2441 L2112.76 47.2441 L1915.4 47.2441 L1718.04 47.2441 L1520.69 47.2441 L1323.33 47.2441 L1125.97 47.2441 L928.617 47.2441 L731.26 47.2441 
  L533.904 47.2441 L336.547 47.2441 L139.191 47.2441 L139.191 47.2441 L139.191 47.2441 L139.191 47.2441 L139.191 191.164 L139.191 335.085 L139.191 479.005 L139.191 622.926 
  L139.191 766.846 L139.191 910.766 L139.191 1054.69 L139.191 1018.63 L336.547 1023.1 L533.904 1021.05 L731.26 1045.54 L743.538 1054.69 L785.41 1198.61 L793.303 1342.53 
  L780.7 1486.45 L731.26 1486.45 L928.617 1486.45  Z
  " fill="#06041b" fill-rule="evenodd" fill-opacity="1"/>
<path clip-path="url(#clip102)" d="
M928.617 1486.45 L1125.97 1486.45 L1323.33 1486.45 L1520.69 1486.45 L1718.04 1486.45 L1915.4 1486.45 L2112.76 1486.45 L2112.76 1486.45 L2112.76 1486.45 L2112.76 1486.45 
  L2112.76 1342.53 L2112.76 1198.61 L2112.76 1054.69 L2112.76 910.766 L2112.76 766.846 L2112.76 622.926 L2112.76 479.005 L2112.76 335.085 L2112.76 191.164 L2112.76 47.2441 
  L2112.76 47.2441 L2112.76 47.2441 L2112.76 47.2441 L1915.4 47.2441 L1718.04 47.2441 L1520.69 47.2441 L1323.33 47.2441 L1125.97 47.2441 L928.617 47.2441 L731.26 47.2441 
  L533.904 47.2441 L336.547 47.2441 L139.191 47.2441 L139.191 47.2441 L139.191 47.2441 L139.191 47.2441 L139.191 191.164 L139.191 335.085 L139.191 479.005 L139.191 622.926 
  L139.191 766.846 L139.191 910.766 L139.191 1054.69 L139.191 940.978 L336.547 945.096 L533.904 939.662 L731.26 971.94 L842.316 1054.69 L895.948 1198.61 L893.792 1342.53 
  L879.9 1486.45 L731.26 1486.45 L928.617 1486.45  Z
  " fill="#160b39" fill-rule="evenodd" fill-opacity="1"/>
<path clip-path="url(#clip102)" d="
M1125.97 1486.45 L1323.33 1486.45 L1520.69 1486.45 L1718.04 1486.45 L1915.4 1486.45 L2112.76 1486.45 L2112.76 1486.45 L2112.76 1486.45 L2112.76 1486.45 L2112.76 1342.53 
  L2112.76 1198.61 L2112.76 1054.69 L2112.76 910.766 L2112.76 766.846 L2112.76 622.926 L2112.76 479.005 L2112.76 335.085 L2112.76 191.164 L2112.76 47.2441 L2112.76 47.2441 
  L2112.76 47.2441 L2112.76 47.2441 L1915.4 47.2441 L1718.04 47.2441 L1520.69 47.2441 L1323.33 47.2441 L1125.97 47.2441 L928.617 47.2441 L731.26 47.2441 L533.904 47.2441 
  L336.547 47.2441 L139.191 47.2441 L139.191 47.2441 L139.191 47.2441 L139.191 47.2441 L139.191 191.164 L139.191 335.085 L139.191 479.005 L139.191 622.926 L139.191 766.846 
  L139.191 910.766 L139.191 887.734 L336.547 890.162 L533.904 885.954 L731.26 903.796 L749.834 910.766 L928.617 1044.31 L935.206 1054.69 L962.899 1198.61 L963.09 1342.53 
  L955.526 1486.45 L928.617 1486.45 L1125.97 1486.45  Z
  " fill="#2b0a56" fill-rule="evenodd" fill-opacity="1"/>
<path clip-path="url(#clip102)" d="
M1125.97 1486.45 L1323.33 1486.45 L1520.69 1486.45 L1718.04 1486.45 L1915.4 1486.45 L2112.76 1486.45 L2112.76 1486.45 L2112.76 1486.45 L2112.76 1486.45 L2112.76 1342.53 
  L2112.76 1198.61 L2112.76 1054.69 L2112.76 910.766 L2112.76 766.846 L2112.76 622.926 L2112.76 479.005 L2112.76 335.085 L2112.76 191.164 L2112.76 47.2441 L2112.76 47.2441 
  L2112.76 47.2441 L2112.76 47.2441 L1915.4 47.2441 L1718.04 47.2441 L1520.69 47.2441 L1323.33 47.2441 L1125.97 47.2441 L928.617 47.2441 L731.26 47.2441 L533.904 47.2441 
  L336.547 47.2441 L139.191 47.2441 L139.191 47.2441 L139.191 47.2441 L139.191 47.2441 L139.191 191.164 L139.191 335.085 L139.191 479.005 L139.191 622.926 L139.191 766.846 
  L139.191 910.766 L139.191 850.033 L336.547 853.362 L533.904 847.482 L731.26 862.509 L859.847 910.766 L928.617 962.133 L987.37 1054.69 L1011.56 1198.61 L1015.85 1342.53 
  L1008.4 1486.45 L928.617 1486.45 L1125.97 1486.45  Z
  " fill="#410967" fill-rule="evenodd" fill-opacity="1"/>
<path clip-path="url(#clip102)" d="
M1125.97 1486.45 L1323.33 1486.45 L1520.69 1486.45 L1718.04 1486.45 L1915.4 1486.45 L2112.76 1486.45 L2112.76 1486.45 L2112.76 1486.45 L2112.76 1486.45 L2112.76 1342.53 
  L2112.76 1198.61 L2112.76 1054.69 L2112.76 910.766 L2112.76 766.846 L2112.76 622.926 L2112.76 479.005 L2112.76 335.085 L2112.76 191.164 L2112.76 47.2441 L2112.76 47.2441 
  L2112.76 47.2441 L2112.76 47.2441 L1915.4 47.2441 L1718.04 47.2441 L1520.69 47.2441 L1323.33 47.2441 L1125.97 47.2441 L928.617 47.2441 L731.26 47.2441 L533.904 47.2441 
  L336.547 47.2441 L139.191 47.2441 L139.191 47.2441 L139.191 47.2441 L139.191 47.2441 L139.191 191.164 L139.191 335.085 L139.191 479.005 L139.191 622.926 L139.191 766.846 
  L139.191 910.766 L139.191 812.331 L336.547 816.563 L533.904 809.01 L731.26 821.221 L928.617 895.212 L947.372 910.766 L1039.53 1054.69 L1060.23 1198.61 L1068.6 1342.53 
  L1061.28 1486.45 L928.617 1486.45 L1125.97 1486.45  Z
  " fill="#550f6d" fill-rule="evenodd" fill-opacity="1"/>
<path clip-path="url(#clip102)" d="
M1125.97 1486.45 L1323.33 1486.45 L1520.69 1486.45 L1718.04 1486.45 L1915.4 1486.45 L2112.76 1486.45 L2112.76 1486.45 L2112.76 1486.45 L2112.76 1486.45 L2112.76 1342.53 
  L2112.76 1198.61 L2112.76 1054.69 L2112.76 910.766 L2112.76 766.846 L2112.76 622.926 L2112.76 479.005 L2112.76 335.085 L2112.76 191.164 L2112.76 47.2441 L2112.76 47.2441 
  L2112.76 47.2441 L2112.76 47.2441 L1915.4 47.2441 L1718.04 47.2441 L1520.69 47.2441 L1323.33 47.2441 L1125.97 47.2441 L928.617 47.2441 L731.26 47.2441 L533.904 47.2441 
  L336.547 47.2441 L139.191 47.2441 L139.191 47.2441 L139.191 47.2441 L139.191 47.2441 L139.191 191.164 L139.191 335.085 L139.191 479.005 L139.191 622.926 L139.191 766.846 
  L139.191 910.766 L139.191 774.63 L336.547 779.763 L533.904 770.537 L731.26 779.934 L928.617 853.722 L997.4 910.766 L1091.7 1054.69 L1108.89 1198.61 L1121.36 1342.53 
  L1114.16 1486.45 L928.617 1486.45 L1125.97 1486.45  Z
  " fill="#6a176e" fill-rule="evenodd" fill-opacity="1"/>
<path clip-path="url(#clip102)" d="
M1323.33 1486.45 L1520.69 1486.45 L1718.04 1486.45 L1915.4 1486.45 L2112.76 1486.45 L2112.76 1486.45 L2112.76 1486.45 L2112.76 1486.45 L2112.76 1342.53 L2112.76 1198.61 
  L2112.76 1054.69 L2112.76 910.766 L2112.76 766.846 L2112.76 622.926 L2112.76 479.005 L2112.76 335.085 L2112.76 191.164 L2112.76 47.2441 L2112.76 47.2441 L2112.76 47.2441 
  L2112.76 47.2441 L1915.4 47.2441 L1718.04 47.2441 L1520.69 47.2441 L1323.33 47.2441 L1125.97 47.2441 L928.617 47.2441 L731.26 47.2441 L533.904 47.2441 L336.547 47.2441 
  L139.191 47.2441 L139.191 47.2441 L139.191 47.2441 L139.191 47.2441 L139.191 191.164 L139.191 335.085 L139.191 479.005 L139.191 622.926 L139.191 766.846 L139.191 740.034 
  L336.547 744.148 L533.904 736.839 L731.26 746.527 L807.118 766.846 L928.617 812.233 L1047.43 910.766 L1125.97 1028.89 L1141.22 1054.69 L1154.72 1198.61 L1166.25 1342.53 
  L1159.92 1486.45 L1125.97 1486.45 L1323.33 1486.45  Z
  " fill="#7e1e6c" fill-rule="evenodd" fill-opacity="1"/>
<path clip-path="url(#clip102)" d="
M1323.33 1486.45 L1520.69 1486.45 L1718.04 1486.45 L1915.4 1486.45 L2112.76 1486.45 L2112.76 1486.45 L2112.76 1486.45 L2112.76 1486.45 L2112.76 1342.53 L2112.76 1198.61 
  L2112.76 1054.69 L2112.76 910.766 L2112.76 766.846 L2112.76 622.926 L2112.76 479.005 L2112.76 335.085 L2112.76 191.164 L2112.76 47.2441 L2112.76 47.2441 L2112.76 47.2441 
  L2112.76 47.2441 L1915.4 47.2441 L1718.04 47.2441 L1520.69 47.2441 L1323.33 47.2441 L1125.97 47.2441 L928.617 47.2441 L731.26 47.2441 L533.904 47.2441 L336.547 47.2441 
  L139.191 47.2441 L139.191 47.2441 L139.191 47.2441 L139.191 47.2441 L139.191 191.164 L139.191 335.085 L139.191 479.005 L139.191 622.926 L139.191 766.846 L139.191 706.246 
  L336.547 709.173 L533.904 703.647 L731.26 716.777 L918.185 766.846 L928.617 770.743 L1097.46 910.766 L1125.97 953.653 L1185.69 1054.69 L1199.02 1198.61 L1210.38 1342.53 
  L1203.63 1486.45 L1125.97 1486.45 L1323.33 1486.45  Z
  " fill="#932567" fill-rule="evenodd" fill-opacity="1"/>
<path clip-path="url(#clip102)" d="
M1323.33 1486.45 L1520.69 1486.45 L1718.04 1486.45 L1915.4 1486.45 L2112.76 1486.45 L2112.76 1486.45 L2112.76 1486.45 L2112.76 1486.45 L2112.76 1342.53 L2112.76 1198.61 
  L2112.76 1054.69 L2112.76 910.766 L2112.76 766.846 L2112.76 622.926 L2112.76 479.005 L2112.76 335.085 L2112.76 191.164 L2112.76 47.2441 L2112.76 47.2441 L2112.76 47.2441 
  L2112.76 47.2441 L1915.4 47.2441 L1718.04 47.2441 L1520.69 47.2441 L1323.33 47.2441 L1125.97 47.2441 L928.617 47.2441 L731.26 47.2441 L533.904 47.2441 L336.547 47.2441 
  L139.191 47.2441 L139.191 47.2441 L139.191 47.2441 L139.191 47.2441 L139.191 191.164 L139.191 335.085 L139.191 479.005 L139.191 622.926 L139.191 766.846 L139.191 672.459 
  L336.547 674.198 L533.904 670.456 L731.26 687.027 L928.617 736.047 L978.934 766.846 L1125.97 890.661 L1146.34 910.766 L1230.16 1054.69 L1243.32 1198.61 L1254.51 1342.53 
  L1247.35 1486.45 L1125.97 1486.45 L1323.33 1486.45  Z
  " fill="#a62c5f" fill-rule="evenodd" fill-opacity="1"/>
<path clip-path="url(#clip102)" d="
M1323.33 1486.45 L1520.69 1486.45 L1718.04 1486.45 L1915.4 1486.45 L2112.76 1486.45 L2112.76 1486.45 L2112.76 1486.45 L2112.76 1486.45 L2112.76 1342.53 L2112.76 1198.61 
  L2112.76 1054.69 L2112.76 910.766 L2112.76 766.846 L2112.76 622.926 L2112.76 479.005 L2112.76 335.085 L2112.76 191.164 L2112.76 47.2441 L2112.76 47.2441 L2112.76 47.2441 
  L2112.76 47.2441 L1915.4 47.2441 L1718.04 47.2441 L1520.69 47.2441 L1323.33 47.2441 L1125.97 47.2441 L928.617 47.2441 L731.26 47.2441 L533.904 47.2441 L336.547 47.2441 
  L139.191 47.2441 L139.191 47.2441 L139.191 47.2441 L139.191 47.2441 L139.191 191.164 L139.191 335.085 L139.191 479.005 L139.191 622.926 L139.191 766.846 L139.191 638.671 
  L336.547 639.224 L533.904 637.264 L731.26 657.277 L928.617 702.056 L1034.47 766.846 L1125.97 843.899 L1193.72 910.766 L1274.63 1054.69 L1287.62 1198.61 L1298.64 1342.53 
  L1291.07 1486.45 L1125.97 1486.45 L1323.33 1486.45  Z
  " fill="#ba3655" fill-rule="evenodd" fill-opacity="1"/>
<path clip-path="url(#clip102)" d="
M1520.69 1486.45 L1718.04 1486.45 L1915.4 1486.45 L2112.76 1486.45 L2112.76 1486.45 L2112.76 1486.45 L2112.76 1486.45 L2112.76 1342.53 L2112.76 1198.61 L2112.76 1054.69 
  L2112.76 910.766 L2112.76 766.846 L2112.76 622.926 L2112.76 479.005 L2112.76 335.085 L2112.76 191.164 L2112.76 47.2441 L2112.76 47.2441 L2112.76 47.2441 L2112.76 47.2441 
  L1915.4 47.2441 L1718.04 47.2441 L1520.69 47.2441 L1323.33 47.2441 L1125.97 47.2441 L928.617 47.2441 L731.26 47.2441 L533.904 47.2441 L336.547 47.2441 L139.191 47.2441 
  L139.191 47.2441 L139.191 47.2441 L139.191 47.2441 L139.191 191.164 L139.191 335.085 L139.191 479.005 L139.191 622.926 L139.191 601.196 L336.547 600.041 L533.904 599.416 
  L689.025 622.926 L731.26 627.527 L928.617 668.064 L1090 766.846 L1125.97 797.137 L1241.09 910.766 L1319.1 1054.69 L1323.33 1102.06 L1335.94 1198.61 L1348.33 1342.53 
  L1339.42 1486.45 L1323.33 1486.45 L1520.69 1486.45  Z
  " fill="#cc4148" fill-rule="evenodd" fill-opacity="1"/>
<path clip-path="url(#clip102)" d="
M1520.69 1486.45 L1718.04 1486.45 L1915.4 1486.45 L2112.76 1486.45 L2112.76 1486.45 L2112.76 1486.45 L2112.76 1486.45 L2112.76 1342.53 L2112.76 1198.61 L2112.76 1054.69 
  L2112.76 910.766 L2112.76 766.846 L2112.76 622.926 L2112.76 479.005 L2112.76 335.085 L2112.76 191.164 L2112.76 47.2441 L2112.76 47.2441 L2112.76 47.2441 L2112.76 47.2441 
  L1915.4 47.2441 L1718.04 47.2441 L1520.69 47.2441 L1323.33 47.2441 L1125.97 47.2441 L928.617 47.2441 L731.26 47.2441 L533.904 47.2441 L336.547 47.2441 L139.191 47.2441 
  L139.191 47.2441 L139.191 47.2441 L139.191 47.2441 L139.191 191.164 L139.191 335.085 L139.191 479.005 L139.191 622.926 L139.191 560.504 L336.547 557.185 L533.904 558.028 
  L731.26 582.73 L873.455 622.926 L928.617 634.073 L1125.97 752.374 L1145.39 766.846 L1288.46 910.766 L1323.33 975.323 L1375.32 1054.69 L1400.96 1198.61 L1405.08 1342.53 
  L1400.83 1486.45 L1323.33 1486.45 L1520.69 1486.45  Z
  " fill="#dc5039" fill-rule="evenodd" fill-opacity="1"/>
<path clip-path="url(#clip102)" d="
M1520.69 1486.45 L1718.04 1486.45 L1915.4 1486.45 L2112.76 1486.45 L2112.76 1486.45 L2112.76 1486.45 L2112.76 1486.45 L2112.76 1342.53 L2112.76 1198.61 L2112.76 1054.69 
  L2112.76 910.766 L2112.76 766.846 L2112.76 622.926 L2112.76 479.005 L2112.76 335.085 L2112.76 191.164 L2112.76 47.2441 L2112.76 47.2441 L2112.76 47.2441 L2112.76 47.2441 
  L1915.4 47.2441 L1718.04 47.2441 L1520.69 47.2441 L1323.33 47.2441 L1125.97 47.2441 L928.617 47.2441 L731.26 47.2441 L533.904 47.2441 L336.547 47.2441 L139.191 47.2441 
  L139.191 47.2441 L139.191 47.2441 L139.191 47.2441 L139.191 191.164 L139.191 335.085 L139.191 479.005 L139.191 622.926 L139.191 519.812 L336.547 514.33 L533.904 516.64 
  L731.26 535.18 L928.617 594.626 L975.607 622.926 L1125.97 711.287 L1200.53 766.846 L1323.33 895.516 L1338.73 910.766 L1432.78 1054.69 L1465.98 1198.61 L1461.84 1342.53 
  L1462.24 1486.45 L1323.33 1486.45 L1520.69 1486.45  Z
  " fill="#e8612b" fill-rule="evenodd" fill-opacity="1"/>
<path clip-path="url(#clip102)" d="
M1718.04 1486.45 L1915.4 1486.45 L2112.76 1486.45 L2112.76 1486.45 L2112.76 1486.45 L2112.76 1486.45 L2112.76 1342.53 L2112.76 1198.61 L2112.76 1054.69 L2112.76 910.766 
  L2112.76 766.846 L2112.76 622.926 L2112.76 479.005 L2112.76 335.085 L2112.76 191.164 L2112.76 47.2441 L2112.76 47.2441 L2112.76 47.2441 L2112.76 47.2441 L1915.4 47.2441 
  L1718.04 47.2441 L1520.69 47.2441 L1323.33 47.2441 L1125.97 47.2441 L928.617 47.2441 L731.26 47.2441 L533.904 47.2441 L336.547 47.2441 L139.191 47.2441 L139.191 47.2441 
  L139.191 47.2441 L139.191 47.2441 L139.191 191.164 L139.191 335.085 L139.191 479.005 L139.191 622.926 L139.191 479.121 L142.324 479.005 L336.547 469.71 L533.904 473.712 
  L599.689 479.005 L731.26 487.63 L928.617 552.517 L1045.52 622.926 L1125.97 670.2 L1255.67 766.846 L1323.33 837.742 L1397.05 910.766 L1490.24 1054.69 L1520.69 1165.44 
  L1532.46 1198.61 L1520.69 1315.41 L1518.6 1342.53 L1520.69 1404.89 L1524.54 1486.45 L1520.69 1486.45 L1718.04 1486.45  Z
  " fill="#f2751a" fill-rule="evenodd" fill-opacity="1"/>
<path clip-path="url(#clip102)" d="
M1718.04 1486.45 L1915.4 1486.45 L2112.76 1486.45 L2112.76 1486.45 L2112.76 1486.45 L2112.76 1486.45 L2112.76 1342.53 L2112.76 1198.61 L2112.76 1054.69 L2112.76 910.766 
  L2112.76 766.846 L2112.76 622.926 L2112.76 479.005 L2112.76 335.085 L2112.76 191.164 L2112.76 47.2441 L2112.76 47.2441 L2112.76 47.2441 L2112.76 47.2441 L1915.4 47.2441 
  L1718.04 47.2441 L1520.69 47.2441 L1323.33 47.2441 L1125.97 47.2441 L928.617 47.2441 L731.26 47.2441 L533.904 47.2441 L336.547 47.2441 L139.191 47.2441 L139.191 47.2441 
  L139.191 47.2441 L139.191 47.2441 L139.191 191.164 L139.191 335.085 L139.191 479.005 L139.191 423.662 L336.547 416.811 L533.904 415.34 L731.26 431.221 L834.535 479.005 
  L928.617 510.408 L1115.44 622.926 L1125.97 629.114 L1310.81 766.846 L1323.33 779.968 L1455.37 910.766 L1520.69 1012.14 L1564.33 1054.69 L1606.62 1198.61 L1604.11 1342.53 
  L1604.59 1486.45 L1520.69 1486.45 L1718.04 1486.45  Z
  " fill="#f98c09" fill-rule="evenodd" fill-opacity="1"/>
<path clip-path="url(#clip102)" d="
M1718.04 1486.45 L1915.4 1486.45 L2112.76 1486.45 L2112.76 1486.45 L2112.76 1486.45 L2112.76 1486.45 L2112.76 1342.53 L2112.76 1198.61 L2112.76 1054.69 L2112.76 910.766 
  L2112.76 766.846 L2112.76 622.926 L2112.76 479.005 L2112.76 335.085 L2112.76 191.164 L2112.76 47.2441 L2112.76 47.2441 L2112.76 47.2441 L2112.76 47.2441 L1915.4 47.2441 
  L1718.04 47.2441 L1520.69 47.2441 L1323.33 47.2441 L1125.97 47.2441 L928.617 47.2441 L731.26 47.2441 L533.904 47.2441 L336.547 47.2441 L139.191 47.2441 L139.191 47.2441 
  L139.191 47.2441 L139.191 47.2441 L139.191 191.164 L139.191 335.085 L139.191 479.005 L139.191 368.161 L336.547 363.912 L533.904 356.968 L731.26 372.849 L928.617 461.366 
  L953.415 479.005 L1125.97 576.243 L1189.99 622.926 L1323.33 723.09 L1377.53 766.846 L1513.7 910.766 L1520.69 921.614 L1657.18 1054.69 L1680.78 1198.61 L1690.73 1342.53 
  L1684.63 1486.45 L1520.69 1486.45 L1718.04 1486.45  Z
  " fill="#fba40a" fill-rule="evenodd" fill-opacity="1"/>
<path clip-path="url(#clip102)" d="
M1915.4 1486.45 L2112.76 1486.45 L2112.76 1486.45 L2112.76 1486.45 L2112.76 1486.45 L2112.76 1342.53 L2112.76 1198.61 L2112.76 1054.69 L2112.76 910.766 L2112.76 766.846 
  L2112.76 622.926 L2112.76 479.005 L2112.76 335.085 L2112.76 191.164 L2112.76 47.2441 L2112.76 47.2441 L2112.76 47.2441 L2112.76 47.2441 L1915.4 47.2441 L1718.04 47.2441 
  L1520.69 47.2441 L1323.33 47.2441 L1125.97 47.2441 L928.617 47.2441 L731.26 47.2441 L533.904 47.2441 L336.547 47.2441 L139.191 47.2441 L139.191 47.2441 L139.191 47.2441 
  L139.191 47.2441 L139.191 191.164 L139.191 335.085 L139.191 294.614 L336.547 295.378 L533.904 281.911 L731.26 305.933 L790.644 335.085 L928.617 391.99 L1050.95 479.005 
  L1125.97 521.282 L1265.36 622.926 L1323.33 666.475 L1447.66 766.846 L1520.69 844.841 L1622.84 910.766 L1718.04 1012.12 L1757.64 1054.69 L1779.48 1198.61 L1801.68 1342.53 
  L1789.98 1486.45 L1718.04 1486.45 L1915.4 1486.45  Z
  " fill="#fabb21" fill-rule="evenodd" fill-opacity="1"/>
<path clip-path="url(#clip102)" d="
M1915.4 1486.45 L2112.76 1486.45 L2112.76 1486.45 L2112.76 1486.45 L2112.76 1486.45 L2112.76 1342.53 L2112.76 1198.61 L2112.76 1054.69 L2112.76 910.766 L2112.76 766.846 
  L2112.76 622.926 L2112.76 479.005 L2112.76 335.085 L2112.76 191.164 L2112.76 47.2441 L2112.76 47.2441 L2112.76 47.2441 L2112.76 47.2441 L1915.4 47.2441 L1718.04 47.2441 
  L1520.69 47.2441 L1323.33 47.2441 L1125.97 47.2441 L928.617 47.2441 L731.26 47.2441 L533.904 47.2441 L336.547 47.2441 L139.191 47.2441 L139.191 47.2441 L139.191 47.2441 
  L139.191 47.2441 L139.191 191.164 L139.191 335.085 L139.191 194.449 L336.547 208.121 L533.904 196.847 L731.26 223.359 L928.617 315.579 L951.418 335.085 L1125.97 458.336 
  L1152.89 479.005 L1323.33 603.295 L1350.8 622.926 L1517.79 766.846 L1520.69 769.939 L1718.04 891.261 L1747.02 910.766 L1872.55 1054.69 L1902.95 1198.61 L1915.4 1283.93 
  L1929.5 1342.53 L1915.4 1459.72 L1913.45 1486.45 L1718.04 1486.45 L1915.4 1486.45  Z
  " fill="#f6d542" fill-rule="evenodd" fill-opacity="1"/>
<path clip-path="url(#clip102)" d="
M2112.76 1486.45 L2112.76 1486.45 L2112.76 1486.45 L2112.76 1486.45 L2112.76 1486.45 L2112.76 1455.38 L2107.39 1486.45 L1915.4 1486.45 L2112.76 1486.45 M2112.76 1154.7 L2112.76 1198.61 L2112.76 1054.69 L2112.76 910.766 L2112.76 766.846 L2112.76 622.926 L2112.76 479.005 L2112.76 335.085 L2112.76 191.164 L2112.76 47.2441 
  L2112.76 47.2441 L2112.76 47.2441 L2112.76 47.2441 L1915.4 47.2441 L1718.04 47.2441 L1520.69 47.2441 L1323.33 47.2441 L1125.97 47.2441 L928.617 47.2441 L731.26 47.2441 
  L533.904 47.2441 L336.547 47.2441 L393.658 47.2441 L533.904 58.4168 L731.26 71.0714 L890.392 191.164 L928.617 207.068 L1078.26 335.085 L1125.97 368.771 L1269.54 479.005 
  L1323.33 518.231 L1469.84 622.926 L1520.69 667.283 L1691.87 766.846 L1718.04 782.749 L1908.22 910.766 L1915.4 920.309 L2067.04 1054.69 L2112.76 1154.7 M139.191 191.164 L139.191 52.4131 L243.743 47.2441 L139.191 47.2441 L139.191 47.2441 L139.191 47.2441 L139.191 47.2441 L139.191 47.2441 L139.191 191.164  Z
  " fill="#f1ed70" fill-rule="evenodd" fill-opacity="1"/>
<path clip-path="url(#clip102)" d="
M1915.4 777.098 L2112.76 863.372 L2112.76 910.766 L2112.76 766.846 L2112.76 622.926 L2112.76 479.005 L2112.76 335.085 L2112.76 191.164 L2112.76 47.2441 L2112.76 47.2441 
  L2112.76 47.2441 L2112.76 47.2441 L1915.4 47.2441 L1718.04 47.2441 L1520.69 47.2441 L1323.33 47.2441 L1125.97 47.2441 L928.617 47.2441 L933.159 47.2441 L1125.97 190.235 
  L1127.06 191.164 L1266.58 335.085 L1323.33 380.921 L1457.83 479.005 L1520.69 522.951 L1670.1 622.926 L1718.04 648.429 L1899.79 766.846 L1915.4 777.098  Z
  " fill="#fcfea4" fill-rule="evenodd" fill-opacity="1"/>
<polyline clip-path="url(#clip102)" style="stroke:#000000; stroke-width:4; stroke-opacity:1; fill:none" points="
  139.191,1486.45 139.191,1486.45 336.547,1486.45 533.904,1486.45 731.26,1486.45 928.617,1486.45 1125.97,1486.45 1323.33,1486.45 1520.69,1486.45 1718.04,1486.45 
  1915.4,1486.45 2112.76,1486.45 2112.76,1342.53 2112.76,1198.61 2112.76,1054.69 2112.76,910.766 2112.76,766.846 
  2112.76,622.926 2112.76,479.005 2112.76,335.085 2112.76,191.164 2112.76,47.2441 1915.4,47.2441 1718.04,47.2441 
  1520.69,47.2441 1323.33,47.2441 1125.97,47.2441 928.617,47.2441 731.26,47.2441 533.904,47.2441 336.547,47.2441 139.191,47.2441 
  139.191,191.164 139.191,335.085 139.191,479.005 139.191,622.926 139.191,766.846 139.191,910.766 139.191,1054.69 139.191,1198.61 139.191,1342.53 
  139.191,1486.45 
  "/>
<polyline clip-path="url(#clip102)" style="stroke:#000000; stroke-width:4; stroke-opacity:1; fill:none" points="
  928.617,1486.45 1125.97,1486.45 1323.33,1486.45 1520.69,1486.45 1718.04,1486.45 1915.4,1486.45 2112.76,1486.45 
  2112.76,1342.53 2112.76,1198.61 2112.76,1054.69 2112.76,910.766 2112.76,766.846 2112.76,622.926 2112.76,479.005 2112.76,335.085 2112.76,191.164 2112.76,47.2441 
  1915.4,47.2441 1718.04,47.2441 1520.69,47.2441 1323.33,47.2441 1125.97,47.2441 928.617,47.2441 731.26,47.2441 
  533.904,47.2441 336.547,47.2441 139.191,47.2441 139.191,191.164 139.191,335.085 139.191,479.005 139.191,622.926 
  139.191,766.846 139.191,910.766 139.191,1054.69 139.191,1018.63 336.547,1023.1 533.904,1021.05 731.26,1045.54 743.538,1054.69 785.41,1198.61 793.303,1342.53 
  780.7,1486.45 731.26,1486.45 928.617,1486.45 
  "/>
<polyline clip-path="url(#clip102)" style="stroke:#000000; stroke-width:4; stroke-opacity:1; fill:none" points="
  928.617,1486.45 1125.97,1486.45 1323.33,1486.45 1520.69,1486.45 1718.04,1486.45 1915.4,1486.45 2112.76,1486.45 
  2112.76,1342.53 2112.76,1198.61 2112.76,1054.69 2112.76,910.766 2112.76,766.846 2112.76,622.926 2112.76,479.005 2112.76,335.085 2112.76,191.164 2112.76,47.2441 
  1915.4,47.2441 1718.04,47.2441 1520.69,47.2441 1323.33,47.2441 1125.97,47.2441 928.617,47.2441 731.26,47.2441 
  533.904,47.2441 336.547,47.2441 139.191,47.2441 139.191,191.164 139.191,335.085 139.191,479.005 139.191,622.926 
  139.191,766.846 139.191,910.766 139.191,1054.69 139.191,940.978 336.547,945.096 533.904,939.662 731.26,971.94 842.316,1054.69 895.948,1198.61 893.792,1342.53 
  879.9,1486.45 731.26,1486.45 928.617,1486.45 
  "/>
<polyline clip-path="url(#clip102)" style="stroke:#000000; stroke-width:4; stroke-opacity:1; fill:none" points="
  1125.97,1486.45 1323.33,1486.45 1520.69,1486.45 1718.04,1486.45 1915.4,1486.45 2112.76,1486.45 2112.76,1342.53 
  2112.76,1198.61 2112.76,1054.69 2112.76,910.766 2112.76,766.846 2112.76,622.926 2112.76,479.005 2112.76,335.085 2112.76,191.164 2112.76,47.2441 
  1915.4,47.2441 1718.04,47.2441 1520.69,47.2441 1323.33,47.2441 1125.97,47.2441 928.617,47.2441 731.26,47.2441 533.904,47.2441 
  336.547,47.2441 139.191,47.2441 139.191,191.164 139.191,335.085 139.191,479.005 139.191,622.926 139.191,766.846 
  139.191,910.766 139.191,887.734 336.547,890.162 533.904,885.954 731.26,903.796 749.834,910.766 928.617,1044.31 935.206,1054.69 962.899,1198.61 963.09,1342.53 
  955.526,1486.45 928.617,1486.45 1125.97,1486.45 
  "/>
<polyline clip-path="url(#clip102)" style="stroke:#000000; stroke-width:4; stroke-opacity:1; fill:none" points="
  1125.97,1486.45 1323.33,1486.45 1520.69,1486.45 1718.04,1486.45 1915.4,1486.45 2112.76,1486.45 2112.76,1342.53 
  2112.76,1198.61 2112.76,1054.69 2112.76,910.766 2112.76,766.846 2112.76,622.926 2112.76,479.005 2112.76,335.085 2112.76,191.164 2112.76,47.2441 
  1915.4,47.2441 1718.04,47.2441 1520.69,47.2441 1323.33,47.2441 1125.97,47.2441 928.617,47.2441 731.26,47.2441 533.904,47.2441 
  336.547,47.2441 139.191,47.2441 139.191,191.164 139.191,335.085 139.191,479.005 139.191,622.926 139.191,766.846 
  139.191,910.766 139.191,850.033 336.547,853.362 533.904,847.482 731.26,862.509 859.847,910.766 928.617,962.133 987.37,1054.69 1011.56,1198.61 1015.85,1342.53 
  1008.4,1486.45 928.617,1486.45 1125.97,1486.45 
  "/>
<polyline clip-path="url(#clip102)" style="stroke:#000000; stroke-width:4; stroke-opacity:1; fill:none" points="
  1125.97,1486.45 1323.33,1486.45 1520.69,1486.45 1718.04,1486.45 1915.4,1486.45 2112.76,1486.45 2112.76,1342.53 
  2112.76,1198.61 2112.76,1054.69 2112.76,910.766 2112.76,766.846 2112.76,622.926 2112.76,479.005 2112.76,335.085 2112.76,191.164 2112.76,47.2441 
  1915.4,47.2441 1718.04,47.2441 1520.69,47.2441 1323.33,47.2441 1125.97,47.2441 928.617,47.2441 731.26,47.2441 533.904,47.2441 
  336.547,47.2441 139.191,47.2441 139.191,191.164 139.191,335.085 139.191,479.005 139.191,622.926 139.191,766.846 
  139.191,910.766 139.191,812.331 336.547,816.563 533.904,809.01 731.26,821.221 928.617,895.212 947.372,910.766 1039.53,1054.69 1060.23,1198.61 1068.6,1342.53 
  1061.28,1486.45 928.617,1486.45 1125.97,1486.45 
  "/>
<polyline clip-path="url(#clip102)" style="stroke:#000000; stroke-width:4; stroke-opacity:1; fill:none" points="
  1125.97,1486.45 1323.33,1486.45 1520.69,1486.45 1718.04,1486.45 1915.4,1486.45 2112.76,1486.45 2112.76,1342.53 
  2112.76,1198.61 2112.76,1054.69 2112.76,910.766 2112.76,766.846 2112.76,622.926 2112.76,479.005 2112.76,335.085 2112.76,191.164 2112.76,47.2441 
  1915.4,47.2441 1718.04,47.2441 1520.69,47.2441 1323.33,47.2441 1125.97,47.2441 928.617,47.2441 731.26,47.2441 533.904,47.2441 
  336.547,47.2441 139.191,47.2441 139.191,191.164 139.191,335.085 139.191,479.005 139.191,622.926 139.191,766.846 
  139.191,910.766 139.191,774.63 336.547,779.763 533.904,770.537 731.26,779.934 928.617,853.722 997.4,910.766 1091.7,1054.69 1108.89,1198.61 1121.36,1342.53 
  1114.16,1486.45 928.617,1486.45 1125.97,1486.45 
  "/>
<polyline clip-path="url(#clip102)" style="stroke:#000000; stroke-width:4; stroke-opacity:1; fill:none" points="
  1323.33,1486.45 1520.69,1486.45 1718.04,1486.45 1915.4,1486.45 2112.76,1486.45 2112.76,1342.53 2112.76,1198.61 
  2112.76,1054.69 2112.76,910.766 2112.76,766.846 2112.76,622.926 2112.76,479.005 2112.76,335.085 2112.76,191.164 2112.76,47.2441 
  1915.4,47.2441 1718.04,47.2441 1520.69,47.2441 1323.33,47.2441 1125.97,47.2441 928.617,47.2441 731.26,47.2441 533.904,47.2441 336.547,47.2441 
  139.191,47.2441 139.191,191.164 139.191,335.085 139.191,479.005 139.191,622.926 139.191,766.846 139.191,740.034 
  336.547,744.148 533.904,736.839 731.26,746.527 807.118,766.846 928.617,812.233 1047.43,910.766 1125.97,1028.89 1141.22,1054.69 1154.72,1198.61 1166.25,1342.53 
  1159.92,1486.45 1125.97,1486.45 1323.33,1486.45 
  "/>
<polyline clip-path="url(#clip102)" style="stroke:#000000; stroke-width:4; stroke-opacity:1; fill:none" points="
  1323.33,1486.45 1520.69,1486.45 1718.04,1486.45 1915.4,1486.45 2112.76,1486.45 2112.76,1342.53 2112.76,1198.61 
  2112.76,1054.69 2112.76,910.766 2112.76,766.846 2112.76,622.926 2112.76,479.005 2112.76,335.085 2112.76,191.164 2112.76,47.2441 
  1915.4,47.2441 1718.04,47.2441 1520.69,47.2441 1323.33,47.2441 1125.97,47.2441 928.617,47.2441 731.26,47.2441 533.904,47.2441 336.547,47.2441 
  139.191,47.2441 139.191,191.164 139.191,335.085 139.191,479.005 139.191,622.926 139.191,766.846 139.191,706.246 
  336.547,709.173 533.904,703.647 731.26,716.777 918.185,766.846 928.617,770.743 1097.46,910.766 1125.97,953.653 1185.69,1054.69 1199.02,1198.61 1210.38,1342.53 
  1203.63,1486.45 1125.97,1486.45 1323.33,1486.45 
  "/>
<polyline clip-path="url(#clip102)" style="stroke:#000000; stroke-width:4; stroke-opacity:1; fill:none" points="
  1323.33,1486.45 1520.69,1486.45 1718.04,1486.45 1915.4,1486.45 2112.76,1486.45 2112.76,1342.53 2112.76,1198.61 
  2112.76,1054.69 2112.76,910.766 2112.76,766.846 2112.76,622.926 2112.76,479.005 2112.76,335.085 2112.76,191.164 2112.76,47.2441 
  1915.4,47.2441 1718.04,47.2441 1520.69,47.2441 1323.33,47.2441 1125.97,47.2441 928.617,47.2441 731.26,47.2441 533.904,47.2441 336.547,47.2441 
  139.191,47.2441 139.191,191.164 139.191,335.085 139.191,479.005 139.191,622.926 139.191,766.846 139.191,672.459 
  336.547,674.198 533.904,670.456 731.26,687.027 928.617,736.047 978.934,766.846 1125.97,890.661 1146.34,910.766 1230.16,1054.69 1243.32,1198.61 1254.51,1342.53 
  1247.35,1486.45 1125.97,1486.45 1323.33,1486.45 
  "/>
<polyline clip-path="url(#clip102)" style="stroke:#000000; stroke-width:4; stroke-opacity:1; fill:none" points="
  1323.33,1486.45 1520.69,1486.45 1718.04,1486.45 1915.4,1486.45 2112.76,1486.45 2112.76,1342.53 2112.76,1198.61 
  2112.76,1054.69 2112.76,910.766 2112.76,766.846 2112.76,622.926 2112.76,479.005 2112.76,335.085 2112.76,191.164 2112.76,47.2441 
  1915.4,47.2441 1718.04,47.2441 1520.69,47.2441 1323.33,47.2441 1125.97,47.2441 928.617,47.2441 731.26,47.2441 533.904,47.2441 336.547,47.2441 
  139.191,47.2441 139.191,191.164 139.191,335.085 139.191,479.005 139.191,622.926 139.191,766.846 139.191,638.671 
  336.547,639.224 533.904,637.264 731.26,657.277 928.617,702.056 1034.47,766.846 1125.97,843.899 1193.72,910.766 1274.63,1054.69 1287.62,1198.61 1298.64,1342.53 
  1291.07,1486.45 1125.97,1486.45 1323.33,1486.45 
  "/>
<polyline clip-path="url(#clip102)" style="stroke:#000000; stroke-width:4; stroke-opacity:1; fill:none" points="
  1520.69,1486.45 1718.04,1486.45 1915.4,1486.45 2112.76,1486.45 2112.76,1342.53 2112.76,1198.61 2112.76,1054.69 
  2112.76,910.766 2112.76,766.846 2112.76,622.926 2112.76,479.005 2112.76,335.085 2112.76,191.164 2112.76,47.2441 
  1915.4,47.2441 1718.04,47.2441 1520.69,47.2441 1323.33,47.2441 1125.97,47.2441 928.617,47.2441 731.26,47.2441 533.904,47.2441 336.547,47.2441 139.191,47.2441 
  139.191,191.164 139.191,335.085 139.191,479.005 139.191,622.926 139.191,601.196 336.547,600.041 533.904,599.416 
  689.025,622.926 731.26,627.527 928.617,668.064 1090,766.846 1125.97,797.137 1241.09,910.766 1319.1,1054.69 1323.33,1102.06 1335.94,1198.61 1348.33,1342.53 
  1339.42,1486.45 1323.33,1486.45 1520.69,1486.45 
  "/>
<polyline clip-path="url(#clip102)" style="stroke:#000000; stroke-width:4; stroke-opacity:1; fill:none" points="
  1520.69,1486.45 1718.04,1486.45 1915.4,1486.45 2112.76,1486.45 2112.76,1342.53 2112.76,1198.61 2112.76,1054.69 
  2112.76,910.766 2112.76,766.846 2112.76,622.926 2112.76,479.005 2112.76,335.085 2112.76,191.164 2112.76,47.2441 
  1915.4,47.2441 1718.04,47.2441 1520.69,47.2441 1323.33,47.2441 1125.97,47.2441 928.617,47.2441 731.26,47.2441 533.904,47.2441 336.547,47.2441 139.191,47.2441 
  139.191,191.164 139.191,335.085 139.191,479.005 139.191,622.926 139.191,560.504 336.547,557.185 533.904,558.028 
  731.26,582.73 873.455,622.926 928.617,634.073 1125.97,752.374 1145.39,766.846 1288.46,910.766 1323.33,975.323 1375.32,1054.69 1400.96,1198.61 1405.08,1342.53 
  1400.83,1486.45 1323.33,1486.45 1520.69,1486.45 
  "/>
<polyline clip-path="url(#clip102)" style="stroke:#000000; stroke-width:4; stroke-opacity:1; fill:none" points="
  1520.69,1486.45 1718.04,1486.45 1915.4,1486.45 2112.76,1486.45 2112.76,1342.53 2112.76,1198.61 2112.76,1054.69 
  2112.76,910.766 2112.76,766.846 2112.76,622.926 2112.76,479.005 2112.76,335.085 2112.76,191.164 2112.76,47.2441 
  1915.4,47.2441 1718.04,47.2441 1520.69,47.2441 1323.33,47.2441 1125.97,47.2441 928.617,47.2441 731.26,47.2441 533.904,47.2441 336.547,47.2441 139.191,47.2441 
  139.191,191.164 139.191,335.085 139.191,479.005 139.191,622.926 139.191,519.812 336.547,514.33 533.904,516.64 
  731.26,535.18 928.617,594.626 975.607,622.926 1125.97,711.287 1200.53,766.846 1323.33,895.516 1338.73,910.766 1432.78,1054.69 1465.98,1198.61 1461.84,1342.53 
  1462.24,1486.45 1323.33,1486.45 1520.69,1486.45 
  "/>
<polyline clip-path="url(#clip102)" style="stroke:#000000; stroke-width:4; stroke-opacity:1; fill:none" points="
  1718.04,1486.45 1915.4,1486.45 2112.76,1486.45 2112.76,1342.53 2112.76,1198.61 2112.76,1054.69 2112.76,910.766 
  2112.76,766.846 2112.76,622.926 2112.76,479.005 2112.76,335.085 2112.76,191.164 2112.76,47.2441 1915.4,47.2441 
  1718.04,47.2441 1520.69,47.2441 1323.33,47.2441 1125.97,47.2441 928.617,47.2441 731.26,47.2441 533.904,47.2441 336.547,47.2441 139.191,47.2441 
  139.191,191.164 139.191,335.085 139.191,479.005 139.191,622.926 139.191,479.121 142.324,479.005 336.547,469.71 533.904,473.712 
  599.689,479.005 731.26,487.63 928.617,552.517 1045.52,622.926 1125.97,670.2 1255.67,766.846 1323.33,837.742 1397.05,910.766 1490.24,1054.69 1520.69,1165.44 
  1532.46,1198.61 1520.69,1315.41 1518.6,1342.53 1520.69,1404.89 1524.54,1486.45 1520.69,1486.45 1718.04,1486.45 
  "/>
<polyline clip-path="url(#clip102)" style="stroke:#000000; stroke-width:4; stroke-opacity:1; fill:none" points="
  1718.04,1486.45 1915.4,1486.45 2112.76,1486.45 2112.76,1342.53 2112.76,1198.61 2112.76,1054.69 2112.76,910.766 
  2112.76,766.846 2112.76,622.926 2112.76,479.005 2112.76,335.085 2112.76,191.164 2112.76,47.2441 1915.4,47.2441 
  1718.04,47.2441 1520.69,47.2441 1323.33,47.2441 1125.97,47.2441 928.617,47.2441 731.26,47.2441 533.904,47.2441 336.547,47.2441 139.191,47.2441 
  139.191,191.164 139.191,335.085 139.191,479.005 139.191,423.662 336.547,416.811 533.904,415.34 731.26,431.221 834.535,479.005 
  928.617,510.408 1115.44,622.926 1125.97,629.114 1310.81,766.846 1323.33,779.968 1455.37,910.766 1520.69,1012.14 1564.33,1054.69 1606.62,1198.61 1604.11,1342.53 
  1604.59,1486.45 1520.69,1486.45 1718.04,1486.45 
  "/>
<polyline clip-path="url(#clip102)" style="stroke:#000000; stroke-width:4; stroke-opacity:1; fill:none" points="
  1718.04,1486.45 1915.4,1486.45 2112.76,1486.45 2112.76,1342.53 2112.76,1198.61 2112.76,1054.69 2112.76,910.766 
  2112.76,766.846 2112.76,622.926 2112.76,479.005 2112.76,335.085 2112.76,191.164 2112.76,47.2441 1915.4,47.2441 
  1718.04,47.2441 1520.69,47.2441 1323.33,47.2441 1125.97,47.2441 928.617,47.2441 731.26,47.2441 533.904,47.2441 336.547,47.2441 139.191,47.2441 
  139.191,191.164 139.191,335.085 139.191,479.005 139.191,368.161 336.547,363.912 533.904,356.968 731.26,372.849 928.617,461.366 
  953.415,479.005 1125.97,576.243 1189.99,622.926 1323.33,723.09 1377.53,766.846 1513.7,910.766 1520.69,921.614 1657.18,1054.69 1680.78,1198.61 1690.73,1342.53 
  1684.63,1486.45 1520.69,1486.45 1718.04,1486.45 
  "/>
<polyline clip-path="url(#clip102)" style="stroke:#000000; stroke-width:4; stroke-opacity:1; fill:none" points="
  1915.4,1486.45 2112.76,1486.45 2112.76,1342.53 2112.76,1198.61 2112.76,1054.69 2112.76,910.766 2112.76,766.846 
  2112.76,622.926 2112.76,479.005 2112.76,335.085 2112.76,191.164 2112.76,47.2441 1915.4,47.2441 1718.04,47.2441 
  1520.69,47.2441 1323.33,47.2441 1125.97,47.2441 928.617,47.2441 731.26,47.2441 533.904,47.2441 336.547,47.2441 139.191,47.2441 
  139.191,191.164 139.191,335.085 139.191,294.614 336.547,295.378 533.904,281.911 731.26,305.933 790.644,335.085 928.617,391.99 1050.95,479.005 
  1125.97,521.282 1265.36,622.926 1323.33,666.475 1447.66,766.846 1520.69,844.841 1622.84,910.766 1718.04,1012.12 1757.64,1054.69 1779.48,1198.61 1801.68,1342.53 
  1789.98,1486.45 1718.04,1486.45 1915.4,1486.45 
  "/>
<polyline clip-path="url(#clip102)" style="stroke:#000000; stroke-width:4; stroke-opacity:1; fill:none" points="
  1915.4,1486.45 2112.76,1486.45 2112.76,1342.53 2112.76,1198.61 2112.76,1054.69 2112.76,910.766 2112.76,766.846 
  2112.76,622.926 2112.76,479.005 2112.76,335.085 2112.76,191.164 2112.76,47.2441 1915.4,47.2441 1718.04,47.2441 
  1520.69,47.2441 1323.33,47.2441 1125.97,47.2441 928.617,47.2441 731.26,47.2441 533.904,47.2441 336.547,47.2441 139.191,47.2441 
  139.191,191.164 139.191,335.085 139.191,194.449 336.547,208.121 533.904,196.847 731.26,223.359 928.617,315.579 951.418,335.085 1125.97,458.336 
  1152.89,479.005 1323.33,603.295 1350.8,622.926 1517.79,766.846 1520.69,769.939 1718.04,891.261 1747.02,910.766 1872.55,1054.69 1902.95,1198.61 1915.4,1283.93 
  1929.5,1342.53 1915.4,1459.72 1913.45,1486.45 1718.04,1486.45 1915.4,1486.45 
  "/>
<polyline clip-path="url(#clip102)" style="stroke:#000000; stroke-width:4; stroke-opacity:1; fill:none" points="
  2112.76,1486.45 2112.76,1486.45 2112.76,1455.38 2107.39,1486.45 1915.4,1486.45 2112.76,1486.45 
  "/>
<polyline clip-path="url(#clip102)" style="stroke:#000000; stroke-width:4; stroke-opacity:1; fill:none" points="
  2112.76,1154.7 2112.76,1198.61 2112.76,1054.69 2112.76,910.766 2112.76,766.846 2112.76,622.926 2112.76,479.005 2112.76,335.085 2112.76,191.164 2112.76,47.2441 
  1915.4,47.2441 1718.04,47.2441 1520.69,47.2441 1323.33,47.2441 1125.97,47.2441 928.617,47.2441 731.26,47.2441 
  533.904,47.2441 336.547,47.2441 393.658,47.2441 533.904,58.4168 731.26,71.0714 890.392,191.164 928.617,207.068 1078.26,335.085 1125.97,368.771 1269.54,479.005 
  1323.33,518.231 1469.84,622.926 1520.69,667.283 1691.87,766.846 1718.04,782.749 1908.22,910.766 1915.4,920.309 2067.04,1054.69 2112.76,1154.7 
  "/>
<polyline clip-path="url(#clip102)" style="stroke:#000000; stroke-width:4; stroke-opacity:1; fill:none" points="
  139.191,191.164 139.191,52.4131 243.743,47.2441 139.191,47.2441 139.191,191.164 
  "/>
<polyline clip-path="url(#clip102)" style="stroke:#000000; stroke-width:4; stroke-opacity:1; fill:none" points="
  1915.4,777.098 2112.76,863.372 2112.76,910.766 2112.76,766.846 2112.76,622.926 2112.76,479.005 2112.76,335.085 2112.76,191.164 2112.76,47.2441 
  1915.4,47.2441 1718.04,47.2441 1520.69,47.2441 1323.33,47.2441 1125.97,47.2441 928.617,47.2441 933.159,47.2441 1125.97,190.235 
  1127.06,191.164 1266.58,335.085 1323.33,380.921 1457.83,479.005 1520.69,522.951 1670.1,622.926 1718.04,648.429 1899.79,766.846 1915.4,777.098 
  "/>
<defs>
  <clipPath id="clip103">
    <rect x="2160" y="47" width="73" height="1440"/>
  </clipPath>
</defs>
<path clip-path="url(#clip103)" d="
M2160.76 1486.45 L2232.76 1486.45 L2232.76 1417.91 L2160.76 1417.91  Z
  " fill="#000003" fill-rule="evenodd" fill-opacity="1"/>
<path clip-path="url(#clip103)" d="
M2160.76 1417.91 L2232.76 1417.91 L2232.76 1349.38 L2160.76 1349.38  Z
  " fill="#07051d" fill-rule="evenodd" fill-opacity="1"/>
<path clip-path="url(#clip103)" d="
M2160.76 1349.38 L2232.76 1349.38 L2232.76 1280.85 L2160.76 1280.85  Z
  " fill="#170b3b" fill-rule="evenodd" fill-opacity="1"/>
<path clip-path="url(#clip103)" d="
M2160.76 1280.85 L2232.76 1280.85 L2232.76 1212.31 L2160.76 1212.31  Z
  " fill="#2b0a56" fill-rule="evenodd" fill-opacity="1"/>
<path clip-path="url(#clip103)" d="
M2160.76 1212.31 L2232.76 1212.31 L2232.76 1143.78 L2160.76 1143.78  Z
  " fill="#410967" fill-rule="evenodd" fill-opacity="1"/>
<path clip-path="url(#clip103)" d="
M2160.76 1143.78 L2232.76 1143.78 L2232.76 1075.25 L2160.76 1075.25  Z
  " fill="#570f6d" fill-rule="evenodd" fill-opacity="1"/>
<path clip-path="url(#clip103)" d="
M2160.76 1075.25 L2232.76 1075.25 L2232.76 1006.71 L2160.76 1006.71  Z
  " fill="#6a176e" fill-rule="evenodd" fill-opacity="1"/>
<path clip-path="url(#clip103)" d="
M2160.76 1006.71 L2232.76 1006.71 L2232.76 938.18 L2160.76 938.18  Z
  " fill="#7e1e6c" fill-rule="evenodd" fill-opacity="1"/>
<path clip-path="url(#clip103)" d="
M2160.76 938.18 L2232.76 938.18 L2232.76 869.646 L2160.76 869.646  Z
  " fill="#932567" fill-rule="evenodd" fill-opacity="1"/>
<path clip-path="url(#clip103)" d="
M2160.76 869.646 L2232.76 869.646 L2232.76 801.113 L2160.76 801.113  Z
  " fill="#a72d5f" fill-rule="evenodd" fill-opacity="1"/>
<path clip-path="url(#clip103)" d="
M2160.76 801.113 L2232.76 801.113 L2232.76 732.579 L2160.76 732.579  Z
  " fill="#bb3754" fill-rule="evenodd" fill-opacity="1"/>
<path clip-path="url(#clip103)" d="
M2160.76 732.579 L2232.76 732.579 L2232.76 664.046 L2160.76 664.046  Z
  " fill="#cc4148" fill-rule="evenodd" fill-opacity="1"/>
<path clip-path="url(#clip103)" d="
M2160.76 664.046 L2232.76 664.046 L2232.76 595.512 L2160.76 595.512  Z
  " fill="#dc5039" fill-rule="evenodd" fill-opacity="1"/>
<path clip-path="url(#clip103)" d="
M2160.76 595.512 L2232.76 595.512 L2232.76 526.979 L2160.76 526.979  Z
  " fill="#e9622a" fill-rule="evenodd" fill-opacity="1"/>
<path clip-path="url(#clip103)" d="
M2160.76 526.979 L2232.76 526.979 L2232.76 458.445 L2160.76 458.445  Z
  " fill="#f2751a" fill-rule="evenodd" fill-opacity="1"/>
<path clip-path="url(#clip103)" d="
M2160.76 458.445 L2232.76 458.445 L2232.76 389.912 L2160.76 389.912  Z
  " fill="#f98c09" fill-rule="evenodd" fill-opacity="1"/>
<path clip-path="url(#clip103)" d="
M2160.76 389.912 L2232.76 389.912 L2232.76 321.378 L2160.76 321.378  Z
  " fill="#fba40a" fill-rule="evenodd" fill-opacity="1"/>
<path clip-path="url(#clip103)" d="
M2160.76 321.378 L2232.76 321.378 L2232.76 252.845 L2160.76 252.845  Z
  " fill="#fabd23" fill-rule="evenodd" fill-opacity="1"/>
<path clip-path="url(#clip103)" d="
M2160.76 252.845 L2232.76 252.845 L2232.76 184.311 L2160.76 184.311  Z
  " fill="#f5d745" fill-rule="evenodd" fill-opacity="1"/>
<path clip-path="url(#clip103)" d="
M2160.76 184.311 L2232.76 184.311 L2232.76 115.778 L2160.76 115.778  Z
  " fill="#f1ed70" fill-rule="evenodd" fill-opacity="1"/>
<path clip-path="url(#clip103)" d="
M2160.76 115.778 L2232.76 115.778 L2232.76 47.2441 L2160.76 47.2441  Z
  " fill="#fcfea4" fill-rule="evenodd" fill-opacity="1"/>
<path clip-path="url(#clip100)" d="M 0 0 M2280.7 1468.62 Q2277.09 1468.62 2275.26 1472.18 Q2273.45 1475.72 2273.45 1482.85 Q2273.45 1489.96 2275.26 1493.53 Q2277.09 1497.07 2280.7 1497.07 Q2284.33 1497.07 2286.14 1493.53 Q2287.97 1489.96 2287.97 1482.85 Q2287.97 1475.72 2286.14 1472.18 Q2284.33 1468.62 2280.7 1468.62 M2280.7 1464.91 Q2286.51 1464.91 2289.57 1469.52 Q2292.64 1474.1 2292.64 1482.85 Q2292.64 1491.58 2289.57 1496.19 Q2286.51 1500.77 2280.7 1500.77 Q2274.89 1500.77 2271.81 1496.19 Q2268.76 1491.58 2268.76 1482.85 Q2268.76 1474.1 2271.81 1469.52 Q2274.89 1464.91 2280.7 1464.91 Z" fill="#000000" fill-rule="evenodd" fill-opacity="1" /><path clip-path="url(#clip100)" d="M 0 0 M2269.43 1350.5 L2277.07 1350.5 L2277.07 1324.13 L2268.76 1325.8 L2268.76 1321.54 L2277.02 1319.87 L2281.7 1319.87 L2281.7 1350.5 L2289.33 1350.5 L2289.33 1354.43 L2269.43 1354.43 L2269.43 1350.5 Z" fill="#000000" fill-rule="evenodd" fill-opacity="1" /><path clip-path="url(#clip100)" d="M 0 0 M2274.38 1204.83 L2290.7 1204.83 L2290.7 1208.76 L2268.76 1208.76 L2268.76 1204.83 Q2271.42 1202.07 2276 1197.44 Q2280.61 1192.79 2281.79 1191.45 Q2284.03 1188.92 2284.91 1187.19 Q2285.82 1185.43 2285.82 1183.74 Q2285.82 1180.98 2283.87 1179.25 Q2281.95 1177.51 2278.85 1177.51 Q2276.65 1177.51 2274.2 1178.28 Q2271.77 1179.04 2268.99 1180.59 L2268.99 1175.87 Q2271.81 1174.73 2274.27 1174.16 Q2276.72 1173.58 2278.76 1173.58 Q2284.13 1173.58 2287.32 1176.26 Q2290.52 1178.95 2290.52 1183.44 Q2290.52 1185.57 2289.7 1187.49 Q2288.92 1189.39 2286.81 1191.98 Q2286.23 1192.65 2283.13 1195.87 Q2280.03 1199.06 2274.38 1204.83 Z" fill="#000000" fill-rule="evenodd" fill-opacity="1" /><path clip-path="url(#clip100)" d="M 0 0 M2284.38 1044.46 Q2287.74 1045.18 2289.61 1047.45 Q2291.51 1049.71 2291.51 1053.05 Q2291.51 1058.16 2287.99 1060.96 Q2284.47 1063.77 2277.99 1063.77 Q2275.82 1063.77 2273.5 1063.33 Q2271.21 1062.91 2268.76 1062.05 L2268.76 1057.54 Q2270.7 1058.67 2273.02 1059.25 Q2275.33 1059.83 2277.85 1059.83 Q2282.25 1059.83 2284.54 1058.09 Q2286.86 1056.36 2286.86 1053.05 Q2286.86 1049.99 2284.7 1048.28 Q2282.58 1046.54 2278.76 1046.54 L2274.73 1046.54 L2274.73 1042.7 L2278.94 1042.7 Q2282.39 1042.7 2284.22 1041.33 Q2286.05 1039.95 2286.05 1037.35 Q2286.05 1034.69 2284.15 1033.28 Q2282.27 1031.84 2278.76 1031.84 Q2276.83 1031.84 2274.64 1032.26 Q2272.44 1032.68 2269.8 1033.56 L2269.8 1029.39 Q2272.46 1028.65 2274.77 1028.28 Q2277.11 1027.91 2279.17 1027.91 Q2284.5 1027.91 2287.6 1030.34 Q2290.7 1032.75 2290.7 1036.87 Q2290.7 1039.74 2289.06 1041.73 Q2287.41 1043.7 2284.38 1044.46 Z" fill="#000000" fill-rule="evenodd" fill-opacity="1" /><path clip-path="url(#clip100)" d="M 0 0 M2284.36 886.94 L2272.55 905.389 L2284.36 905.389 L2284.36 886.94 M2283.13 882.865 L2289.01 882.865 L2289.01 905.389 L2293.94 905.389 L2293.94 909.277 L2289.01 909.277 L2289.01 917.425 L2284.36 917.425 L2284.36 909.277 L2268.76 909.277 L2268.76 904.764 L2283.13 882.865 Z" fill="#000000" fill-rule="evenodd" fill-opacity="1" /><path clip-path="url(#clip100)" d="M 0 0 M2270.21 737.197 L2288.57 737.197 L2288.57 741.132 L2274.5 741.132 L2274.5 749.604 Q2275.52 749.257 2276.53 749.095 Q2277.55 748.91 2278.57 748.91 Q2284.36 748.91 2287.74 752.081 Q2291.12 755.253 2291.12 760.669 Q2291.12 766.248 2287.64 769.35 Q2284.17 772.428 2277.85 772.428 Q2275.68 772.428 2273.41 772.058 Q2271.16 771.688 2268.76 770.947 L2268.76 766.248 Q2270.84 767.382 2273.06 767.938 Q2275.28 768.493 2277.76 768.493 Q2281.77 768.493 2284.1 766.387 Q2286.44 764.28 2286.44 760.669 Q2286.44 757.058 2284.1 754.952 Q2281.77 752.845 2277.76 752.845 Q2275.89 752.845 2274.01 753.262 Q2272.16 753.678 2270.21 754.558 L2270.21 737.197 Z" fill="#000000" fill-rule="evenodd" fill-opacity="1" /><path clip-path="url(#clip100)" d="M 0 0 M2281.09 606.945 Q2277.95 606.945 2276.09 609.098 Q2274.27 611.251 2274.27 615.001 Q2274.27 618.728 2276.09 620.904 Q2277.95 623.056 2281.09 623.056 Q2284.24 623.056 2286.07 620.904 Q2287.92 618.728 2287.92 615.001 Q2287.92 611.251 2286.07 609.098 Q2284.24 606.945 2281.09 606.945 M2290.38 592.293 L2290.38 596.552 Q2288.62 595.718 2286.81 595.279 Q2285.03 594.839 2283.27 594.839 Q2278.64 594.839 2276.19 597.964 Q2273.76 601.089 2273.41 607.408 Q2274.77 605.394 2276.83 604.33 Q2278.89 603.242 2281.37 603.242 Q2286.58 603.242 2289.59 606.413 Q2292.62 609.561 2292.62 615.001 Q2292.62 620.325 2289.47 623.542 Q2286.33 626.76 2281.09 626.76 Q2275.1 626.76 2271.93 622.177 Q2268.76 617.57 2268.76 608.843 Q2268.76 600.649 2272.64 595.788 Q2276.53 590.904 2283.08 590.904 Q2284.84 590.904 2286.63 591.251 Q2288.43 591.598 2290.38 592.293 Z" fill="#000000" fill-rule="evenodd" fill-opacity="1" /><path clip-path="url(#clip100)" d="M 0 0 M2268.76 445.86 L2290.98 445.86 L2290.98 447.851 L2278.43 480.42 L2273.55 480.42 L2285.35 449.795 L2268.76 449.795 L2268.76 445.86 Z" fill="#000000" fill-rule="evenodd" fill-opacity="1" /><path clip-path="url(#clip100)" d="M 0 0 M2280.61 318.34 Q2277.27 318.34 2275.35 320.122 Q2273.45 321.905 2273.45 325.03 Q2273.45 328.155 2275.35 329.937 Q2277.27 331.719 2280.61 331.719 Q2283.94 331.719 2285.86 329.937 Q2287.78 328.132 2287.78 325.03 Q2287.78 321.905 2285.86 320.122 Q2283.96 318.34 2280.61 318.34 M2275.93 316.349 Q2272.92 315.608 2271.23 313.548 Q2269.57 311.488 2269.57 308.525 Q2269.57 304.382 2272.51 301.974 Q2275.47 299.567 2280.61 299.567 Q2285.77 299.567 2288.71 301.974 Q2291.65 304.382 2291.65 308.525 Q2291.65 311.488 2289.96 313.548 Q2288.29 315.608 2285.31 316.349 Q2288.69 317.136 2290.56 319.428 Q2292.46 321.72 2292.46 325.03 Q2292.46 330.053 2289.38 332.738 Q2286.33 335.423 2280.61 335.423 Q2274.89 335.423 2271.81 332.738 Q2268.76 330.053 2268.76 325.03 Q2268.76 321.72 2270.65 319.428 Q2272.55 317.136 2275.93 316.349 M2274.22 308.965 Q2274.22 311.65 2275.89 313.155 Q2277.58 314.659 2280.61 314.659 Q2283.62 314.659 2285.31 313.155 Q2287.02 311.65 2287.02 308.965 Q2287.02 306.28 2285.31 304.775 Q2283.62 303.271 2280.61 303.271 Q2277.58 303.271 2275.89 304.775 Q2274.22 306.28 2274.22 308.965 Z" fill="#000000" fill-rule="evenodd" fill-opacity="1" /><path clip-path="url(#clip100)" d="M 0 0 M2270.98 188.366 L2270.98 184.107 Q2272.74 184.94 2274.54 185.38 Q2276.35 185.82 2278.08 185.82 Q2282.71 185.82 2285.14 182.718 Q2287.6 179.593 2287.95 173.25 Q2286.6 175.241 2284.54 176.306 Q2282.48 177.371 2279.98 177.371 Q2274.8 177.371 2271.77 174.246 Q2268.76 171.097 2268.76 165.658 Q2268.76 160.334 2271.9 157.116 Q2275.05 153.898 2280.28 153.898 Q2286.28 153.898 2289.43 158.505 Q2292.6 163.088 2292.6 171.838 Q2292.6 180.009 2288.71 184.894 Q2284.84 189.755 2278.29 189.755 Q2276.53 189.755 2274.73 189.408 Q2272.92 189.06 2270.98 188.366 M2280.28 173.713 Q2283.43 173.713 2285.26 171.56 Q2287.11 169.408 2287.11 165.658 Q2287.11 161.931 2285.26 159.778 Q2283.43 157.602 2280.28 157.602 Q2277.14 157.602 2275.28 159.778 Q2273.45 161.931 2273.45 165.658 Q2273.45 169.408 2275.28 171.56 Q2277.14 173.713 2280.28 173.713 Z" fill="#000000" fill-rule="evenodd" fill-opacity="1" /><polyline clip-path="url(#clip100)" style="stroke:#000000; stroke-width:4; stroke-opacity:1; fill:none" points="
  2232.76,1486.45 2232.76,1486.45 2256.76,1486.45 2232.76,1486.45 2232.76,1340.78 2256.76,1340.78 2232.76,1340.78 2232.76,1195.11 2256.76,1195.11 2232.76,1195.11 
  2232.76,1049.44 2256.76,1049.44 2232.76,1049.44 2232.76,903.774 2256.76,903.774 2232.76,903.774 2232.76,758.106 2256.76,758.106 2232.76,758.106 2232.76,612.437 
  2256.76,612.437 2232.76,612.437 2232.76,466.769 2256.76,466.769 2232.76,466.769 2232.76,321.101 2256.76,321.101 2232.76,321.101 2232.76,175.432 2256.76,175.432 
  2232.76,175.432 2232.76,47.2441 
  "/>
</svg>
