<?xml version="1.0" encoding="utf-8"?>
<svg xmlns="http://www.w3.org/2000/svg" xmlns:xlink="http://www.w3.org/1999/xlink" width="600" height="400" viewBox="0 0 2400 1600">
<defs>
  <clipPath id="clip040">
    <rect x="0" y="0" width="2400" height="1600"/>
  </clipPath>
</defs>
<path clip-path="url(#clip040)" d="
M0 1600 L2400 1600 L2400 0 L0 0  Z
  " fill="#ffffff" fill-rule="evenodd" fill-opacity="1"/>
<defs>
  <clipPath id="clip041">
    <rect x="480" y="0" width="1681" height="1600"/>
  </clipPath>
</defs>
<path clip-path="url(#clip040)" d="
M161.598 1486.45 L2248.5 1486.45 L2248.5 47.2441 L161.598 47.2441  Z
  " fill="#ffffff" fill-rule="evenodd" fill-opacity="1"/>
<defs>
  <clipPath id="clip042">
    <rect x="161" y="47" width="2088" height="1440"/>
  </clipPath>
</defs>
<polyline clip-path="url(#clip042)" style="stroke:#000000; stroke-width:2; stroke-opacity:0.1; fill:none" points="
  220.662,1486.45 220.662,47.2441 
  "/>
<polyline clip-path="url(#clip042)" style="stroke:#000000; stroke-width:2; stroke-opacity:0.1; fill:none" points="
  712.856,1486.45 712.856,47.2441 
  "/>
<polyline clip-path="url(#clip042)" style="stroke:#000000; stroke-width:2; stroke-opacity:0.1; fill:none" points="
  1205.05,1486.45 1205.05,47.2441 
  "/>
<polyline clip-path="url(#clip042)" style="stroke:#000000; stroke-width:2; stroke-opacity:0.1; fill:none" points="
  1697.25,1486.45 1697.25,47.2441 
  "/>
<polyline clip-path="url(#clip042)" style="stroke:#000000; stroke-width:2; stroke-opacity:0.1; fill:none" points="
  2189.44,1486.45 2189.44,47.2441 
  "/>
<polyline clip-path="url(#clip042)" style="stroke:#000000; stroke-width:2; stroke-opacity:0.1; fill:none" points="
  161.598,1445.72 2248.5,1445.72 
  "/>
<polyline clip-path="url(#clip042)" style="stroke:#000000; stroke-width:2; stroke-opacity:0.1; fill:none" points="
  161.598,1029.16 2248.5,1029.16 
  "/>
<polyline clip-path="url(#clip042)" style="stroke:#000000; stroke-width:2; stroke-opacity:0.1; fill:none" points="
  161.598,612.604 2248.5,612.604 
  "/>
<polyline clip-path="url(#clip042)" style="stroke:#000000; stroke-width:2; stroke-opacity:0.1; fill:none" points="
  161.598,196.048 2248.5,196.048 
  "/>
<polyline clip-path="url(#clip040)" style="stroke:#000000; stroke-width:4; stroke-opacity:1; fill:none" points="
  161.598,1486.45 2248.5,1486.45 
  "/>
<polyline clip-path="url(#clip040)" style="stroke:#000000; stroke-width:4; stroke-opacity:1; fill:none" points="
  161.598,1486.45 161.598,47.2441 
  "/>
<polyline clip-path="url(#clip040)" style="stroke:#000000; stroke-width:4; stroke-opacity:1; fill:none" points="
  220.662,1486.45 220.662,1469.18 
  "/>
<polyline clip-path="url(#clip040)" style="stroke:#000000; stroke-width:4; stroke-opacity:1; fill:none" points="
  712.856,1486.45 712.856,1469.18 
  "/>
<polyline clip-path="url(#clip040)" style="stroke:#000000; stroke-width:4; stroke-opacity:1; fill:none" points="
  1205.05,1486.45 1205.05,1469.18 
  "/>
<polyline clip-path="url(#clip040)" style="stroke:#000000; stroke-width:4; stroke-opacity:1; fill:none" points="
  1697.25,1486.45 1697.25,1469.18 
  "/>
<polyline clip-path="url(#clip040)" style="stroke:#000000; stroke-width:4; stroke-opacity:1; fill:none" points="
  2189.44,1486.45 2189.44,1469.18 
  "/>
<polyline clip-path="url(#clip040)" style="stroke:#000000; stroke-width:4; stroke-opacity:1; fill:none" points="
  161.598,1445.72 186.641,1445.72 
  "/>
<polyline clip-path="url(#clip040)" style="stroke:#000000; stroke-width:4; stroke-opacity:1; fill:none" points="
  161.598,1029.16 186.641,1029.16 
  "/>
<polyline clip-path="url(#clip040)" style="stroke:#000000; stroke-width:4; stroke-opacity:1; fill:none" points="
  161.598,612.604 186.641,612.604 
  "/>
<polyline clip-path="url(#clip040)" style="stroke:#000000; stroke-width:4; stroke-opacity:1; fill:none" points="
  161.598,196.048 186.641,196.048 
  "/>
<path clip-path="url(#clip040)" d="M 0 0 M220.662 1508.44 Q217.05 1508.44 215.222 1512 Q213.416 1515.55 213.416 1522.67 Q213.416 1529.78 215.222 1533.35 Q217.05 1536.89 220.662 1536.89 Q224.296 1536.89 226.101 1533.35 Q227.93 1529.78 227.93 1522.67 Q227.93 1515.55 226.101 1512 Q224.296 1508.44 220.662 1508.44 M220.662 1504.73 Q226.472 1504.73 229.527 1509.34 Q232.606 1513.92 232.606 1522.67 Q232.606 1531.4 229.527 1536.01 Q226.472 1540.59 220.662 1540.59 Q214.851 1540.59 211.773 1536.01 Q208.717 1531.4 208.717 1522.67 Q208.717 1513.92 211.773 1509.34 Q214.851 1504.73 220.662 1504.73 Z" fill="#000000" fill-rule="evenodd" fill-opacity="1" /><path clip-path="url(#clip040)" d="M 0 0 M694.5 1535.98 L710.819 1535.98 L710.819 1539.92 L688.875 1539.92 L688.875 1535.98 Q691.537 1533.23 696.12 1528.6 Q700.727 1523.95 701.907 1522.61 Q704.153 1520.08 705.032 1518.35 Q705.935 1516.59 705.935 1514.9 Q705.935 1512.14 703.991 1510.41 Q702.069 1508.67 698.968 1508.67 Q696.768 1508.67 694.315 1509.43 Q691.884 1510.2 689.106 1511.75 L689.106 1507.03 Q691.931 1505.89 694.384 1505.31 Q696.838 1504.73 698.875 1504.73 Q704.245 1504.73 707.44 1507.42 Q710.634 1510.11 710.634 1514.6 Q710.634 1516.73 709.824 1518.65 Q709.037 1520.54 706.93 1523.14 Q706.352 1523.81 703.25 1527.03 Q700.148 1530.22 694.5 1535.98 Z" fill="#000000" fill-rule="evenodd" fill-opacity="1" /><path clip-path="url(#clip040)" d="M 0 0 M715.935 1505.36 L734.291 1505.36 L734.291 1509.3 L720.217 1509.3 L720.217 1517.77 Q721.236 1517.42 722.254 1517.26 Q723.273 1517.07 724.291 1517.07 Q730.078 1517.07 733.458 1520.24 Q736.838 1523.42 736.838 1528.83 Q736.838 1534.41 733.365 1537.51 Q729.893 1540.59 723.574 1540.59 Q721.398 1540.59 719.129 1540.22 Q716.884 1539.85 714.477 1539.11 L714.477 1534.41 Q716.56 1535.54 718.782 1536.1 Q721.004 1536.66 723.481 1536.66 Q727.486 1536.66 729.824 1534.55 Q732.162 1532.44 732.162 1528.83 Q732.162 1525.22 729.824 1523.11 Q727.486 1521.01 723.481 1521.01 Q721.606 1521.01 719.731 1521.42 Q717.879 1521.84 715.935 1522.72 L715.935 1505.36 Z" fill="#000000" fill-rule="evenodd" fill-opacity="1" /><path clip-path="url(#clip040)" d="M 0 0 M1181.82 1505.36 L1200.18 1505.36 L1200.18 1509.3 L1186.1 1509.3 L1186.1 1517.77 Q1187.12 1517.42 1188.14 1517.26 Q1189.16 1517.07 1190.18 1517.07 Q1195.97 1517.07 1199.35 1520.24 Q1202.72 1523.42 1202.72 1528.83 Q1202.72 1534.41 1199.25 1537.51 Q1195.78 1540.59 1189.46 1540.59 Q1187.28 1540.59 1185.02 1540.22 Q1182.77 1539.85 1180.36 1539.11 L1180.36 1534.41 Q1182.45 1535.54 1184.67 1536.1 Q1186.89 1536.66 1189.37 1536.66 Q1193.37 1536.66 1195.71 1534.55 Q1198.05 1532.44 1198.05 1528.83 Q1198.05 1525.22 1195.71 1523.11 Q1193.37 1521.01 1189.37 1521.01 Q1187.49 1521.01 1185.62 1521.42 Q1183.77 1521.84 1181.82 1522.72 L1181.82 1505.36 Z" fill="#000000" fill-rule="evenodd" fill-opacity="1" /><path clip-path="url(#clip040)" d="M 0 0 M1217.79 1508.44 Q1214.18 1508.44 1212.35 1512 Q1210.55 1515.55 1210.55 1522.67 Q1210.55 1529.78 1212.35 1533.35 Q1214.18 1536.89 1217.79 1536.89 Q1221.43 1536.89 1223.23 1533.35 Q1225.06 1529.78 1225.06 1522.67 Q1225.06 1515.55 1223.23 1512 Q1221.43 1508.44 1217.79 1508.44 M1217.79 1504.73 Q1223.6 1504.73 1226.66 1509.34 Q1229.74 1513.92 1229.74 1522.67 Q1229.74 1531.4 1226.66 1536.01 Q1223.6 1540.59 1217.79 1540.59 Q1211.98 1540.59 1208.91 1536.01 Q1205.85 1531.4 1205.85 1522.67 Q1205.85 1513.92 1208.91 1509.34 Q1211.98 1504.73 1217.79 1504.73 Z" fill="#000000" fill-rule="evenodd" fill-opacity="1" /><path clip-path="url(#clip040)" d="M 0 0 M1673.13 1505.36 L1695.35 1505.36 L1695.35 1507.35 L1682.8 1539.92 L1677.92 1539.92 L1689.72 1509.3 L1673.13 1509.3 L1673.13 1505.36 Z" fill="#000000" fill-rule="evenodd" fill-opacity="1" /><path clip-path="url(#clip040)" d="M 0 0 M1700.46 1505.36 L1718.82 1505.36 L1718.82 1509.3 L1704.75 1509.3 L1704.75 1517.77 Q1705.76 1517.42 1706.78 1517.26 Q1707.8 1517.07 1708.82 1517.07 Q1714.61 1517.07 1717.99 1520.24 Q1721.37 1523.42 1721.37 1528.83 Q1721.37 1534.41 1717.89 1537.51 Q1714.42 1540.59 1708.1 1540.59 Q1705.93 1540.59 1703.66 1540.22 Q1701.41 1539.85 1699.01 1539.11 L1699.01 1534.41 Q1701.09 1535.54 1703.31 1536.1 Q1705.53 1536.66 1708.01 1536.66 Q1712.01 1536.66 1714.35 1534.55 Q1716.69 1532.44 1716.69 1528.83 Q1716.69 1525.22 1714.35 1523.11 Q1712.01 1521.01 1708.01 1521.01 Q1706.13 1521.01 1704.26 1521.42 Q1702.41 1521.84 1700.46 1522.72 L1700.46 1505.36 Z" fill="#000000" fill-rule="evenodd" fill-opacity="1" /><path clip-path="url(#clip040)" d="M 0 0 M2152.81 1535.98 L2160.45 1535.98 L2160.45 1509.62 L2152.14 1511.29 L2152.14 1507.03 L2160.4 1505.36 L2165.08 1505.36 L2165.08 1535.98 L2172.72 1535.98 L2172.72 1539.92 L2152.81 1539.92 L2152.81 1535.98 Z" fill="#000000" fill-rule="evenodd" fill-opacity="1" /><path clip-path="url(#clip040)" d="M 0 0 M2187.79 1508.44 Q2184.17 1508.44 2182.35 1512 Q2180.54 1515.55 2180.54 1522.67 Q2180.54 1529.78 2182.35 1533.35 Q2184.17 1536.89 2187.79 1536.89 Q2191.42 1536.89 2193.23 1533.35 Q2195.05 1529.78 2195.05 1522.67 Q2195.05 1515.55 2193.23 1512 Q2191.42 1508.44 2187.79 1508.44 M2187.79 1504.73 Q2193.6 1504.73 2196.65 1509.34 Q2199.73 1513.92 2199.73 1522.67 Q2199.73 1531.4 2196.65 1536.01 Q2193.6 1540.59 2187.79 1540.59 Q2181.98 1540.59 2178.9 1536.01 Q2175.84 1531.4 2175.84 1522.67 Q2175.84 1513.92 2178.9 1509.34 Q2181.98 1504.73 2187.79 1504.73 Z" fill="#000000" fill-rule="evenodd" fill-opacity="1" /><path clip-path="url(#clip040)" d="M 0 0 M2214.8 1508.44 Q2211.19 1508.44 2209.36 1512 Q2207.55 1515.55 2207.55 1522.67 Q2207.55 1529.78 2209.36 1533.35 Q2211.19 1536.89 2214.8 1536.89 Q2218.43 1536.89 2220.24 1533.35 Q2222.07 1529.78 2222.07 1522.67 Q2222.07 1515.55 2220.24 1512 Q2218.43 1508.44 2214.8 1508.44 M2214.8 1504.73 Q2220.61 1504.73 2223.66 1509.34 Q2226.74 1513.92 2226.74 1522.67 Q2226.74 1531.4 2223.66 1536.01 Q2220.61 1540.59 2214.8 1540.59 Q2208.99 1540.59 2205.91 1536.01 Q2202.85 1531.4 2202.85 1522.67 Q2202.85 1513.92 2205.91 1509.34 Q2208.99 1504.73 2214.8 1504.73 Z" fill="#000000" fill-rule="evenodd" fill-opacity="1" /><path clip-path="url(#clip040)" d="M 0 0 M125.654 1431.51 Q122.043 1431.51 120.214 1435.08 Q118.408 1438.62 118.408 1445.75 Q118.408 1452.86 120.214 1456.42 Q122.043 1459.96 125.654 1459.96 Q129.288 1459.96 131.094 1456.42 Q132.922 1452.86 132.922 1445.75 Q132.922 1438.62 131.094 1435.08 Q129.288 1431.51 125.654 1431.51 M125.654 1427.81 Q131.464 1427.81 134.52 1432.42 Q137.598 1437 137.598 1445.75 Q137.598 1454.48 134.52 1459.08 Q131.464 1463.67 125.654 1463.67 Q119.844 1463.67 116.765 1459.08 Q113.709 1454.48 113.709 1445.75 Q113.709 1437 116.765 1432.42 Q119.844 1427.81 125.654 1427.81 Z" fill="#000000" fill-rule="evenodd" fill-opacity="1" /><path clip-path="url(#clip040)" d="M 0 0 M89.6818 1011.88 L108.038 1011.88 L108.038 1015.81 L93.9642 1015.81 L93.9642 1024.29 Q94.9827 1023.94 96.0012 1023.78 Q97.0197 1023.59 98.0382 1023.59 Q103.825 1023.59 107.205 1026.76 Q110.584 1029.94 110.584 1035.35 Q110.584 1040.93 107.112 1044.03 Q103.64 1047.11 97.3206 1047.11 Q95.1447 1047.11 92.8762 1046.74 Q90.6309 1046.37 88.2235 1045.63 L88.2235 1040.93 Q90.3068 1042.06 92.529 1042.62 Q94.7512 1043.18 97.2281 1043.18 Q101.233 1043.18 103.571 1041.07 Q105.909 1038.96 105.909 1035.35 Q105.909 1031.74 103.571 1029.63 Q101.233 1027.53 97.2281 1027.53 Q95.3531 1027.53 93.4781 1027.94 Q91.6262 1028.36 89.6818 1029.24 L89.6818 1011.88 Z" fill="#000000" fill-rule="evenodd" fill-opacity="1" /><path clip-path="url(#clip040)" d="M 0 0 M125.654 1014.96 Q122.043 1014.96 120.214 1018.52 Q118.408 1022.06 118.408 1029.19 Q118.408 1036.3 120.214 1039.87 Q122.043 1043.41 125.654 1043.41 Q129.288 1043.41 131.094 1039.87 Q132.922 1036.3 132.922 1029.19 Q132.922 1022.06 131.094 1018.52 Q129.288 1014.96 125.654 1014.96 M125.654 1011.25 Q131.464 1011.25 134.52 1015.86 Q137.598 1020.44 137.598 1029.19 Q137.598 1037.92 134.52 1042.53 Q131.464 1047.11 125.654 1047.11 Q119.844 1047.11 116.765 1042.53 Q113.709 1037.92 113.709 1029.19 Q113.709 1020.44 116.765 1015.86 Q119.844 1011.25 125.654 1011.25 Z" fill="#000000" fill-rule="evenodd" fill-opacity="1" /><path clip-path="url(#clip040)" d="M 0 0 M63.6634 625.948 L71.3023 625.948 L71.3023 599.583 L62.9921 601.25 L62.9921 596.99 L71.256 595.324 L75.9319 595.324 L75.9319 625.948 L83.5707 625.948 L83.5707 629.884 L63.6634 629.884 L63.6634 625.948 Z" fill="#000000" fill-rule="evenodd" fill-opacity="1" /><path clip-path="url(#clip040)" d="M 0 0 M98.6401 598.402 Q95.029 598.402 93.2003 601.967 Q91.3948 605.509 91.3948 612.638 Q91.3948 619.745 93.2003 623.31 Q95.029 626.851 98.6401 626.851 Q102.274 626.851 104.08 623.31 Q105.909 619.745 105.909 612.638 Q105.909 605.509 104.08 601.967 Q102.274 598.402 98.6401 598.402 M98.6401 594.699 Q104.45 594.699 107.506 599.305 Q110.584 603.888 110.584 612.638 Q110.584 621.365 107.506 625.972 Q104.45 630.555 98.6401 630.555 Q92.8299 630.555 89.7512 625.972 Q86.6957 621.365 86.6957 612.638 Q86.6957 603.888 89.7512 599.305 Q92.8299 594.699 98.6401 594.699 Z" fill="#000000" fill-rule="evenodd" fill-opacity="1" /><path clip-path="url(#clip040)" d="M 0 0 M125.654 598.402 Q122.043 598.402 120.214 601.967 Q118.408 605.509 118.408 612.638 Q118.408 619.745 120.214 623.31 Q122.043 626.851 125.654 626.851 Q129.288 626.851 131.094 623.31 Q132.922 619.745 132.922 612.638 Q132.922 605.509 131.094 601.967 Q129.288 598.402 125.654 598.402 M125.654 594.699 Q131.464 594.699 134.52 599.305 Q137.598 603.888 137.598 612.638 Q137.598 621.365 134.52 625.972 Q131.464 630.555 125.654 630.555 Q119.844 630.555 116.765 625.972 Q113.709 621.365 113.709 612.638 Q113.709 603.888 116.765 599.305 Q119.844 594.699 125.654 594.699 Z" fill="#000000" fill-rule="evenodd" fill-opacity="1" /><path clip-path="url(#clip040)" d="M 0 0 M64.6588 209.392 L72.2976 209.392 L72.2976 183.027 L63.9875 184.693 L63.9875 180.434 L72.2513 178.768 L76.9272 178.768 L76.9272 209.392 L84.5661 209.392 L84.5661 213.328 L64.6588 213.328 L64.6588 209.392 Z" fill="#000000" fill-rule="evenodd" fill-opacity="1" /><path clip-path="url(#clip040)" d="M 0 0 M89.6818 178.768 L108.038 178.768 L108.038 182.703 L93.9642 182.703 L93.9642 191.175 Q94.9827 190.828 96.0012 190.666 Q97.0197 190.48 98.0382 190.48 Q103.825 190.48 107.205 193.652 Q110.584 196.823 110.584 202.24 Q110.584 207.818 107.112 210.92 Q103.64 213.999 97.3206 213.999 Q95.1447 213.999 92.8762 213.628 Q90.6309 213.258 88.2235 212.517 L88.2235 207.818 Q90.3068 208.953 92.529 209.508 Q94.7512 210.064 97.2281 210.064 Q101.233 210.064 103.571 207.957 Q105.909 205.851 105.909 202.24 Q105.909 198.629 103.571 196.522 Q101.233 194.416 97.2281 194.416 Q95.3531 194.416 93.4781 194.832 Q91.6262 195.249 89.6818 196.129 L89.6818 178.768 Z" fill="#000000" fill-rule="evenodd" fill-opacity="1" /><path clip-path="url(#clip040)" d="M 0 0 M125.654 181.846 Q122.043 181.846 120.214 185.411 Q118.408 188.953 118.408 196.082 Q118.408 203.189 120.214 206.754 Q122.043 210.295 125.654 210.295 Q129.288 210.295 131.094 206.754 Q132.922 203.189 132.922 196.082 Q132.922 188.953 131.094 185.411 Q129.288 181.846 125.654 181.846 M125.654 178.143 Q131.464 178.143 134.52 182.749 Q137.598 187.332 137.598 196.082 Q137.598 204.809 134.52 209.416 Q131.464 213.999 125.654 213.999 Q119.844 213.999 116.765 209.416 Q113.709 204.809 113.709 196.082 Q113.709 187.332 116.765 182.749 Q119.844 178.143 125.654 178.143 Z" fill="#000000" fill-rule="evenodd" fill-opacity="1" /><polyline clip-path="url(#clip042)" style="stroke:#009af9; stroke-width:4; stroke-opacity:1; fill:none" points="
  220.662,1445.72 319.101,1445.72 417.539,1445.52 515.978,1443.82 614.417,1434.72 712.856,1412.09 811.295,1371.57 909.734,1308.69 1008.17,1227.67 1106.61,1124.27 
  1205.05,1011.96 1303.49,902.26 1401.93,777.693 1500.37,669.622 1598.81,561.451 1697.25,459.444 1795.68,363.67 1894.12,280.758 1992.56,210.51 2091,149.293 
  2189.44,87.9763 
  "/>
<path clip-path="url(#clip040)" d="
M1885.49 251.724 L2176.5 251.724 L2176.5 130.764 L1885.49 130.764  Z
  " fill="#ffffff" fill-rule="evenodd" fill-opacity="1"/>
<polyline clip-path="url(#clip040)" style="stroke:#000000; stroke-width:4; stroke-opacity:1; fill:none" points="
  1885.49,251.724 2176.5,251.724 2176.5,130.764 1885.49,130.764 1885.49,251.724 
  "/>
<polyline clip-path="url(#clip040)" style="stroke:#009af9; stroke-width:4; stroke-opacity:1; fill:none" points="
  1909.49,191.244 2053.49,191.244 
  "/>
<path clip-path="url(#clip040)" d="M 0 0 M2091.33 210.931 Q2089.52 215.561 2087.81 216.973 Q2086.1 218.385 2083.23 218.385 L2079.82 218.385 L2079.82 214.82 L2082.32 214.82 Q2084.08 214.82 2085.06 213.987 Q2086.03 213.154 2087.21 210.052 L2087.97 208.107 L2077.49 182.598 L2082 182.598 L2090.1 202.876 L2098.2 182.598 L2102.72 182.598 L2091.33 210.931 Z" fill="#000000" fill-rule="evenodd" fill-opacity="1" /><path clip-path="url(#clip040)" d="M 0 0 M2108.6 204.589 L2116.24 204.589 L2116.24 178.223 L2107.93 179.89 L2107.93 175.631 L2116.19 173.964 L2120.87 173.964 L2120.87 204.589 L2128.5 204.589 L2128.5 208.524 L2108.6 208.524 L2108.6 204.589 Z" fill="#000000" fill-rule="evenodd" fill-opacity="1" /><path clip-path="url(#clip040)" d="
M161.598 1486.45 L2248.5 1486.45 L2248.5 47.2441 L161.598 47.2441  Z
  " fill="#000000" fill-rule="evenodd" fill-opacity="0"/>
<polyline clip-path="url(#clip042)" style="stroke:#000000; stroke-width:2; stroke-opacity:0.1; fill:none" points="
  220.662,1486.45 220.662,47.2441 
  "/>
<polyline clip-path="url(#clip042)" style="stroke:#000000; stroke-width:2; stroke-opacity:0.1; fill:none" points="
  712.856,1486.45 712.856,47.2441 
  "/>
<polyline clip-path="url(#clip042)" style="stroke:#000000; stroke-width:2; stroke-opacity:0.1; fill:none" points="
  1205.05,1486.45 1205.05,47.2441 
  "/>
<polyline clip-path="url(#clip042)" style="stroke:#000000; stroke-width:2; stroke-opacity:0.1; fill:none" points="
  1697.25,1486.45 1697.25,47.2441 
  "/>
<polyline clip-path="url(#clip042)" style="stroke:#000000; stroke-width:2; stroke-opacity:0.1; fill:none" points="
  2189.44,1486.45 2189.44,47.2441 
  "/>
<polyline clip-path="url(#clip042)" style="stroke:#000000; stroke-width:2; stroke-opacity:0.1; fill:none" points="
  161.598,1445.72 2248.5,1445.72 
  "/>
<polyline clip-path="url(#clip042)" style="stroke:#000000; stroke-width:2; stroke-opacity:0.1; fill:none" points="
  161.598,1102.57 2248.5,1102.57 
  "/>
<polyline clip-path="url(#clip042)" style="stroke:#000000; stroke-width:2; stroke-opacity:0.1; fill:none" points="
  161.598,759.434 2248.5,759.434 
  "/>
<polyline clip-path="url(#clip042)" style="stroke:#000000; stroke-width:2; stroke-opacity:0.1; fill:none" points="
  161.598,416.293 2248.5,416.293 
  "/>
<polyline clip-path="url(#clip042)" style="stroke:#000000; stroke-width:2; stroke-opacity:0.1; fill:none" points="
  161.598,73.1526 2248.5,73.1526 
  "/>
<polyline clip-path="url(#clip040)" style="stroke:#000000; stroke-width:4; stroke-opacity:1; fill:none" points="
  161.598,1486.45 2248.5,1486.45 
  "/>
<polyline clip-path="url(#clip040)" style="stroke:#000000; stroke-width:4; stroke-opacity:1; fill:none" points="
  2248.5,1486.45 2248.5,47.2441 
  "/>
<polyline clip-path="url(#clip040)" style="stroke:#000000; stroke-width:4; stroke-opacity:1; fill:none" points="
  220.662,1486.45 220.662,1469.18 
  "/>
<polyline clip-path="url(#clip040)" style="stroke:#000000; stroke-width:4; stroke-opacity:1; fill:none" points="
  712.856,1486.45 712.856,1469.18 
  "/>
<polyline clip-path="url(#clip040)" style="stroke:#000000; stroke-width:4; stroke-opacity:1; fill:none" points="
  1205.05,1486.45 1205.05,1469.18 
  "/>
<polyline clip-path="url(#clip040)" style="stroke:#000000; stroke-width:4; stroke-opacity:1; fill:none" points="
  1697.25,1486.45 1697.25,1469.18 
  "/>
<polyline clip-path="url(#clip040)" style="stroke:#000000; stroke-width:4; stroke-opacity:1; fill:none" points="
  2189.44,1486.45 2189.44,1469.18 
  "/>
<polyline clip-path="url(#clip040)" style="stroke:#000000; stroke-width:4; stroke-opacity:1; fill:none" points="
  2248.5,1445.72 2223.46,1445.72 
  "/>
<polyline clip-path="url(#clip040)" style="stroke:#000000; stroke-width:4; stroke-opacity:1; fill:none" points="
  2248.5,1102.57 2223.46,1102.57 
  "/>
<polyline clip-path="url(#clip040)" style="stroke:#000000; stroke-width:4; stroke-opacity:1; fill:none" points="
  2248.5,759.434 2223.46,759.434 
  "/>
<polyline clip-path="url(#clip040)" style="stroke:#000000; stroke-width:4; stroke-opacity:1; fill:none" points="
  2248.5,416.293 2223.46,416.293 
  "/>
<polyline clip-path="url(#clip040)" style="stroke:#000000; stroke-width:4; stroke-opacity:1; fill:none" points="
  2248.5,73.1526 2223.46,73.1526 
  "/>
<path clip-path="url(#clip040)" d="M 0 0 M220.662 1508.44 Q217.05 1508.44 215.222 1512 Q213.416 1515.55 213.416 1522.67 Q213.416 1529.78 215.222 1533.35 Q217.05 1536.89 220.662 1536.89 Q224.296 1536.89 226.101 1533.35 Q227.93 1529.78 227.93 1522.67 Q227.93 1515.55 226.101 1512 Q224.296 1508.44 220.662 1508.44 M220.662 1504.73 Q226.472 1504.73 229.527 1509.34 Q232.606 1513.92 232.606 1522.67 Q232.606 1531.4 229.527 1536.01 Q226.472 1540.59 220.662 1540.59 Q214.851 1540.59 211.773 1536.01 Q208.717 1531.4 208.717 1522.67 Q208.717 1513.92 211.773 1509.34 Q214.851 1504.73 220.662 1504.73 Z" fill="#000000" fill-rule="evenodd" fill-opacity="1" /><path clip-path="url(#clip040)" d="M 0 0 M694.5 1535.98 L710.819 1535.98 L710.819 1539.92 L688.875 1539.92 L688.875 1535.98 Q691.537 1533.23 696.12 1528.6 Q700.727 1523.95 701.907 1522.61 Q704.153 1520.08 705.032 1518.35 Q705.935 1516.59 705.935 1514.9 Q705.935 1512.14 703.991 1510.41 Q702.069 1508.67 698.968 1508.67 Q696.768 1508.67 694.315 1509.43 Q691.884 1510.2 689.106 1511.75 L689.106 1507.03 Q691.931 1505.89 694.384 1505.31 Q696.838 1504.73 698.875 1504.73 Q704.245 1504.73 707.44 1507.42 Q710.634 1510.11 710.634 1514.6 Q710.634 1516.73 709.824 1518.65 Q709.037 1520.54 706.93 1523.14 Q706.352 1523.81 703.25 1527.03 Q700.148 1530.22 694.5 1535.98 Z" fill="#000000" fill-rule="evenodd" fill-opacity="1" /><path clip-path="url(#clip040)" d="M 0 0 M715.935 1505.36 L734.291 1505.36 L734.291 1509.3 L720.217 1509.3 L720.217 1517.77 Q721.236 1517.42 722.254 1517.26 Q723.273 1517.07 724.291 1517.07 Q730.078 1517.07 733.458 1520.24 Q736.838 1523.42 736.838 1528.83 Q736.838 1534.41 733.365 1537.51 Q729.893 1540.59 723.574 1540.59 Q721.398 1540.59 719.129 1540.22 Q716.884 1539.85 714.477 1539.11 L714.477 1534.41 Q716.56 1535.54 718.782 1536.1 Q721.004 1536.66 723.481 1536.66 Q727.486 1536.66 729.824 1534.55 Q732.162 1532.44 732.162 1528.83 Q732.162 1525.22 729.824 1523.11 Q727.486 1521.01 723.481 1521.01 Q721.606 1521.01 719.731 1521.42 Q717.879 1521.84 715.935 1522.72 L715.935 1505.36 Z" fill="#000000" fill-rule="evenodd" fill-opacity="1" /><path clip-path="url(#clip040)" d="M 0 0 M1181.82 1505.36 L1200.18 1505.36 L1200.18 1509.3 L1186.1 1509.3 L1186.1 1517.77 Q1187.12 1517.42 1188.14 1517.26 Q1189.16 1517.07 1190.18 1517.07 Q1195.97 1517.07 1199.35 1520.24 Q1202.72 1523.42 1202.72 1528.83 Q1202.72 1534.41 1199.25 1537.51 Q1195.78 1540.59 1189.46 1540.59 Q1187.28 1540.59 1185.02 1540.22 Q1182.77 1539.85 1180.36 1539.11 L1180.36 1534.41 Q1182.45 1535.54 1184.67 1536.1 Q1186.89 1536.66 1189.37 1536.66 Q1193.37 1536.66 1195.71 1534.55 Q1198.05 1532.44 1198.05 1528.83 Q1198.05 1525.22 1195.71 1523.11 Q1193.37 1521.01 1189.37 1521.01 Q1187.49 1521.01 1185.62 1521.42 Q1183.77 1521.84 1181.82 1522.72 L1181.82 1505.36 Z" fill="#000000" fill-rule="evenodd" fill-opacity="1" /><path clip-path="url(#clip040)" d="M 0 0 M1217.79 1508.44 Q1214.18 1508.44 1212.35 1512 Q1210.55 1515.55 1210.55 1522.67 Q1210.55 1529.78 1212.35 1533.35 Q1214.18 1536.89 1217.79 1536.89 Q1221.43 1536.89 1223.23 1533.35 Q1225.06 1529.78 1225.06 1522.67 Q1225.06 1515.55 1223.23 1512 Q1221.43 1508.44 1217.79 1508.44 M1217.79 1504.73 Q1223.6 1504.73 1226.66 1509.34 Q1229.74 1513.92 1229.74 1522.67 Q1229.74 1531.4 1226.66 1536.01 Q1223.6 1540.59 1217.79 1540.59 Q1211.98 1540.59 1208.91 1536.01 Q1205.85 1531.4 1205.85 1522.67 Q1205.85 1513.92 1208.91 1509.34 Q1211.98 1504.73 1217.79 1504.73 Z" fill="#000000" fill-rule="evenodd" fill-opacity="1" /><path clip-path="url(#clip040)" d="M 0 0 M1673.13 1505.36 L1695.35 1505.36 L1695.35 1507.35 L1682.8 1539.92 L1677.92 1539.92 L1689.72 1509.3 L1673.13 1509.3 L1673.13 1505.36 Z" fill="#000000" fill-rule="evenodd" fill-opacity="1" /><path clip-path="url(#clip040)" d="M 0 0 M1700.46 1505.36 L1718.82 1505.36 L1718.82 1509.3 L1704.75 1509.3 L1704.75 1517.77 Q1705.76 1517.42 1706.78 1517.26 Q1707.8 1517.07 1708.82 1517.07 Q1714.61 1517.07 1717.99 1520.24 Q1721.37 1523.42 1721.37 1528.83 Q1721.37 1534.41 1717.89 1537.51 Q1714.42 1540.59 1708.1 1540.59 Q1705.93 1540.59 1703.66 1540.22 Q1701.41 1539.85 1699.01 1539.11 L1699.01 1534.41 Q1701.09 1535.54 1703.31 1536.1 Q1705.53 1536.66 1708.01 1536.66 Q1712.01 1536.66 1714.35 1534.55 Q1716.69 1532.44 1716.69 1528.83 Q1716.69 1525.22 1714.35 1523.11 Q1712.01 1521.01 1708.01 1521.01 Q1706.13 1521.01 1704.26 1521.42 Q1702.41 1521.84 1700.46 1522.72 L1700.46 1505.36 Z" fill="#000000" fill-rule="evenodd" fill-opacity="1" /><path clip-path="url(#clip040)" d="M 0 0 M2152.81 1535.98 L2160.45 1535.98 L2160.45 1509.62 L2152.14 1511.29 L2152.14 1507.03 L2160.4 1505.36 L2165.08 1505.36 L2165.08 1535.98 L2172.72 1535.98 L2172.72 1539.92 L2152.81 1539.92 L2152.81 1535.98 Z" fill="#000000" fill-rule="evenodd" fill-opacity="1" /><path clip-path="url(#clip040)" d="M 0 0 M2187.79 1508.44 Q2184.17 1508.44 2182.35 1512 Q2180.54 1515.55 2180.54 1522.67 Q2180.54 1529.78 2182.35 1533.35 Q2184.17 1536.89 2187.79 1536.89 Q2191.42 1536.89 2193.23 1533.35 Q2195.05 1529.78 2195.05 1522.67 Q2195.05 1515.55 2193.23 1512 Q2191.42 1508.44 2187.79 1508.44 M2187.79 1504.73 Q2193.6 1504.73 2196.65 1509.34 Q2199.73 1513.92 2199.73 1522.67 Q2199.73 1531.4 2196.65 1536.01 Q2193.6 1540.59 2187.79 1540.59 Q2181.98 1540.59 2178.9 1536.01 Q2175.84 1531.4 2175.84 1522.67 Q2175.84 1513.92 2178.9 1509.34 Q2181.98 1504.73 2187.79 1504.73 Z" fill="#000000" fill-rule="evenodd" fill-opacity="1" /><path clip-path="url(#clip040)" d="M 0 0 M2214.8 1508.44 Q2211.19 1508.44 2209.36 1512 Q2207.55 1515.55 2207.55 1522.67 Q2207.55 1529.78 2209.36 1533.35 Q2211.19 1536.89 2214.8 1536.89 Q2218.43 1536.89 2220.24 1533.35 Q2222.07 1529.78 2222.07 1522.67 Q2222.07 1515.55 2220.24 1512 Q2218.43 1508.44 2214.8 1508.44 M2214.8 1504.73 Q2220.61 1504.73 2223.66 1509.34 Q2226.74 1513.92 2226.74 1522.67 Q2226.74 1531.4 2223.66 1536.01 Q2220.61 1540.59 2214.8 1540.59 Q2208.99 1540.59 2205.91 1536.01 Q2202.85 1531.4 2202.85 1522.67 Q2202.85 1513.92 2205.91 1509.34 Q2208.99 1504.73 2214.8 1504.73 Z" fill="#000000" fill-rule="evenodd" fill-opacity="1" /><path clip-path="url(#clip040)" d="M 0 0 M2284.45 1431.51 Q2280.84 1431.51 2279.01 1435.08 Q2277.2 1438.62 2277.2 1445.75 Q2277.2 1452.86 2279.01 1456.42 Q2280.84 1459.96 2284.45 1459.96 Q2288.08 1459.96 2289.89 1456.42 Q2291.72 1452.86 2291.72 1445.75 Q2291.72 1438.62 2289.89 1435.08 Q2288.08 1431.51 2284.45 1431.51 M2284.45 1427.81 Q2290.26 1427.81 2293.31 1432.42 Q2296.39 1437 2296.39 1445.75 Q2296.39 1454.48 2293.31 1459.08 Q2290.26 1463.67 2284.45 1463.67 Q2278.64 1463.67 2275.56 1459.08 Q2272.5 1454.48 2272.5 1445.75 Q2272.5 1437 2275.56 1432.42 Q2278.64 1427.81 2284.45 1427.81 Z" fill="#000000" fill-rule="evenodd" fill-opacity="1" /><path clip-path="url(#clip040)" d="M 0 0 M2301.46 1457.12 L2306.35 1457.12 L2306.35 1463 L2301.46 1463 L2301.46 1457.12 Z" fill="#000000" fill-rule="evenodd" fill-opacity="1" /><path clip-path="url(#clip040)" d="M 0 0 M2321.42 1431.51 Q2317.8 1431.51 2315.98 1435.08 Q2314.17 1438.62 2314.17 1445.75 Q2314.17 1452.86 2315.98 1456.42 Q2317.8 1459.96 2321.42 1459.96 Q2325.05 1459.96 2326.86 1456.42 Q2328.68 1452.86 2328.68 1445.75 Q2328.68 1438.62 2326.86 1435.08 Q2325.05 1431.51 2321.42 1431.51 M2321.42 1427.81 Q2327.23 1427.81 2330.28 1432.42 Q2333.36 1437 2333.36 1445.75 Q2333.36 1454.48 2330.28 1459.08 Q2327.23 1463.67 2321.42 1463.67 Q2315.61 1463.67 2312.53 1459.08 Q2309.47 1454.48 2309.47 1445.75 Q2309.47 1437 2312.53 1432.42 Q2315.61 1427.81 2321.42 1427.81 Z" fill="#000000" fill-rule="evenodd" fill-opacity="1" /><path clip-path="url(#clip040)" d="M 0 0 M2278.13 1115.92 L2294.45 1115.92 L2294.45 1119.85 L2272.5 1119.85 L2272.5 1115.92 Q2275.17 1113.17 2279.75 1108.54 Q2284.36 1103.88 2285.54 1102.54 Q2287.78 1100.02 2288.66 1098.28 Q2289.56 1096.52 2289.56 1094.83 Q2289.56 1092.08 2287.62 1090.34 Q2285.7 1088.61 2282.6 1088.61 Q2280.4 1088.61 2277.94 1089.37 Q2275.51 1090.13 2272.74 1091.68 L2272.74 1086.96 Q2275.56 1085.83 2278.01 1085.25 Q2280.47 1084.67 2282.5 1084.67 Q2287.87 1084.67 2291.07 1087.36 Q2294.26 1090.04 2294.26 1094.53 Q2294.26 1096.66 2293.45 1098.58 Q2292.67 1100.48 2290.56 1103.07 Q2289.98 1103.74 2286.88 1106.96 Q2283.78 1110.16 2278.13 1115.92 Z" fill="#000000" fill-rule="evenodd" fill-opacity="1" /><path clip-path="url(#clip040)" d="M 0 0 M2299.52 1113.98 L2304.4 1113.98 L2304.4 1119.85 L2299.52 1119.85 L2299.52 1113.98 Z" fill="#000000" fill-rule="evenodd" fill-opacity="1" /><path clip-path="url(#clip040)" d="M 0 0 M2309.52 1085.29 L2327.87 1085.29 L2327.87 1089.23 L2313.8 1089.23 L2313.8 1097.7 Q2314.82 1097.36 2315.84 1097.19 Q2316.86 1097.01 2317.87 1097.01 Q2323.66 1097.01 2327.04 1100.18 Q2330.42 1103.35 2330.42 1108.77 Q2330.42 1114.35 2326.95 1117.45 Q2323.48 1120.53 2317.16 1120.53 Q2314.98 1120.53 2312.71 1120.16 Q2310.47 1119.79 2308.06 1119.04 L2308.06 1114.35 Q2310.14 1115.48 2312.36 1116.04 Q2314.59 1116.59 2317.06 1116.59 Q2321.07 1116.59 2323.41 1114.48 Q2325.74 1112.38 2325.74 1108.77 Q2325.74 1105.16 2323.41 1103.05 Q2321.07 1100.94 2317.06 1100.94 Q2315.19 1100.94 2313.31 1101.36 Q2311.46 1101.78 2309.52 1102.66 L2309.52 1085.29 Z" fill="#000000" fill-rule="evenodd" fill-opacity="1" /><path clip-path="url(#clip040)" d="M 0 0 M2273.96 742.154 L2292.32 742.154 L2292.32 746.089 L2278.24 746.089 L2278.24 754.561 Q2279.26 754.214 2280.28 754.052 Q2281.3 753.867 2282.32 753.867 Q2288.11 753.867 2291.49 757.038 Q2294.86 760.21 2294.86 765.626 Q2294.86 771.205 2291.39 774.307 Q2287.92 777.385 2281.6 777.385 Q2279.43 777.385 2277.16 777.015 Q2274.91 776.645 2272.5 775.904 L2272.5 771.205 Q2274.59 772.339 2276.81 772.895 Q2279.03 773.45 2281.51 773.45 Q2285.51 773.45 2287.85 771.344 Q2290.19 769.237 2290.19 765.626 Q2290.19 762.015 2287.85 759.909 Q2285.51 757.802 2281.51 757.802 Q2279.63 757.802 2277.76 758.219 Q2275.91 758.636 2273.96 759.515 L2273.96 742.154 Z" fill="#000000" fill-rule="evenodd" fill-opacity="1" /><path clip-path="url(#clip040)" d="M 0 0 M2299.93 770.835 L2304.82 770.835 L2304.82 776.714 L2299.93 776.714 L2299.93 770.835 Z" fill="#000000" fill-rule="evenodd" fill-opacity="1" /><path clip-path="url(#clip040)" d="M 0 0 M2319.89 745.233 Q2316.28 745.233 2314.45 748.798 Q2312.64 752.339 2312.64 759.469 Q2312.64 766.575 2314.45 770.14 Q2316.28 773.682 2319.89 773.682 Q2323.52 773.682 2325.33 770.14 Q2327.16 766.575 2327.16 759.469 Q2327.16 752.339 2325.33 748.798 Q2323.52 745.233 2319.89 745.233 M2319.89 741.529 Q2325.7 741.529 2328.75 746.136 Q2331.83 750.719 2331.83 759.469 Q2331.83 768.196 2328.75 772.802 Q2325.7 777.385 2319.89 777.385 Q2314.08 777.385 2311 772.802 Q2307.94 768.196 2307.94 759.469 Q2307.94 750.719 2311 746.136 Q2314.08 741.529 2319.89 741.529 Z" fill="#000000" fill-rule="evenodd" fill-opacity="1" /><path clip-path="url(#clip040)" d="M 0 0 M2272.5 399.013 L2294.73 399.013 L2294.73 401.004 L2282.18 433.573 L2277.3 433.573 L2289.1 402.949 L2272.5 402.949 L2272.5 399.013 Z" fill="#000000" fill-rule="evenodd" fill-opacity="1" /><path clip-path="url(#clip040)" d="M 0 0 M2299.8 427.694 L2304.68 427.694 L2304.68 433.573 L2299.8 433.573 L2299.8 427.694 Z" fill="#000000" fill-rule="evenodd" fill-opacity="1" /><path clip-path="url(#clip040)" d="M 0 0 M2309.8 399.013 L2328.15 399.013 L2328.15 402.949 L2314.08 402.949 L2314.08 411.421 Q2315.1 411.073 2316.11 410.911 Q2317.13 410.726 2318.15 410.726 Q2323.94 410.726 2327.32 413.898 Q2330.7 417.069 2330.7 422.485 Q2330.7 428.064 2327.23 431.166 Q2323.75 434.245 2317.43 434.245 Q2315.26 434.245 2312.99 433.874 Q2310.74 433.504 2308.34 432.763 L2308.34 428.064 Q2310.42 429.198 2312.64 429.754 Q2314.86 430.309 2317.34 430.309 Q2321.35 430.309 2323.68 428.203 Q2326.02 426.097 2326.02 422.485 Q2326.02 418.874 2323.68 416.768 Q2321.35 414.661 2317.34 414.661 Q2315.47 414.661 2313.59 415.078 Q2311.74 415.495 2309.8 416.374 L2309.8 399.013 Z" fill="#000000" fill-rule="evenodd" fill-opacity="1" /><path clip-path="url(#clip040)" d="M 0 0 M2273.18 86.4974 L2280.81 86.4974 L2280.81 60.1318 L2272.5 61.7985 L2272.5 57.5393 L2280.77 55.8726 L2285.44 55.8726 L2285.44 86.4974 L2293.08 86.4974 L2293.08 90.4326 L2273.18 90.4326 L2273.18 86.4974 Z" fill="#000000" fill-rule="evenodd" fill-opacity="1" /><path clip-path="url(#clip040)" d="M 0 0 M2308.15 58.9513 Q2304.54 58.9513 2302.71 62.5161 Q2300.91 66.0577 2300.91 73.1873 Q2300.91 80.2938 2302.71 83.8586 Q2304.54 87.4002 2308.15 87.4002 Q2311.79 87.4002 2313.59 83.8586 Q2315.42 80.2938 2315.42 73.1873 Q2315.42 66.0577 2313.59 62.5161 Q2311.79 58.9513 2308.15 58.9513 M2308.15 55.2476 Q2313.96 55.2476 2317.02 59.8541 Q2320.1 64.4374 2320.1 73.1873 Q2320.1 81.9141 2317.02 86.5206 Q2313.96 91.1039 2308.15 91.1039 Q2302.34 91.1039 2299.26 86.5206 Q2296.21 81.9141 2296.21 73.1873 Q2296.21 64.4374 2299.26 59.8541 Q2302.34 55.2476 2308.15 55.2476 Z" fill="#000000" fill-rule="evenodd" fill-opacity="1" /><path clip-path="url(#clip040)" d="M 0 0 M2325.17 84.553 L2330.05 84.553 L2330.05 90.4326 L2325.17 90.4326 L2325.17 84.553 Z" fill="#000000" fill-rule="evenodd" fill-opacity="1" /><path clip-path="url(#clip040)" d="M 0 0 M2345.12 58.9513 Q2341.51 58.9513 2339.68 62.5161 Q2337.87 66.0577 2337.87 73.1873 Q2337.87 80.2938 2339.68 83.8586 Q2341.51 87.4002 2345.12 87.4002 Q2348.75 87.4002 2350.56 83.8586 Q2352.39 80.2938 2352.39 73.1873 Q2352.39 66.0577 2350.56 62.5161 Q2348.75 58.9513 2345.12 58.9513 M2345.12 55.2476 Q2350.93 55.2476 2353.98 59.8541 Q2357.06 64.4374 2357.06 73.1873 Q2357.06 81.9141 2353.98 86.5206 Q2350.93 91.1039 2345.12 91.1039 Q2339.31 91.1039 2336.23 86.5206 Q2333.17 81.9141 2333.17 73.1873 Q2333.17 64.4374 2336.23 59.8541 Q2339.31 55.2476 2345.12 55.2476 Z" fill="#000000" fill-rule="evenodd" fill-opacity="1" /><polyline clip-path="url(#clip042)" style="stroke:#009af9; stroke-width:4; stroke-opacity:1; fill:none" points="
  220.662,1445.72 319.101,1445.72 417.539,1443.52 515.978,1414.42 614.417,1291.99 712.856,1057.55 811.295,775.356 909.734,556.295 1008.17,399.274 1106.61,299.351 
  1205.05,235.664 1303.49,188.448 1401.93,159.899 1500.37,142.33 1598.81,126.408 1697.25,114.879 1795.68,106.094 1894.12,98.9568 1992.56,94.5646 2091,89.6234 
  2189.44,87.9763 
  "/>
<path clip-path="url(#clip040)" d="
M1885.86 251.724 L2176.5 251.724 L2176.5 130.764 L1885.86 130.764  Z
  " fill="#ffffff" fill-rule="evenodd" fill-opacity="1"/>
<polyline clip-path="url(#clip040)" style="stroke:#000000; stroke-width:4; stroke-opacity:1; fill:none" points="
  1885.86,251.724 2176.5,251.724 2176.5,130.764 1885.86,130.764 1885.86,251.724 
  "/>
<polyline clip-path="url(#clip040)" style="stroke:#009af9; stroke-width:4; stroke-opacity:1; fill:none" points="
  1909.86,191.244 2053.86,191.244 
  "/>
<path clip-path="url(#clip040)" d="M 0 0 M2091.7 210.931 Q2089.89 215.561 2088.18 216.973 Q2086.47 218.385 2083.6 218.385 L2080.19 218.385 L2080.19 214.82 L2082.69 214.82 Q2084.45 214.82 2085.43 213.987 Q2086.4 213.154 2087.58 210.052 L2088.34 208.107 L2077.86 182.598 L2082.37 182.598 L2090.47 202.876 L2098.57 182.598 L2103.09 182.598 L2091.7 210.931 Z" fill="#000000" fill-rule="evenodd" fill-opacity="1" /><path clip-path="url(#clip040)" d="M 0 0 M2112.18 204.589 L2128.5 204.589 L2128.5 208.524 L2106.56 208.524 L2106.56 204.589 Q2109.22 201.834 2113.8 197.205 Q2118.41 192.552 2119.59 191.209 Q2121.84 188.686 2122.72 186.95 Q2123.62 185.191 2123.62 183.501 Q2123.62 180.746 2121.68 179.01 Q2119.75 177.274 2116.65 177.274 Q2114.45 177.274 2112 178.038 Q2109.57 178.802 2106.79 180.353 L2106.79 175.631 Q2109.62 174.496 2112.07 173.918 Q2114.52 173.339 2116.56 173.339 Q2121.93 173.339 2125.12 176.024 Q2128.32 178.709 2128.32 183.2 Q2128.32 185.33 2127.51 187.251 Q2126.72 189.149 2124.62 191.742 Q2124.04 192.413 2120.93 195.631 Q2117.83 198.825 2112.18 204.589 Z" fill="#000000" fill-rule="evenodd" fill-opacity="1" /></svg>
